G04 #@! TF.GenerationSoftware,KiCad,Pcbnew,(6.0.10-0)*
G04 #@! TF.CreationDate,2023-05-27T15:51:09-07:00*
G04 #@! TF.ProjectId,YonderDeep,596f6e64-6572-4446-9565-702e6b696361,rev?*
G04 #@! TF.SameCoordinates,Original*
G04 #@! TF.FileFunction,Legend,Top*
G04 #@! TF.FilePolarity,Positive*
%FSLAX46Y46*%
G04 Gerber Fmt 4.6, Leading zero omitted, Abs format (unit mm)*
G04 Created by KiCad (PCBNEW (6.0.10-0)) date 2023-05-27 15:51:09*
%MOMM*%
%LPD*%
G01*
G04 APERTURE LIST*
%ADD10C,0.120000*%
%ADD11C,0.150000*%
G04 APERTURE END LIST*
D10*
X118410000Y-61227381D02*
X118410000Y-82057381D01*
X145190000Y-82057381D02*
X145190000Y-61240000D01*
X118410000Y-61200000D02*
X129040000Y-61300000D01*
X151010000Y-59240000D02*
X162380000Y-59240000D01*
X162380000Y-59240000D02*
X162380000Y-92440000D01*
X162380000Y-92440000D02*
X151010000Y-92440000D01*
X151010000Y-92440000D02*
X151010000Y-59240000D01*
X145200000Y-82010000D02*
X137060000Y-82020000D01*
X145180000Y-61220000D02*
X145180000Y-82090000D01*
X145120000Y-61330000D02*
X137240000Y-61290000D01*
X118410000Y-82057381D02*
X123870000Y-82050000D01*
D11*
X160220000Y-65371904D02*
X160172380Y-65467142D01*
X160172380Y-65610000D01*
X160220000Y-65752857D01*
X160315238Y-65848095D01*
X160410476Y-65895714D01*
X160600952Y-65943333D01*
X160743809Y-65943333D01*
X160934285Y-65895714D01*
X161029523Y-65848095D01*
X161124761Y-65752857D01*
X161172380Y-65610000D01*
X161172380Y-65514761D01*
X161124761Y-65371904D01*
X161077142Y-65324285D01*
X160743809Y-65324285D01*
X160743809Y-65514761D01*
X161172380Y-64895714D02*
X160172380Y-64895714D01*
X161172380Y-64324285D01*
X160172380Y-64324285D01*
X161172380Y-63848095D02*
X160172380Y-63848095D01*
X160172380Y-63610000D01*
X160220000Y-63467142D01*
X160315238Y-63371904D01*
X160410476Y-63324285D01*
X160600952Y-63276666D01*
X160743809Y-63276666D01*
X160934285Y-63324285D01*
X161029523Y-63371904D01*
X161124761Y-63467142D01*
X161172380Y-63610000D01*
X161172380Y-63848095D01*
X130842380Y-67170475D02*
X129842380Y-67170475D01*
X129842380Y-66789523D01*
X129890000Y-66694285D01*
X129937619Y-66646666D01*
X130032857Y-66599047D01*
X130175714Y-66599047D01*
X130270952Y-66646666D01*
X130318571Y-66694285D01*
X130366190Y-66789523D01*
X130366190Y-67170475D01*
X130794761Y-66218094D02*
X130842380Y-66075237D01*
X130842380Y-65837142D01*
X130794761Y-65741904D01*
X130747142Y-65694285D01*
X130651904Y-65646666D01*
X130556666Y-65646666D01*
X130461428Y-65694285D01*
X130413809Y-65741904D01*
X130366190Y-65837142D01*
X130318571Y-66027618D01*
X130270952Y-66122856D01*
X130223333Y-66170475D01*
X130128095Y-66218094D01*
X130032857Y-66218094D01*
X129937619Y-66170475D01*
X129890000Y-66122856D01*
X129842380Y-66027618D01*
X129842380Y-65789523D01*
X129890000Y-65646666D01*
X130842380Y-64694285D02*
X130842380Y-65265713D01*
X130842380Y-64979999D02*
X129842380Y-64979999D01*
X129985238Y-65075237D01*
X130080476Y-65170475D01*
X130128095Y-65265713D01*
X158374761Y-65904285D02*
X158422380Y-65761428D01*
X158422380Y-65523333D01*
X158374761Y-65428095D01*
X158327142Y-65380476D01*
X158231904Y-65332857D01*
X158136666Y-65332857D01*
X158041428Y-65380476D01*
X157993809Y-65428095D01*
X157946190Y-65523333D01*
X157898571Y-65713809D01*
X157850952Y-65809047D01*
X157803333Y-65856666D01*
X157708095Y-65904285D01*
X157612857Y-65904285D01*
X157517619Y-65856666D01*
X157470000Y-65809047D01*
X157422380Y-65713809D01*
X157422380Y-65475714D01*
X157470000Y-65332857D01*
X158422380Y-64904285D02*
X157422380Y-64904285D01*
X157422380Y-64666190D01*
X157470000Y-64523333D01*
X157565238Y-64428095D01*
X157660476Y-64380476D01*
X157850952Y-64332857D01*
X157993809Y-64332857D01*
X158184285Y-64380476D01*
X158279523Y-64428095D01*
X158374761Y-64523333D01*
X158422380Y-64666190D01*
X158422380Y-64904285D01*
X158136666Y-63951904D02*
X158136666Y-63475714D01*
X158422380Y-64047142D02*
X157422380Y-63713809D01*
X158422380Y-63380476D01*
X109134761Y-59320476D02*
X109182380Y-59177619D01*
X109182380Y-58939523D01*
X109134761Y-58844285D01*
X109087142Y-58796666D01*
X108991904Y-58749047D01*
X108896666Y-58749047D01*
X108801428Y-58796666D01*
X108753809Y-58844285D01*
X108706190Y-58939523D01*
X108658571Y-59130000D01*
X108610952Y-59225238D01*
X108563333Y-59272857D01*
X108468095Y-59320476D01*
X108372857Y-59320476D01*
X108277619Y-59272857D01*
X108230000Y-59225238D01*
X108182380Y-59130000D01*
X108182380Y-58891904D01*
X108230000Y-58749047D01*
X109087142Y-57749047D02*
X109134761Y-57796666D01*
X109182380Y-57939523D01*
X109182380Y-58034761D01*
X109134761Y-58177619D01*
X109039523Y-58272857D01*
X108944285Y-58320476D01*
X108753809Y-58368095D01*
X108610952Y-58368095D01*
X108420476Y-58320476D01*
X108325238Y-58272857D01*
X108230000Y-58177619D01*
X108182380Y-58034761D01*
X108182380Y-57939523D01*
X108230000Y-57796666D01*
X108277619Y-57749047D01*
X109182380Y-56844285D02*
X109182380Y-57320476D01*
X108182380Y-57320476D01*
X124045714Y-57932380D02*
X123569523Y-57932380D01*
X123521904Y-58408571D01*
X123569523Y-58360952D01*
X123664761Y-58313333D01*
X123902857Y-58313333D01*
X123998095Y-58360952D01*
X124045714Y-58408571D01*
X124093333Y-58503809D01*
X124093333Y-58741904D01*
X124045714Y-58837142D01*
X123998095Y-58884761D01*
X123902857Y-58932380D01*
X123664761Y-58932380D01*
X123569523Y-58884761D01*
X123521904Y-58837142D01*
X125236190Y-57884761D02*
X124379047Y-59170476D01*
X125521904Y-58027619D02*
X125569523Y-57980000D01*
X125664761Y-57932380D01*
X125902857Y-57932380D01*
X125998095Y-57980000D01*
X126045714Y-58027619D01*
X126093333Y-58122857D01*
X126093333Y-58218095D01*
X126045714Y-58360952D01*
X125474285Y-58932380D01*
X126093333Y-58932380D01*
X126950476Y-57932380D02*
X126760000Y-57932380D01*
X126664761Y-57980000D01*
X126617142Y-58027619D01*
X126521904Y-58170476D01*
X126474285Y-58360952D01*
X126474285Y-58741904D01*
X126521904Y-58837142D01*
X126569523Y-58884761D01*
X126664761Y-58932380D01*
X126855238Y-58932380D01*
X126950476Y-58884761D01*
X126998095Y-58837142D01*
X127045714Y-58741904D01*
X127045714Y-58503809D01*
X126998095Y-58408571D01*
X126950476Y-58360952D01*
X126855238Y-58313333D01*
X126664761Y-58313333D01*
X126569523Y-58360952D01*
X126521904Y-58408571D01*
X126474285Y-58503809D01*
X128188571Y-57884761D02*
X127331428Y-59170476D01*
X128474285Y-58027619D02*
X128521904Y-57980000D01*
X128617142Y-57932380D01*
X128855238Y-57932380D01*
X128950476Y-57980000D01*
X128998095Y-58027619D01*
X129045714Y-58122857D01*
X129045714Y-58218095D01*
X128998095Y-58360952D01*
X128426666Y-58932380D01*
X129045714Y-58932380D01*
X129379047Y-57932380D02*
X129998095Y-57932380D01*
X129664761Y-58313333D01*
X129807619Y-58313333D01*
X129902857Y-58360952D01*
X129950476Y-58408571D01*
X129998095Y-58503809D01*
X129998095Y-58741904D01*
X129950476Y-58837142D01*
X129902857Y-58884761D01*
X129807619Y-58932380D01*
X129521904Y-58932380D01*
X129426666Y-58884761D01*
X129379047Y-58837142D01*
X128159047Y-98981428D02*
X128920952Y-98981428D01*
X128540000Y-99362380D02*
X128540000Y-98600476D01*
X103070000Y-59301904D02*
X103022380Y-59397142D01*
X103022380Y-59540000D01*
X103070000Y-59682857D01*
X103165238Y-59778095D01*
X103260476Y-59825714D01*
X103450952Y-59873333D01*
X103593809Y-59873333D01*
X103784285Y-59825714D01*
X103879523Y-59778095D01*
X103974761Y-59682857D01*
X104022380Y-59540000D01*
X104022380Y-59444761D01*
X103974761Y-59301904D01*
X103927142Y-59254285D01*
X103593809Y-59254285D01*
X103593809Y-59444761D01*
X104022380Y-58825714D02*
X103022380Y-58825714D01*
X104022380Y-58254285D01*
X103022380Y-58254285D01*
X104022380Y-57778095D02*
X103022380Y-57778095D01*
X103022380Y-57540000D01*
X103070000Y-57397142D01*
X103165238Y-57301904D01*
X103260476Y-57254285D01*
X103450952Y-57206666D01*
X103593809Y-57206666D01*
X103784285Y-57254285D01*
X103879523Y-57301904D01*
X103974761Y-57397142D01*
X104022380Y-57540000D01*
X104022380Y-57778095D01*
X138642380Y-78077619D02*
X138166190Y-78410952D01*
X138642380Y-78649047D02*
X137642380Y-78649047D01*
X137642380Y-78268095D01*
X137690000Y-78172857D01*
X137737619Y-78125238D01*
X137832857Y-78077619D01*
X137975714Y-78077619D01*
X138070952Y-78125238D01*
X138118571Y-78172857D01*
X138166190Y-78268095D01*
X138166190Y-78649047D01*
X138594761Y-77696666D02*
X138642380Y-77553809D01*
X138642380Y-77315714D01*
X138594761Y-77220476D01*
X138547142Y-77172857D01*
X138451904Y-77125238D01*
X138356666Y-77125238D01*
X138261428Y-77172857D01*
X138213809Y-77220476D01*
X138166190Y-77315714D01*
X138118571Y-77506190D01*
X138070952Y-77601428D01*
X138023333Y-77649047D01*
X137928095Y-77696666D01*
X137832857Y-77696666D01*
X137737619Y-77649047D01*
X137690000Y-77601428D01*
X137642380Y-77506190D01*
X137642380Y-77268095D01*
X137690000Y-77125238D01*
X137642380Y-76839523D02*
X137642380Y-76268095D01*
X138642380Y-76553809D02*
X137642380Y-76553809D01*
X150619047Y-98981428D02*
X151380952Y-98981428D01*
X151000000Y-99362380D02*
X151000000Y-98600476D01*
X124942380Y-78791905D02*
X125942380Y-78458572D01*
X124942380Y-78125238D01*
X125942380Y-77791905D02*
X125275714Y-77791905D01*
X124942380Y-77791905D02*
X124990000Y-77839524D01*
X125037619Y-77791905D01*
X124990000Y-77744286D01*
X124942380Y-77791905D01*
X125037619Y-77791905D01*
X125275714Y-77315715D02*
X125942380Y-77315715D01*
X125370952Y-77315715D02*
X125323333Y-77268096D01*
X125275714Y-77172857D01*
X125275714Y-77030000D01*
X125323333Y-76934762D01*
X125418571Y-76887143D01*
X125942380Y-76887143D01*
X107891428Y-90000952D02*
X107891428Y-89239047D01*
X154491428Y-51740952D02*
X154491428Y-50979047D01*
X105562380Y-58480476D02*
X105562380Y-58956666D01*
X106038571Y-59004285D01*
X105990952Y-58956666D01*
X105943333Y-58861428D01*
X105943333Y-58623333D01*
X105990952Y-58528095D01*
X106038571Y-58480476D01*
X106133809Y-58432857D01*
X106371904Y-58432857D01*
X106467142Y-58480476D01*
X106514761Y-58528095D01*
X106562380Y-58623333D01*
X106562380Y-58861428D01*
X106514761Y-58956666D01*
X106467142Y-59004285D01*
X105562380Y-58147142D02*
X106562380Y-57813809D01*
X105562380Y-57480476D01*
X107419047Y-84411428D02*
X108180952Y-84411428D01*
X107800000Y-84792380D02*
X107800000Y-84030476D01*
X133119047Y-98981428D02*
X133880952Y-98981428D01*
X111674761Y-59504285D02*
X111722380Y-59361428D01*
X111722380Y-59123333D01*
X111674761Y-59028095D01*
X111627142Y-58980476D01*
X111531904Y-58932857D01*
X111436666Y-58932857D01*
X111341428Y-58980476D01*
X111293809Y-59028095D01*
X111246190Y-59123333D01*
X111198571Y-59313809D01*
X111150952Y-59409047D01*
X111103333Y-59456666D01*
X111008095Y-59504285D01*
X110912857Y-59504285D01*
X110817619Y-59456666D01*
X110770000Y-59409047D01*
X110722380Y-59313809D01*
X110722380Y-59075714D01*
X110770000Y-58932857D01*
X111722380Y-58504285D02*
X110722380Y-58504285D01*
X110722380Y-58266190D01*
X110770000Y-58123333D01*
X110865238Y-58028095D01*
X110960476Y-57980476D01*
X111150952Y-57932857D01*
X111293809Y-57932857D01*
X111484285Y-57980476D01*
X111579523Y-58028095D01*
X111674761Y-58123333D01*
X111722380Y-58266190D01*
X111722380Y-58504285D01*
X111436666Y-57551904D02*
X111436666Y-57075714D01*
X111722380Y-57647142D02*
X110722380Y-57313809D01*
X111722380Y-56980476D01*
X139839047Y-99101428D02*
X140600952Y-99101428D01*
X140220000Y-99482380D02*
X140220000Y-98720476D01*
X144789047Y-99051428D02*
X145550952Y-99051428D01*
X130040000Y-78125238D02*
X129992380Y-78220476D01*
X129992380Y-78363334D01*
X130040000Y-78506191D01*
X130135238Y-78601429D01*
X130230476Y-78649048D01*
X130420952Y-78696667D01*
X130563809Y-78696667D01*
X130754285Y-78649048D01*
X130849523Y-78601429D01*
X130944761Y-78506191D01*
X130992380Y-78363334D01*
X130992380Y-78268095D01*
X130944761Y-78125238D01*
X130897142Y-78077619D01*
X130563809Y-78077619D01*
X130563809Y-78268095D01*
X130992380Y-77649048D02*
X129992380Y-77649048D01*
X130992380Y-77077619D01*
X129992380Y-77077619D01*
X130992380Y-76601429D02*
X129992380Y-76601429D01*
X129992380Y-76363334D01*
X130040000Y-76220476D01*
X130135238Y-76125238D01*
X130230476Y-76077619D01*
X130420952Y-76030000D01*
X130563809Y-76030000D01*
X130754285Y-76077619D01*
X130849523Y-76125238D01*
X130944761Y-76220476D01*
X130992380Y-76363334D01*
X130992380Y-76601429D01*
X155649047Y-98981428D02*
X156410952Y-98981428D01*
X134022380Y-66551427D02*
X133022380Y-66551427D01*
X134022380Y-66075237D02*
X133022380Y-66075237D01*
X134022380Y-65503808D01*
X133022380Y-65503808D01*
X133022380Y-65170475D02*
X133022380Y-64599046D01*
X134022380Y-64884761D02*
X133022380Y-64884761D01*
X152172380Y-66283333D02*
X153172380Y-65950000D01*
X152172380Y-65616666D01*
X153077142Y-64711904D02*
X153124761Y-64759523D01*
X153172380Y-64902380D01*
X153172380Y-64997619D01*
X153124761Y-65140476D01*
X153029523Y-65235714D01*
X152934285Y-65283333D01*
X152743809Y-65330952D01*
X152600952Y-65330952D01*
X152410476Y-65283333D01*
X152315238Y-65235714D01*
X152220000Y-65140476D01*
X152172380Y-64997619D01*
X152172380Y-64902380D01*
X152220000Y-64759523D01*
X152267619Y-64711904D01*
X153077142Y-63711904D02*
X153124761Y-63759523D01*
X153172380Y-63902380D01*
X153172380Y-63997619D01*
X153124761Y-64140476D01*
X153029523Y-64235714D01*
X152934285Y-64283333D01*
X152743809Y-64330952D01*
X152600952Y-64330952D01*
X152410476Y-64283333D01*
X152315238Y-64235714D01*
X152220000Y-64140476D01*
X152172380Y-63997619D01*
X152172380Y-63902380D01*
X152220000Y-63759523D01*
X152267619Y-63711904D01*
X121589047Y-99191428D02*
X122350952Y-99191428D01*
X155874761Y-65970476D02*
X155922380Y-65827619D01*
X155922380Y-65589523D01*
X155874761Y-65494285D01*
X155827142Y-65446666D01*
X155731904Y-65399047D01*
X155636666Y-65399047D01*
X155541428Y-65446666D01*
X155493809Y-65494285D01*
X155446190Y-65589523D01*
X155398571Y-65780000D01*
X155350952Y-65875238D01*
X155303333Y-65922857D01*
X155208095Y-65970476D01*
X155112857Y-65970476D01*
X155017619Y-65922857D01*
X154970000Y-65875238D01*
X154922380Y-65780000D01*
X154922380Y-65541904D01*
X154970000Y-65399047D01*
X155827142Y-64399047D02*
X155874761Y-64446666D01*
X155922380Y-64589523D01*
X155922380Y-64684761D01*
X155874761Y-64827619D01*
X155779523Y-64922857D01*
X155684285Y-64970476D01*
X155493809Y-65018095D01*
X155350952Y-65018095D01*
X155160476Y-64970476D01*
X155065238Y-64922857D01*
X154970000Y-64827619D01*
X154922380Y-64684761D01*
X154922380Y-64589523D01*
X154970000Y-64446666D01*
X155017619Y-64399047D01*
X155922380Y-63494285D02*
X155922380Y-63970476D01*
X154922380Y-63970476D01*
X133614761Y-78696666D02*
X133662380Y-78553809D01*
X133662380Y-78315714D01*
X133614761Y-78220476D01*
X133567142Y-78172857D01*
X133471904Y-78125238D01*
X133376666Y-78125238D01*
X133281428Y-78172857D01*
X133233809Y-78220476D01*
X133186190Y-78315714D01*
X133138571Y-78506190D01*
X133090952Y-78601428D01*
X133043333Y-78649047D01*
X132948095Y-78696666D01*
X132852857Y-78696666D01*
X132757619Y-78649047D01*
X132710000Y-78601428D01*
X132662380Y-78506190D01*
X132662380Y-78268095D01*
X132710000Y-78125238D01*
X133662380Y-77696666D02*
X132662380Y-77696666D01*
X132662380Y-77458571D01*
X132710000Y-77315714D01*
X132805238Y-77220476D01*
X132900476Y-77172857D01*
X133090952Y-77125238D01*
X133233809Y-77125238D01*
X133424285Y-77172857D01*
X133519523Y-77220476D01*
X133614761Y-77315714D01*
X133662380Y-77458571D01*
X133662380Y-77696666D01*
X133376666Y-76744285D02*
X133376666Y-76268095D01*
X133662380Y-76839523D02*
X132662380Y-76506190D01*
X133662380Y-76172857D01*
X159960000Y-87931904D02*
X159912380Y-88027142D01*
X159912380Y-88170000D01*
X159960000Y-88312857D01*
X160055238Y-88408095D01*
X160150476Y-88455714D01*
X160340952Y-88503333D01*
X160483809Y-88503333D01*
X160674285Y-88455714D01*
X160769523Y-88408095D01*
X160864761Y-88312857D01*
X160912380Y-88170000D01*
X160912380Y-88074761D01*
X160864761Y-87931904D01*
X160817142Y-87884285D01*
X160483809Y-87884285D01*
X160483809Y-88074761D01*
X160912380Y-87455714D02*
X159912380Y-87455714D01*
X160912380Y-86884285D01*
X159912380Y-86884285D01*
X160912380Y-86408095D02*
X159912380Y-86408095D01*
X159912380Y-86170000D01*
X159960000Y-86027142D01*
X160055238Y-85931904D01*
X160150476Y-85884285D01*
X160340952Y-85836666D01*
X160483809Y-85836666D01*
X160674285Y-85884285D01*
X160769523Y-85931904D01*
X160864761Y-86027142D01*
X160912380Y-86170000D01*
X160912380Y-86408095D01*
X136406666Y-67170476D02*
X136406666Y-66694285D01*
X136692380Y-67265714D02*
X135692380Y-66932381D01*
X136692380Y-66599047D01*
X136692380Y-66265714D02*
X135692380Y-66265714D01*
X135692380Y-66027619D01*
X135740000Y-65884761D01*
X135835238Y-65789523D01*
X135930476Y-65741904D01*
X136120952Y-65694285D01*
X136263809Y-65694285D01*
X136454285Y-65741904D01*
X136549523Y-65789523D01*
X136644761Y-65884761D01*
X136692380Y-66027619D01*
X136692380Y-66265714D01*
X136692380Y-64694285D02*
X136216190Y-65027619D01*
X136692380Y-65265714D02*
X135692380Y-65265714D01*
X135692380Y-64884761D01*
X135740000Y-64789523D01*
X135787619Y-64741904D01*
X135882857Y-64694285D01*
X136025714Y-64694285D01*
X136120952Y-64741904D01*
X136168571Y-64789523D01*
X136216190Y-64884761D01*
X136216190Y-65265714D01*
X116629047Y-99051428D02*
X117390952Y-99051428D01*
X117010000Y-99432380D02*
X117010000Y-98670476D01*
X127612380Y-78744285D02*
X127612380Y-78125238D01*
X127993333Y-78458571D01*
X127993333Y-78315714D01*
X128040952Y-78220476D01*
X128088571Y-78172857D01*
X128183809Y-78125238D01*
X128421904Y-78125238D01*
X128517142Y-78172857D01*
X128564761Y-78220476D01*
X128612380Y-78315714D01*
X128612380Y-78601428D01*
X128564761Y-78696666D01*
X128517142Y-78744285D01*
X127945714Y-77791904D02*
X128612380Y-77553809D01*
X127945714Y-77315714D01*
X128612380Y-76791904D02*
X128564761Y-76887142D01*
X128517142Y-76934761D01*
X128421904Y-76982380D01*
X128136190Y-76982380D01*
X128040952Y-76934761D01*
X127993333Y-76887142D01*
X127945714Y-76791904D01*
X127945714Y-76649047D01*
X127993333Y-76553809D01*
X128040952Y-76506190D01*
X128136190Y-76458571D01*
X128421904Y-76458571D01*
X128517142Y-76506190D01*
X128564761Y-76553809D01*
X128612380Y-76649047D01*
X128612380Y-76791904D01*
X152172380Y-87610476D02*
X152172380Y-88086666D01*
X152648571Y-88134285D01*
X152600952Y-88086666D01*
X152553333Y-87991428D01*
X152553333Y-87753333D01*
X152600952Y-87658095D01*
X152648571Y-87610476D01*
X152743809Y-87562857D01*
X152981904Y-87562857D01*
X153077142Y-87610476D01*
X153124761Y-87658095D01*
X153172380Y-87753333D01*
X153172380Y-87991428D01*
X153124761Y-88086666D01*
X153077142Y-88134285D01*
X152172380Y-87277142D02*
X153172380Y-86943809D01*
X152172380Y-86610476D01*
X128172380Y-67170475D02*
X127172380Y-67170475D01*
X127172380Y-66789523D01*
X127220000Y-66694285D01*
X127267619Y-66646666D01*
X127362857Y-66599047D01*
X127505714Y-66599047D01*
X127600952Y-66646666D01*
X127648571Y-66694285D01*
X127696190Y-66789523D01*
X127696190Y-67170475D01*
X128124761Y-66218094D02*
X128172380Y-66075237D01*
X128172380Y-65837142D01*
X128124761Y-65741904D01*
X128077142Y-65694285D01*
X127981904Y-65646666D01*
X127886666Y-65646666D01*
X127791428Y-65694285D01*
X127743809Y-65741904D01*
X127696190Y-65837142D01*
X127648571Y-66027618D01*
X127600952Y-66122856D01*
X127553333Y-66170475D01*
X127458095Y-66218094D01*
X127362857Y-66218094D01*
X127267619Y-66170475D01*
X127220000Y-66122856D01*
X127172380Y-66027618D01*
X127172380Y-65789523D01*
X127220000Y-65646666D01*
X127172380Y-65027618D02*
X127172380Y-64932380D01*
X127220000Y-64837142D01*
X127267619Y-64789523D01*
X127362857Y-64741904D01*
X127553333Y-64694285D01*
X127791428Y-64694285D01*
X127981904Y-64741904D01*
X128077142Y-64789523D01*
X128124761Y-64837142D01*
X128172380Y-64932380D01*
X128172380Y-65027618D01*
X128124761Y-65122856D01*
X128077142Y-65170475D01*
X127981904Y-65218094D01*
X127791428Y-65265713D01*
X127553333Y-65265713D01*
X127362857Y-65218094D01*
X127267619Y-65170475D01*
X127220000Y-65122856D01*
X127172380Y-65027618D01*
X154019047Y-57631428D02*
X154780952Y-57631428D01*
X154400000Y-58012380D02*
X154400000Y-57250476D01*
X136064761Y-78696667D02*
X136112380Y-78553810D01*
X136112380Y-78315714D01*
X136064761Y-78220476D01*
X136017142Y-78172857D01*
X135921904Y-78125238D01*
X135826666Y-78125238D01*
X135731428Y-78172857D01*
X135683809Y-78220476D01*
X135636190Y-78315714D01*
X135588571Y-78506191D01*
X135540952Y-78601429D01*
X135493333Y-78649048D01*
X135398095Y-78696667D01*
X135302857Y-78696667D01*
X135207619Y-78649048D01*
X135160000Y-78601429D01*
X135112380Y-78506191D01*
X135112380Y-78268095D01*
X135160000Y-78125238D01*
X136017142Y-77125238D02*
X136064761Y-77172857D01*
X136112380Y-77315714D01*
X136112380Y-77410952D01*
X136064761Y-77553810D01*
X135969523Y-77649048D01*
X135874285Y-77696667D01*
X135683809Y-77744286D01*
X135540952Y-77744286D01*
X135350476Y-77696667D01*
X135255238Y-77649048D01*
X135160000Y-77553810D01*
X135112380Y-77410952D01*
X135112380Y-77315714D01*
X135160000Y-77172857D01*
X135207619Y-77125238D01*
X136112380Y-76220476D02*
X136112380Y-76696667D01*
X135112380Y-76696667D01*
X156327380Y-82435714D02*
X155327380Y-82435714D01*
X155327380Y-82054761D01*
X155375000Y-81959523D01*
X155422619Y-81911904D01*
X155517857Y-81864285D01*
X155660714Y-81864285D01*
X155755952Y-81911904D01*
X155803571Y-81959523D01*
X155851190Y-82054761D01*
X155851190Y-82435714D01*
X156327380Y-81435714D02*
X155660714Y-81435714D01*
X155851190Y-81435714D02*
X155755952Y-81388095D01*
X155708333Y-81340476D01*
X155660714Y-81245238D01*
X155660714Y-81150000D01*
X156279761Y-80435714D02*
X156327380Y-80530952D01*
X156327380Y-80721428D01*
X156279761Y-80816666D01*
X156184523Y-80864285D01*
X155803571Y-80864285D01*
X155708333Y-80816666D01*
X155660714Y-80721428D01*
X155660714Y-80530952D01*
X155708333Y-80435714D01*
X155803571Y-80388095D01*
X155898809Y-80388095D01*
X155994047Y-80864285D01*
X156279761Y-80007142D02*
X156327380Y-79911904D01*
X156327380Y-79721428D01*
X156279761Y-79626190D01*
X156184523Y-79578571D01*
X156136904Y-79578571D01*
X156041666Y-79626190D01*
X155994047Y-79721428D01*
X155994047Y-79864285D01*
X155946428Y-79959523D01*
X155851190Y-80007142D01*
X155803571Y-80007142D01*
X155708333Y-79959523D01*
X155660714Y-79864285D01*
X155660714Y-79721428D01*
X155708333Y-79626190D01*
X156279761Y-79197619D02*
X156327380Y-79102380D01*
X156327380Y-78911904D01*
X156279761Y-78816666D01*
X156184523Y-78769047D01*
X156136904Y-78769047D01*
X156041666Y-78816666D01*
X155994047Y-78911904D01*
X155994047Y-79054761D01*
X155946428Y-79150000D01*
X155851190Y-79197619D01*
X155803571Y-79197619D01*
X155708333Y-79150000D01*
X155660714Y-79054761D01*
X155660714Y-78911904D01*
X155708333Y-78816666D01*
X155660714Y-77911904D02*
X156327380Y-77911904D01*
X155660714Y-78340476D02*
X156184523Y-78340476D01*
X156279761Y-78292857D01*
X156327380Y-78197619D01*
X156327380Y-78054761D01*
X156279761Y-77959523D01*
X156232142Y-77911904D01*
X156327380Y-77435714D02*
X155660714Y-77435714D01*
X155851190Y-77435714D02*
X155755952Y-77388095D01*
X155708333Y-77340476D01*
X155660714Y-77245238D01*
X155660714Y-77150000D01*
X156279761Y-76435714D02*
X156327380Y-76530952D01*
X156327380Y-76721428D01*
X156279761Y-76816666D01*
X156184523Y-76864285D01*
X155803571Y-76864285D01*
X155708333Y-76816666D01*
X155660714Y-76721428D01*
X155660714Y-76530952D01*
X155708333Y-76435714D01*
X155803571Y-76388095D01*
X155898809Y-76388095D01*
X155994047Y-76864285D01*
X156279761Y-75245238D02*
X156327380Y-75102380D01*
X156327380Y-74864285D01*
X156279761Y-74769047D01*
X156232142Y-74721428D01*
X156136904Y-74673809D01*
X156041666Y-74673809D01*
X155946428Y-74721428D01*
X155898809Y-74769047D01*
X155851190Y-74864285D01*
X155803571Y-75054761D01*
X155755952Y-75150000D01*
X155708333Y-75197619D01*
X155613095Y-75245238D01*
X155517857Y-75245238D01*
X155422619Y-75197619D01*
X155375000Y-75150000D01*
X155327380Y-75054761D01*
X155327380Y-74816666D01*
X155375000Y-74673809D01*
X156279761Y-73864285D02*
X156327380Y-73959523D01*
X156327380Y-74150000D01*
X156279761Y-74245238D01*
X156184523Y-74292857D01*
X155803571Y-74292857D01*
X155708333Y-74245238D01*
X155660714Y-74150000D01*
X155660714Y-73959523D01*
X155708333Y-73864285D01*
X155803571Y-73816666D01*
X155898809Y-73816666D01*
X155994047Y-74292857D01*
X155660714Y-73388095D02*
X156327380Y-73388095D01*
X155755952Y-73388095D02*
X155708333Y-73340476D01*
X155660714Y-73245238D01*
X155660714Y-73102380D01*
X155708333Y-73007142D01*
X155803571Y-72959523D01*
X156327380Y-72959523D01*
X156279761Y-72530952D02*
X156327380Y-72435714D01*
X156327380Y-72245238D01*
X156279761Y-72150000D01*
X156184523Y-72102380D01*
X156136904Y-72102380D01*
X156041666Y-72150000D01*
X155994047Y-72245238D01*
X155994047Y-72388095D01*
X155946428Y-72483333D01*
X155851190Y-72530952D01*
X155803571Y-72530952D01*
X155708333Y-72483333D01*
X155660714Y-72388095D01*
X155660714Y-72245238D01*
X155708333Y-72150000D01*
X156327380Y-71530952D02*
X156279761Y-71626190D01*
X156232142Y-71673809D01*
X156136904Y-71721428D01*
X155851190Y-71721428D01*
X155755952Y-71673809D01*
X155708333Y-71626190D01*
X155660714Y-71530952D01*
X155660714Y-71388095D01*
X155708333Y-71292857D01*
X155755952Y-71245238D01*
X155851190Y-71197619D01*
X156136904Y-71197619D01*
X156232142Y-71245238D01*
X156279761Y-71292857D01*
X156327380Y-71388095D01*
X156327380Y-71530952D01*
X156327380Y-70769047D02*
X155660714Y-70769047D01*
X155851190Y-70769047D02*
X155755952Y-70721428D01*
X155708333Y-70673809D01*
X155660714Y-70578571D01*
X155660714Y-70483333D01*
X157413571Y-78864285D02*
X157461190Y-78721428D01*
X157508809Y-78673809D01*
X157604047Y-78626190D01*
X157746904Y-78626190D01*
X157842142Y-78673809D01*
X157889761Y-78721428D01*
X157937380Y-78816666D01*
X157937380Y-79197619D01*
X156937380Y-79197619D01*
X156937380Y-78864285D01*
X156985000Y-78769047D01*
X157032619Y-78721428D01*
X157127857Y-78673809D01*
X157223095Y-78673809D01*
X157318333Y-78721428D01*
X157365952Y-78769047D01*
X157413571Y-78864285D01*
X157413571Y-79197619D01*
X157937380Y-78197619D02*
X157270714Y-78197619D01*
X157461190Y-78197619D02*
X157365952Y-78150000D01*
X157318333Y-78102380D01*
X157270714Y-78007142D01*
X157270714Y-77911904D01*
X157889761Y-77197619D02*
X157937380Y-77292857D01*
X157937380Y-77483333D01*
X157889761Y-77578571D01*
X157794523Y-77626190D01*
X157413571Y-77626190D01*
X157318333Y-77578571D01*
X157270714Y-77483333D01*
X157270714Y-77292857D01*
X157318333Y-77197619D01*
X157413571Y-77150000D01*
X157508809Y-77150000D01*
X157604047Y-77626190D01*
X157937380Y-76292857D02*
X157413571Y-76292857D01*
X157318333Y-76340476D01*
X157270714Y-76435714D01*
X157270714Y-76626190D01*
X157318333Y-76721428D01*
X157889761Y-76292857D02*
X157937380Y-76388095D01*
X157937380Y-76626190D01*
X157889761Y-76721428D01*
X157794523Y-76769047D01*
X157699285Y-76769047D01*
X157604047Y-76721428D01*
X157556428Y-76626190D01*
X157556428Y-76388095D01*
X157508809Y-76292857D01*
X157937380Y-75816666D02*
X156937380Y-75816666D01*
X157556428Y-75721428D02*
X157937380Y-75435714D01*
X157270714Y-75435714D02*
X157651666Y-75816666D01*
X157937380Y-74864285D02*
X157889761Y-74959523D01*
X157842142Y-75007142D01*
X157746904Y-75054761D01*
X157461190Y-75054761D01*
X157365952Y-75007142D01*
X157318333Y-74959523D01*
X157270714Y-74864285D01*
X157270714Y-74721428D01*
X157318333Y-74626190D01*
X157365952Y-74578571D01*
X157461190Y-74530952D01*
X157746904Y-74530952D01*
X157842142Y-74578571D01*
X157889761Y-74626190D01*
X157937380Y-74721428D01*
X157937380Y-74864285D01*
X157270714Y-73673809D02*
X157937380Y-73673809D01*
X157270714Y-74102380D02*
X157794523Y-74102380D01*
X157889761Y-74054761D01*
X157937380Y-73959523D01*
X157937380Y-73816666D01*
X157889761Y-73721428D01*
X157842142Y-73673809D01*
X157270714Y-73340476D02*
X157270714Y-72959523D01*
X156937380Y-73197619D02*
X157794523Y-73197619D01*
X157889761Y-73150000D01*
X157937380Y-73054761D01*
X157937380Y-72959523D01*
X151942380Y-55684047D02*
X151942380Y-56160238D01*
X150942380Y-56160238D01*
X151418571Y-55350714D02*
X151418571Y-55017380D01*
X151942380Y-54874523D02*
X151942380Y-55350714D01*
X150942380Y-55350714D01*
X150942380Y-54874523D01*
X151942380Y-54445952D02*
X150942380Y-54445952D01*
X150942380Y-54207857D01*
X150990000Y-54065000D01*
X151085238Y-53969761D01*
X151180476Y-53922142D01*
X151370952Y-53874523D01*
X151513809Y-53874523D01*
X151704285Y-53922142D01*
X151799523Y-53969761D01*
X151894761Y-54065000D01*
X151942380Y-54207857D01*
X151942380Y-54445952D01*
X151942380Y-52922142D02*
X151942380Y-53493571D01*
X151942380Y-53207857D02*
X150942380Y-53207857D01*
X151085238Y-53303095D01*
X151180476Y-53398333D01*
X151228095Y-53493571D01*
X151730476Y-94822380D02*
X151397142Y-94346190D01*
X151159047Y-94822380D02*
X151159047Y-93822380D01*
X151540000Y-93822380D01*
X151635238Y-93870000D01*
X151682857Y-93917619D01*
X151730476Y-94012857D01*
X151730476Y-94155714D01*
X151682857Y-94250952D01*
X151635238Y-94298571D01*
X151540000Y-94346190D01*
X151159047Y-94346190D01*
X152159047Y-94822380D02*
X152159047Y-93822380D01*
X153159047Y-93870000D02*
X153063809Y-93822380D01*
X152920952Y-93822380D01*
X152778095Y-93870000D01*
X152682857Y-93965238D01*
X152635238Y-94060476D01*
X152587619Y-94250952D01*
X152587619Y-94393809D01*
X152635238Y-94584285D01*
X152682857Y-94679523D01*
X152778095Y-94774761D01*
X152920952Y-94822380D01*
X153016190Y-94822380D01*
X153159047Y-94774761D01*
X153206666Y-94727142D01*
X153206666Y-94393809D01*
X153016190Y-94393809D01*
X153635238Y-94822380D02*
X153635238Y-93822380D01*
X153635238Y-94298571D02*
X154206666Y-94298571D01*
X154206666Y-94822380D02*
X154206666Y-93822380D01*
X154540000Y-93822380D02*
X155111428Y-93822380D01*
X154825714Y-94822380D02*
X154825714Y-93822380D01*
X155968571Y-94822380D02*
X155397142Y-94822380D01*
X155682857Y-94822380D02*
X155682857Y-93822380D01*
X155587619Y-93965238D01*
X155492380Y-94060476D01*
X155397142Y-94108095D01*
X109332380Y-88883095D02*
X109332380Y-89359285D01*
X109808571Y-89406904D01*
X109760952Y-89359285D01*
X109713333Y-89264047D01*
X109713333Y-89025952D01*
X109760952Y-88930714D01*
X109808571Y-88883095D01*
X109903809Y-88835476D01*
X110141904Y-88835476D01*
X110237142Y-88883095D01*
X110284761Y-88930714D01*
X110332380Y-89025952D01*
X110332380Y-89264047D01*
X110284761Y-89359285D01*
X110237142Y-89406904D01*
X109332380Y-88549761D02*
X110332380Y-88216428D01*
X109332380Y-87883095D01*
X110427619Y-87787857D02*
X110427619Y-87025952D01*
X110332380Y-86787857D02*
X109665714Y-86787857D01*
X109332380Y-86787857D02*
X109380000Y-86835476D01*
X109427619Y-86787857D01*
X109380000Y-86740238D01*
X109332380Y-86787857D01*
X109427619Y-86787857D01*
X109665714Y-86311666D02*
X110332380Y-86311666D01*
X109760952Y-86311666D02*
X109713333Y-86264047D01*
X109665714Y-86168809D01*
X109665714Y-86025952D01*
X109713333Y-85930714D01*
X109808571Y-85883095D01*
X110332380Y-85883095D01*
X110332380Y-84883095D02*
X110332380Y-85454523D01*
X110332380Y-85168809D02*
X109332380Y-85168809D01*
X109475238Y-85264047D01*
X109570476Y-85359285D01*
X109618095Y-85454523D01*
X141261428Y-94792380D02*
X140785238Y-94792380D01*
X140785238Y-93792380D01*
X141594761Y-94268571D02*
X141928095Y-94268571D01*
X142070952Y-94792380D02*
X141594761Y-94792380D01*
X141594761Y-93792380D01*
X142070952Y-93792380D01*
X142832857Y-94268571D02*
X142499523Y-94268571D01*
X142499523Y-94792380D02*
X142499523Y-93792380D01*
X142975714Y-93792380D01*
X143213809Y-93792380D02*
X143785238Y-93792380D01*
X143499523Y-94792380D02*
X143499523Y-93792380D01*
X144642380Y-94792380D02*
X144070952Y-94792380D01*
X144356666Y-94792380D02*
X144356666Y-93792380D01*
X144261428Y-93935238D01*
X144166190Y-94030476D01*
X144070952Y-94078095D01*
X117318095Y-94278571D02*
X116984761Y-94278571D01*
X116984761Y-94802380D02*
X116984761Y-93802380D01*
X117460952Y-93802380D01*
X118413333Y-94802380D02*
X118080000Y-94326190D01*
X117841904Y-94802380D02*
X117841904Y-93802380D01*
X118222857Y-93802380D01*
X118318095Y-93850000D01*
X118365714Y-93897619D01*
X118413333Y-93992857D01*
X118413333Y-94135714D01*
X118365714Y-94230952D01*
X118318095Y-94278571D01*
X118222857Y-94326190D01*
X117841904Y-94326190D01*
X119032380Y-93802380D02*
X119222857Y-93802380D01*
X119318095Y-93850000D01*
X119413333Y-93945238D01*
X119460952Y-94135714D01*
X119460952Y-94469047D01*
X119413333Y-94659523D01*
X119318095Y-94754761D01*
X119222857Y-94802380D01*
X119032380Y-94802380D01*
X118937142Y-94754761D01*
X118841904Y-94659523D01*
X118794285Y-94469047D01*
X118794285Y-94135714D01*
X118841904Y-93945238D01*
X118937142Y-93850000D01*
X119032380Y-93802380D01*
X119889523Y-94802380D02*
X119889523Y-93802380D01*
X120460952Y-94802380D01*
X120460952Y-93802380D01*
X120794285Y-93802380D02*
X121365714Y-93802380D01*
X121080000Y-94802380D02*
X121080000Y-93802380D01*
X122222857Y-94802380D02*
X121651428Y-94802380D01*
X121937142Y-94802380D02*
X121937142Y-93802380D01*
X121841904Y-93945238D01*
X121746666Y-94040476D01*
X121651428Y-94088095D01*
X129246666Y-94268571D02*
X129389523Y-94316190D01*
X129437142Y-94363809D01*
X129484761Y-94459047D01*
X129484761Y-94601904D01*
X129437142Y-94697142D01*
X129389523Y-94744761D01*
X129294285Y-94792380D01*
X128913333Y-94792380D01*
X128913333Y-93792380D01*
X129246666Y-93792380D01*
X129341904Y-93840000D01*
X129389523Y-93887619D01*
X129437142Y-93982857D01*
X129437142Y-94078095D01*
X129389523Y-94173333D01*
X129341904Y-94220952D01*
X129246666Y-94268571D01*
X128913333Y-94268571D01*
X129865714Y-94506666D02*
X130341904Y-94506666D01*
X129770476Y-94792380D02*
X130103809Y-93792380D01*
X130437142Y-94792380D01*
X131341904Y-94697142D02*
X131294285Y-94744761D01*
X131151428Y-94792380D01*
X131056190Y-94792380D01*
X130913333Y-94744761D01*
X130818095Y-94649523D01*
X130770476Y-94554285D01*
X130722857Y-94363809D01*
X130722857Y-94220952D01*
X130770476Y-94030476D01*
X130818095Y-93935238D01*
X130913333Y-93840000D01*
X131056190Y-93792380D01*
X131151428Y-93792380D01*
X131294285Y-93840000D01*
X131341904Y-93887619D01*
X131770476Y-94792380D02*
X131770476Y-93792380D01*
X132341904Y-94792380D02*
X131913333Y-94220952D01*
X132341904Y-93792380D02*
X131770476Y-94363809D01*
X133294285Y-94792380D02*
X132722857Y-94792380D01*
X133008571Y-94792380D02*
X133008571Y-93792380D01*
X132913333Y-93935238D01*
X132818095Y-94030476D01*
X132722857Y-94078095D01*
X113032380Y-56938571D02*
X113032380Y-56748095D01*
X113080000Y-56652857D01*
X113175238Y-56557619D01*
X113365714Y-56510000D01*
X113699047Y-56510000D01*
X113889523Y-56557619D01*
X113984761Y-56652857D01*
X114032380Y-56748095D01*
X114032380Y-56938571D01*
X113984761Y-57033809D01*
X113889523Y-57129047D01*
X113699047Y-57176666D01*
X113365714Y-57176666D01*
X113175238Y-57129047D01*
X113080000Y-57033809D01*
X113032380Y-56938571D01*
X114032380Y-55605238D02*
X114032380Y-56081428D01*
X113032380Y-56081428D01*
X113508571Y-55271904D02*
X113508571Y-54938571D01*
X114032380Y-54795714D02*
X114032380Y-55271904D01*
X113032380Y-55271904D01*
X113032380Y-54795714D01*
X114032380Y-54367142D02*
X113032380Y-54367142D01*
X113032380Y-54129047D01*
X113080000Y-53986190D01*
X113175238Y-53890952D01*
X113270476Y-53843333D01*
X113460952Y-53795714D01*
X113603809Y-53795714D01*
X113794285Y-53843333D01*
X113889523Y-53890952D01*
X113984761Y-53986190D01*
X114032380Y-54129047D01*
X114032380Y-54367142D01*
X114032380Y-52843333D02*
X114032380Y-53414761D01*
X114032380Y-53129047D02*
X113032380Y-53129047D01*
X113175238Y-53224285D01*
X113270476Y-53319523D01*
X113318095Y-53414761D01*
D10*
X155530000Y-56125000D02*
X155686000Y-56125000D01*
X153214000Y-56125000D02*
X153370000Y-56125000D01*
X153370163Y-53523870D02*
G75*
G03*
X153370000Y-55605961I1079837J-1041130D01*
G01*
X153371392Y-52892665D02*
G75*
G03*
X153214484Y-56125000I1078608J-1672335D01*
G01*
X155530000Y-55605961D02*
G75*
G03*
X155529837Y-53523870I-1080000J1040961D01*
G01*
X155685516Y-56125000D02*
G75*
G03*
X155528608Y-52892665I-1235516J1560000D01*
G01*
X149920000Y-98240000D02*
X157160000Y-98240000D01*
X149920000Y-95500000D02*
X149920000Y-98240000D01*
X149920000Y-95500000D02*
X157160000Y-95500000D01*
X157160000Y-95500000D02*
X157160000Y-98240000D01*
X159220000Y-91920000D02*
X151540000Y-91920000D01*
X159220000Y-89260000D02*
X159220000Y-91920000D01*
X160490000Y-89260000D02*
X161820000Y-89260000D01*
X161820000Y-89260000D02*
X161820000Y-90590000D01*
X159220000Y-89260000D02*
X151540000Y-89260000D01*
X151540000Y-89260000D02*
X151540000Y-91920000D01*
X106820000Y-82005000D02*
X106820000Y-92285000D01*
X108880000Y-82005000D02*
X100760000Y-82005000D01*
X105889000Y-90960000D02*
X105796000Y-90866000D01*
X102760000Y-81765000D02*
X100520000Y-81765000D01*
X100760000Y-82005000D02*
X100760000Y-92285000D01*
X100520000Y-81765000D02*
X100520000Y-83765000D01*
X102820000Y-82005000D02*
X102820000Y-92285000D01*
X103844000Y-88505000D02*
X103751000Y-88411000D01*
X106095000Y-90755000D02*
X106036000Y-90696000D01*
X108880000Y-82005000D02*
X108880000Y-92285000D01*
X108880000Y-92285000D02*
X100760000Y-92285000D01*
X103604000Y-88675000D02*
X103546000Y-88616000D01*
X103336000Y-83816000D02*
G75*
G03*
X103139550Y-84634383I1483995J-788998D01*
G01*
X104031000Y-86089001D02*
G75*
G03*
X105609089Y-86088953I789000J1484001D01*
G01*
X106304000Y-85394000D02*
G75*
G03*
X106303953Y-83815911I-1483995J789000D01*
G01*
X105609000Y-83121000D02*
G75*
G03*
X104030911Y-83121047I-789000J-1483995D01*
G01*
X103140000Y-84605000D02*
G75*
G03*
X103336648Y-85393712I1680000J0D01*
G01*
X106500000Y-89685000D02*
G75*
G03*
X106500000Y-89685000I-1680000J0D01*
G01*
G36*
X146326210Y-56280801D02*
G01*
X146340511Y-56299766D01*
X146325765Y-56313321D01*
X146310103Y-56310538D01*
X146283961Y-56309316D01*
X146279696Y-56316816D01*
X146295509Y-56339818D01*
X146305036Y-56344986D01*
X146318533Y-56354331D01*
X146306232Y-56356811D01*
X146274077Y-56343791D01*
X146269561Y-56338140D01*
X146266597Y-56303965D01*
X146269561Y-56297597D01*
X146295693Y-56279692D01*
X146326210Y-56280801D01*
G37*
G36*
X137205496Y-52774603D02*
G01*
X137233711Y-52752406D01*
X137257368Y-52760959D01*
X137272408Y-52775157D01*
X137294436Y-52806433D01*
X137284260Y-52835053D01*
X137280062Y-52840315D01*
X137240331Y-52868380D01*
X137203118Y-52863946D01*
X137184588Y-52839761D01*
X137185303Y-52831197D01*
X137218404Y-52831197D01*
X137233830Y-52850879D01*
X137238675Y-52851468D01*
X137258357Y-52836042D01*
X137258946Y-52831197D01*
X137243520Y-52811515D01*
X137238675Y-52810926D01*
X137218993Y-52826351D01*
X137218404Y-52831197D01*
X137185303Y-52831197D01*
X137187772Y-52801645D01*
X137205496Y-52774603D01*
G37*
G36*
X136791155Y-58611469D02*
G01*
X136814173Y-58608531D01*
X136845209Y-58621057D01*
X136853519Y-58659210D01*
X136844125Y-58698837D01*
X136812340Y-58709888D01*
X136773540Y-58697114D01*
X136759866Y-58680452D01*
X136759335Y-58649074D01*
X136812977Y-58649074D01*
X136820394Y-58665760D01*
X136826491Y-58662588D01*
X136828917Y-58638531D01*
X136826491Y-58635560D01*
X136814440Y-58638342D01*
X136812977Y-58649074D01*
X136759335Y-58649074D01*
X136759124Y-58636628D01*
X136791155Y-58611469D01*
G37*
G36*
X137313934Y-52696055D02*
G01*
X137346789Y-52696055D01*
X137349571Y-52708106D01*
X137360303Y-52709569D01*
X137376989Y-52702152D01*
X137373817Y-52696055D01*
X137349760Y-52693628D01*
X137346789Y-52696055D01*
X137313934Y-52696055D01*
X137315803Y-52691880D01*
X137342072Y-52678514D01*
X137388716Y-52676814D01*
X137415568Y-52699409D01*
X137413179Y-52737009D01*
X137409078Y-52744395D01*
X137373659Y-52781121D01*
X137337851Y-52777856D01*
X137324068Y-52766582D01*
X137310351Y-52742259D01*
X137347000Y-52742259D01*
X137350167Y-52750111D01*
X137368383Y-52769450D01*
X137371635Y-52770383D01*
X137380342Y-52754699D01*
X137380574Y-52750111D01*
X137364991Y-52730619D01*
X137359107Y-52729840D01*
X137347000Y-52742259D01*
X137310351Y-52742259D01*
X137300817Y-52725352D01*
X137313934Y-52696055D01*
G37*
G36*
X146757106Y-56837989D02*
G01*
X146783282Y-56857948D01*
X146786480Y-56867364D01*
X146775377Y-56884933D01*
X146753130Y-56876873D01*
X146739003Y-56856092D01*
X146739903Y-56835523D01*
X146757106Y-56837989D01*
G37*
G36*
X137872155Y-52229902D02*
G01*
X137874701Y-52237301D01*
X137846815Y-52240127D01*
X137818038Y-52236941D01*
X137821476Y-52229902D01*
X137862979Y-52227225D01*
X137872155Y-52229902D01*
G37*
G36*
X138445218Y-57025107D02*
G01*
X138471333Y-57072451D01*
X138507084Y-57142699D01*
X138548821Y-57228884D01*
X138554238Y-57240348D01*
X138694403Y-57510943D01*
X138843580Y-57746097D01*
X138948236Y-57883991D01*
X138996677Y-57945284D01*
X139025706Y-57992192D01*
X139041045Y-58039882D01*
X139048417Y-58103521D01*
X139051497Y-58157654D01*
X139082364Y-58394788D01*
X139150953Y-58618859D01*
X139206585Y-58740907D01*
X139241295Y-58809564D01*
X139266931Y-58861793D01*
X139279472Y-58889330D01*
X139279985Y-58891607D01*
X139263437Y-58879561D01*
X139224166Y-58848801D01*
X139174589Y-58809132D01*
X138981136Y-58638246D01*
X138786042Y-58438143D01*
X138598236Y-58218746D01*
X138426647Y-57989979D01*
X138392094Y-57939577D01*
X138262378Y-57746999D01*
X138265780Y-57583044D01*
X138270489Y-57491241D01*
X138279720Y-57402426D01*
X138291564Y-57334499D01*
X138292790Y-57329653D01*
X138312285Y-57266980D01*
X138339086Y-57194773D01*
X138368909Y-57122913D01*
X138397471Y-57061279D01*
X138420490Y-57019752D01*
X138432385Y-57007633D01*
X138445218Y-57025107D01*
G37*
G36*
X137438452Y-52162773D02*
G01*
X137438856Y-52209799D01*
X137422979Y-52252467D01*
X137417063Y-52259545D01*
X137377258Y-52280129D01*
X137351738Y-52283870D01*
X137324714Y-52282091D01*
X137329513Y-52271535D01*
X137355793Y-52252314D01*
X137392011Y-52207570D01*
X137400846Y-52170032D01*
X137407411Y-52136260D01*
X137421117Y-52131835D01*
X137438452Y-52162773D01*
G37*
G36*
X145197051Y-59694722D02*
G01*
X145232946Y-59723188D01*
X145242865Y-59761511D01*
X145241359Y-59767359D01*
X145229723Y-59774869D01*
X145218937Y-59755639D01*
X145196200Y-59729650D01*
X145150254Y-59727007D01*
X145143722Y-59727894D01*
X145100364Y-59728558D01*
X145089772Y-59714957D01*
X145113158Y-59696146D01*
X145147799Y-59686956D01*
X145197051Y-59694722D01*
G37*
G36*
X138002087Y-58904717D02*
G01*
X137998994Y-58912369D01*
X138002257Y-58923889D01*
X138018069Y-58920336D01*
X138044748Y-58922752D01*
X138049529Y-58940840D01*
X138042318Y-58967518D01*
X138014480Y-58967463D01*
X137993783Y-58959990D01*
X137972767Y-58937791D01*
X137970259Y-58908626D01*
X137987403Y-58892465D01*
X137989911Y-58892330D01*
X138002087Y-58904717D01*
G37*
G36*
X136969443Y-58811555D02*
G01*
X136998564Y-58821621D01*
X137015690Y-58831249D01*
X137035110Y-58856180D01*
X137024378Y-58885479D01*
X136990357Y-58921999D01*
X136959264Y-58925281D01*
X136942582Y-58904152D01*
X136938121Y-58863009D01*
X136941559Y-58851787D01*
X136965012Y-58851787D01*
X136966619Y-58870467D01*
X136973951Y-58872059D01*
X136994594Y-58857344D01*
X136995419Y-58851787D01*
X136988502Y-58832043D01*
X136986479Y-58831516D01*
X136969172Y-58845721D01*
X136965012Y-58851787D01*
X136941559Y-58851787D01*
X136949474Y-58825951D01*
X136969443Y-58811555D01*
G37*
G36*
X137153693Y-53335800D02*
G01*
X137172342Y-53257125D01*
X137196173Y-53203237D01*
X137251928Y-53127121D01*
X137310234Y-53090078D01*
X137369856Y-53092717D01*
X137394290Y-53105342D01*
X137436633Y-53144083D01*
X137459333Y-53180244D01*
X137468452Y-53193475D01*
X137483129Y-53189767D01*
X137506938Y-53165107D01*
X137543457Y-53115482D01*
X137596260Y-53036879D01*
X137621684Y-52998047D01*
X137678265Y-52912571D01*
X137728753Y-52838688D01*
X137768178Y-52783509D01*
X137791567Y-52754139D01*
X137793614Y-52752205D01*
X137825410Y-52744725D01*
X137879106Y-52761549D01*
X137903308Y-52772907D01*
X138019274Y-52850989D01*
X138121777Y-52959664D01*
X138204658Y-53089646D01*
X138261760Y-53231650D01*
X138284787Y-53348116D01*
X138289719Y-53412543D01*
X138286289Y-53460506D01*
X138270587Y-53506500D01*
X138238702Y-53565020D01*
X138216210Y-53602291D01*
X138029621Y-53946853D01*
X137875518Y-54315032D01*
X137754352Y-54705594D01*
X137670992Y-55091452D01*
X137656478Y-55204070D01*
X137645768Y-55346503D01*
X137638881Y-55509274D01*
X137635835Y-55682907D01*
X137636649Y-55857923D01*
X137641340Y-56024844D01*
X137649927Y-56174193D01*
X137662428Y-56296494D01*
X137668584Y-56336029D01*
X137698905Y-56506225D01*
X137595217Y-56650744D01*
X137448946Y-56886654D01*
X137339867Y-57133811D01*
X137269174Y-57389075D01*
X137242359Y-57580321D01*
X137228539Y-57746999D01*
X137133836Y-57503743D01*
X136996683Y-57096571D01*
X136895658Y-56674696D01*
X136831241Y-56242722D01*
X136803913Y-55805256D01*
X136814153Y-55366905D01*
X136834150Y-55186912D01*
X137110290Y-55186912D01*
X137127172Y-55252943D01*
X137170839Y-55298956D01*
X137230821Y-55320933D01*
X137296649Y-55314850D01*
X137353929Y-55280496D01*
X137394987Y-55218695D01*
X137399887Y-55152110D01*
X137370184Y-55090833D01*
X137318443Y-55050228D01*
X137248159Y-55033020D01*
X137184287Y-55050409D01*
X137135761Y-55096528D01*
X137111515Y-55165512D01*
X137110290Y-55186912D01*
X136834150Y-55186912D01*
X136862441Y-54932274D01*
X136864514Y-54919146D01*
X136904006Y-54711675D01*
X136958045Y-54486486D01*
X137022691Y-54257306D01*
X137094004Y-54037860D01*
X137168044Y-53841874D01*
X137185810Y-53799787D01*
X137204145Y-53752290D01*
X137203910Y-53733705D01*
X137190590Y-53735082D01*
X137158509Y-53727244D01*
X137115732Y-53689390D01*
X137067725Y-53628683D01*
X137019956Y-53552290D01*
X136977890Y-53467373D01*
X136967986Y-53443321D01*
X136899503Y-53233406D01*
X136864266Y-53033639D01*
X136860510Y-52833725D01*
X136861276Y-52821061D01*
X136872752Y-52692164D01*
X136891128Y-52583828D01*
X136916379Y-52495610D01*
X136964619Y-52495610D01*
X136965705Y-52507978D01*
X136993920Y-52523832D01*
X137027741Y-52515818D01*
X137045949Y-52489582D01*
X137046097Y-52486584D01*
X137029024Y-52459570D01*
X137005554Y-52450297D01*
X136979120Y-52448593D01*
X136989313Y-52460586D01*
X136995419Y-52464912D01*
X137013892Y-52481644D01*
X136994716Y-52486187D01*
X136989155Y-52486274D01*
X136964619Y-52495610D01*
X136916379Y-52495610D01*
X136920340Y-52481771D01*
X136964322Y-52371709D01*
X136977600Y-52343418D01*
X137021918Y-52343418D01*
X137046693Y-52378034D01*
X137092935Y-52392099D01*
X137133575Y-52373500D01*
X137156182Y-52329535D01*
X137157590Y-52312928D01*
X137142244Y-52265520D01*
X137104359Y-52245270D01*
X137058545Y-52257478D01*
X137024668Y-52296942D01*
X137021918Y-52343418D01*
X136977600Y-52343418D01*
X137014573Y-52264643D01*
X137043471Y-52238087D01*
X137084997Y-52220284D01*
X137132967Y-52199238D01*
X137146136Y-52191207D01*
X137258946Y-52191207D01*
X137274390Y-52255165D01*
X137314117Y-52294442D01*
X137368219Y-52303844D01*
X137425976Y-52278803D01*
X137460791Y-52230863D01*
X137461670Y-52221662D01*
X137523921Y-52221662D01*
X137537297Y-52261494D01*
X137552647Y-52276070D01*
X137598803Y-52293432D01*
X137631155Y-52275965D01*
X137640483Y-52228995D01*
X137640131Y-52225535D01*
X137626341Y-52184979D01*
X137610110Y-52179324D01*
X137772740Y-52179324D01*
X137777148Y-52220517D01*
X137784591Y-52231493D01*
X137824573Y-52257168D01*
X137872694Y-52261720D01*
X137911550Y-52245283D01*
X137921627Y-52230437D01*
X137921855Y-52182438D01*
X137891810Y-52145150D01*
X137846815Y-52131835D01*
X137798483Y-52145726D01*
X137772740Y-52179324D01*
X137610110Y-52179324D01*
X137590572Y-52172517D01*
X137583565Y-52172378D01*
X137540787Y-52187118D01*
X137523921Y-52221662D01*
X137461670Y-52221662D01*
X137466237Y-52173846D01*
X137443540Y-52122563D01*
X137410981Y-52097740D01*
X137345000Y-52084477D01*
X137293063Y-52105520D01*
X137263151Y-52155962D01*
X137258946Y-52191207D01*
X137146136Y-52191207D01*
X137194358Y-52161799D01*
X137230804Y-52135374D01*
X137316465Y-52081714D01*
X137408564Y-52054839D01*
X137429377Y-52051861D01*
X137484174Y-52041587D01*
X137593115Y-52041587D01*
X137594590Y-52092420D01*
X137625323Y-52130504D01*
X137664373Y-52141971D01*
X137707218Y-52127351D01*
X137724380Y-52112537D01*
X137741808Y-52067019D01*
X137726186Y-52026025D01*
X137684206Y-52002095D01*
X137664373Y-52000072D01*
X137614150Y-52011655D01*
X137593115Y-52041587D01*
X137484174Y-52041587D01*
X137498494Y-52038902D01*
X137555345Y-52020751D01*
X137575953Y-52009677D01*
X137622337Y-51988407D01*
X137676397Y-51980997D01*
X137720813Y-51988492D01*
X137735323Y-52000072D01*
X137761549Y-52012326D01*
X137813036Y-52019536D01*
X137838942Y-52020343D01*
X137998558Y-52035977D01*
X138170924Y-52080030D01*
X138344814Y-52148227D01*
X138509003Y-52236292D01*
X138630140Y-52321632D01*
X138719693Y-52403460D01*
X138819207Y-52510403D01*
X138919810Y-52631673D01*
X139012631Y-52756482D01*
X139088797Y-52874041D01*
X139099014Y-52891755D01*
X139140413Y-52975276D01*
X139181438Y-53075472D01*
X139218191Y-53180672D01*
X139246773Y-53279210D01*
X139263285Y-53359415D01*
X139265810Y-53390956D01*
X139265810Y-53439337D01*
X140051921Y-53439337D01*
X140493408Y-54204581D01*
X140602476Y-54393664D01*
X140719127Y-54595949D01*
X140838735Y-54803414D01*
X140956678Y-55008036D01*
X141068329Y-55201791D01*
X141169066Y-55376657D01*
X141254264Y-55524611D01*
X141255947Y-55527536D01*
X141576999Y-56085247D01*
X141571804Y-57635282D01*
X141566608Y-59185317D01*
X141135842Y-58520363D01*
X140705076Y-57855408D01*
X140704661Y-56980214D01*
X140704247Y-56105020D01*
X139937153Y-54777246D01*
X139787341Y-54518304D01*
X139656330Y-54292707D01*
X139542945Y-54098524D01*
X139446013Y-53933821D01*
X139364357Y-53796663D01*
X139296805Y-53685117D01*
X139242181Y-53597250D01*
X139199311Y-53531128D01*
X139167020Y-53484817D01*
X139144135Y-53456384D01*
X139129479Y-53443895D01*
X139126713Y-53442995D01*
X139092509Y-53443550D01*
X139083368Y-53451139D01*
X139092885Y-53474100D01*
X139118368Y-53523279D01*
X139155209Y-53589958D01*
X139175295Y-53625135D01*
X139217923Y-53701649D01*
X139243742Y-53761176D01*
X139253167Y-53814852D01*
X139246619Y-53873813D01*
X139224514Y-53949195D01*
X139190948Y-54042212D01*
X139170177Y-54138012D01*
X139166806Y-54253258D01*
X139179722Y-54371333D01*
X139207809Y-54475614D01*
X139222200Y-54508113D01*
X139308317Y-54633232D01*
X139422783Y-54733929D01*
X139558705Y-54805825D01*
X139709188Y-54844536D01*
X139758902Y-54849179D01*
X139884086Y-54855942D01*
X140040164Y-55125068D01*
X140093648Y-55218064D01*
X140138627Y-55297753D01*
X140171721Y-55358028D01*
X140189552Y-55392783D01*
X140191630Y-55398806D01*
X140171034Y-55397576D01*
X140125121Y-55388915D01*
X140106502Y-55384750D01*
X139982262Y-55367911D01*
X139837160Y-55371276D01*
X139665117Y-55395107D01*
X139608599Y-55406030D01*
X139407828Y-55446944D01*
X139301344Y-55393472D01*
X139081549Y-55261009D01*
X138885262Y-55098149D01*
X138714499Y-54908873D01*
X138571279Y-54697162D01*
X138457620Y-54466999D01*
X138375538Y-54222364D01*
X138327052Y-53967239D01*
X138314180Y-53705605D01*
X138332629Y-53481882D01*
X138341931Y-53339299D01*
X138324553Y-53208723D01*
X138277919Y-53083823D01*
X138199454Y-52958272D01*
X138086582Y-52825740D01*
X138050423Y-52788493D01*
X137955672Y-52697195D01*
X137877274Y-52633730D01*
X137806593Y-52594002D01*
X137734997Y-52573916D01*
X137653850Y-52569376D01*
X137595164Y-52572556D01*
X137451998Y-52602595D01*
X137313377Y-52665618D01*
X137188934Y-52755232D01*
X137088300Y-52865044D01*
X137042753Y-52939154D01*
X137001889Y-53059637D01*
X136989559Y-53194094D01*
X137004155Y-53331577D01*
X137044073Y-53461142D01*
X137107708Y-53571844D01*
X137141171Y-53610131D01*
X137187795Y-53655243D01*
X137215610Y-53674736D01*
X137233903Y-53672220D01*
X137250888Y-53652774D01*
X137276223Y-53608334D01*
X137270651Y-53587841D01*
X137239910Y-53590981D01*
X137201858Y-53586027D01*
X137173275Y-53549735D01*
X137155096Y-53490402D01*
X137153802Y-53476391D01*
X137222188Y-53476391D01*
X137225676Y-53489863D01*
X137252129Y-53519557D01*
X137289953Y-53516764D01*
X137330871Y-53484459D01*
X137358975Y-53441939D01*
X137384186Y-53380919D01*
X137387177Y-53329071D01*
X137378908Y-53290637D01*
X137360911Y-53239787D01*
X137342479Y-53208323D01*
X137339593Y-53205946D01*
X137315092Y-53210937D01*
X137287109Y-53245560D01*
X137259735Y-53299614D01*
X137237062Y-53362903D01*
X137223183Y-53425228D01*
X137222188Y-53476391D01*
X137153802Y-53476391D01*
X137148257Y-53416325D01*
X137153693Y-53335800D01*
G37*
G36*
X146070226Y-56101641D02*
G01*
X146067443Y-56113692D01*
X146056712Y-56115155D01*
X146040026Y-56107738D01*
X146043197Y-56101641D01*
X146067255Y-56099215D01*
X146070226Y-56101641D01*
G37*
G36*
X142935621Y-53443235D02*
G01*
X143019124Y-53444820D01*
X143074982Y-53447543D01*
X143096983Y-53451281D01*
X143097095Y-53451596D01*
X143087414Y-53472098D01*
X143060199Y-53522782D01*
X143018193Y-53598723D01*
X142964138Y-53694994D01*
X142900777Y-53806669D01*
X142848771Y-53897621D01*
X142600447Y-54330512D01*
X142209703Y-54330895D01*
X141818959Y-54331277D01*
X141848188Y-54275530D01*
X141866804Y-54241845D01*
X141902355Y-54179129D01*
X141951397Y-54093399D01*
X142010483Y-53990670D01*
X142076168Y-53876960D01*
X142100690Y-53834629D01*
X142323962Y-53449473D01*
X142710529Y-53443967D01*
X142830685Y-53442910D01*
X142935621Y-53443235D01*
G37*
G36*
X145455994Y-59354959D02*
G01*
X145492615Y-59342189D01*
X145539194Y-59352493D01*
X145564310Y-59387011D01*
X145560827Y-59432028D01*
X145549121Y-59450765D01*
X145510509Y-59475621D01*
X145467399Y-59476861D01*
X145437617Y-59454450D01*
X145436085Y-59450976D01*
X145431243Y-59407560D01*
X145450172Y-59407560D01*
X145453899Y-59433853D01*
X145460818Y-59434166D01*
X145465658Y-59407035D01*
X145463469Y-59399114D01*
X145489114Y-59399114D01*
X145505533Y-59417098D01*
X145519521Y-59419385D01*
X145546497Y-59408439D01*
X145549928Y-59399114D01*
X145533509Y-59381130D01*
X145519521Y-59378843D01*
X145492544Y-59389788D01*
X145489114Y-59399114D01*
X145463469Y-59399114D01*
X145462419Y-59395313D01*
X145453418Y-59387635D01*
X145450172Y-59407560D01*
X145431243Y-59407560D01*
X145429757Y-59394233D01*
X145455994Y-59354959D01*
G37*
G36*
X147549945Y-54164038D02*
G01*
X147552623Y-54205541D01*
X147549945Y-54214716D01*
X147542547Y-54217263D01*
X147539721Y-54189377D01*
X147542906Y-54160599D01*
X147549945Y-54164038D01*
G37*
G36*
X138089498Y-58480464D02*
G01*
X138090072Y-58484734D01*
X138073899Y-58506963D01*
X138041742Y-58518121D01*
X138021104Y-58512535D01*
X138009473Y-58483020D01*
X138009297Y-58478457D01*
X138017859Y-58473408D01*
X138029258Y-58486903D01*
X138045649Y-58503397D01*
X138049218Y-58491971D01*
X138062335Y-58468411D01*
X138069800Y-58466632D01*
X138089498Y-58480464D01*
G37*
G36*
X143778119Y-58727060D02*
G01*
X143813791Y-58814843D01*
X143855820Y-58908560D01*
X143876683Y-58951450D01*
X143906561Y-59015147D01*
X143916937Y-59053085D01*
X143909722Y-59073930D01*
X143904635Y-59078001D01*
X143588424Y-59264156D01*
X143247477Y-59421820D01*
X142887881Y-59548839D01*
X142515719Y-59643063D01*
X142140072Y-59702013D01*
X141984707Y-59713903D01*
X141804480Y-59719557D01*
X141614585Y-59719008D01*
X141430216Y-59712290D01*
X141273254Y-59700143D01*
X141139646Y-59681773D01*
X140981400Y-59652957D01*
X140812167Y-59616578D01*
X140645600Y-59575522D01*
X140528733Y-59542830D01*
X140385978Y-59500316D01*
X140361634Y-59376574D01*
X140341298Y-59303836D01*
X140306792Y-59210659D01*
X140263889Y-59111903D01*
X140238954Y-59060880D01*
X140201254Y-58984248D01*
X140174738Y-58924250D01*
X140162192Y-58887648D01*
X140164387Y-58879885D01*
X140455828Y-59000857D01*
X140755018Y-59099881D01*
X141050714Y-59173662D01*
X141316408Y-59217174D01*
X141491194Y-59230757D01*
X141689473Y-59234835D01*
X141897637Y-59229914D01*
X142102077Y-59216503D01*
X142289185Y-59195108D01*
X142396413Y-59176893D01*
X142662999Y-59111641D01*
X142933722Y-59022978D01*
X143196643Y-58915633D01*
X143439824Y-58794336D01*
X143593221Y-58702811D01*
X143734600Y-58611296D01*
X143778119Y-58727060D01*
G37*
G36*
X147479025Y-54120938D02*
G01*
X147485842Y-54128563D01*
X147479635Y-54144519D01*
X147456631Y-54148835D01*
X147419818Y-54162268D01*
X147411150Y-54203938D01*
X147412491Y-54214716D01*
X147406549Y-54229415D01*
X147388039Y-54215004D01*
X147384744Y-54210068D01*
X147383544Y-54175892D01*
X147403641Y-54136416D01*
X147433848Y-54110595D01*
X147444816Y-54108292D01*
X147479025Y-54120938D01*
G37*
G36*
X145215451Y-56645583D02*
G01*
X145289877Y-56655241D01*
X145372435Y-56660877D01*
X145390291Y-56661314D01*
X145463678Y-56664898D01*
X145531643Y-56672401D01*
X145547156Y-56675104D01*
X145574138Y-56681236D01*
X145591774Y-56690860D01*
X145599524Y-56709705D01*
X145596845Y-56743499D01*
X145583197Y-56797969D01*
X145558037Y-56878844D01*
X145520825Y-56991853D01*
X145515772Y-57007095D01*
X145463104Y-57150718D01*
X145395816Y-57311348D01*
X145319671Y-57476764D01*
X145240434Y-57634746D01*
X145163868Y-57773073D01*
X145123772Y-57838220D01*
X145061658Y-57931621D01*
X144998158Y-58022806D01*
X144937853Y-58105661D01*
X144885323Y-58174076D01*
X144845150Y-58221938D01*
X144821913Y-58243135D01*
X144819930Y-58243647D01*
X144806628Y-58225879D01*
X144782347Y-58177371D01*
X144750419Y-58105313D01*
X144714179Y-58016897D01*
X144710356Y-58007205D01*
X144674935Y-57915556D01*
X144645735Y-57837139D01*
X144625630Y-57779877D01*
X144617494Y-57751696D01*
X144617446Y-57750935D01*
X144627628Y-57725269D01*
X144654529Y-57675646D01*
X144692684Y-57612042D01*
X144699345Y-57601431D01*
X144820093Y-57391599D01*
X144933805Y-57158394D01*
X145032270Y-56918971D01*
X145051954Y-56864668D01*
X145134365Y-56631021D01*
X145215451Y-56645583D01*
G37*
G36*
X136634111Y-58421271D02*
G01*
X136650806Y-58415953D01*
X136679429Y-58432805D01*
X136687489Y-58451428D01*
X136680438Y-58480162D01*
X136650806Y-58486903D01*
X136617535Y-58476643D01*
X136614808Y-58456496D01*
X136650806Y-58456496D01*
X136660941Y-58466632D01*
X136671077Y-58456496D01*
X136660941Y-58446360D01*
X136650806Y-58456496D01*
X136614808Y-58456496D01*
X136614122Y-58451428D01*
X136634111Y-58421271D01*
G37*
G36*
X145775847Y-55095420D02*
G01*
X145757399Y-54973634D01*
X145738255Y-54880055D01*
X145733439Y-54862057D01*
X145714312Y-54795365D01*
X145809494Y-54808090D01*
X145884746Y-54819373D01*
X145928332Y-54831993D01*
X145948876Y-54851792D01*
X145955003Y-54884613D01*
X145955355Y-54906903D01*
X145972084Y-54971582D01*
X146014634Y-55025948D01*
X146071543Y-55057552D01*
X146097254Y-55061045D01*
X146152174Y-55043926D01*
X146202579Y-55001733D01*
X146234495Y-54948211D01*
X146239154Y-54921449D01*
X146240759Y-54891269D01*
X146251802Y-54875293D01*
X146281620Y-54869965D01*
X146339551Y-54871732D01*
X146365850Y-54873232D01*
X146466592Y-54880719D01*
X146532565Y-54890171D01*
X146569539Y-54902975D01*
X146583284Y-54920518D01*
X146583767Y-54925626D01*
X146593076Y-54969006D01*
X146615215Y-55016287D01*
X146641497Y-55051663D01*
X146658095Y-55060887D01*
X146686481Y-55045093D01*
X146691969Y-55035706D01*
X146701128Y-55020768D01*
X146703794Y-55035706D01*
X146721743Y-55058119D01*
X146736304Y-55061045D01*
X146764420Y-55078903D01*
X146791037Y-55123575D01*
X146809144Y-55181711D01*
X146812458Y-55206046D01*
X146830085Y-55231739D01*
X146850153Y-55232801D01*
X146891909Y-55241112D01*
X146909283Y-55255039D01*
X146922166Y-55278251D01*
X146902353Y-55284030D01*
X146880207Y-55297577D01*
X146881963Y-55324573D01*
X146897738Y-55357429D01*
X146909836Y-55365115D01*
X146919273Y-55349448D01*
X146916077Y-55329641D01*
X146909950Y-55305781D01*
X146920118Y-55317523D01*
X146926646Y-55327478D01*
X146953678Y-55403435D01*
X146945881Y-55453567D01*
X146938515Y-55446201D01*
X146928380Y-55456337D01*
X146938515Y-55466472D01*
X146944861Y-55460127D01*
X146940781Y-55486361D01*
X146921676Y-55526443D01*
X146869799Y-55607628D01*
X146810617Y-55685049D01*
X146752365Y-55749024D01*
X146703281Y-55789874D01*
X146692525Y-55795748D01*
X146665520Y-55812748D01*
X146650707Y-55839908D01*
X146644218Y-55888475D01*
X146642560Y-55941035D01*
X146639477Y-56000507D01*
X146633120Y-56059624D01*
X146625035Y-56110244D01*
X146616765Y-56144224D01*
X146609856Y-56153420D01*
X146606059Y-56133501D01*
X146585736Y-56086625D01*
X146541820Y-56051039D01*
X146490796Y-56038850D01*
X146479651Y-56040665D01*
X146438487Y-56041282D01*
X146372503Y-56031861D01*
X146295586Y-56014422D01*
X146291474Y-56013314D01*
X146194769Y-55991033D01*
X146082869Y-55971089D01*
X145986821Y-55958569D01*
X145825709Y-55942849D01*
X145821211Y-55667732D01*
X145816279Y-55531568D01*
X145806359Y-55384232D01*
X145792524Y-55235567D01*
X145785966Y-55180457D01*
X146619505Y-55180457D01*
X146621522Y-55226892D01*
X146626464Y-55268827D01*
X146634633Y-55346600D01*
X146640696Y-55442305D01*
X146643101Y-55522218D01*
X146645903Y-55593542D01*
X146651929Y-55645780D01*
X146659947Y-55668854D01*
X146661059Y-55669186D01*
X146684520Y-55655794D01*
X146721686Y-55622670D01*
X146730720Y-55613439D01*
X146790458Y-55535310D01*
X146813284Y-55461287D01*
X146806197Y-55416083D01*
X146869762Y-55416083D01*
X146870222Y-55437213D01*
X146879861Y-55451739D01*
X146901822Y-55452068D01*
X146925203Y-55430971D01*
X146935031Y-55404104D01*
X146932676Y-55396521D01*
X146917662Y-55392601D01*
X146912801Y-55401715D01*
X146894217Y-55417253D01*
X146886106Y-55414724D01*
X146869762Y-55416083D01*
X146806197Y-55416083D01*
X146801162Y-55383967D01*
X146795455Y-55369214D01*
X146768411Y-55319667D01*
X146728827Y-55263714D01*
X146685427Y-55211877D01*
X146646936Y-55174677D01*
X146623967Y-55162402D01*
X146619505Y-55180457D01*
X145785966Y-55180457D01*
X145779020Y-55122088D01*
X146714960Y-55122088D01*
X146719460Y-55129167D01*
X146746551Y-55141111D01*
X146759296Y-55116683D01*
X146759452Y-55111724D01*
X146750943Y-55084714D01*
X146743755Y-55081317D01*
X146719726Y-55095550D01*
X146714960Y-55122088D01*
X145779020Y-55122088D01*
X145775847Y-55095420D01*
G37*
G36*
X145459547Y-54778687D02*
G01*
X145539496Y-54782610D01*
X145595629Y-54788419D01*
X145619638Y-54795517D01*
X145619700Y-54795612D01*
X145633147Y-54834284D01*
X145648501Y-54905949D01*
X145664788Y-55003159D01*
X145681039Y-55118466D01*
X145696282Y-55244421D01*
X145709547Y-55373578D01*
X145719862Y-55498487D01*
X145726256Y-55611702D01*
X145726324Y-55613439D01*
X145738626Y-55932713D01*
X145689888Y-55930329D01*
X145640122Y-55925499D01*
X145572425Y-55916162D01*
X145545131Y-55911777D01*
X145464933Y-55894766D01*
X145377186Y-55871177D01*
X145347486Y-55861854D01*
X145245858Y-55828098D01*
X145245858Y-55661957D01*
X145237392Y-55463391D01*
X145213427Y-55244268D01*
X145176113Y-55020529D01*
X145134073Y-54832993D01*
X145119834Y-54777246D01*
X145364092Y-54777246D01*
X145459547Y-54778687D01*
G37*
G36*
X145204980Y-59238832D02*
G01*
X145256437Y-59217165D01*
X145266428Y-59216672D01*
X145308703Y-59233803D01*
X145342480Y-59274050D01*
X145355584Y-59320690D01*
X145352988Y-59335559D01*
X145323819Y-59380438D01*
X145280245Y-59412565D01*
X145253567Y-59419385D01*
X145220078Y-59406193D01*
X145196627Y-59387530D01*
X145169743Y-59337068D01*
X145170566Y-59327342D01*
X145208726Y-59327342D01*
X145218076Y-59362960D01*
X145232275Y-59378843D01*
X145234720Y-59361688D01*
X145229556Y-59323096D01*
X145226265Y-59312657D01*
X145253274Y-59312657D01*
X145259923Y-59325337D01*
X145292150Y-59338513D01*
X145320319Y-59326397D01*
X145326943Y-59307893D01*
X145311330Y-59281004D01*
X145297732Y-59277486D01*
X145264552Y-59288708D01*
X145253274Y-59312657D01*
X145226265Y-59312657D01*
X145219639Y-59291643D01*
X145210430Y-59292657D01*
X145210184Y-59293358D01*
X145208726Y-59327342D01*
X145170566Y-59327342D01*
X145174305Y-59283151D01*
X145204980Y-59238832D01*
G37*
G36*
X137600564Y-52206902D02*
G01*
X137589292Y-52225161D01*
X137563890Y-52235139D01*
X137554838Y-52226223D01*
X137556630Y-52198765D01*
X137564035Y-52192020D01*
X137592813Y-52187292D01*
X137600564Y-52206902D01*
G37*
G36*
X146624309Y-59186265D02*
G01*
X146614174Y-59196400D01*
X146604038Y-59186265D01*
X146614174Y-59176129D01*
X146624309Y-59186265D01*
G37*
G36*
X146699865Y-56355018D02*
G01*
X146705395Y-56378683D01*
X146690969Y-56411295D01*
X146660245Y-56418417D01*
X146634445Y-56398954D01*
X146631803Y-56364953D01*
X146658165Y-56341187D01*
X146676184Y-56338140D01*
X146699865Y-56355018D01*
G37*
G36*
X147536520Y-54260327D02*
G01*
X147526384Y-54270463D01*
X147516249Y-54260327D01*
X147526384Y-54250191D01*
X147536520Y-54260327D01*
G37*
G36*
X137112993Y-52908228D02*
G01*
X137148360Y-52894924D01*
X137182014Y-52911409D01*
X137198075Y-52949485D01*
X137198132Y-52952189D01*
X137183316Y-52983802D01*
X137150420Y-52993944D01*
X137116774Y-52980890D01*
X137103583Y-52961598D01*
X137103715Y-52952825D01*
X137147454Y-52952825D01*
X137149061Y-52971505D01*
X137156393Y-52973096D01*
X137177036Y-52958381D01*
X137177861Y-52952825D01*
X137170945Y-52933081D01*
X137168922Y-52932554D01*
X137151614Y-52946758D01*
X137147454Y-52952825D01*
X137103715Y-52952825D01*
X137104172Y-52922412D01*
X137112993Y-52908228D01*
G37*
G36*
X145190135Y-59758110D02*
G01*
X145196949Y-59791650D01*
X145184307Y-59815564D01*
X145148387Y-59842907D01*
X145120293Y-59831837D01*
X145111661Y-59815647D01*
X145110826Y-59772404D01*
X145138588Y-59746205D01*
X145154637Y-59743727D01*
X145190135Y-59758110D01*
G37*
G36*
X146860808Y-55189430D02*
G01*
X146858026Y-55201482D01*
X146847294Y-55202945D01*
X146830609Y-55195528D01*
X146833780Y-55189430D01*
X146857837Y-55187004D01*
X146860808Y-55189430D01*
G37*
G36*
X146382170Y-59135586D02*
G01*
X146522953Y-59135586D01*
X146538379Y-59155269D01*
X146543224Y-59155858D01*
X146562906Y-59140432D01*
X146563495Y-59135586D01*
X146548069Y-59115904D01*
X146543224Y-59115315D01*
X146523542Y-59130741D01*
X146522953Y-59135586D01*
X146382170Y-59135586D01*
X146348208Y-59082060D01*
X146300156Y-58948922D01*
X146296033Y-58926110D01*
X146354031Y-58926110D01*
X146356840Y-58947215D01*
X146378941Y-58978560D01*
X146407931Y-59005103D01*
X146425467Y-59012753D01*
X146447401Y-58999340D01*
X146453939Y-58990555D01*
X146456428Y-58976770D01*
X146443635Y-58982459D01*
X146419455Y-58979923D01*
X146407732Y-58955184D01*
X146388737Y-58917320D01*
X146362162Y-58919096D01*
X146354031Y-58926110D01*
X146296033Y-58926110D01*
X146285653Y-58868681D01*
X146284916Y-58864027D01*
X146375996Y-58864027D01*
X146381257Y-58887905D01*
X146410338Y-58908402D01*
X146452017Y-58939432D01*
X146470876Y-58969010D01*
X146499721Y-59001068D01*
X146562872Y-59033719D01*
X146595554Y-59045832D01*
X146656586Y-59067458D01*
X146683662Y-59081120D01*
X146681467Y-59091133D01*
X146655882Y-59101412D01*
X146621435Y-59119360D01*
X146614378Y-59135917D01*
X146610799Y-59160366D01*
X146604369Y-59165789D01*
X146585416Y-59189115D01*
X146589071Y-59209298D01*
X146609106Y-59210759D01*
X146629333Y-59188308D01*
X146629377Y-59178663D01*
X146626288Y-59164047D01*
X146631439Y-59158461D01*
X146653844Y-59162541D01*
X146702517Y-59176922D01*
X146732047Y-59185910D01*
X146792212Y-59202285D01*
X146832593Y-59203688D01*
X146871870Y-59187964D01*
X146908844Y-59165529D01*
X146976276Y-59113978D01*
X147019431Y-59055270D01*
X147041746Y-58980461D01*
X147046658Y-58880606D01*
X147043442Y-58815320D01*
X147021153Y-58669076D01*
X146977830Y-58553302D01*
X146914725Y-58469726D01*
X146833090Y-58420075D01*
X146746723Y-58405818D01*
X146672656Y-58418824D01*
X146588322Y-58452273D01*
X146511120Y-58497806D01*
X146461756Y-58542673D01*
X146424938Y-58607287D01*
X146396865Y-58688338D01*
X146383525Y-58766115D01*
X146384264Y-58797713D01*
X146382955Y-58843216D01*
X146375996Y-58864027D01*
X146284916Y-58864027D01*
X146277157Y-58815037D01*
X146267502Y-58793021D01*
X146255959Y-58804332D01*
X146241799Y-58850667D01*
X146224295Y-58933725D01*
X146202718Y-59055203D01*
X146200842Y-59066346D01*
X146159161Y-59269000D01*
X146107186Y-59436084D01*
X146042834Y-59571728D01*
X145964020Y-59680064D01*
X145868660Y-59765223D01*
X145837829Y-59786038D01*
X145702694Y-59851994D01*
X145544733Y-59896905D01*
X145377091Y-59918434D01*
X145212908Y-59914245D01*
X145159976Y-59906505D01*
X144947808Y-59850320D01*
X144792706Y-59785137D01*
X145066208Y-59785137D01*
X145084872Y-59830986D01*
X145098890Y-59843460D01*
X145152378Y-59863071D01*
X145198407Y-59848239D01*
X145225586Y-59824812D01*
X145229865Y-59819290D01*
X145327504Y-59819290D01*
X145336967Y-59844902D01*
X145360407Y-59864638D01*
X145376766Y-59856581D01*
X145374816Y-59834948D01*
X145378202Y-59809292D01*
X145397893Y-59804541D01*
X145422765Y-59816119D01*
X145420969Y-59834948D01*
X145419518Y-59861102D01*
X145426767Y-59865355D01*
X145449874Y-59848950D01*
X145457068Y-59819744D01*
X145533886Y-59819744D01*
X145538190Y-59855210D01*
X145549519Y-59865355D01*
X145560477Y-59850487D01*
X145557259Y-59834948D01*
X145560644Y-59809292D01*
X145580335Y-59804541D01*
X145605207Y-59816119D01*
X145603411Y-59834948D01*
X145602883Y-59861056D01*
X145611151Y-59865355D01*
X145624834Y-59848341D01*
X145626784Y-59819744D01*
X145610554Y-59782361D01*
X145580335Y-59774134D01*
X145544196Y-59788174D01*
X145533886Y-59819744D01*
X145457068Y-59819744D01*
X145458817Y-59812643D01*
X145449533Y-59775796D01*
X145446439Y-59771564D01*
X145417114Y-59753862D01*
X145570199Y-59753862D01*
X145580335Y-59763998D01*
X145590471Y-59753862D01*
X145580335Y-59743727D01*
X145570199Y-59753862D01*
X145417114Y-59753862D01*
X145408018Y-59748371D01*
X145367451Y-59753912D01*
X145336644Y-59780211D01*
X145327504Y-59819290D01*
X145229865Y-59819290D01*
X145259629Y-59780879D01*
X145261472Y-59739257D01*
X145245144Y-59701851D01*
X145209368Y-59672337D01*
X145156250Y-59662667D01*
X145104753Y-59674634D01*
X145087741Y-59686967D01*
X145066703Y-59730641D01*
X145066208Y-59785137D01*
X144792706Y-59785137D01*
X144733411Y-59760218D01*
X144527270Y-59640778D01*
X144485399Y-59611963D01*
X144435120Y-59570553D01*
X144786711Y-59570553D01*
X144790180Y-59601749D01*
X144808160Y-59632234D01*
X144853627Y-59673625D01*
X144891109Y-59682913D01*
X144943984Y-59664221D01*
X144974059Y-59632234D01*
X144995507Y-59592559D01*
X144992038Y-59561363D01*
X144974059Y-59530878D01*
X144928591Y-59489487D01*
X144891109Y-59480199D01*
X144838234Y-59498891D01*
X144808160Y-59530878D01*
X144786711Y-59570553D01*
X144435120Y-59570553D01*
X144332181Y-59485771D01*
X144194395Y-59334176D01*
X144105589Y-59205668D01*
X144543455Y-59205668D01*
X144546924Y-59236864D01*
X144564903Y-59267350D01*
X144611218Y-59309161D01*
X144658890Y-59318028D01*
X144711377Y-59306781D01*
X144742762Y-59267350D01*
X144755292Y-59203400D01*
X144736024Y-59150914D01*
X144690416Y-59119783D01*
X144658890Y-59115315D01*
X144598409Y-59131089D01*
X144564903Y-59165993D01*
X144543455Y-59205668D01*
X144105589Y-59205668D01*
X144069600Y-59153589D01*
X143955352Y-58940419D01*
X143849208Y-58691076D01*
X143837145Y-58659210D01*
X143801974Y-58557393D01*
X143778228Y-58465401D01*
X143764961Y-58373058D01*
X143761230Y-58270186D01*
X143766088Y-58146607D01*
X143776909Y-58010526D01*
X143780111Y-57932098D01*
X143778981Y-57827870D01*
X143773894Y-57712310D01*
X143766671Y-57615235D01*
X143726848Y-57299253D01*
X143668169Y-57018425D01*
X143590701Y-56772945D01*
X143494516Y-56563007D01*
X143379683Y-56388807D01*
X143295366Y-56295119D01*
X143200210Y-56217377D01*
X143092513Y-56161714D01*
X142959973Y-56122090D01*
X142929856Y-56115650D01*
X142867663Y-56101393D01*
X142825375Y-56088553D01*
X142813296Y-56081426D01*
X142822627Y-56060481D01*
X142847879Y-56012028D01*
X142884937Y-55943807D01*
X142919720Y-55881260D01*
X143026145Y-55691679D01*
X143133507Y-55677979D01*
X143298571Y-55677184D01*
X143468267Y-55715727D01*
X143640430Y-55792978D01*
X143739531Y-55854565D01*
X143810519Y-55918260D01*
X143889454Y-56015197D01*
X143973110Y-56139644D01*
X144058261Y-56285870D01*
X144141682Y-56448144D01*
X144220145Y-56620734D01*
X144290424Y-56797910D01*
X144323123Y-56891326D01*
X144370318Y-57049188D01*
X144416918Y-57234117D01*
X144460121Y-57432695D01*
X144497125Y-57631505D01*
X144525129Y-57817131D01*
X144535751Y-57909475D01*
X144554154Y-58075654D01*
X144575394Y-58220263D01*
X144602114Y-58354644D01*
X144636956Y-58490139D01*
X144682562Y-58638092D01*
X144741575Y-58809844D01*
X144752925Y-58841652D01*
X144806824Y-58985591D01*
X144855322Y-59098642D01*
X144902949Y-59189223D01*
X144954236Y-59265753D01*
X145013715Y-59336652D01*
X145027054Y-59350961D01*
X145142947Y-59449356D01*
X145267793Y-59508330D01*
X145402702Y-59528155D01*
X145548782Y-59509102D01*
X145605071Y-59492527D01*
X145685806Y-59454523D01*
X145772936Y-59396299D01*
X145854343Y-59327652D01*
X145917907Y-59258384D01*
X145943202Y-59219103D01*
X145960087Y-59175174D01*
X145975071Y-59119609D01*
X145985525Y-59065549D01*
X145988823Y-59026135D01*
X145984212Y-59013958D01*
X145961591Y-59022744D01*
X145929741Y-59039297D01*
X145893292Y-59059488D01*
X145877933Y-59067730D01*
X145882059Y-59084736D01*
X145896336Y-59110656D01*
X145913031Y-59162378D01*
X145896390Y-59199647D01*
X145851310Y-59213738D01*
X145838910Y-59212961D01*
X145796087Y-59193626D01*
X145791678Y-59186265D01*
X145813455Y-59186265D01*
X145823591Y-59196400D01*
X145833727Y-59186265D01*
X145823591Y-59176129D01*
X145813455Y-59186265D01*
X145791678Y-59186265D01*
X145774148Y-59157000D01*
X145775263Y-59134066D01*
X145817341Y-59134066D01*
X145827126Y-59152550D01*
X145843862Y-59155858D01*
X145869092Y-59145572D01*
X145870384Y-59134066D01*
X145849456Y-59113122D01*
X145843862Y-59112274D01*
X145820094Y-59128056D01*
X145817341Y-59134066D01*
X145775263Y-59134066D01*
X145776087Y-59117121D01*
X145804900Y-59088024D01*
X145811708Y-59085462D01*
X145839857Y-59070271D01*
X145834821Y-59044100D01*
X145828238Y-59032974D01*
X145817747Y-58992556D01*
X145842656Y-58992556D01*
X145847792Y-59000995D01*
X145877218Y-59013327D01*
X145884548Y-59003823D01*
X145914812Y-59003823D01*
X145924948Y-59013958D01*
X145935084Y-59003823D01*
X145924948Y-58993687D01*
X145914812Y-59003823D01*
X145884548Y-59003823D01*
X145893952Y-58991630D01*
X145894541Y-58983551D01*
X145884230Y-58956565D01*
X145875466Y-58953144D01*
X145848995Y-58966557D01*
X145842656Y-58992556D01*
X145817747Y-58992556D01*
X145815710Y-58984706D01*
X145832822Y-58944602D01*
X145868900Y-58921251D01*
X145913272Y-58923241D01*
X145941311Y-58941996D01*
X145975056Y-58969479D01*
X145991506Y-58961997D01*
X145995897Y-58917062D01*
X145995898Y-58916060D01*
X145989591Y-58874240D01*
X145964527Y-58860561D01*
X145950287Y-58860314D01*
X145911425Y-58848716D01*
X145898187Y-58816222D01*
X145901701Y-58797731D01*
X145921569Y-58797731D01*
X145924352Y-58809782D01*
X145935084Y-58811245D01*
X145951769Y-58803828D01*
X145948598Y-58797731D01*
X145924540Y-58795304D01*
X145921569Y-58797731D01*
X145901701Y-58797731D01*
X145906354Y-58773251D01*
X145936214Y-58754159D01*
X145973259Y-58764904D01*
X145987360Y-58779595D01*
X146004426Y-58797289D01*
X146017199Y-58788925D01*
X146031192Y-58748688D01*
X146037093Y-58727142D01*
X146101452Y-58554305D01*
X146194347Y-58405650D01*
X146287505Y-58310829D01*
X146910170Y-58310829D01*
X146921623Y-58331489D01*
X146954517Y-58343608D01*
X146981187Y-58321287D01*
X146982167Y-58305967D01*
X146963144Y-58310119D01*
X146939774Y-58311614D01*
X146941716Y-58293293D01*
X146940263Y-58267896D01*
X146930548Y-58263918D01*
X146911400Y-58279187D01*
X146910170Y-58310829D01*
X146287505Y-58310829D01*
X146312861Y-58285021D01*
X146341822Y-58266087D01*
X146847294Y-58266087D01*
X146854362Y-58283083D01*
X146877424Y-58265754D01*
X146888222Y-58253319D01*
X146903012Y-58231342D01*
X146886996Y-58232828D01*
X146880569Y-58235216D01*
X146852012Y-58255013D01*
X146847294Y-58266087D01*
X146341822Y-58266087D01*
X146431732Y-58207305D01*
X146480076Y-58186211D01*
X146583767Y-58186211D01*
X146600234Y-58201212D01*
X146614174Y-58203104D01*
X146634425Y-58196243D01*
X146706995Y-58196243D01*
X146716287Y-58230443D01*
X146739771Y-58235014D01*
X146773400Y-58219547D01*
X146781384Y-58208259D01*
X146773631Y-58179651D01*
X146764147Y-58171423D01*
X146749171Y-58167962D01*
X146754137Y-58179701D01*
X146756156Y-58200595D01*
X146748823Y-58203104D01*
X146724087Y-58187241D01*
X146718820Y-58177765D01*
X146710492Y-58173914D01*
X146706995Y-58196243D01*
X146634425Y-58196243D01*
X146641175Y-58193956D01*
X146644581Y-58186211D01*
X146628114Y-58171211D01*
X146614174Y-58169319D01*
X146587172Y-58178467D01*
X146583767Y-58186211D01*
X146480076Y-58186211D01*
X146503845Y-58175840D01*
X146576709Y-58159362D01*
X146669177Y-58153774D01*
X146678357Y-58153672D01*
X146767593Y-58155157D01*
X146820646Y-58162650D01*
X146841655Y-58177912D01*
X146834757Y-58202704D01*
X146824844Y-58216007D01*
X146807793Y-58238642D01*
X146818220Y-58236296D01*
X146840724Y-58222694D01*
X146884247Y-58205761D01*
X146931261Y-58216475D01*
X146938156Y-58219524D01*
X146972161Y-58242871D01*
X146978694Y-58264507D01*
X146977078Y-58281754D01*
X146982619Y-58282291D01*
X147016034Y-58282695D01*
X147047318Y-58301170D01*
X147084571Y-58344233D01*
X147117262Y-58390614D01*
X147189499Y-58524832D01*
X147235031Y-58670061D01*
X147253101Y-58817570D01*
X147242953Y-58958629D01*
X147203831Y-59084507D01*
X147181054Y-59126798D01*
X147095242Y-59236502D01*
X146994629Y-59309534D01*
X146875533Y-59348207D01*
X146818475Y-59354803D01*
X146737223Y-59355558D01*
X146661232Y-59348971D01*
X146619128Y-59339935D01*
X146512454Y-59284293D01*
X146420882Y-59196400D01*
X146533088Y-59196400D01*
X146534696Y-59215080D01*
X146542028Y-59216672D01*
X146543707Y-59215475D01*
X146685123Y-59215475D01*
X146699839Y-59236118D01*
X146705395Y-59236943D01*
X146716175Y-59233167D01*
X146791158Y-59233167D01*
X146791779Y-59254678D01*
X146798598Y-59262575D01*
X146824700Y-59267043D01*
X146855756Y-59255306D01*
X146867566Y-59239118D01*
X146850536Y-59227927D01*
X146827023Y-59225359D01*
X146791158Y-59233167D01*
X146716175Y-59233167D01*
X146725139Y-59230027D01*
X146725666Y-59228004D01*
X146711461Y-59210697D01*
X146705395Y-59206536D01*
X146686715Y-59208143D01*
X146685123Y-59215475D01*
X146543707Y-59215475D01*
X146562670Y-59201957D01*
X146563495Y-59196400D01*
X146556579Y-59176656D01*
X146554556Y-59176129D01*
X146537249Y-59190334D01*
X146533088Y-59196400D01*
X146420882Y-59196400D01*
X146420561Y-59196092D01*
X146382170Y-59135586D01*
G37*
G36*
X146602438Y-56384404D02*
G01*
X146620664Y-56419303D01*
X146649649Y-56438865D01*
X146695259Y-56457198D01*
X146649012Y-56458483D01*
X146608094Y-56447971D01*
X146591354Y-56430030D01*
X146587135Y-56387430D01*
X146590390Y-56374284D01*
X146599419Y-56366156D01*
X146602438Y-56384404D01*
G37*
G36*
X137122872Y-53076971D02*
G01*
X137124351Y-53103590D01*
X137103301Y-53127162D01*
X137089867Y-53131763D01*
X137061608Y-53127578D01*
X137059737Y-53101633D01*
X137079424Y-53070415D01*
X137097053Y-53064317D01*
X137122872Y-53076971D01*
G37*
G36*
X147526384Y-53776620D02*
G01*
X147553057Y-53791008D01*
X147556791Y-53796255D01*
X147540238Y-53803341D01*
X147526384Y-53804222D01*
X147499403Y-53793613D01*
X147495977Y-53784586D01*
X147510836Y-53773433D01*
X147526384Y-53776620D01*
G37*
G36*
X146706047Y-56309643D02*
G01*
X146731586Y-56335431D01*
X146745317Y-56359434D01*
X146743758Y-56365659D01*
X146725721Y-56357713D01*
X146700327Y-56334762D01*
X146680021Y-56307468D01*
X146682641Y-56297597D01*
X146706047Y-56309643D01*
G37*
G36*
X147483700Y-54176056D02*
G01*
X147508509Y-54197676D01*
X147507205Y-54228154D01*
X147475979Y-54249052D01*
X147441494Y-54238946D01*
X147427538Y-54219017D01*
X147432384Y-54186009D01*
X147447003Y-54175783D01*
X147483700Y-54176056D01*
G37*
G36*
X146802064Y-56634628D02*
G01*
X146829866Y-56667703D01*
X146835730Y-56707167D01*
X146818030Y-56735719D01*
X146811830Y-56738496D01*
X146785136Y-56732180D01*
X146771950Y-56703858D01*
X146777428Y-56671199D01*
X146788594Y-56658893D01*
X146805844Y-56644593D01*
X146787753Y-56647581D01*
X146786480Y-56647949D01*
X146763520Y-56673811D01*
X146759890Y-56710306D01*
X146759632Y-56753981D01*
X146748900Y-56758561D01*
X146726304Y-56724460D01*
X146724400Y-56720931D01*
X146716133Y-56675382D01*
X146734719Y-56639694D01*
X146770148Y-56624993D01*
X146802064Y-56634628D01*
G37*
G36*
X147360615Y-54414066D02*
G01*
X147368416Y-54432405D01*
X147385930Y-54459604D01*
X147401993Y-54458921D01*
X147409733Y-54460439D01*
X147397206Y-54479421D01*
X147370802Y-54506838D01*
X147357040Y-54512766D01*
X147364022Y-54493759D01*
X147364214Y-54493447D01*
X147358007Y-54477492D01*
X147335003Y-54473176D01*
X147300317Y-54459446D01*
X147293264Y-54432633D01*
X147305994Y-54399907D01*
X147333690Y-54393702D01*
X147360615Y-54414066D01*
G37*
G36*
X146419996Y-56222233D02*
G01*
X146438222Y-56257133D01*
X146467206Y-56276694D01*
X146512817Y-56295028D01*
X146466570Y-56296313D01*
X146425652Y-56285800D01*
X146408912Y-56267859D01*
X146404693Y-56225260D01*
X146407948Y-56212113D01*
X146416977Y-56203985D01*
X146419996Y-56222233D01*
G37*
G36*
X147297730Y-54333760D02*
G01*
X147283128Y-54335764D01*
X147251209Y-54354236D01*
X147236744Y-54402649D01*
X147236220Y-54407634D01*
X147237799Y-54457478D01*
X147260270Y-54484482D01*
X147276763Y-54492336D01*
X147304053Y-54506507D01*
X147292759Y-54512274D01*
X147289606Y-54512434D01*
X147256392Y-54530495D01*
X147246786Y-54549194D01*
X147241764Y-54560646D01*
X147242447Y-54539671D01*
X147240070Y-54508653D01*
X147230922Y-54504527D01*
X147207573Y-54500232D01*
X147202247Y-54493778D01*
X147170689Y-54475712D01*
X147123534Y-54476259D01*
X147080433Y-54493996D01*
X147070498Y-54503320D01*
X147055348Y-54547225D01*
X147058301Y-54584546D01*
X147062674Y-54620766D01*
X147055497Y-54631799D01*
X147028044Y-54635317D01*
X146978212Y-54648742D01*
X146958787Y-54654955D01*
X146926141Y-54662037D01*
X146871490Y-54668362D01*
X146792183Y-54674037D01*
X146685569Y-54679168D01*
X146548996Y-54683865D01*
X146379813Y-54688233D01*
X146175369Y-54692380D01*
X145935084Y-54696381D01*
X145712538Y-54699897D01*
X145526478Y-54703164D01*
X145372849Y-54706394D01*
X145247596Y-54709798D01*
X145146664Y-54713586D01*
X145066000Y-54717971D01*
X145001547Y-54723162D01*
X144949252Y-54729370D01*
X144905060Y-54736807D01*
X144864916Y-54745684D01*
X144834066Y-54753673D01*
X144648096Y-54816625D01*
X144485691Y-54900785D01*
X144338063Y-55011969D01*
X144196421Y-55155994D01*
X144158430Y-55200822D01*
X144049858Y-55332449D01*
X144217994Y-55366489D01*
X144334507Y-55394566D01*
X144441587Y-55431434D01*
X144548292Y-55481515D01*
X144663681Y-55549230D01*
X144796811Y-55639002D01*
X144841447Y-55670811D01*
X144968919Y-55760632D01*
X145079274Y-55832477D01*
X145180112Y-55888976D01*
X145279029Y-55932761D01*
X145383625Y-55966462D01*
X145501498Y-55992711D01*
X145640246Y-56014139D01*
X145807467Y-56033377D01*
X145920930Y-56044610D01*
X145993065Y-56052785D01*
X146031240Y-56061474D01*
X146041990Y-56073114D01*
X146034601Y-56086964D01*
X146021519Y-56121159D01*
X146046266Y-56143028D01*
X146065420Y-56147438D01*
X146086360Y-56134818D01*
X146088281Y-56106475D01*
X146087823Y-56080352D01*
X146100520Y-56069837D01*
X146136022Y-56072346D01*
X146182969Y-56081131D01*
X146235696Y-56094325D01*
X146263519Y-56106927D01*
X146263944Y-56113061D01*
X146247568Y-56141798D01*
X146245598Y-56158476D01*
X146259785Y-56182556D01*
X146288824Y-56184637D01*
X146313421Y-56164581D01*
X146315766Y-56158981D01*
X146308848Y-56144341D01*
X146286458Y-56148778D01*
X146263221Y-56152606D01*
X146265079Y-56144828D01*
X146295405Y-56133233D01*
X146351282Y-56126397D01*
X146417961Y-56124639D01*
X146480694Y-56128278D01*
X146524732Y-56137634D01*
X146528020Y-56139136D01*
X146557598Y-56164617D01*
X146563495Y-56180444D01*
X146576307Y-56210738D01*
X146605944Y-56248947D01*
X146648392Y-56294131D01*
X146604760Y-56317483D01*
X146573136Y-56346799D01*
X146566571Y-56395236D01*
X146567379Y-56405369D01*
X146577975Y-56451798D01*
X146605911Y-56471858D01*
X146633445Y-56476711D01*
X146692922Y-56469666D01*
X146718250Y-56449342D01*
X146745949Y-56429360D01*
X146770862Y-56432250D01*
X146777979Y-56453442D01*
X146772567Y-56465880D01*
X146755779Y-56512710D01*
X146763277Y-56548670D01*
X146788672Y-56561125D01*
X146826057Y-56571268D01*
X146837159Y-56581396D01*
X146829286Y-56595796D01*
X146789993Y-56601662D01*
X146788390Y-56601668D01*
X146728745Y-56616274D01*
X146697933Y-56654415D01*
X146700678Y-56707571D01*
X146714557Y-56734791D01*
X146758368Y-56776930D01*
X146804195Y-56782256D01*
X146844304Y-56753307D01*
X146870963Y-56692625D01*
X146872998Y-56682753D01*
X146879816Y-56649135D01*
X146883019Y-56653623D01*
X146885076Y-56688096D01*
X146880975Y-56743453D01*
X146870423Y-56779317D01*
X146854704Y-56817662D01*
X146832793Y-56878865D01*
X146817168Y-56925847D01*
X146765317Y-57044379D01*
X146687801Y-57168287D01*
X146593127Y-57287227D01*
X146489802Y-57390855D01*
X146386332Y-57468826D01*
X146356984Y-57485435D01*
X146317131Y-57513679D01*
X146299981Y-57540973D01*
X146299968Y-57541564D01*
X146290415Y-57575088D01*
X146263921Y-57637564D01*
X146223733Y-57722783D01*
X146173097Y-57824536D01*
X146115258Y-57936616D01*
X146053465Y-58052814D01*
X145990964Y-58166922D01*
X145931000Y-58272732D01*
X145876821Y-58364035D01*
X145837416Y-58426089D01*
X145772063Y-58521272D01*
X145700397Y-58620823D01*
X145626961Y-58718955D01*
X145556297Y-58809883D01*
X145492948Y-58887820D01*
X145441456Y-58946981D01*
X145406365Y-58981577D01*
X145396394Y-58987855D01*
X145369610Y-58980143D01*
X145323049Y-58953109D01*
X145281980Y-58923947D01*
X145206960Y-58855474D01*
X145123182Y-58760757D01*
X145038918Y-58650347D01*
X144962437Y-58534794D01*
X144922921Y-58465880D01*
X144862925Y-58353636D01*
X144935114Y-58263166D01*
X145135017Y-57985243D01*
X145317311Y-57676383D01*
X145366575Y-57574692D01*
X145631013Y-57574692D01*
X145649105Y-57633722D01*
X145694889Y-57683884D01*
X145755627Y-57713290D01*
X145783048Y-57716592D01*
X145848225Y-57702847D01*
X145893070Y-57663180D01*
X145922377Y-57615919D01*
X145935069Y-57575627D01*
X145935084Y-57574692D01*
X145916992Y-57515663D01*
X145871208Y-57465501D01*
X145810470Y-57436095D01*
X145783048Y-57432793D01*
X145719803Y-57449679D01*
X145666058Y-57492410D01*
X145634552Y-57549099D01*
X145631013Y-57574692D01*
X145366575Y-57574692D01*
X145478501Y-57343655D01*
X145615093Y-56994129D01*
X145704318Y-56707124D01*
X145724384Y-56692199D01*
X145774136Y-56691910D01*
X145856221Y-56706532D01*
X145966017Y-56734335D01*
X146070803Y-56775038D01*
X146173263Y-56835852D01*
X146266458Y-56910265D01*
X146343448Y-56991762D01*
X146397291Y-57073832D01*
X146421048Y-57149962D01*
X146421596Y-57161855D01*
X146423314Y-57207744D01*
X146433488Y-57220046D01*
X146459648Y-57205705D01*
X146465055Y-57201938D01*
X146533750Y-57133441D01*
X146573143Y-57050281D01*
X146581176Y-56962266D01*
X146555791Y-56879201D01*
X146550633Y-56871380D01*
X146714038Y-56871380D01*
X146721173Y-56891657D01*
X146744895Y-56905048D01*
X146776449Y-56893390D01*
X146799687Y-56864324D01*
X146802659Y-56853101D01*
X146798639Y-56821278D01*
X146767002Y-56814145D01*
X146762116Y-56814445D01*
X146722614Y-56832434D01*
X146714038Y-56871380D01*
X146550633Y-56871380D01*
X146538331Y-56852726D01*
X146488087Y-56793691D01*
X146435041Y-56746421D01*
X146367335Y-56701811D01*
X146279696Y-56654152D01*
X146157873Y-56596243D01*
X146067271Y-56562613D01*
X146592454Y-56562613D01*
X146607500Y-56593124D01*
X146640294Y-56601782D01*
X146672321Y-56584865D01*
X146676190Y-56579451D01*
X146674481Y-56549594D01*
X146657115Y-56524429D01*
X146631346Y-56505454D01*
X146624309Y-56517435D01*
X146615032Y-56535141D01*
X146608382Y-56533403D01*
X146595505Y-56541583D01*
X146592454Y-56562613D01*
X146067271Y-56562613D01*
X146040863Y-56552811D01*
X145918266Y-56521385D01*
X145779680Y-56499493D01*
X145614706Y-56484665D01*
X145549928Y-56480748D01*
X145300713Y-56459406D01*
X145184546Y-56440385D01*
X146390640Y-56440385D01*
X146391618Y-56470510D01*
X146412995Y-56503834D01*
X146441794Y-56520539D01*
X146443153Y-56520582D01*
X146468114Y-56505971D01*
X146472274Y-56500311D01*
X146466067Y-56484356D01*
X146443064Y-56480040D01*
X146409472Y-56472239D01*
X146401325Y-56460932D01*
X146417754Y-56448761D01*
X146441867Y-56449633D01*
X146474406Y-56448156D01*
X146482410Y-56438333D01*
X146466660Y-56422628D01*
X146432535Y-56420445D01*
X146399722Y-56431345D01*
X146390640Y-56440385D01*
X145184546Y-56440385D01*
X145086439Y-56424321D01*
X144903683Y-56374860D01*
X144828937Y-56346974D01*
X144734917Y-56301407D01*
X146243431Y-56301407D01*
X146255619Y-56343295D01*
X146259639Y-56348534D01*
X146290146Y-56375358D01*
X146322141Y-56369737D01*
X146337437Y-56360740D01*
X146358299Y-56328996D01*
X146350434Y-56291497D01*
X146319157Y-56264510D01*
X146304738Y-56260701D01*
X146262107Y-56269390D01*
X146243431Y-56301407D01*
X144734917Y-56301407D01*
X144549601Y-56211593D01*
X144528401Y-56198028D01*
X146106337Y-56198028D01*
X146110956Y-56228630D01*
X146137586Y-56254084D01*
X146173193Y-56250760D01*
X146189567Y-56235017D01*
X146189563Y-56234856D01*
X146381158Y-56234856D01*
X146385733Y-56279685D01*
X146406392Y-56304444D01*
X146470894Y-56316140D01*
X146523216Y-56299371D01*
X146543951Y-56275967D01*
X146555125Y-56234117D01*
X146536848Y-56189074D01*
X146534062Y-56184746D01*
X146499252Y-56144612D01*
X146461680Y-56138960D01*
X146420263Y-56156411D01*
X146393208Y-56188005D01*
X146381158Y-56234856D01*
X146189563Y-56234856D01*
X146188723Y-56204466D01*
X146177644Y-56189407D01*
X146160475Y-56178545D01*
X146163342Y-56200272D01*
X146165270Y-56206376D01*
X146172806Y-56233980D01*
X146162763Y-56226493D01*
X146151046Y-56211759D01*
X146122190Y-56188595D01*
X146106337Y-56198028D01*
X144528401Y-56198028D01*
X144285590Y-56042665D01*
X144116012Y-55908272D01*
X144004100Y-55828399D01*
X143863097Y-55753556D01*
X143704446Y-55687921D01*
X143539591Y-55635671D01*
X143379973Y-55600986D01*
X143238994Y-55588056D01*
X143185899Y-55585925D01*
X143151643Y-55577309D01*
X143136602Y-55557359D01*
X143141152Y-55521221D01*
X143165668Y-55464044D01*
X143210527Y-55380976D01*
X143261951Y-55291519D01*
X143326113Y-55183197D01*
X143379068Y-55100940D01*
X143428552Y-55034967D01*
X143482301Y-54975496D01*
X143548049Y-54912747D01*
X143594007Y-54871633D01*
X143822377Y-54679943D01*
X144045031Y-54512671D01*
X144258248Y-54372236D01*
X144458304Y-54261058D01*
X144641481Y-54181557D01*
X144671768Y-54170999D01*
X144750563Y-54148395D01*
X144851682Y-54124574D01*
X144957254Y-54103625D01*
X144992079Y-54097707D01*
X145057790Y-54087742D01*
X145116411Y-54080977D01*
X145175105Y-54077518D01*
X145241036Y-54077473D01*
X145321366Y-54080948D01*
X145423259Y-54088050D01*
X145553878Y-54098887D01*
X145652998Y-54107578D01*
X145926911Y-54129546D01*
X146163734Y-54143325D01*
X146366136Y-54148667D01*
X146536785Y-54145319D01*
X146678349Y-54133030D01*
X146793497Y-54111551D01*
X146884897Y-54080629D01*
X146955218Y-54040014D01*
X147007129Y-53989455D01*
X147014530Y-53979550D01*
X147047949Y-53905812D01*
X147066346Y-53808150D01*
X147068897Y-53700619D01*
X147054776Y-53597273D01*
X147039888Y-53548050D01*
X146988296Y-53459254D01*
X146914577Y-53404020D01*
X146819360Y-53382356D01*
X146703271Y-53394270D01*
X146566940Y-53439768D01*
X146410993Y-53518858D01*
X146374926Y-53540272D01*
X146292512Y-53590475D01*
X146239702Y-53625506D01*
X146211962Y-53652060D01*
X146204759Y-53676835D01*
X146213558Y-53706528D01*
X146233825Y-53747835D01*
X146234068Y-53748325D01*
X146267901Y-53820721D01*
X146301727Y-53899935D01*
X146331306Y-53975167D01*
X146352401Y-54035619D01*
X146360771Y-54070493D01*
X146360782Y-54071117D01*
X146359706Y-54077650D01*
X146353649Y-54082396D01*
X146338370Y-54085174D01*
X146309626Y-54085803D01*
X146263176Y-54084104D01*
X146194775Y-54079896D01*
X146100184Y-54072999D01*
X145975158Y-54063231D01*
X145815457Y-54050413D01*
X145750326Y-54045152D01*
X145454075Y-54021208D01*
X145398965Y-53907647D01*
X145215358Y-53574461D01*
X144996708Y-53256732D01*
X144746814Y-52958293D01*
X144469476Y-52682980D01*
X144168493Y-52434629D01*
X144135715Y-52412402D01*
X144597175Y-52412402D01*
X144613469Y-52481778D01*
X144655614Y-52533126D01*
X144713499Y-52561678D01*
X144777016Y-52562665D01*
X144836056Y-52531321D01*
X144840431Y-52527127D01*
X144876255Y-52465622D01*
X144879622Y-52395281D01*
X144851445Y-52330292D01*
X144826105Y-52304467D01*
X144761803Y-52275396D01*
X144696326Y-52279460D01*
X144640353Y-52311626D01*
X144604560Y-52366859D01*
X144597175Y-52412402D01*
X144135715Y-52412402D01*
X143847664Y-52217073D01*
X143573471Y-52064866D01*
X143193954Y-51896005D01*
X142808147Y-51766818D01*
X142417433Y-51677407D01*
X142023197Y-51627878D01*
X141626823Y-51618335D01*
X141229695Y-51648882D01*
X140833197Y-51719623D01*
X140443120Y-51829194D01*
X140121969Y-51949003D01*
X139825132Y-52088190D01*
X139540673Y-52253040D01*
X139256654Y-52449840D01*
X139237991Y-52463837D01*
X139037201Y-52615090D01*
X138995218Y-52555905D01*
X138930605Y-52475206D01*
X138846942Y-52385358D01*
X138754226Y-52295833D01*
X138662452Y-52216108D01*
X138581614Y-52155658D01*
X138556672Y-52140185D01*
X138496229Y-52103763D01*
X138452710Y-52074093D01*
X138435309Y-52057453D01*
X138435287Y-52057245D01*
X138450603Y-52036631D01*
X138493774Y-51997097D01*
X138559357Y-51942848D01*
X138641907Y-51878091D01*
X138735982Y-51807034D01*
X138836138Y-51733882D01*
X138936931Y-51662841D01*
X139008885Y-51613999D01*
X139388914Y-51383815D01*
X139620654Y-51270303D01*
X141536201Y-51270303D01*
X141554293Y-51329332D01*
X141600077Y-51379494D01*
X141660814Y-51408900D01*
X141688236Y-51412202D01*
X141753412Y-51398457D01*
X141798257Y-51358790D01*
X141827565Y-51311530D01*
X141840257Y-51271237D01*
X141840271Y-51270303D01*
X141822179Y-51211274D01*
X141776395Y-51161112D01*
X141715657Y-51131706D01*
X141688236Y-51128404D01*
X141624990Y-51145289D01*
X141571245Y-51188021D01*
X141539739Y-51244710D01*
X141536201Y-51270303D01*
X139620654Y-51270303D01*
X139779541Y-51192476D01*
X140181772Y-51039682D01*
X140596613Y-50925132D01*
X141025069Y-50848524D01*
X141468146Y-50809558D01*
X141715384Y-50804062D01*
X142132382Y-50818218D01*
X142526786Y-50861740D01*
X142905524Y-50936203D01*
X143275525Y-51043187D01*
X143643716Y-51184270D01*
X143897813Y-51301088D01*
X144288092Y-51514272D01*
X144653800Y-51759614D01*
X144994486Y-52036684D01*
X145309696Y-52345051D01*
X145598980Y-52684284D01*
X145861883Y-53053954D01*
X146029963Y-53330575D01*
X146169845Y-53576562D01*
X146213116Y-53510552D01*
X146288432Y-53422645D01*
X146395406Y-53336103D01*
X146525486Y-53257487D01*
X146574294Y-53233338D01*
X146654998Y-53198319D01*
X146721744Y-53178486D01*
X146793276Y-53169809D01*
X146877214Y-53168208D01*
X146969734Y-53170943D01*
X147038236Y-53180717D01*
X147099079Y-53200911D01*
X147148125Y-53224209D01*
X147277917Y-53306708D01*
X147390353Y-53409221D01*
X147475127Y-53521943D01*
X147490511Y-53550016D01*
X147526043Y-53611900D01*
X147561564Y-53660748D01*
X147579918Y-53678675D01*
X147609655Y-53721271D01*
X147615207Y-53759761D01*
X147612809Y-53814357D01*
X147597334Y-53753543D01*
X147586451Y-53722170D01*
X147579874Y-53724301D01*
X147579461Y-53728204D01*
X147563079Y-53758291D01*
X147546656Y-53763679D01*
X147519071Y-53753144D01*
X147525556Y-53724527D01*
X147541588Y-53704951D01*
X147554630Y-53685684D01*
X147533074Y-53684908D01*
X147528614Y-53685694D01*
X147497120Y-53707745D01*
X147482643Y-53748202D01*
X147486841Y-53790254D01*
X147511372Y-53817091D01*
X147515523Y-53818430D01*
X147551664Y-53840682D01*
X147564245Y-53873039D01*
X147551069Y-53900919D01*
X147529261Y-53909523D01*
X147493877Y-53931632D01*
X147477415Y-53973652D01*
X147484130Y-54017697D01*
X147499120Y-54036206D01*
X147524423Y-54073883D01*
X147529560Y-54095251D01*
X147526491Y-54119629D01*
X147510302Y-54110454D01*
X147464945Y-54088947D01*
X147416431Y-54103105D01*
X147383512Y-54137340D01*
X147364514Y-54194118D01*
X147380472Y-54241375D01*
X147426388Y-54269119D01*
X147451080Y-54272483D01*
X147506113Y-54274504D01*
X147455435Y-54289091D01*
X147416923Y-54312008D01*
X147407439Y-54336954D01*
X147403437Y-54364802D01*
X147397304Y-54368624D01*
X147326401Y-54372366D01*
X147281481Y-54402870D01*
X147273624Y-54417430D01*
X147255291Y-54463040D01*
X147254006Y-54418437D01*
X147267831Y-54372955D01*
X147288196Y-54351809D01*
X147307731Y-54338034D01*
X147340564Y-54338034D01*
X147343346Y-54350085D01*
X147354078Y-54351548D01*
X147370764Y-54344131D01*
X147367592Y-54338034D01*
X147343535Y-54335608D01*
X147340564Y-54338034D01*
X147307731Y-54338034D01*
X147311420Y-54335433D01*
X147297730Y-54333760D01*
G37*
G36*
X145429682Y-59773470D02*
G01*
X145435303Y-59779202D01*
X145425882Y-59790787D01*
X145397893Y-59794405D01*
X145365553Y-59789019D01*
X145360482Y-59779202D01*
X145386634Y-59765126D01*
X145397893Y-59763998D01*
X145429682Y-59773470D01*
G37*
G36*
X147222171Y-54635579D02*
G01*
X147200489Y-54652383D01*
X147177254Y-54655203D01*
X147171636Y-54647651D01*
X147187537Y-54634632D01*
X147203096Y-54627612D01*
X147224021Y-54626195D01*
X147222171Y-54635579D01*
G37*
G36*
X137846815Y-59084908D02*
G01*
X137870066Y-59100365D01*
X137876651Y-59133254D01*
X137864933Y-59163353D01*
X137853741Y-59170442D01*
X137826231Y-59167064D01*
X137822019Y-59161996D01*
X137814616Y-59120950D01*
X137824275Y-59101801D01*
X137833301Y-59101801D01*
X137836084Y-59113852D01*
X137846815Y-59115315D01*
X137863501Y-59107898D01*
X137860330Y-59101801D01*
X137836272Y-59099375D01*
X137833301Y-59101801D01*
X137824275Y-59101801D01*
X137829878Y-59090692D01*
X137846815Y-59084908D01*
G37*
G36*
X144586471Y-59184949D02*
G01*
X144597806Y-59211604D01*
X144631187Y-59249683D01*
X144668667Y-59257214D01*
X144703561Y-59263578D01*
X144708667Y-59277486D01*
X144677418Y-59294193D01*
X144627130Y-59292033D01*
X144602242Y-59284332D01*
X144583808Y-59258661D01*
X144578188Y-59220050D01*
X144580098Y-59183308D01*
X144586471Y-59184949D01*
G37*
G36*
X137060190Y-58826789D02*
G01*
X137105272Y-58826789D01*
X137107981Y-58833247D01*
X137132591Y-58843291D01*
X137139050Y-58840582D01*
X137149093Y-58815972D01*
X137146384Y-58809513D01*
X137121774Y-58799470D01*
X137115315Y-58802179D01*
X137105272Y-58826789D01*
X137060190Y-58826789D01*
X137063575Y-58804605D01*
X137091375Y-58777330D01*
X137132967Y-58774501D01*
X137154070Y-58784128D01*
X137189296Y-58819799D01*
X137184347Y-58858652D01*
X137167182Y-58879842D01*
X137129911Y-58908674D01*
X137099905Y-58904670D01*
X137080558Y-58888276D01*
X137066348Y-58861923D01*
X137076504Y-58861923D01*
X137086640Y-58872059D01*
X137096775Y-58861923D01*
X137086640Y-58851787D01*
X137076504Y-58861923D01*
X137066348Y-58861923D01*
X137057369Y-58845272D01*
X137060190Y-58826789D01*
G37*
G36*
X136966345Y-58631104D02*
G01*
X136980215Y-58632461D01*
X137018352Y-58652599D01*
X137025826Y-58679481D01*
X137009264Y-58715732D01*
X136980215Y-58726501D01*
X136946437Y-58723966D01*
X136935128Y-58695676D01*
X136934605Y-58679481D01*
X136936241Y-58669345D01*
X136975147Y-58669345D01*
X136982064Y-58689090D01*
X136984087Y-58689617D01*
X137001394Y-58675412D01*
X137005554Y-58669345D01*
X137003947Y-58650666D01*
X136996615Y-58649074D01*
X136975972Y-58663789D01*
X136975147Y-58669345D01*
X136936241Y-58669345D01*
X136940856Y-58640749D01*
X136966345Y-58631104D01*
G37*
G36*
X136688795Y-58290063D02*
G01*
X136713106Y-58284190D01*
X136745642Y-58295458D01*
X136748581Y-58317985D01*
X136729375Y-58352366D01*
X136699357Y-58360573D01*
X136685014Y-58352183D01*
X136677864Y-58334868D01*
X136711620Y-58334868D01*
X136721756Y-58345004D01*
X136731891Y-58334868D01*
X136721756Y-58324732D01*
X136711620Y-58334868D01*
X136677864Y-58334868D01*
X136670653Y-58317404D01*
X136688795Y-58290063D01*
G37*
G36*
X137680827Y-52036663D02*
G01*
X137684645Y-52051946D01*
X137695153Y-52072630D01*
X137709984Y-52068326D01*
X137722217Y-52065648D01*
X137707502Y-52087401D01*
X137675491Y-52115044D01*
X137656823Y-52121389D01*
X137651020Y-52112859D01*
X137664373Y-52101428D01*
X137683009Y-52085719D01*
X137663850Y-52081533D01*
X137659305Y-52081467D01*
X137629301Y-52066970D01*
X137623831Y-52050750D01*
X137640057Y-52023875D01*
X137654238Y-52020343D01*
X137680827Y-52036663D01*
G37*
G36*
X136736158Y-57877736D02*
G01*
X136814817Y-57931911D01*
X136879681Y-58015682D01*
X136926210Y-58123710D01*
X136944883Y-58207128D01*
X136947454Y-58310255D01*
X136925003Y-58397987D01*
X136881163Y-58463790D01*
X136819567Y-58501131D01*
X136778059Y-58507175D01*
X136741198Y-58502472D01*
X136736828Y-58485282D01*
X136765235Y-58450980D01*
X136782570Y-58434449D01*
X136825085Y-58370213D01*
X136832262Y-58294860D01*
X136804162Y-58217034D01*
X136780768Y-58184388D01*
X136726626Y-58135618D01*
X136677079Y-58126365D01*
X136628331Y-58156483D01*
X136609587Y-58177765D01*
X136585983Y-58213375D01*
X136574021Y-58252641D01*
X136571398Y-58308550D01*
X136574570Y-58375411D01*
X136602249Y-58532073D01*
X136665427Y-58676120D01*
X136766066Y-58811374D01*
X136832882Y-58878602D01*
X136885949Y-58930133D01*
X136921211Y-58969187D01*
X136933463Y-58989761D01*
X136930692Y-58991466D01*
X136895053Y-58986318D01*
X136838614Y-58976199D01*
X136819945Y-58972576D01*
X136676545Y-58925110D01*
X136555806Y-58845514D01*
X136459746Y-58736551D01*
X136390383Y-58600986D01*
X136349736Y-58441582D01*
X136339401Y-58314597D01*
X136340038Y-58224224D01*
X136347791Y-58157486D01*
X136365933Y-58097655D01*
X136394025Y-58035530D01*
X136449625Y-57944416D01*
X136513132Y-57888442D01*
X136592304Y-57862209D01*
X136648244Y-57858491D01*
X136736158Y-57877736D01*
G37*
G36*
X142131922Y-51736267D02*
G01*
X142522007Y-51795455D01*
X142903910Y-51892639D01*
X143274210Y-52026625D01*
X143629484Y-52196218D01*
X143966313Y-52400223D01*
X144212019Y-52580858D01*
X144472710Y-52808529D01*
X144716817Y-53060690D01*
X144938291Y-53330031D01*
X145131085Y-53609244D01*
X145278709Y-53870103D01*
X145347724Y-54006935D01*
X145198408Y-54006935D01*
X145102016Y-54008647D01*
X145001256Y-54013100D01*
X144929558Y-54018338D01*
X144810024Y-54029742D01*
X144739074Y-53903488D01*
X144577847Y-53652668D01*
X144381684Y-53408587D01*
X144156159Y-53176269D01*
X143906842Y-52960738D01*
X143639305Y-52767018D01*
X143359120Y-52600134D01*
X143212002Y-52526437D01*
X142935082Y-52409530D01*
X142661409Y-52321488D01*
X142380814Y-52259973D01*
X142083132Y-52222648D01*
X141830093Y-52208753D01*
X141615262Y-52205983D01*
X141427611Y-52211841D01*
X141254434Y-52227675D01*
X141083027Y-52254832D01*
X140900686Y-52294663D01*
X140813133Y-52316703D01*
X140578381Y-52389472D01*
X140335803Y-52486144D01*
X140094196Y-52601967D01*
X139862359Y-52732188D01*
X139649091Y-52872055D01*
X139463190Y-53016818D01*
X139384632Y-53088216D01*
X139310876Y-53159349D01*
X139275994Y-53051019D01*
X139247021Y-52974243D01*
X139207000Y-52884243D01*
X139171818Y-52814281D01*
X139102524Y-52685874D01*
X139157003Y-52641975D01*
X139494286Y-52393488D01*
X139840947Y-52184317D01*
X140197933Y-52014123D01*
X140566196Y-51882563D01*
X140946685Y-51789297D01*
X141340349Y-51733985D01*
X141737077Y-51716273D01*
X142131922Y-51736267D01*
G37*
G36*
X137617471Y-52256422D02*
G01*
X137613695Y-52263599D01*
X137594595Y-52282958D01*
X137591031Y-52283870D01*
X137589648Y-52270776D01*
X137593424Y-52263599D01*
X137612523Y-52244240D01*
X137616088Y-52243328D01*
X137617471Y-52256422D01*
G37*
G36*
X144196031Y-53505219D02*
G01*
X144179547Y-53533355D01*
X144144528Y-53593656D01*
X144092683Y-53683165D01*
X144025722Y-53798920D01*
X143945355Y-53937963D01*
X143853294Y-54097335D01*
X143751247Y-54274075D01*
X143640924Y-54465225D01*
X143524037Y-54667825D01*
X143424066Y-54841159D01*
X142691668Y-56111216D01*
X142691668Y-57859540D01*
X142274211Y-58502631D01*
X142179853Y-58647757D01*
X142091996Y-58782438D01*
X142013178Y-58902819D01*
X141945935Y-59005043D01*
X141892806Y-59085254D01*
X141856327Y-59139596D01*
X141839035Y-59164213D01*
X141838377Y-59164980D01*
X141835072Y-59148651D01*
X141832029Y-59093890D01*
X141829273Y-59002804D01*
X141826828Y-58877503D01*
X141824720Y-58720095D01*
X141822974Y-58532690D01*
X141821616Y-58317397D01*
X141820671Y-58076324D01*
X141820163Y-57811581D01*
X141820079Y-57634493D01*
X141820159Y-56084748D01*
X142583508Y-54762043D01*
X143346857Y-53439337D01*
X144235597Y-53439337D01*
X144196031Y-53505219D01*
G37*
G36*
X137869279Y-52166784D02*
G01*
X137870127Y-52172378D01*
X137854346Y-52196147D01*
X137848336Y-52198900D01*
X137829852Y-52189114D01*
X137826544Y-52172378D01*
X137836830Y-52147149D01*
X137848336Y-52145856D01*
X137869279Y-52166784D01*
G37*
G36*
X147169196Y-54561458D02*
G01*
X147180840Y-54591665D01*
X147164440Y-54612636D01*
X147134232Y-54624280D01*
X147113261Y-54607879D01*
X147101617Y-54577672D01*
X147118018Y-54556701D01*
X147148226Y-54545057D01*
X147169196Y-54561458D01*
G37*
G36*
X136653718Y-59183990D02*
G01*
X136639218Y-59165993D01*
X137644102Y-59165993D01*
X137654238Y-59176129D01*
X137664373Y-59165993D01*
X137654238Y-59155858D01*
X137644102Y-59165993D01*
X136639218Y-59165993D01*
X136617313Y-59138805D01*
X137785729Y-59138805D01*
X137796217Y-59178760D01*
X137800371Y-59183741D01*
X137836635Y-59196557D01*
X137875453Y-59182397D01*
X137898628Y-59149116D01*
X137899785Y-59140832D01*
X137888501Y-59090503D01*
X137855239Y-59064095D01*
X137818978Y-59066456D01*
X137794461Y-59094151D01*
X137785729Y-59138805D01*
X136617313Y-59138805D01*
X136576175Y-59087746D01*
X136522454Y-59011507D01*
X136495654Y-58964793D01*
X136495641Y-58946935D01*
X136522281Y-58957263D01*
X136554517Y-58979280D01*
X136654820Y-59039574D01*
X136761110Y-59073078D01*
X136887824Y-59084123D01*
X136904198Y-59084150D01*
X137061024Y-59064282D01*
X137202309Y-59008203D01*
X137240369Y-58980173D01*
X137772487Y-58980173D01*
X137775270Y-58992224D01*
X137786001Y-58993687D01*
X137788971Y-58992367D01*
X137851785Y-58992367D01*
X137854558Y-58993687D01*
X137873058Y-58979416D01*
X137877222Y-58973416D01*
X137882388Y-58954464D01*
X137879615Y-58953144D01*
X137861116Y-58967415D01*
X137856951Y-58973416D01*
X137851785Y-58992367D01*
X137788971Y-58992367D01*
X137802687Y-58986270D01*
X137799516Y-58980173D01*
X137775458Y-58977747D01*
X137772487Y-58980173D01*
X137240369Y-58980173D01*
X137308348Y-58930109D01*
X137745459Y-58930109D01*
X137762099Y-58943486D01*
X137799258Y-58948091D01*
X137837793Y-58943561D01*
X137857347Y-58932232D01*
X137882545Y-58921598D01*
X137890781Y-58924853D01*
X137899647Y-58921527D01*
X137898188Y-58917972D01*
X137952194Y-58917972D01*
X137965900Y-58959954D01*
X137969379Y-58964407D01*
X138007672Y-58989088D01*
X138042154Y-58980005D01*
X138059391Y-58941590D01*
X138059665Y-58934615D01*
X138047173Y-58893710D01*
X138013407Y-58879175D01*
X137970188Y-58886868D01*
X137952194Y-58917972D01*
X137898188Y-58917972D01*
X137888667Y-58894776D01*
X137865269Y-58857861D01*
X137854425Y-58858979D01*
X137854136Y-58886486D01*
X137839691Y-58918635D01*
X137818577Y-58929073D01*
X137790965Y-58927525D01*
X137790035Y-58899628D01*
X137791340Y-58894375D01*
X137792196Y-58858585D01*
X137776440Y-58855101D01*
X137757763Y-58883852D01*
X137746915Y-58919638D01*
X137745459Y-58930109D01*
X137308348Y-58930109D01*
X137323993Y-58918587D01*
X137422018Y-58798106D01*
X137455792Y-58734812D01*
X137993795Y-58734812D01*
X138019757Y-58767474D01*
X138073738Y-58783463D01*
X138077575Y-58783719D01*
X138124738Y-58772810D01*
X138141753Y-58747272D01*
X138141388Y-58699245D01*
X138114167Y-58666511D01*
X138072389Y-58653850D01*
X138028352Y-58666043D01*
X138002096Y-58692985D01*
X137993795Y-58734812D01*
X137455792Y-58734812D01*
X137467192Y-58713449D01*
X137497642Y-58609323D01*
X137508807Y-58487412D01*
X137508507Y-58483124D01*
X137993259Y-58483124D01*
X138004908Y-58512251D01*
X138008863Y-58517162D01*
X138048399Y-58542377D01*
X138085485Y-58533081D01*
X138106526Y-58492816D01*
X138106697Y-58491673D01*
X138098445Y-58449104D01*
X138067388Y-58430789D01*
X138026691Y-58442276D01*
X138014223Y-58452707D01*
X137993259Y-58483124D01*
X137508507Y-58483124D01*
X137500305Y-58365801D01*
X137479192Y-58284396D01*
X138118467Y-58284396D01*
X138119405Y-58291260D01*
X138126534Y-58328020D01*
X138129108Y-58339936D01*
X138147613Y-58343011D01*
X138176225Y-58342652D01*
X138203661Y-58339209D01*
X138192110Y-58332600D01*
X138186360Y-58331030D01*
X138156280Y-58313197D01*
X138150886Y-58300610D01*
X138166957Y-58287980D01*
X138191428Y-58290063D01*
X138225752Y-58290885D01*
X138227640Y-58271608D01*
X138204133Y-58245779D01*
X138163428Y-58230704D01*
X138130105Y-58246136D01*
X138118467Y-58284396D01*
X137479192Y-58284396D01*
X137476510Y-58274054D01*
X137427458Y-58147876D01*
X137391130Y-58051584D01*
X137365437Y-57977325D01*
X137348287Y-57917244D01*
X137337589Y-57863489D01*
X137331254Y-57808207D01*
X137327191Y-57743543D01*
X137325415Y-57706456D01*
X137325644Y-57529220D01*
X137345516Y-57365892D01*
X137387682Y-57207900D01*
X137454798Y-57046671D01*
X137549518Y-56873632D01*
X137616014Y-56767752D01*
X137793531Y-56517632D01*
X137981235Y-56298804D01*
X138187541Y-56102055D01*
X138331229Y-55985006D01*
X138436402Y-55913098D01*
X138552821Y-55852376D01*
X138687131Y-55800424D01*
X138845981Y-55754824D01*
X139036014Y-55713160D01*
X139123910Y-55696757D01*
X139276497Y-55676590D01*
X139451562Y-55665312D01*
X139639310Y-55662567D01*
X139829947Y-55667997D01*
X140013679Y-55681243D01*
X140180711Y-55701949D01*
X140321249Y-55729758D01*
X140365558Y-55742078D01*
X140390654Y-55763471D01*
X140429131Y-55812048D01*
X140474764Y-55879505D01*
X140502390Y-55924574D01*
X140603719Y-56096128D01*
X140603719Y-56462969D01*
X140505643Y-56577929D01*
X140427437Y-56674625D01*
X140366932Y-56763632D01*
X140314832Y-56860354D01*
X140261845Y-56980193D01*
X140259544Y-56985761D01*
X140199448Y-57131496D01*
X140310238Y-57117653D01*
X140382025Y-57112721D01*
X140457940Y-57113782D01*
X140527256Y-57119832D01*
X140579246Y-57129863D01*
X140603182Y-57142871D01*
X140603692Y-57145168D01*
X140584631Y-57150324D01*
X140532348Y-57154826D01*
X140454163Y-57158273D01*
X140357396Y-57160261D01*
X140324961Y-57160517D01*
X140210290Y-57161661D01*
X140125292Y-57164836D01*
X140059096Y-57171646D01*
X140000835Y-57183696D01*
X139939640Y-57202592D01*
X139871085Y-57227519D01*
X139783941Y-57262974D01*
X139698283Y-57302649D01*
X139621293Y-57342585D01*
X139560150Y-57378819D01*
X139522036Y-57407393D01*
X139514132Y-57424344D01*
X139514173Y-57424386D01*
X139536623Y-57423388D01*
X139588700Y-57412579D01*
X139661261Y-57394003D01*
X139704023Y-57381960D01*
X139963254Y-57318138D01*
X140202945Y-57282274D01*
X140414661Y-57274878D01*
X140593583Y-57280758D01*
X140603719Y-57574692D01*
X140607930Y-57689601D01*
X140612416Y-57772231D01*
X140618799Y-57830822D01*
X140628701Y-57873617D01*
X140643743Y-57908855D01*
X140665546Y-57944780D01*
X140681096Y-57967947D01*
X140717195Y-58022890D01*
X140730863Y-58058315D01*
X140718645Y-58084673D01*
X140677088Y-58112413D01*
X140623990Y-58140728D01*
X140494717Y-58189273D01*
X140337592Y-58214813D01*
X140158757Y-58216438D01*
X140127342Y-58214325D01*
X140039541Y-58207524D01*
X139962308Y-58201581D01*
X139908156Y-58197457D01*
X139896099Y-58196558D01*
X139867060Y-58198991D01*
X139847705Y-58217658D01*
X139831689Y-58261665D01*
X139820940Y-58304461D01*
X139797588Y-58440861D01*
X139793601Y-58577521D01*
X139810242Y-58719503D01*
X139848773Y-58871868D01*
X139910459Y-59039679D01*
X139996560Y-59227998D01*
X140101584Y-59429521D01*
X140134952Y-59494731D01*
X140154808Y-59549098D01*
X140164587Y-59607844D01*
X140167721Y-59686195D01*
X140167885Y-59723455D01*
X140166103Y-59813199D01*
X140161379Y-59896228D01*
X140154648Y-59957371D01*
X140152920Y-59966712D01*
X140146071Y-60005951D01*
X140147511Y-60015975D01*
X140149541Y-60012322D01*
X140176277Y-59993758D01*
X140217951Y-59986983D01*
X140250361Y-59984041D01*
X140269830Y-59968831D01*
X140282581Y-59931774D01*
X140293684Y-59870423D01*
X140300298Y-59837710D01*
X140304622Y-59836870D01*
X140306738Y-59869862D01*
X140306728Y-59938644D01*
X140304674Y-60045174D01*
X140303286Y-60099278D01*
X140300218Y-60227829D01*
X140299330Y-60323276D01*
X140301167Y-60393027D01*
X140306272Y-60444488D01*
X140315190Y-60485066D01*
X140328465Y-60522167D01*
X140335580Y-60538741D01*
X140390282Y-60624191D01*
X140466096Y-60676786D01*
X140566803Y-60698840D01*
X140598832Y-60699859D01*
X140666624Y-60693837D01*
X140716647Y-60669947D01*
X140752635Y-60638005D01*
X140788294Y-60598688D01*
X140805518Y-60572250D01*
X140805393Y-60567540D01*
X140783027Y-60559282D01*
X140730225Y-60544047D01*
X140655968Y-60524345D01*
X140603719Y-60511145D01*
X140411141Y-60463360D01*
X140411141Y-60222712D01*
X141566181Y-60222712D01*
X141578194Y-60286288D01*
X141614468Y-60335536D01*
X141667336Y-60364598D01*
X141729132Y-60367614D01*
X141792189Y-60338724D01*
X141810785Y-60322382D01*
X141853246Y-60257444D01*
X141855436Y-60187870D01*
X141839806Y-60148286D01*
X141792587Y-60096863D01*
X141730017Y-60074983D01*
X141664387Y-60082529D01*
X141607990Y-60119386D01*
X141586097Y-60150667D01*
X141566181Y-60222712D01*
X140411141Y-60222712D01*
X140411141Y-60032370D01*
X140411448Y-59888529D01*
X140412596Y-59780535D01*
X140414925Y-59703694D01*
X140418776Y-59653313D01*
X140424490Y-59624698D01*
X140432408Y-59613157D01*
X140441548Y-59613429D01*
X140472627Y-59623256D01*
X140533671Y-59640696D01*
X140615409Y-59663152D01*
X140694940Y-59684431D01*
X141039617Y-59759154D01*
X141391697Y-59804303D01*
X141740144Y-59818878D01*
X142032849Y-59805811D01*
X142446336Y-59750448D01*
X142841983Y-59659186D01*
X143161690Y-59551619D01*
X143895208Y-59551619D01*
X143907809Y-59601222D01*
X143916212Y-59618478D01*
X143965145Y-59677190D01*
X144027550Y-59700738D01*
X144094475Y-59687736D01*
X144141991Y-59653427D01*
X144176560Y-59604022D01*
X144191718Y-59552986D01*
X144191748Y-59551149D01*
X144177335Y-59501335D01*
X144142033Y-59450175D01*
X144097744Y-59411600D01*
X144061859Y-59399114D01*
X143993169Y-59416571D01*
X143933791Y-59460944D01*
X143907722Y-59501018D01*
X143895208Y-59551619D01*
X143161690Y-59551619D01*
X143222141Y-59531280D01*
X143589159Y-59365991D01*
X143812013Y-59243900D01*
X143882083Y-59203863D01*
X143937385Y-59174233D01*
X143969920Y-59159200D01*
X143975148Y-59158462D01*
X144058530Y-59280448D01*
X144162949Y-59409288D01*
X144278162Y-59533802D01*
X144393929Y-59642811D01*
X144484768Y-59714685D01*
X144544293Y-59756593D01*
X144454173Y-59818371D01*
X144332632Y-59896466D01*
X144186059Y-59982473D01*
X144027157Y-60069480D01*
X143868630Y-60150579D01*
X143723184Y-60218860D01*
X143696503Y-60230489D01*
X143340768Y-60370132D01*
X142994911Y-60478131D01*
X142650189Y-60556125D01*
X142297857Y-60605752D01*
X141929171Y-60628653D01*
X141576744Y-60627784D01*
X141443118Y-60623454D01*
X141319059Y-60618603D01*
X141211789Y-60613579D01*
X141128529Y-60608730D01*
X141076501Y-60604403D01*
X141068339Y-60603304D01*
X141024064Y-60598384D01*
X140997716Y-60608009D01*
X140977640Y-60640862D01*
X140960599Y-60683585D01*
X140899713Y-60789547D01*
X140810432Y-60867792D01*
X140696876Y-60914818D01*
X140685405Y-60917443D01*
X140624060Y-60929641D01*
X140579946Y-60936650D01*
X140567246Y-60937367D01*
X140540803Y-60932986D01*
X140487707Y-60924206D01*
X140441548Y-60916579D01*
X140294707Y-60877564D01*
X140150004Y-60812470D01*
X140017969Y-60727665D01*
X139909133Y-60629518D01*
X139856742Y-60562982D01*
X139816560Y-60497182D01*
X139801163Y-60464837D01*
X140001981Y-60464837D01*
X140019957Y-60575245D01*
X140072550Y-60669114D01*
X140160257Y-60748721D01*
X140195511Y-60771372D01*
X140272465Y-60813432D01*
X140338872Y-60838159D01*
X140416197Y-60853099D01*
X140435161Y-60855614D01*
X140470253Y-60850939D01*
X140516246Y-60836539D01*
X140544499Y-60824364D01*
X140551134Y-60813943D01*
X140531444Y-60800845D01*
X140480725Y-60780643D01*
X140441548Y-60766234D01*
X140374445Y-60744620D01*
X140325074Y-60734315D01*
X140303167Y-60737326D01*
X140303027Y-60737667D01*
X140280185Y-60751735D01*
X140237145Y-60757294D01*
X140194166Y-60751177D01*
X140178958Y-60726659D01*
X140178020Y-60710670D01*
X140185462Y-60676209D01*
X140218563Y-60676209D01*
X140233989Y-60695891D01*
X140238835Y-60696480D01*
X140258517Y-60681054D01*
X140259106Y-60676209D01*
X140243680Y-60656527D01*
X140238835Y-60655937D01*
X140219152Y-60671363D01*
X140218563Y-60676209D01*
X140185462Y-60676209D01*
X140188553Y-60661896D01*
X140203360Y-60637585D01*
X140214089Y-60620873D01*
X140195062Y-60618965D01*
X140166047Y-60624296D01*
X140111215Y-60622897D01*
X140083279Y-60605259D01*
X140117206Y-60605259D01*
X140127342Y-60615395D01*
X140137478Y-60605259D01*
X140127342Y-60595123D01*
X140117206Y-60605259D01*
X140083279Y-60605259D01*
X140074110Y-60599470D01*
X140058825Y-60564484D01*
X140063136Y-60549854D01*
X140125703Y-60549854D01*
X140128412Y-60556312D01*
X140153022Y-60566355D01*
X140159481Y-60563646D01*
X140169524Y-60539036D01*
X140166815Y-60532578D01*
X140142205Y-60522535D01*
X140135746Y-60525244D01*
X140125703Y-60549854D01*
X140063136Y-60549854D01*
X140069454Y-60528412D01*
X140110090Y-60501723D01*
X140117309Y-60499614D01*
X140152997Y-60481743D01*
X140149114Y-60461343D01*
X140117309Y-60447377D01*
X140078009Y-60423949D01*
X140064363Y-60404212D01*
X140064675Y-60382274D01*
X140076664Y-60382274D01*
X140086799Y-60392410D01*
X140091526Y-60387683D01*
X140125703Y-60387683D01*
X140128412Y-60394141D01*
X140153022Y-60404185D01*
X140159481Y-60401476D01*
X140169524Y-60376866D01*
X140166815Y-60370407D01*
X140142205Y-60360364D01*
X140135746Y-60363073D01*
X140125703Y-60387683D01*
X140091526Y-60387683D01*
X140096935Y-60382274D01*
X140086799Y-60372139D01*
X140076664Y-60382274D01*
X140064675Y-60382274D01*
X140064989Y-60360208D01*
X140094427Y-60327923D01*
X140140946Y-60318661D01*
X140151177Y-60320543D01*
X140189125Y-60321744D01*
X140198292Y-60303939D01*
X140181305Y-60276395D01*
X140157749Y-60264908D01*
X140127370Y-60239453D01*
X140117934Y-60201028D01*
X140137478Y-60201028D01*
X140142319Y-60228202D01*
X140153818Y-60218380D01*
X140156693Y-60209968D01*
X140178020Y-60209968D01*
X140194439Y-60227952D01*
X140208428Y-60230239D01*
X140235404Y-60219293D01*
X140238835Y-60209968D01*
X140222416Y-60191983D01*
X140208428Y-60189696D01*
X140181451Y-60200642D01*
X140178020Y-60209968D01*
X140156693Y-60209968D01*
X140163630Y-60189668D01*
X140164965Y-60162234D01*
X140155859Y-60160458D01*
X140138976Y-60188585D01*
X140137478Y-60201028D01*
X140117934Y-60201028D01*
X140116731Y-60196127D01*
X140127494Y-60153349D01*
X140146031Y-60134958D01*
X140164243Y-60115747D01*
X140151009Y-60086223D01*
X140149354Y-60083942D01*
X140134470Y-60070198D01*
X140119535Y-60077285D01*
X140100087Y-60110754D01*
X140071664Y-60176155D01*
X140067896Y-60185298D01*
X140018126Y-60335614D01*
X140001981Y-60464837D01*
X139801163Y-60464837D01*
X139785248Y-60431402D01*
X139761415Y-60358889D01*
X139743669Y-60272888D01*
X139730619Y-60166647D01*
X139722907Y-60061211D01*
X140207444Y-60061211D01*
X140222698Y-60083906D01*
X140238835Y-60088340D01*
X140265267Y-60073745D01*
X140268376Y-60069469D01*
X140267059Y-60045438D01*
X140242689Y-60032600D01*
X140218233Y-60037866D01*
X140207444Y-60061211D01*
X139722907Y-60061211D01*
X139720874Y-60033412D01*
X139720122Y-60017390D01*
X140178020Y-60017390D01*
X140188156Y-60027526D01*
X140198292Y-60017390D01*
X140188156Y-60007254D01*
X140178020Y-60017390D01*
X139720122Y-60017390D01*
X139713041Y-59866431D01*
X139712999Y-59865355D01*
X139705934Y-59707517D01*
X139697110Y-59582167D01*
X139684206Y-59481255D01*
X139664897Y-59396729D01*
X139636863Y-59320540D01*
X139597781Y-59244635D01*
X139545328Y-59160965D01*
X139483870Y-59071077D01*
X139366859Y-58892330D01*
X139278648Y-58731155D01*
X139216394Y-58579775D01*
X139177257Y-58430414D01*
X139158395Y-58275294D01*
X139155636Y-58172697D01*
X139846510Y-58172697D01*
X139986926Y-58023613D01*
X140127342Y-57874528D01*
X140286636Y-57846903D01*
X140392898Y-57824657D01*
X140461810Y-57800713D01*
X140496566Y-57773707D01*
X140502362Y-57754652D01*
X140485490Y-57719795D01*
X140445013Y-57684575D01*
X140396144Y-57660335D01*
X140369791Y-57655778D01*
X140291343Y-57673420D01*
X140202918Y-57722652D01*
X140110819Y-57797933D01*
X140021347Y-57893721D01*
X139940804Y-58004474D01*
X139905841Y-58063749D01*
X139846510Y-58172697D01*
X139155636Y-58172697D01*
X139168914Y-57988144D01*
X139209837Y-57826776D01*
X139282152Y-57679156D01*
X139389603Y-57535846D01*
X139423071Y-57498862D01*
X139455734Y-57458565D01*
X139475735Y-57415425D01*
X139487587Y-57356020D01*
X139494299Y-57286901D01*
X139525934Y-57089603D01*
X139588572Y-56881999D01*
X139677914Y-56673724D01*
X139789664Y-56474414D01*
X139919522Y-56293702D01*
X139957071Y-56249419D01*
X140039567Y-56155698D01*
X139776464Y-56155698D01*
X139517119Y-56161680D01*
X139291860Y-56180001D01*
X139095980Y-56211222D01*
X138924771Y-56255904D01*
X138918293Y-56258004D01*
X138676965Y-56351316D01*
X138471462Y-56461650D01*
X138302088Y-56588645D01*
X138169145Y-56731946D01*
X138072933Y-56891194D01*
X138013757Y-57066031D01*
X137991917Y-57256101D01*
X137994716Y-57351708D01*
X138021766Y-57527686D01*
X138075507Y-57715856D01*
X138150890Y-57903183D01*
X138242866Y-58076632D01*
X138318963Y-58188806D01*
X138383519Y-58291642D01*
X138421435Y-58401231D01*
X138436550Y-58530295D01*
X138437181Y-58580499D01*
X138428864Y-58688292D01*
X138402349Y-58783909D01*
X138352558Y-58882074D01*
X138311207Y-58945696D01*
X138174954Y-59108708D01*
X138009809Y-59246408D01*
X137821482Y-59354605D01*
X137676098Y-59411454D01*
X137538660Y-59444975D01*
X137387800Y-59464246D01*
X137236191Y-59468884D01*
X137096504Y-59458505D01*
X136981411Y-59432724D01*
X136980819Y-59432522D01*
X136875731Y-59380175D01*
X136764394Y-59295369D01*
X136726849Y-59257586D01*
X137320612Y-59257586D01*
X137332291Y-59294460D01*
X137345099Y-59304603D01*
X137370584Y-59315025D01*
X137373849Y-59316428D01*
X137392712Y-59311700D01*
X137409323Y-59305724D01*
X137439168Y-59285966D01*
X137433313Y-59270453D01*
X137396327Y-59268174D01*
X137390710Y-59269089D01*
X137350915Y-59268443D01*
X137340032Y-59247079D01*
X137352803Y-59224895D01*
X137390710Y-59225069D01*
X137428422Y-59226313D01*
X137440700Y-59217966D01*
X137585121Y-59217966D01*
X137589038Y-59262473D01*
X137607613Y-59293703D01*
X137654148Y-59316763D01*
X137700945Y-59304386D01*
X137726496Y-59275039D01*
X137739526Y-59245580D01*
X137729595Y-59244574D01*
X137723765Y-59247958D01*
X137706549Y-59251335D01*
X137710721Y-59230782D01*
X137710700Y-59195773D01*
X137700899Y-59183782D01*
X137687969Y-59182274D01*
X137692845Y-59193268D01*
X137692721Y-59214049D01*
X137683359Y-59216672D01*
X137669861Y-59224382D01*
X137681987Y-59243876D01*
X137693741Y-59276585D01*
X137669725Y-59295512D01*
X137648495Y-59297757D01*
X137627737Y-59283198D01*
X137629711Y-59257186D01*
X137630904Y-59229087D01*
X137618495Y-59230105D01*
X137605335Y-59228773D01*
X137610018Y-59208809D01*
X137613123Y-59185182D01*
X137603327Y-59186408D01*
X137585121Y-59217966D01*
X137440700Y-59217966D01*
X137441388Y-59217498D01*
X137424456Y-59195589D01*
X137386378Y-59184691D01*
X137350167Y-59189070D01*
X137326869Y-59215650D01*
X137320612Y-59257586D01*
X136726849Y-59257586D01*
X136699836Y-59230401D01*
X137144812Y-59230401D01*
X137171173Y-59254167D01*
X137189193Y-59257214D01*
X137212874Y-59240336D01*
X137218404Y-59216672D01*
X137203978Y-59184060D01*
X137173254Y-59176937D01*
X137147454Y-59196400D01*
X137144812Y-59230401D01*
X136699836Y-59230401D01*
X136653718Y-59183990D01*
G37*
G36*
X137130472Y-52299074D02*
G01*
X137133150Y-52340576D01*
X137130472Y-52349752D01*
X137123073Y-52352299D01*
X137120248Y-52324413D01*
X137123433Y-52295635D01*
X137130472Y-52299074D01*
G37*
G36*
X138337853Y-59067465D02*
G01*
X138396563Y-58990335D01*
X138451452Y-58907043D01*
X138490774Y-58835432D01*
X138491196Y-58834515D01*
X138516688Y-58772786D01*
X138530546Y-58717383D01*
X138535037Y-58653044D01*
X138532427Y-58564510D01*
X138532132Y-58558819D01*
X138522648Y-58452625D01*
X138505781Y-58376247D01*
X138481414Y-58322700D01*
X138452189Y-58274680D01*
X138409159Y-58203976D01*
X138359597Y-58122538D01*
X138335721Y-58083308D01*
X138282217Y-57992864D01*
X138248842Y-57931179D01*
X138235642Y-57899449D01*
X138242663Y-57898873D01*
X138269953Y-57930645D01*
X138317557Y-57995962D01*
X138333204Y-58018495D01*
X138505045Y-58247164D01*
X138704351Y-58477040D01*
X138920666Y-58697281D01*
X139143535Y-58897047D01*
X139298704Y-59019535D01*
X139382488Y-59083206D01*
X139440616Y-59132736D01*
X139480993Y-59176732D01*
X139511523Y-59223799D01*
X139539940Y-59282161D01*
X139570078Y-59358011D01*
X139588771Y-59431549D01*
X139599219Y-59518618D01*
X139603334Y-59595949D01*
X139607637Y-59710058D01*
X139612532Y-59839556D01*
X139617068Y-59959320D01*
X139617734Y-59976847D01*
X139619666Y-60059512D01*
X139618887Y-60124354D01*
X139615626Y-60162601D01*
X139612666Y-60169144D01*
X139590773Y-60159979D01*
X139541239Y-60135414D01*
X139472008Y-60099476D01*
X139410622Y-60066771D01*
X139114608Y-59894213D01*
X138830829Y-59702961D01*
X138569180Y-59500096D01*
X138369928Y-59322240D01*
X138323566Y-59277719D01*
X138819328Y-59277719D01*
X138831794Y-59345894D01*
X138863916Y-59392740D01*
X138925436Y-59431797D01*
X138995917Y-59435197D01*
X139064068Y-59402403D01*
X139064229Y-59402273D01*
X139104850Y-59348880D01*
X139113361Y-59289081D01*
X139095436Y-59231176D01*
X139056748Y-59183463D01*
X139002969Y-59154240D01*
X138939773Y-59151807D01*
X138902243Y-59165312D01*
X138843316Y-59214533D01*
X138819328Y-59277719D01*
X138323566Y-59277719D01*
X138234221Y-59191921D01*
X138337853Y-59067465D01*
G37*
G36*
X144950179Y-59523403D02*
G01*
X144962988Y-59542749D01*
X144977769Y-59582174D01*
X144970142Y-59594496D01*
X144944370Y-59574416D01*
X144940841Y-59570280D01*
X144898353Y-59546828D01*
X144867003Y-59546708D01*
X144828681Y-59546559D01*
X144822565Y-59532064D01*
X144852224Y-59512775D01*
X144910562Y-59501622D01*
X144950179Y-59523403D01*
G37*
G36*
X137366495Y-52148638D02*
G01*
X137376578Y-52174866D01*
X137367317Y-52216205D01*
X137334363Y-52233305D01*
X137300724Y-52223820D01*
X137281237Y-52193351D01*
X137288667Y-52157238D01*
X137317175Y-52133722D01*
X137330174Y-52131835D01*
X137366495Y-52148638D01*
G37*
G36*
X138181829Y-58247562D02*
G01*
X138175746Y-58262641D01*
X138156828Y-58272751D01*
X138133145Y-58278923D01*
X138142861Y-58264073D01*
X138145480Y-58261403D01*
X138172058Y-58245391D01*
X138181829Y-58247562D01*
G37*
G36*
X138063463Y-58681562D02*
G01*
X138060833Y-58687726D01*
X138067319Y-58698086D01*
X138090044Y-58695498D01*
X138123528Y-58696970D01*
X138130614Y-58716463D01*
X138119920Y-58751206D01*
X138096863Y-58762212D01*
X138078803Y-58748597D01*
X138060848Y-58738498D01*
X138048085Y-58752766D01*
X138031849Y-58767260D01*
X138018416Y-58745765D01*
X138015125Y-58702032D01*
X138035906Y-58673235D01*
X138051922Y-58669345D01*
X138063463Y-58681562D01*
G37*
G36*
X144926607Y-59575668D02*
G01*
X144933422Y-59609208D01*
X144920779Y-59633122D01*
X144884859Y-59660465D01*
X144856765Y-59649395D01*
X144848134Y-59633205D01*
X144847298Y-59589962D01*
X144875060Y-59563763D01*
X144891109Y-59561285D01*
X144926607Y-59575668D01*
G37*
G36*
X147192348Y-54513048D02*
G01*
X147208844Y-54533990D01*
X147212295Y-54553603D01*
X147195822Y-54545198D01*
X147183422Y-54535210D01*
X147146241Y-54516786D01*
X147109926Y-54529845D01*
X147082728Y-54543475D01*
X147080899Y-54530466D01*
X147083754Y-54522461D01*
X147110199Y-54500845D01*
X147152661Y-54498285D01*
X147192348Y-54513048D01*
G37*
G36*
X147110822Y-54645483D02*
G01*
X147100686Y-54655618D01*
X147090550Y-54645483D01*
X147100686Y-54635347D01*
X147110822Y-54645483D01*
G37*
G36*
X138231971Y-57848356D02*
G01*
X138221835Y-57858491D01*
X138211700Y-57848356D01*
X138221835Y-57838220D01*
X138231971Y-57848356D01*
G37*
G36*
X137096775Y-52312588D02*
G01*
X137080454Y-52340513D01*
X137064679Y-52344684D01*
X137041037Y-52332898D01*
X137040607Y-52320612D01*
X137060784Y-52293843D01*
X137085074Y-52290439D01*
X137096775Y-52312588D01*
G37*
G36*
X146516432Y-56187238D02*
G01*
X146519371Y-56209764D01*
X146500165Y-56244146D01*
X146470147Y-56252353D01*
X146455804Y-56243963D01*
X146441443Y-56209184D01*
X146459585Y-56181843D01*
X146483896Y-56175969D01*
X146516432Y-56187238D01*
G37*
G36*
X144702684Y-59154984D02*
G01*
X144718745Y-59193060D01*
X144718803Y-59195764D01*
X144703986Y-59227377D01*
X144671091Y-59237519D01*
X144637444Y-59224465D01*
X144624254Y-59205173D01*
X144624842Y-59165988D01*
X144633663Y-59151803D01*
X144669031Y-59138499D01*
X144702684Y-59154984D01*
G37*
G36*
X140677011Y-53443830D02*
G01*
X140686977Y-53443967D01*
X141074305Y-53449473D01*
X141256053Y-53763679D01*
X141320989Y-53876147D01*
X141384564Y-53986628D01*
X141441638Y-54086164D01*
X141487071Y-54165797D01*
X141509017Y-54204581D01*
X141580233Y-54331277D01*
X140796297Y-54329669D01*
X140547973Y-53896839D01*
X140479430Y-53776872D01*
X140418136Y-53668636D01*
X140366832Y-53577052D01*
X140328261Y-53507042D01*
X140305165Y-53463527D01*
X140299649Y-53451235D01*
X140318881Y-53447542D01*
X140372440Y-53444838D01*
X140454119Y-53443241D01*
X140557711Y-53442866D01*
X140677011Y-53443830D01*
G37*
G36*
X147533012Y-53936147D02*
G01*
X147557965Y-53940554D01*
X147586086Y-53958987D01*
X147598058Y-53985693D01*
X147588946Y-54004891D01*
X147578721Y-54006935D01*
X147544749Y-54013622D01*
X147528042Y-54019240D01*
X147501884Y-54017563D01*
X147495977Y-53992211D01*
X147499157Y-53974839D01*
X147517849Y-53974839D01*
X147521576Y-54001131D01*
X147528496Y-54001445D01*
X147533335Y-53974314D01*
X147530096Y-53962592D01*
X147521095Y-53954913D01*
X147517849Y-53974839D01*
X147499157Y-53974839D01*
X147504059Y-53948062D01*
X147533012Y-53936147D01*
G37*
G36*
X137400846Y-59287621D02*
G01*
X137390710Y-59297757D01*
X137380574Y-59287621D01*
X137390710Y-59277486D01*
X137400846Y-59287621D01*
G37*
G36*
X145642466Y-59285460D02*
G01*
X145674925Y-59250427D01*
X145714820Y-59241178D01*
X145740807Y-59255804D01*
X145768339Y-59296940D01*
X145766916Y-59339585D01*
X145743735Y-59373162D01*
X145705988Y-59387093D01*
X145662016Y-59371649D01*
X145635881Y-59331881D01*
X145636408Y-59328164D01*
X145651285Y-59328164D01*
X145661420Y-59338300D01*
X145671556Y-59328164D01*
X145661420Y-59318028D01*
X145651285Y-59328164D01*
X145636408Y-59328164D01*
X145639284Y-59307893D01*
X145691827Y-59307893D01*
X145702113Y-59333122D01*
X145713619Y-59334414D01*
X145734563Y-59313487D01*
X145735411Y-59307893D01*
X145719629Y-59284124D01*
X145713619Y-59281371D01*
X145695135Y-59291156D01*
X145691827Y-59307893D01*
X145639284Y-59307893D01*
X145642466Y-59285460D01*
G37*
G36*
X146797648Y-56493376D02*
G01*
X146823825Y-56513335D01*
X146827023Y-56522751D01*
X146815919Y-56540320D01*
X146793673Y-56532261D01*
X146779546Y-56511479D01*
X146780445Y-56490910D01*
X146797648Y-56493376D01*
G37*
G36*
X138266220Y-53962916D02*
G01*
X138284373Y-54087044D01*
X138309634Y-54214500D01*
X138338158Y-54326753D01*
X138348623Y-54360287D01*
X138404724Y-54528013D01*
X138359138Y-54673567D01*
X138314838Y-54834636D01*
X138275823Y-55014350D01*
X138243383Y-55203020D01*
X138218804Y-55390959D01*
X138203377Y-55568481D01*
X138198389Y-55725896D01*
X138203807Y-55841568D01*
X138216465Y-55965122D01*
X138004229Y-56182038D01*
X137929417Y-56257794D01*
X137864675Y-56322019D01*
X137815206Y-56369656D01*
X137786210Y-56395649D01*
X137781079Y-56398954D01*
X137771223Y-56381156D01*
X137760402Y-56336990D01*
X137757957Y-56322937D01*
X137748767Y-56241821D01*
X137741317Y-56129377D01*
X137735728Y-55994788D01*
X137732117Y-55847237D01*
X137730605Y-55695906D01*
X137731311Y-55549977D01*
X137734354Y-55418634D01*
X137739854Y-55311058D01*
X137744187Y-55263426D01*
X137808430Y-54875319D01*
X137910519Y-54493975D01*
X138048481Y-54125965D01*
X138152220Y-53905308D01*
X138239917Y-53733272D01*
X138266220Y-53962916D01*
G37*
G36*
X137191375Y-59223429D02*
G01*
X137188592Y-59235480D01*
X137177861Y-59236943D01*
X137161175Y-59229526D01*
X137164347Y-59223429D01*
X137188404Y-59221003D01*
X137191375Y-59223429D01*
G37*
G36*
X146664263Y-56556280D02*
G01*
X146664852Y-56561125D01*
X146649426Y-56580807D01*
X146644581Y-56581396D01*
X146624898Y-56565970D01*
X146624309Y-56561125D01*
X146639735Y-56541443D01*
X146644581Y-56540854D01*
X146664263Y-56556280D01*
G37*
G36*
X146664852Y-55030638D02*
G01*
X146654716Y-55040774D01*
X146644581Y-55030638D01*
X146654716Y-55020503D01*
X146664852Y-55030638D01*
G37*
X127940000Y-63942381D02*
X126610000Y-63942381D01*
X129210000Y-61282381D02*
X136890000Y-61282381D01*
X129210000Y-63942381D02*
X136890000Y-63942381D01*
X129210000Y-63942381D02*
X129210000Y-61282381D01*
X126610000Y-63942381D02*
X126610000Y-62612381D01*
X136890000Y-63942381D02*
X136890000Y-61282381D01*
X139070000Y-95470000D02*
X146310000Y-95470000D01*
X139070000Y-98210000D02*
X146310000Y-98210000D01*
X139070000Y-95470000D02*
X139070000Y-98210000D01*
X146310000Y-95470000D02*
X146310000Y-98210000D01*
X115960000Y-95480000D02*
X115960000Y-98220000D01*
X123200000Y-95480000D02*
X123200000Y-98220000D01*
X115960000Y-98220000D02*
X123200000Y-98220000D01*
X115960000Y-95480000D02*
X123200000Y-95480000D01*
X127460000Y-98210000D02*
X134700000Y-98210000D01*
X134700000Y-95470000D02*
X134700000Y-98210000D01*
X127460000Y-95470000D02*
X134700000Y-95470000D01*
X127460000Y-95470000D02*
X127460000Y-98210000D01*
X154160000Y-62460000D02*
X161840000Y-62460000D01*
X154160000Y-62460000D02*
X154160000Y-59800000D01*
X152890000Y-62460000D02*
X151560000Y-62460000D01*
X161840000Y-62460000D02*
X161840000Y-59800000D01*
X151560000Y-62460000D02*
X151560000Y-61130000D01*
X154160000Y-59800000D02*
X161840000Y-59800000D01*
X102300000Y-53680000D02*
X102300000Y-56340000D01*
X109980000Y-56340000D02*
X102300000Y-56340000D01*
X111250000Y-53680000D02*
X112580000Y-53680000D01*
X109980000Y-53680000D02*
X109980000Y-56340000D01*
X112580000Y-53680000D02*
X112580000Y-55010000D01*
X109980000Y-53680000D02*
X102300000Y-53680000D01*
X138090000Y-79340000D02*
X139420000Y-79340000D01*
X139420000Y-79340000D02*
X139420000Y-80670000D01*
X136820000Y-82000000D02*
X124060000Y-82000000D01*
X136820000Y-79340000D02*
X124060000Y-79340000D01*
X124060000Y-79340000D02*
X124060000Y-82000000D01*
X136820000Y-79340000D02*
X136820000Y-82000000D01*
G36*
X134545824Y-54423338D02*
G01*
X134647536Y-54483241D01*
X134677693Y-54515740D01*
X134739659Y-54656615D01*
X134753948Y-54816591D01*
X134722522Y-54971998D01*
X134647341Y-55099169D01*
X134627746Y-55118663D01*
X134555595Y-55159538D01*
X134455771Y-55189589D01*
X134355521Y-55203620D01*
X134282092Y-55196434D01*
X134267242Y-55187424D01*
X134256478Y-55143373D01*
X134247848Y-55044973D01*
X134242378Y-54907935D01*
X134240966Y-54785350D01*
X134241935Y-54618514D01*
X134246390Y-54508830D01*
X134256656Y-54443389D01*
X134275055Y-54409284D01*
X134303910Y-54393606D01*
X134311883Y-54391351D01*
X134422874Y-54388945D01*
X134545824Y-54423338D01*
G37*
G36*
X135642345Y-53946276D02*
G01*
X135642345Y-56433724D01*
X115637656Y-56433724D01*
X115637656Y-56328620D01*
X115812828Y-56328620D01*
X127934759Y-56328620D01*
X127934759Y-54317420D01*
X128643147Y-54317420D01*
X128646026Y-54321889D01*
X128698311Y-54335867D01*
X128738539Y-54365454D01*
X128768070Y-54418664D01*
X128788259Y-54503506D01*
X128800464Y-54627993D01*
X128806044Y-54800135D01*
X128806356Y-55027943D01*
X128803768Y-55252725D01*
X128799767Y-55498247D01*
X128795268Y-55683137D01*
X128789320Y-55816832D01*
X128780972Y-55908768D01*
X128769274Y-55968381D01*
X128753275Y-56005108D01*
X128732025Y-56028385D01*
X128725097Y-56033710D01*
X128707665Y-56051636D01*
X128717211Y-56064657D01*
X128761807Y-56073487D01*
X128849526Y-56078842D01*
X128988441Y-56081438D01*
X129186625Y-56081990D01*
X129268132Y-56081841D01*
X129549626Y-56078297D01*
X129765016Y-56069091D01*
X129918057Y-56053978D01*
X130010623Y-56033393D01*
X130220078Y-55923521D01*
X130385732Y-55764107D01*
X130500466Y-55565310D01*
X130557160Y-55337291D01*
X130562003Y-55246616D01*
X130544669Y-55023868D01*
X130485660Y-54840183D01*
X130375822Y-54672558D01*
X130300322Y-54588954D01*
X130200813Y-54494615D01*
X130102168Y-54422707D01*
X129993090Y-54370420D01*
X129862286Y-54334947D01*
X129758492Y-54321345D01*
X130779971Y-54321345D01*
X130783129Y-54321889D01*
X130877610Y-54366185D01*
X130914509Y-54424024D01*
X130924632Y-54484859D01*
X130933512Y-54603628D01*
X130940646Y-54768199D01*
X130945533Y-54966441D01*
X130947670Y-55186224D01*
X130947724Y-55227315D01*
X130947319Y-55469917D01*
X130945516Y-55652305D01*
X130941439Y-55784334D01*
X130934207Y-55875857D01*
X130922944Y-55936728D01*
X130906770Y-55976801D01*
X130884807Y-56005929D01*
X130877656Y-56013310D01*
X130807587Y-56083379D01*
X132068828Y-56083379D01*
X132069306Y-55952000D01*
X132074736Y-55837922D01*
X132087280Y-55738611D01*
X132088415Y-55733034D01*
X132088664Y-55702059D01*
X132063548Y-55734298D01*
X132033804Y-55789441D01*
X131949378Y-55912159D01*
X131839445Y-55983282D01*
X131687848Y-56011748D01*
X131629248Y-56013310D01*
X131506627Y-56003579D01*
X131422390Y-55967551D01*
X131369869Y-55894968D01*
X131342396Y-55775577D01*
X131333304Y-55599122D01*
X131333104Y-55557862D01*
X131333104Y-55242551D01*
X131517035Y-55245014D01*
X131671622Y-55254036D01*
X131774316Y-55280569D01*
X131842450Y-55331298D01*
X131878693Y-55384480D01*
X131902061Y-55420668D01*
X131916138Y-55419228D01*
X131923141Y-55370898D01*
X131925286Y-55266420D01*
X131925228Y-55190000D01*
X131922109Y-55050651D01*
X131913745Y-54979010D01*
X131899802Y-54972892D01*
X131893950Y-54984803D01*
X131814659Y-55092203D01*
X131681614Y-55154677D01*
X131517998Y-55172482D01*
X131333104Y-55172482D01*
X131333104Y-54366689D01*
X131534552Y-54367206D01*
X131713446Y-54381201D01*
X131841382Y-54426799D01*
X131933020Y-54511027D01*
X131974041Y-54577868D01*
X132036910Y-54699517D01*
X132018220Y-54559379D01*
X132005970Y-54453393D01*
X131999447Y-54369553D01*
X131999145Y-54357931D01*
X131994120Y-54336479D01*
X131973889Y-54321345D01*
X132251420Y-54321345D01*
X132254578Y-54321889D01*
X132306862Y-54335867D01*
X132347091Y-54365454D01*
X132376621Y-54418664D01*
X132396810Y-54503506D01*
X132409016Y-54627993D01*
X132414596Y-54800135D01*
X132414908Y-55027943D01*
X132412319Y-55252725D01*
X132408319Y-55498247D01*
X132403820Y-55683137D01*
X132397872Y-55816832D01*
X132389524Y-55908768D01*
X132377826Y-55968381D01*
X132361827Y-56005108D01*
X132340577Y-56028385D01*
X132333649Y-56033710D01*
X132316634Y-56051339D01*
X132326199Y-56064295D01*
X132370296Y-56073273D01*
X132456879Y-56078965D01*
X132593901Y-56082067D01*
X132789314Y-56083271D01*
X132902959Y-56083379D01*
X133540276Y-56083379D01*
X133540755Y-55952000D01*
X133546184Y-55837922D01*
X133558728Y-55738611D01*
X133559863Y-55733034D01*
X133560112Y-55702059D01*
X133534997Y-55734298D01*
X133505253Y-55789441D01*
X133420827Y-55912159D01*
X133310893Y-55983282D01*
X133159296Y-56011748D01*
X133100697Y-56013310D01*
X132978075Y-56003579D01*
X132893838Y-55967551D01*
X132841317Y-55894968D01*
X132813845Y-55775577D01*
X132804752Y-55599122D01*
X132804552Y-55557862D01*
X132804552Y-55242551D01*
X132988483Y-55245014D01*
X133143071Y-55254036D01*
X133245764Y-55280569D01*
X133313898Y-55331298D01*
X133350142Y-55384480D01*
X133373528Y-55420707D01*
X133387683Y-55419367D01*
X133394863Y-55371189D01*
X133397327Y-55266904D01*
X133397494Y-55190000D01*
X133396656Y-55053171D01*
X133392623Y-54977259D01*
X133382821Y-54953115D01*
X133364679Y-54971589D01*
X133345526Y-55005188D01*
X133276777Y-55097406D01*
X133183232Y-55149946D01*
X133047055Y-55171018D01*
X132982028Y-55172482D01*
X132804552Y-55172482D01*
X132804552Y-54366689D01*
X132994961Y-54366689D01*
X133167911Y-54376970D01*
X133290001Y-54412916D01*
X133378084Y-54482178D01*
X133435361Y-54566665D01*
X133508802Y-54699517D01*
X133489505Y-54581275D01*
X133475763Y-54472144D01*
X133470207Y-54379827D01*
X133470207Y-54317699D01*
X133697622Y-54317699D01*
X133697931Y-54321972D01*
X133747089Y-54335945D01*
X133784795Y-54356354D01*
X133812566Y-54391781D01*
X133831921Y-54450807D01*
X133844379Y-54542012D01*
X133851457Y-54673979D01*
X133854676Y-54855289D01*
X133855552Y-55094521D01*
X133855587Y-55212936D01*
X133855435Y-55469836D01*
X133854427Y-55665456D01*
X133851733Y-55808580D01*
X133846522Y-55907998D01*
X133837964Y-55972497D01*
X133825229Y-56010863D01*
X133807486Y-56031884D01*
X133783905Y-56044347D01*
X133776759Y-56047253D01*
X133764815Y-56062119D01*
X133817410Y-56071837D01*
X133936519Y-56076610D01*
X134065793Y-56077094D01*
X134209395Y-56075020D01*
X134315627Y-56070818D01*
X134372941Y-56065135D01*
X134375059Y-56059751D01*
X134312939Y-56007479D01*
X134269605Y-55890084D01*
X134245734Y-55710135D01*
X134240966Y-55552634D01*
X134240966Y-55277586D01*
X134495512Y-55277586D01*
X134712043Y-55261230D01*
X134878237Y-55208614D01*
X135006625Y-55114418D01*
X135073035Y-55032362D01*
X135138402Y-54880143D01*
X135142262Y-54719630D01*
X135089148Y-54565946D01*
X134983595Y-54434215D01*
X134870888Y-54357985D01*
X134812680Y-54334144D01*
X134740390Y-54317473D01*
X134641696Y-54306939D01*
X134504277Y-54301507D01*
X134315811Y-54300145D01*
X134188414Y-54300739D01*
X134005590Y-54303065D01*
X133856285Y-54306951D01*
X133750347Y-54311972D01*
X133697622Y-54317699D01*
X133470207Y-54317699D01*
X133470207Y-54296620D01*
X132813311Y-54301870D01*
X132615432Y-54304213D01*
X132451531Y-54307647D01*
X132330380Y-54311856D01*
X132260752Y-54316527D01*
X132251420Y-54321345D01*
X131973889Y-54321345D01*
X131973205Y-54320833D01*
X131927173Y-54310206D01*
X131846800Y-54303811D01*
X131722859Y-54300861D01*
X131546124Y-54300570D01*
X131341862Y-54301870D01*
X131143984Y-54304213D01*
X130980083Y-54307647D01*
X130858932Y-54311856D01*
X130789304Y-54316527D01*
X130779971Y-54321345D01*
X129758492Y-54321345D01*
X129698460Y-54313478D01*
X129490317Y-54303205D01*
X129226563Y-54301319D01*
X129145848Y-54301870D01*
X128958511Y-54304351D01*
X128806286Y-54308010D01*
X128698167Y-54312486D01*
X128643147Y-54317420D01*
X127934759Y-54317420D01*
X127934759Y-54086413D01*
X115812828Y-54086413D01*
X115812828Y-56328620D01*
X115637656Y-56328620D01*
X115637656Y-53946276D01*
X135642345Y-53946276D01*
G37*
G36*
X120284078Y-54299815D02*
G01*
X120630069Y-54303009D01*
X121155587Y-54863293D01*
X121681104Y-55423577D01*
X121690907Y-54961292D01*
X121693816Y-54756728D01*
X121690035Y-54610001D01*
X121675912Y-54508946D01*
X121647794Y-54441397D01*
X121602030Y-54395187D01*
X121534967Y-54358152D01*
X121505945Y-54345175D01*
X121464323Y-54324539D01*
X121458898Y-54311206D01*
X121498050Y-54303610D01*
X121590163Y-54300185D01*
X121743619Y-54299364D01*
X121751173Y-54299363D01*
X121907496Y-54300037D01*
X122002144Y-54303154D01*
X122043505Y-54310354D01*
X122039968Y-54323279D01*
X121999922Y-54343569D01*
X121992899Y-54346647D01*
X121911244Y-54396061D01*
X121862512Y-54450844D01*
X121861519Y-54453245D01*
X121854984Y-54504222D01*
X121849181Y-54614480D01*
X121844397Y-54773235D01*
X121840916Y-54969701D01*
X121839022Y-55193091D01*
X121838759Y-55315486D01*
X121837666Y-55544342D01*
X121834599Y-55747921D01*
X121829880Y-55916405D01*
X121823830Y-56039972D01*
X121816770Y-56108805D01*
X121812483Y-56119784D01*
X121782091Y-56095988D01*
X121709736Y-56028196D01*
X121602009Y-55922928D01*
X121465505Y-55786703D01*
X121306817Y-55626042D01*
X121132536Y-55447464D01*
X121130504Y-55445370D01*
X120474802Y-54769586D01*
X120473608Y-55331101D01*
X120475539Y-55577251D01*
X120483866Y-55761687D01*
X120500606Y-55892628D01*
X120527774Y-55978292D01*
X120567386Y-56026899D01*
X120621460Y-56046665D01*
X120649573Y-56048344D01*
X120705415Y-56063398D01*
X120717656Y-56083379D01*
X120684445Y-56099874D01*
X120591931Y-56111731D01*
X120450792Y-56117834D01*
X120382760Y-56118413D01*
X120216489Y-56115012D01*
X120110453Y-56105122D01*
X120068841Y-56089209D01*
X120069518Y-56083379D01*
X120120208Y-56051143D01*
X120141654Y-56048344D01*
X120202174Y-56025221D01*
X120262207Y-55978276D01*
X120286790Y-55949218D01*
X120304860Y-55911490D01*
X120317410Y-55854745D01*
X120325433Y-55768633D01*
X120329922Y-55642810D01*
X120331872Y-55466926D01*
X120332276Y-55248436D01*
X120332276Y-54588665D01*
X120135181Y-54442643D01*
X119938086Y-54296620D01*
X120284078Y-54299815D01*
G37*
G36*
X122323870Y-54782589D02*
G01*
X122318631Y-54614139D01*
X122312007Y-54490105D01*
X122304369Y-54421356D01*
X122301440Y-54412228D01*
X122250312Y-54367890D01*
X122188115Y-54335621D01*
X122178050Y-54322702D01*
X122223025Y-54312814D01*
X122326695Y-54305718D01*
X122492713Y-54301175D01*
X122724736Y-54298949D01*
X122752818Y-54298841D01*
X123404119Y-54296620D01*
X123620411Y-54404703D01*
X123831173Y-54539930D01*
X123981603Y-54707206D01*
X124074743Y-54911622D01*
X124113636Y-55158267D01*
X124115231Y-55232667D01*
X124093649Y-55465260D01*
X124026340Y-55654791D01*
X123906945Y-55816162D01*
X123839126Y-55879650D01*
X123731519Y-55959991D01*
X123613461Y-56020980D01*
X123473887Y-56064944D01*
X123301728Y-56094211D01*
X123085920Y-56111107D01*
X122815396Y-56117958D01*
X122703564Y-56118413D01*
X122474054Y-56116367D01*
X122297272Y-56110437D01*
X122178417Y-56100933D01*
X122122688Y-56088168D01*
X122119035Y-56083379D01*
X122148044Y-56053929D01*
X122182097Y-56048344D01*
X122228423Y-56044226D01*
X122263885Y-56026408D01*
X122289915Y-55986699D01*
X122307943Y-55916907D01*
X122319402Y-55808839D01*
X122325722Y-55654304D01*
X122328335Y-55445109D01*
X122328705Y-55209269D01*
X122328181Y-55122234D01*
X122749656Y-55122234D01*
X122751435Y-55370998D01*
X122756511Y-55583057D01*
X122764488Y-55749811D01*
X122774969Y-55862664D01*
X122785923Y-55910510D01*
X122844859Y-55954303D01*
X122950632Y-55978416D01*
X123082866Y-55982968D01*
X123221187Y-55968081D01*
X123345217Y-55933873D01*
X123399931Y-55906885D01*
X123533469Y-55783614D01*
X123623744Y-55606603D01*
X123669942Y-55377857D01*
X123676240Y-55225034D01*
X123669299Y-55052302D01*
X123648318Y-54925417D01*
X123609075Y-54820848D01*
X123600822Y-54804620D01*
X123467279Y-54615568D01*
X123296440Y-54485827D01*
X123088511Y-54415520D01*
X122925953Y-54401724D01*
X122749656Y-54401724D01*
X122749656Y-55122234D01*
X122328181Y-55122234D01*
X122327352Y-54984588D01*
X122323870Y-54782589D01*
G37*
G36*
X129664622Y-54435280D02*
G01*
X129839374Y-54526005D01*
X129973805Y-54649992D01*
X129978129Y-54655687D01*
X130079495Y-54841678D01*
X130136755Y-55057052D01*
X130150236Y-55284130D01*
X130120266Y-55505234D01*
X130047171Y-55702686D01*
X129956328Y-55833416D01*
X129834122Y-55926894D01*
X129680931Y-55988622D01*
X129518621Y-56014582D01*
X129369057Y-56000760D01*
X129273865Y-55958772D01*
X129248133Y-55938562D01*
X129228802Y-55912613D01*
X129214957Y-55871507D01*
X129205683Y-55805829D01*
X129200066Y-55706160D01*
X129197190Y-55563084D01*
X129196140Y-55367185D01*
X129196000Y-55157358D01*
X129196000Y-54410482D01*
X129292345Y-54391452D01*
X129474096Y-54387276D01*
X129664622Y-54435280D01*
G37*
G36*
X116443449Y-54297191D02*
G01*
X116631668Y-54298111D01*
X116758039Y-54301099D01*
X116830775Y-54307148D01*
X116858088Y-54317251D01*
X116848192Y-54332402D01*
X116828828Y-54343794D01*
X116768579Y-54391674D01*
X116751695Y-54435947D01*
X116775149Y-54483804D01*
X116827226Y-54568202D01*
X116897141Y-54673644D01*
X116974110Y-54784630D01*
X117047349Y-54885663D01*
X117106074Y-54961245D01*
X117139499Y-54995877D01*
X117141811Y-54996581D01*
X117169057Y-54969060D01*
X117223348Y-54896803D01*
X117294045Y-54794145D01*
X117310552Y-54769197D01*
X117408244Y-54602045D01*
X117453128Y-54476517D01*
X117445803Y-54388876D01*
X117386869Y-54335391D01*
X117380621Y-54332747D01*
X117367906Y-54317773D01*
X117418265Y-54307576D01*
X117534181Y-54301877D01*
X117669656Y-54300379D01*
X117830875Y-54300579D01*
X117929774Y-54302916D01*
X117974094Y-54308908D01*
X117971581Y-54320075D01*
X117929979Y-54337935D01*
X117905806Y-54346696D01*
X117826346Y-54377551D01*
X117762100Y-54412611D01*
X117702204Y-54462698D01*
X117635791Y-54538638D01*
X117551995Y-54651255D01*
X117441312Y-54809408D01*
X117214207Y-55137415D01*
X117214207Y-55525114D01*
X117218111Y-55734757D01*
X117231371Y-55883290D01*
X117256313Y-55979316D01*
X117295261Y-56031440D01*
X117350540Y-56048265D01*
X117355578Y-56048344D01*
X117411835Y-56063251D01*
X117424414Y-56083379D01*
X117390755Y-56098758D01*
X117295118Y-56110136D01*
X117145515Y-56116846D01*
X117004000Y-56118413D01*
X116819455Y-56115608D01*
X116682917Y-56107639D01*
X116602396Y-56095172D01*
X116583587Y-56083379D01*
X116612596Y-56053929D01*
X116646649Y-56048344D01*
X116707740Y-56038507D01*
X116749648Y-56002079D01*
X116775718Y-55928692D01*
X116789291Y-55807974D01*
X116793712Y-55629555D01*
X116793793Y-55591911D01*
X116793793Y-55219561D01*
X116496882Y-54819401D01*
X116364132Y-54647568D01*
X116244705Y-54506554D01*
X116147186Y-54405981D01*
X116085227Y-54357985D01*
X116041225Y-54333423D01*
X116022884Y-54316512D01*
X116038526Y-54305841D01*
X116096476Y-54299995D01*
X116205055Y-54297564D01*
X116372588Y-54297134D01*
X116443449Y-54297191D01*
G37*
G36*
X117993914Y-54797846D02*
G01*
X118009311Y-54767196D01*
X118152026Y-54568760D01*
X118337871Y-54417561D01*
X118555364Y-54316935D01*
X118793023Y-54270219D01*
X119039365Y-54280748D01*
X119282910Y-54351860D01*
X119342572Y-54379778D01*
X119541984Y-54517063D01*
X119687273Y-54697636D01*
X119776258Y-54917753D01*
X119806757Y-55173674D01*
X119806759Y-55176051D01*
X119799445Y-55321461D01*
X119780656Y-55463463D01*
X119764153Y-55536280D01*
X119698480Y-55670562D01*
X119587883Y-55812223D01*
X119452064Y-55941562D01*
X119310723Y-56038879D01*
X119224625Y-56075807D01*
X119066390Y-56105302D01*
X118878115Y-56115296D01*
X118689917Y-56106095D01*
X118531911Y-56078007D01*
X118501653Y-56068428D01*
X118295975Y-55961492D01*
X118129001Y-55799277D01*
X118036620Y-55658419D01*
X117982031Y-55550751D01*
X117950591Y-55455733D01*
X117936263Y-55346073D01*
X117933012Y-55194476D01*
X117933021Y-55190000D01*
X117938619Y-55022010D01*
X117939180Y-55018357D01*
X118376690Y-55018357D01*
X118377064Y-55268161D01*
X118377466Y-55277586D01*
X118404434Y-55540003D01*
X118461079Y-55741225D01*
X118549593Y-55884510D01*
X118672165Y-55973116D01*
X118830988Y-56010300D01*
X118871326Y-56011907D01*
X118991259Y-55998210D01*
X119101416Y-55963061D01*
X119107216Y-55960165D01*
X119198550Y-55891945D01*
X119267351Y-55787437D01*
X119319776Y-55634513D01*
X119352764Y-55476696D01*
X119374174Y-55249668D01*
X119364344Y-55018571D01*
X119326074Y-54804357D01*
X119262166Y-54627973D01*
X119232336Y-54576122D01*
X119116957Y-54458619D01*
X118973011Y-54395517D01*
X118817006Y-54387572D01*
X118665448Y-54435536D01*
X118534843Y-54540164D01*
X118531479Y-54544116D01*
X118451330Y-54668563D01*
X118400590Y-54822568D01*
X118376690Y-55018357D01*
X117939180Y-55018357D01*
X117957463Y-54899350D01*
X117993914Y-54797846D01*
G37*
G36*
X125932422Y-54782589D02*
G01*
X125927183Y-54614139D01*
X125920558Y-54490105D01*
X125912921Y-54421356D01*
X125909992Y-54412228D01*
X125858864Y-54367890D01*
X125796666Y-54335621D01*
X125784371Y-54322220D01*
X125826153Y-54312133D01*
X125926075Y-54305062D01*
X126088200Y-54300710D01*
X126298022Y-54298841D01*
X126552940Y-54299994D01*
X126748532Y-54307124D01*
X126895438Y-54322469D01*
X127004302Y-54348270D01*
X127085766Y-54386765D01*
X127150472Y-54440196D01*
X127190730Y-54486710D01*
X127268877Y-54636510D01*
X127283066Y-54794436D01*
X127235828Y-54946490D01*
X127129691Y-55078676D01*
X127076414Y-55119468D01*
X126971311Y-55190000D01*
X127047243Y-55271208D01*
X127096628Y-55334831D01*
X127169898Y-55442368D01*
X127255917Y-55577043D01*
X127319008Y-55680581D01*
X127407083Y-55819731D01*
X127488568Y-55933326D01*
X127553501Y-56008229D01*
X127584662Y-56030906D01*
X127649332Y-56060665D01*
X127648411Y-56085972D01*
X127586325Y-56105080D01*
X127467499Y-56116244D01*
X127362898Y-56118413D01*
X127071313Y-56118413D01*
X126902512Y-55794344D01*
X126789298Y-55587812D01*
X126693783Y-55440018D01*
X126609804Y-55343820D01*
X126531201Y-55292076D01*
X126456756Y-55277586D01*
X126358207Y-55277586D01*
X126358207Y-55595199D01*
X126363680Y-55790890D01*
X126381807Y-55925455D01*
X126415150Y-56007109D01*
X126466271Y-56044063D01*
X126499578Y-56048344D01*
X126555835Y-56063251D01*
X126568414Y-56083379D01*
X126534755Y-56098758D01*
X126439118Y-56110136D01*
X126289515Y-56116846D01*
X126148000Y-56118413D01*
X125963455Y-56115608D01*
X125826917Y-56107639D01*
X125746396Y-56095172D01*
X125727587Y-56083379D01*
X125756596Y-56053929D01*
X125790649Y-56048344D01*
X125836975Y-56044226D01*
X125872437Y-56026408D01*
X125898466Y-55986699D01*
X125916495Y-55916907D01*
X125927954Y-55808839D01*
X125934274Y-55654304D01*
X125936887Y-55445109D01*
X125937257Y-55209269D01*
X125936825Y-55137448D01*
X126358207Y-55137448D01*
X126501040Y-55137448D01*
X126620114Y-55121908D01*
X126715311Y-55064176D01*
X126746281Y-55035039D01*
X126814347Y-54951490D01*
X126843758Y-54861091D01*
X126848690Y-54769586D01*
X126820275Y-54608834D01*
X126740084Y-54488971D01*
X126615702Y-54418021D01*
X126501040Y-54401724D01*
X126358207Y-54401724D01*
X126358207Y-55137448D01*
X125936825Y-55137448D01*
X125935904Y-54984588D01*
X125932422Y-54782589D01*
G37*
G36*
X125587449Y-54489310D02*
G01*
X125581689Y-54594833D01*
X125566832Y-54664823D01*
X125552414Y-54682000D01*
X125520545Y-54653981D01*
X125517380Y-54634173D01*
X125497044Y-54575209D01*
X125447799Y-54497929D01*
X125444768Y-54494035D01*
X125399272Y-54444724D01*
X125346705Y-54416926D01*
X125266448Y-54404606D01*
X125137885Y-54401728D01*
X125129458Y-54401724D01*
X124886759Y-54401724D01*
X124886759Y-55137448D01*
X125094463Y-55137448D01*
X125262596Y-55121690D01*
X125368161Y-55074412D01*
X125411174Y-54995605D01*
X125412276Y-54977290D01*
X125432012Y-54932297D01*
X125447311Y-54927241D01*
X125464964Y-54959845D01*
X125477268Y-55048101D01*
X125482312Y-55177678D01*
X125482345Y-55190000D01*
X125477901Y-55343346D01*
X125464146Y-55428483D01*
X125440448Y-55446732D01*
X125406176Y-55399413D01*
X125394308Y-55373931D01*
X125366888Y-55330875D01*
X125319954Y-55305376D01*
X125235698Y-55291575D01*
X125123242Y-55284744D01*
X124886759Y-55274384D01*
X124886759Y-55558564D01*
X124889953Y-55735883D01*
X124905033Y-55854803D01*
X124940246Y-55926898D01*
X125003838Y-55963746D01*
X125104057Y-55976919D01*
X125185785Y-55978276D01*
X125354715Y-55964929D01*
X125469388Y-55920434D01*
X125541208Y-55838109D01*
X125572838Y-55751443D01*
X125599894Y-55685440D01*
X125626281Y-55662965D01*
X125649078Y-55681276D01*
X125656123Y-55742694D01*
X125647712Y-55856947D01*
X125635238Y-55955868D01*
X125612959Y-56118413D01*
X124934549Y-56118413D01*
X124682142Y-56116642D01*
X124484344Y-56111474D01*
X124345408Y-56103130D01*
X124269586Y-56091828D01*
X124256138Y-56083379D01*
X124285148Y-56053929D01*
X124319200Y-56048344D01*
X124365526Y-56044226D01*
X124400989Y-56026408D01*
X124427018Y-55986699D01*
X124445047Y-55916907D01*
X124456505Y-55808839D01*
X124462826Y-55654304D01*
X124465439Y-55445109D01*
X124465809Y-55209269D01*
X124464455Y-54984588D01*
X124460973Y-54782589D01*
X124455734Y-54614139D01*
X124449110Y-54490105D01*
X124441473Y-54421356D01*
X124438544Y-54412228D01*
X124387416Y-54367890D01*
X124325218Y-54335621D01*
X124315902Y-54322864D01*
X124361961Y-54313046D01*
X124466915Y-54305947D01*
X124634284Y-54301346D01*
X124867588Y-54299022D01*
X124913035Y-54298841D01*
X125587449Y-54296620D01*
X125587449Y-54489310D01*
G37*
M02*
