G04 #@! TF.GenerationSoftware,KiCad,Pcbnew,(6.0.10-0)*
G04 #@! TF.CreationDate,2023-05-27T15:51:09-07:00*
G04 #@! TF.ProjectId,YonderDeep,596f6e64-6572-4446-9565-702e6b696361,rev?*
G04 #@! TF.SameCoordinates,Original*
G04 #@! TF.FileFunction,Copper,L2,Bot*
G04 #@! TF.FilePolarity,Positive*
%FSLAX46Y46*%
G04 Gerber Fmt 4.6, Leading zero omitted, Abs format (unit mm)*
G04 Created by KiCad (PCBNEW (6.0.10-0)) date 2023-05-27 15:51:09*
%MOMM*%
%LPD*%
G01*
G04 APERTURE LIST*
G04 #@! TA.AperFunction,ComponentPad*
%ADD10R,1.800000X1.800000*%
G04 #@! TD*
G04 #@! TA.AperFunction,ComponentPad*
%ADD11C,1.800000*%
G04 #@! TD*
G04 #@! TA.AperFunction,ComponentPad*
%ADD12C,1.600000*%
G04 #@! TD*
G04 #@! TA.AperFunction,ComponentPad*
%ADD13R,1.700000X1.700000*%
G04 #@! TD*
G04 #@! TA.AperFunction,ComponentPad*
%ADD14O,1.700000X1.700000*%
G04 #@! TD*
G04 #@! TA.AperFunction,ComponentPad*
%ADD15R,2.500000X2.500000*%
G04 #@! TD*
G04 #@! TA.AperFunction,ComponentPad*
%ADD16C,2.500000*%
G04 #@! TD*
G04 #@! TA.AperFunction,ViaPad*
%ADD17C,0.900000*%
G04 #@! TD*
G04 #@! TA.AperFunction,Conductor*
%ADD18C,0.304800*%
G04 #@! TD*
G04 #@! TA.AperFunction,Conductor*
%ADD19C,0.635000*%
G04 #@! TD*
G04 APERTURE END LIST*
D10*
X154450000Y-55835000D03*
D11*
X154450000Y-53295000D03*
D12*
X151040000Y-96870000D03*
X156040000Y-96870000D03*
D13*
X160490000Y-90590000D03*
D14*
X157950000Y-90590000D03*
X155410000Y-90590000D03*
X152870000Y-90590000D03*
D15*
X104820000Y-84605000D03*
D16*
X104820000Y-89685000D03*
D13*
X127940000Y-62612381D03*
D14*
X130480000Y-62612381D03*
X133020000Y-62612381D03*
X135560000Y-62612381D03*
D12*
X140190000Y-96840000D03*
X145190000Y-96840000D03*
X117080000Y-96850000D03*
X122080000Y-96850000D03*
X128580000Y-96840000D03*
X133580000Y-96840000D03*
D13*
X152890000Y-61130000D03*
D14*
X155430000Y-61130000D03*
X157970000Y-61130000D03*
X160510000Y-61130000D03*
D13*
X111250000Y-55010000D03*
D14*
X108710000Y-55010000D03*
X106170000Y-55010000D03*
X103630000Y-55010000D03*
D13*
X138090000Y-80670000D03*
D14*
X135550000Y-80670000D03*
X133010000Y-80670000D03*
X130470000Y-80670000D03*
X127930000Y-80670000D03*
X125390000Y-80670000D03*
D13*
X108370000Y-48770000D03*
D14*
X108370000Y-46230000D03*
X110910000Y-48770000D03*
X110910000Y-46230000D03*
X113450000Y-48770000D03*
X113450000Y-46230000D03*
X115990000Y-48770000D03*
X115990000Y-46230000D03*
X118530000Y-48770000D03*
X118530000Y-46230000D03*
X121070000Y-48770000D03*
X121070000Y-46230000D03*
X123610000Y-48770000D03*
X123610000Y-46230000D03*
X126150000Y-48770000D03*
X126150000Y-46230000D03*
X128690000Y-48770000D03*
X128690000Y-46230000D03*
X131230000Y-48770000D03*
X131230000Y-46230000D03*
X133770000Y-48770000D03*
X133770000Y-46230000D03*
X136310000Y-48770000D03*
X136310000Y-46230000D03*
X138850000Y-48770000D03*
X138850000Y-46230000D03*
X141390000Y-48770000D03*
X141390000Y-46230000D03*
X143930000Y-48770000D03*
X143930000Y-46230000D03*
X146470000Y-48770000D03*
X146470000Y-46230000D03*
X149010000Y-48770000D03*
X149010000Y-46230000D03*
X151550000Y-48770000D03*
X151550000Y-46230000D03*
X154090000Y-48770000D03*
X154090000Y-46230000D03*
X156630000Y-48770000D03*
X156630000Y-46230000D03*
D17*
X145770000Y-57580000D03*
X131900000Y-74660000D03*
X141940000Y-67970000D03*
D18*
X140744349Y-57580000D02*
X132432400Y-49268051D01*
X132432400Y-49268051D02*
X132432400Y-48271949D01*
X132432400Y-48271949D02*
X131630451Y-47470000D01*
X131630451Y-47470000D02*
X129930000Y-47470000D01*
X145770000Y-57580000D02*
X140744349Y-57580000D01*
X129930000Y-47470000D02*
X128690000Y-46230000D01*
X131900000Y-74660000D02*
X137910000Y-80670000D01*
X137910000Y-80670000D02*
X138090000Y-80670000D01*
D19*
X125390000Y-80670000D02*
X125390000Y-76790000D01*
X128690000Y-48770000D02*
X141050000Y-61130000D01*
X152890000Y-61130000D02*
X141050000Y-61130000D01*
X125390000Y-76790000D02*
X141050000Y-61130000D01*
D18*
X141940000Y-67970000D02*
X151040000Y-77070000D01*
X151040000Y-77070000D02*
X151040000Y-96870000D01*
X139660000Y-96840000D02*
X140190000Y-96840000D01*
X115990000Y-48770000D02*
X115990000Y-73170000D01*
X115990000Y-73170000D02*
X139660000Y-96840000D01*
G04 #@! TA.AperFunction,Conductor*
G36*
X161989955Y-44052077D02*
G01*
X161992691Y-44051634D01*
X162000000Y-44054661D01*
X162008846Y-44050997D01*
X162015793Y-44051387D01*
X162015800Y-44051390D01*
X162022135Y-44051908D01*
X162028561Y-44052599D01*
X162031445Y-44052266D01*
X162323178Y-44068649D01*
X162337210Y-44070230D01*
X162493282Y-44096748D01*
X162649349Y-44123265D01*
X162663124Y-44126409D01*
X162967360Y-44214058D01*
X162980697Y-44218725D01*
X163160301Y-44293119D01*
X163273207Y-44339886D01*
X163285930Y-44346013D01*
X163563041Y-44499167D01*
X163574989Y-44506674D01*
X163833222Y-44689900D01*
X163844253Y-44698698D01*
X164069239Y-44899758D01*
X164080335Y-44909674D01*
X164090325Y-44919664D01*
X164301302Y-45155747D01*
X164310100Y-45166778D01*
X164493326Y-45425011D01*
X164500833Y-45436959D01*
X164619290Y-45651290D01*
X164653985Y-45714066D01*
X164660114Y-45726793D01*
X164684690Y-45786124D01*
X164781275Y-46019303D01*
X164785942Y-46032640D01*
X164873591Y-46336876D01*
X164876735Y-46350651D01*
X164899392Y-46484000D01*
X164920516Y-46608324D01*
X164929769Y-46662785D01*
X164931351Y-46676822D01*
X164947129Y-46957781D01*
X164949003Y-46991154D01*
X164945341Y-46991360D01*
X164946471Y-46997268D01*
X164945339Y-47000000D01*
X164948412Y-47007418D01*
X164949220Y-47011644D01*
X164948228Y-47020876D01*
X164949500Y-47029725D01*
X164949500Y-96989955D01*
X164947923Y-96989955D01*
X164948366Y-96992691D01*
X164945339Y-97000000D01*
X164949003Y-97008846D01*
X164948613Y-97015793D01*
X164948610Y-97015800D01*
X164948092Y-97022135D01*
X164947401Y-97028561D01*
X164947734Y-97031445D01*
X164931880Y-97313761D01*
X164931351Y-97323174D01*
X164929770Y-97337210D01*
X164905782Y-97478394D01*
X164876735Y-97649349D01*
X164873591Y-97663124D01*
X164785942Y-97967360D01*
X164781275Y-97980697D01*
X164660116Y-98273203D01*
X164653987Y-98285930D01*
X164500833Y-98563041D01*
X164493326Y-98574989D01*
X164310100Y-98833222D01*
X164301302Y-98844253D01*
X164122811Y-99043984D01*
X164090326Y-99080335D01*
X164080336Y-99090325D01*
X163844253Y-99301302D01*
X163833222Y-99310100D01*
X163574989Y-99493326D01*
X163563041Y-99500833D01*
X163285930Y-99653987D01*
X163273207Y-99660114D01*
X163160301Y-99706881D01*
X162980697Y-99781275D01*
X162967360Y-99785942D01*
X162663124Y-99873591D01*
X162649349Y-99876735D01*
X162493282Y-99903252D01*
X162337210Y-99929770D01*
X162323178Y-99931351D01*
X162008846Y-99949003D01*
X162008640Y-99945341D01*
X162002732Y-99946471D01*
X162000000Y-99945339D01*
X161992582Y-99948412D01*
X161988356Y-99949220D01*
X161979124Y-99948228D01*
X161970275Y-99949500D01*
X103010045Y-99949500D01*
X103010045Y-99947923D01*
X103007309Y-99948366D01*
X103000000Y-99945339D01*
X102991154Y-99949003D01*
X102984207Y-99948613D01*
X102984200Y-99948610D01*
X102977865Y-99948092D01*
X102971439Y-99947401D01*
X102968555Y-99947734D01*
X102676822Y-99931351D01*
X102662790Y-99929770D01*
X102506718Y-99903252D01*
X102350651Y-99876735D01*
X102336876Y-99873591D01*
X102032640Y-99785942D01*
X102019303Y-99781275D01*
X101839699Y-99706881D01*
X101726793Y-99660114D01*
X101714070Y-99653987D01*
X101436959Y-99500833D01*
X101425011Y-99493326D01*
X101166778Y-99310100D01*
X101155747Y-99301302D01*
X100919664Y-99090325D01*
X100909674Y-99080335D01*
X100877189Y-99043984D01*
X100698698Y-98844253D01*
X100689900Y-98833222D01*
X100506674Y-98574989D01*
X100499167Y-98563041D01*
X100346013Y-98285930D01*
X100339884Y-98273203D01*
X100218725Y-97980697D01*
X100214058Y-97967360D01*
X100126409Y-97663124D01*
X100123265Y-97649349D01*
X100094218Y-97478394D01*
X100070230Y-97337210D01*
X100068649Y-97323174D01*
X100068121Y-97313761D01*
X100050997Y-97008846D01*
X100054659Y-97008640D01*
X100053529Y-97002732D01*
X100054661Y-97000000D01*
X100051588Y-96992582D01*
X100050780Y-96988356D01*
X100051772Y-96979124D01*
X100050500Y-96970275D01*
X100050500Y-96554288D01*
X101945404Y-96554288D01*
X101945985Y-96559308D01*
X101945985Y-96559312D01*
X101956342Y-96648824D01*
X101974081Y-96802140D01*
X101975460Y-96807011D01*
X101975460Y-96807014D01*
X101993604Y-96871132D01*
X102042017Y-97042219D01*
X102068300Y-97098584D01*
X102143061Y-97258909D01*
X102147462Y-97268348D01*
X102150304Y-97272529D01*
X102150304Y-97272530D01*
X102154639Y-97278909D01*
X102287706Y-97474710D01*
X102459138Y-97655994D01*
X102463164Y-97659072D01*
X102463165Y-97659073D01*
X102630883Y-97787303D01*
X102657349Y-97807538D01*
X102877239Y-97925443D01*
X103113152Y-98006674D01*
X103241099Y-98028774D01*
X103355107Y-98048467D01*
X103355113Y-98048468D01*
X103359017Y-98049142D01*
X103362978Y-98049322D01*
X103362979Y-98049322D01*
X103387503Y-98050436D01*
X103387522Y-98050436D01*
X103388922Y-98050500D01*
X103562691Y-98050500D01*
X103565199Y-98050298D01*
X103565204Y-98050298D01*
X103743661Y-98035940D01*
X103743666Y-98035939D01*
X103748702Y-98035534D01*
X103753610Y-98034329D01*
X103753613Y-98034328D01*
X103986092Y-97977225D01*
X103991006Y-97976018D01*
X103995658Y-97974043D01*
X103995662Y-97974042D01*
X104085138Y-97936062D01*
X121358493Y-97936062D01*
X121367789Y-97948077D01*
X121418994Y-97983931D01*
X121428489Y-97989414D01*
X121625947Y-98081490D01*
X121636239Y-98085236D01*
X121846688Y-98141625D01*
X121857481Y-98143528D01*
X122074525Y-98162517D01*
X122085475Y-98162517D01*
X122302519Y-98143528D01*
X122313312Y-98141625D01*
X122523761Y-98085236D01*
X122534053Y-98081490D01*
X122731511Y-97989414D01*
X122741006Y-97983931D01*
X122793048Y-97947491D01*
X122801424Y-97937012D01*
X122795668Y-97926062D01*
X132858493Y-97926062D01*
X132867789Y-97938077D01*
X132918994Y-97973931D01*
X132928489Y-97979414D01*
X133125947Y-98071490D01*
X133136239Y-98075236D01*
X133346688Y-98131625D01*
X133357481Y-98133528D01*
X133574525Y-98152517D01*
X133585475Y-98152517D01*
X133802519Y-98133528D01*
X133813312Y-98131625D01*
X134023761Y-98075236D01*
X134034053Y-98071490D01*
X134231511Y-97979414D01*
X134241006Y-97973931D01*
X134293048Y-97937491D01*
X134301424Y-97927012D01*
X134300925Y-97926062D01*
X144468493Y-97926062D01*
X144477789Y-97938077D01*
X144528994Y-97973931D01*
X144538489Y-97979414D01*
X144735947Y-98071490D01*
X144746239Y-98075236D01*
X144956688Y-98131625D01*
X144967481Y-98133528D01*
X145184525Y-98152517D01*
X145195475Y-98152517D01*
X145412519Y-98133528D01*
X145423312Y-98131625D01*
X145633761Y-98075236D01*
X145644053Y-98071490D01*
X145841511Y-97979414D01*
X145851006Y-97973931D01*
X145876526Y-97956062D01*
X155318493Y-97956062D01*
X155327789Y-97968077D01*
X155378994Y-98003931D01*
X155388489Y-98009414D01*
X155585947Y-98101490D01*
X155596239Y-98105236D01*
X155806688Y-98161625D01*
X155817481Y-98163528D01*
X156034525Y-98182517D01*
X156045475Y-98182517D01*
X156262519Y-98163528D01*
X156273312Y-98161625D01*
X156483761Y-98105236D01*
X156494053Y-98101490D01*
X156691511Y-98009414D01*
X156701006Y-98003931D01*
X156753048Y-97967491D01*
X156761424Y-97957012D01*
X156754356Y-97943566D01*
X156052812Y-97242022D01*
X156038868Y-97234408D01*
X156037035Y-97234539D01*
X156030420Y-97238790D01*
X155324923Y-97944287D01*
X155318493Y-97956062D01*
X145876526Y-97956062D01*
X145903048Y-97937491D01*
X145911424Y-97927012D01*
X145904356Y-97913566D01*
X145202812Y-97212022D01*
X145188868Y-97204408D01*
X145187035Y-97204539D01*
X145180420Y-97208790D01*
X144474923Y-97914287D01*
X144468493Y-97926062D01*
X134300925Y-97926062D01*
X134294356Y-97913566D01*
X133592812Y-97212022D01*
X133578868Y-97204408D01*
X133577035Y-97204539D01*
X133570420Y-97208790D01*
X132864923Y-97914287D01*
X132858493Y-97926062D01*
X122795668Y-97926062D01*
X122794356Y-97923566D01*
X122092812Y-97222022D01*
X122078868Y-97214408D01*
X122077035Y-97214539D01*
X122070420Y-97218790D01*
X121364923Y-97924287D01*
X121358493Y-97936062D01*
X104085138Y-97936062D01*
X104216022Y-97880505D01*
X104216023Y-97880505D01*
X104220677Y-97878529D01*
X104431808Y-97745573D01*
X104519183Y-97668542D01*
X104615168Y-97583920D01*
X104615171Y-97583917D01*
X104618965Y-97580572D01*
X104777334Y-97387770D01*
X104902840Y-97172128D01*
X104933318Y-97092732D01*
X104990443Y-96943915D01*
X104992255Y-96939195D01*
X104997676Y-96913250D01*
X105013822Y-96835963D01*
X116074757Y-96835963D01*
X116091175Y-97031483D01*
X116145258Y-97220091D01*
X116160068Y-97248909D01*
X116232123Y-97389113D01*
X116232126Y-97389117D01*
X116234944Y-97394601D01*
X116356818Y-97548369D01*
X116361511Y-97552363D01*
X116361512Y-97552364D01*
X116407408Y-97591424D01*
X116506238Y-97675535D01*
X116511616Y-97678541D01*
X116511618Y-97678542D01*
X116542024Y-97695535D01*
X116677513Y-97771257D01*
X116864118Y-97831889D01*
X117058946Y-97855121D01*
X117065081Y-97854649D01*
X117065083Y-97854649D01*
X117248434Y-97840541D01*
X117248438Y-97840540D01*
X117254576Y-97840068D01*
X117443556Y-97787303D01*
X117618689Y-97698837D01*
X117631489Y-97688837D01*
X117768453Y-97581829D01*
X117773303Y-97578040D01*
X117778203Y-97572364D01*
X117897485Y-97434173D01*
X117897485Y-97434172D01*
X117901509Y-97429511D01*
X117998425Y-97258909D01*
X118060358Y-97072732D01*
X118084949Y-96878071D01*
X118085172Y-96862107D01*
X118085265Y-96855475D01*
X120767483Y-96855475D01*
X120786472Y-97072519D01*
X120788375Y-97083312D01*
X120844764Y-97293761D01*
X120848510Y-97304053D01*
X120940586Y-97501511D01*
X120946069Y-97511006D01*
X120982509Y-97563048D01*
X120992988Y-97571424D01*
X121006434Y-97564356D01*
X121707978Y-96862812D01*
X121714356Y-96851132D01*
X122444408Y-96851132D01*
X122444539Y-96852965D01*
X122448790Y-96859580D01*
X123154287Y-97565077D01*
X123166062Y-97571507D01*
X123178077Y-97562211D01*
X123213931Y-97511006D01*
X123219414Y-97501511D01*
X123311490Y-97304053D01*
X123315236Y-97293761D01*
X123371625Y-97083312D01*
X123373528Y-97072519D01*
X123392517Y-96855475D01*
X123392517Y-96844525D01*
X123390893Y-96825963D01*
X127574757Y-96825963D01*
X127591175Y-97021483D01*
X127645258Y-97210091D01*
X127648076Y-97215574D01*
X127732123Y-97379113D01*
X127732126Y-97379117D01*
X127734944Y-97384601D01*
X127856818Y-97538369D01*
X127861511Y-97542363D01*
X127861512Y-97542364D01*
X127919158Y-97591424D01*
X128006238Y-97665535D01*
X128011616Y-97668541D01*
X128011618Y-97668542D01*
X128047932Y-97688837D01*
X128177513Y-97761257D01*
X128364118Y-97821889D01*
X128558946Y-97845121D01*
X128565081Y-97844649D01*
X128565083Y-97844649D01*
X128748434Y-97830541D01*
X128748438Y-97830540D01*
X128754576Y-97830068D01*
X128943556Y-97777303D01*
X129118689Y-97688837D01*
X129148515Y-97665535D01*
X129230055Y-97601829D01*
X129273303Y-97568040D01*
X129278335Y-97562211D01*
X129397485Y-97424173D01*
X129397485Y-97424172D01*
X129401509Y-97419511D01*
X129412915Y-97399434D01*
X129461584Y-97313761D01*
X129498425Y-97248909D01*
X129560358Y-97062732D01*
X129584949Y-96868071D01*
X129585265Y-96845475D01*
X132267483Y-96845475D01*
X132286472Y-97062519D01*
X132288375Y-97073312D01*
X132344764Y-97283761D01*
X132348510Y-97294053D01*
X132440586Y-97491511D01*
X132446069Y-97501006D01*
X132482509Y-97553048D01*
X132492988Y-97561424D01*
X132506434Y-97554356D01*
X133207978Y-96852812D01*
X133214356Y-96841132D01*
X133944408Y-96841132D01*
X133944539Y-96842965D01*
X133948790Y-96849580D01*
X134654287Y-97555077D01*
X134666062Y-97561507D01*
X134678077Y-97552211D01*
X134713931Y-97501006D01*
X134719414Y-97491511D01*
X134811490Y-97294053D01*
X134815236Y-97283761D01*
X134871625Y-97073312D01*
X134873528Y-97062519D01*
X134892517Y-96845475D01*
X134892517Y-96834525D01*
X134873528Y-96617481D01*
X134871625Y-96606688D01*
X134815236Y-96396239D01*
X134811490Y-96385947D01*
X134719414Y-96188489D01*
X134713931Y-96178994D01*
X134677491Y-96126952D01*
X134667012Y-96118576D01*
X134653566Y-96125644D01*
X133952022Y-96827188D01*
X133944408Y-96841132D01*
X133214356Y-96841132D01*
X133215592Y-96838868D01*
X133215461Y-96837035D01*
X133211210Y-96830420D01*
X132505713Y-96124923D01*
X132493938Y-96118493D01*
X132481923Y-96127789D01*
X132446069Y-96178994D01*
X132440586Y-96188489D01*
X132348510Y-96385947D01*
X132344764Y-96396239D01*
X132288375Y-96606688D01*
X132286472Y-96617481D01*
X132267483Y-96834525D01*
X132267483Y-96845475D01*
X129585265Y-96845475D01*
X129585341Y-96840000D01*
X129566194Y-96644728D01*
X129564413Y-96638829D01*
X129564412Y-96638824D01*
X129511265Y-96462793D01*
X129509484Y-96456894D01*
X129417370Y-96283653D01*
X129293361Y-96131602D01*
X129142180Y-96006535D01*
X128969585Y-95913213D01*
X128875869Y-95884203D01*
X128788039Y-95857015D01*
X128788036Y-95857014D01*
X128782152Y-95855193D01*
X128776027Y-95854549D01*
X128776026Y-95854549D01*
X128593147Y-95835327D01*
X128593146Y-95835327D01*
X128587019Y-95834683D01*
X128477138Y-95844683D01*
X128397759Y-95851907D01*
X128397758Y-95851907D01*
X128391618Y-95852466D01*
X128385704Y-95854207D01*
X128385702Y-95854207D01*
X128342185Y-95867015D01*
X128203393Y-95907864D01*
X128197928Y-95910721D01*
X128034972Y-95995912D01*
X128034968Y-95995915D01*
X128029512Y-95998767D01*
X128024712Y-96002627D01*
X128024711Y-96002627D01*
X128012274Y-96012627D01*
X127876600Y-96121711D01*
X127750480Y-96272016D01*
X127747516Y-96277408D01*
X127747513Y-96277412D01*
X127724593Y-96319104D01*
X127655956Y-96443954D01*
X127654095Y-96449821D01*
X127654094Y-96449823D01*
X127640463Y-96492793D01*
X127596628Y-96630978D01*
X127574757Y-96825963D01*
X123390893Y-96825963D01*
X123373528Y-96627481D01*
X123371625Y-96616688D01*
X123315236Y-96406239D01*
X123311490Y-96395947D01*
X123219414Y-96198489D01*
X123213931Y-96188994D01*
X123177491Y-96136952D01*
X123167012Y-96128576D01*
X123153566Y-96135644D01*
X122452022Y-96837188D01*
X122444408Y-96851132D01*
X121714356Y-96851132D01*
X121715592Y-96848868D01*
X121715461Y-96847035D01*
X121711210Y-96840420D01*
X121005713Y-96134923D01*
X120993938Y-96128493D01*
X120981923Y-96137789D01*
X120946069Y-96188994D01*
X120940586Y-96198489D01*
X120848510Y-96395947D01*
X120844764Y-96406239D01*
X120788375Y-96616688D01*
X120786472Y-96627481D01*
X120767483Y-96844525D01*
X120767483Y-96855475D01*
X118085265Y-96855475D01*
X118085292Y-96853523D01*
X118085292Y-96853519D01*
X118085341Y-96850000D01*
X118066194Y-96654728D01*
X118064413Y-96648829D01*
X118064412Y-96648824D01*
X118011265Y-96472793D01*
X118009484Y-96466894D01*
X117917370Y-96293653D01*
X117793361Y-96141602D01*
X117642180Y-96016535D01*
X117469585Y-95923213D01*
X117375868Y-95894203D01*
X117288039Y-95867015D01*
X117288036Y-95867014D01*
X117282152Y-95865193D01*
X117276027Y-95864549D01*
X117276026Y-95864549D01*
X117093147Y-95845327D01*
X117093146Y-95845327D01*
X117087019Y-95844683D01*
X116982369Y-95854207D01*
X116897759Y-95861907D01*
X116897758Y-95861907D01*
X116891618Y-95862466D01*
X116885704Y-95864207D01*
X116885702Y-95864207D01*
X116756734Y-95902165D01*
X116703393Y-95917864D01*
X116697928Y-95920721D01*
X116534972Y-96005912D01*
X116534968Y-96005915D01*
X116529512Y-96008767D01*
X116524712Y-96012627D01*
X116524711Y-96012627D01*
X116508187Y-96025913D01*
X116376600Y-96131711D01*
X116250480Y-96282016D01*
X116247516Y-96287408D01*
X116247513Y-96287412D01*
X116193343Y-96385947D01*
X116155956Y-96453954D01*
X116154095Y-96459821D01*
X116154094Y-96459823D01*
X116149092Y-96475592D01*
X116096628Y-96640978D01*
X116074757Y-96835963D01*
X105013822Y-96835963D01*
X105042243Y-96699915D01*
X105043278Y-96694961D01*
X105043919Y-96680862D01*
X105052076Y-96501210D01*
X105054596Y-96445712D01*
X105053769Y-96438559D01*
X105026501Y-96202890D01*
X105025919Y-96197860D01*
X105020581Y-96178994D01*
X104978070Y-96028767D01*
X104957983Y-95957781D01*
X104900882Y-95835327D01*
X104867150Y-95762988D01*
X121358576Y-95762988D01*
X121365644Y-95776434D01*
X122067188Y-96477978D01*
X122081132Y-96485592D01*
X122082965Y-96485461D01*
X122089580Y-96481210D01*
X122795077Y-95775713D01*
X122801507Y-95763938D01*
X122793035Y-95752988D01*
X132858576Y-95752988D01*
X132865644Y-95766434D01*
X133567188Y-96467978D01*
X133581132Y-96475592D01*
X133582965Y-96475461D01*
X133589580Y-96471210D01*
X134295077Y-95765713D01*
X134301507Y-95753938D01*
X134292211Y-95741923D01*
X134241006Y-95706069D01*
X134231511Y-95700586D01*
X134034053Y-95608510D01*
X134023761Y-95604764D01*
X133813312Y-95548375D01*
X133802519Y-95546472D01*
X133585475Y-95527483D01*
X133574525Y-95527483D01*
X133357481Y-95546472D01*
X133346688Y-95548375D01*
X133136239Y-95604764D01*
X133125947Y-95608510D01*
X132928489Y-95700586D01*
X132918994Y-95706069D01*
X132866952Y-95742509D01*
X132858576Y-95752988D01*
X122793035Y-95752988D01*
X122792211Y-95751923D01*
X122741006Y-95716069D01*
X122731511Y-95710586D01*
X122534053Y-95618510D01*
X122523761Y-95614764D01*
X122313312Y-95558375D01*
X122302519Y-95556472D01*
X122085475Y-95537483D01*
X122074525Y-95537483D01*
X121857481Y-95556472D01*
X121846688Y-95558375D01*
X121636239Y-95614764D01*
X121625947Y-95618510D01*
X121428489Y-95710586D01*
X121418994Y-95716069D01*
X121366952Y-95752509D01*
X121358576Y-95762988D01*
X104867150Y-95762988D01*
X104854675Y-95736234D01*
X104854673Y-95736230D01*
X104852538Y-95731652D01*
X104831426Y-95700586D01*
X104807980Y-95666087D01*
X104712294Y-95525290D01*
X104540862Y-95344006D01*
X104342651Y-95192462D01*
X104122761Y-95074557D01*
X103886848Y-94993326D01*
X103758901Y-94971226D01*
X103644893Y-94951533D01*
X103644887Y-94951532D01*
X103640983Y-94950858D01*
X103637022Y-94950678D01*
X103637021Y-94950678D01*
X103612497Y-94949564D01*
X103612478Y-94949564D01*
X103611078Y-94949500D01*
X103437309Y-94949500D01*
X103434801Y-94949702D01*
X103434796Y-94949702D01*
X103256339Y-94964060D01*
X103256334Y-94964061D01*
X103251298Y-94964466D01*
X103246390Y-94965671D01*
X103246387Y-94965672D01*
X103016392Y-95022165D01*
X103008994Y-95023982D01*
X103004342Y-95025957D01*
X103004338Y-95025958D01*
X102783978Y-95119495D01*
X102779323Y-95121471D01*
X102568192Y-95254427D01*
X102564398Y-95257772D01*
X102384832Y-95416080D01*
X102384829Y-95416083D01*
X102381035Y-95419428D01*
X102222666Y-95612230D01*
X102097160Y-95827872D01*
X102095347Y-95832595D01*
X102095346Y-95832597D01*
X102049051Y-95953199D01*
X102007745Y-96060805D01*
X102006712Y-96065751D01*
X102006710Y-96065757D01*
X101988754Y-96151711D01*
X101956722Y-96305039D01*
X101956493Y-96310088D01*
X101956492Y-96310094D01*
X101956083Y-96319104D01*
X101945404Y-96554288D01*
X100050500Y-96554288D01*
X100050500Y-91094133D01*
X103775612Y-91094133D01*
X103784325Y-91105653D01*
X103882018Y-91177284D01*
X103889928Y-91182227D01*
X104112890Y-91299533D01*
X104121453Y-91303256D01*
X104359304Y-91386318D01*
X104368313Y-91388732D01*
X104615842Y-91435727D01*
X104625098Y-91436781D01*
X104876857Y-91446673D01*
X104886171Y-91446347D01*
X105136615Y-91418920D01*
X105145792Y-91417219D01*
X105389431Y-91353074D01*
X105398251Y-91350037D01*
X105629736Y-91250583D01*
X105638008Y-91246276D01*
X105852249Y-91113700D01*
X105859188Y-91108658D01*
X105867518Y-91096019D01*
X105861456Y-91085666D01*
X104832812Y-90057022D01*
X104818868Y-90049408D01*
X104817035Y-90049539D01*
X104810420Y-90053790D01*
X103782270Y-91081940D01*
X103775612Y-91094133D01*
X100050500Y-91094133D01*
X100050500Y-89643523D01*
X103057898Y-89643523D01*
X103069987Y-89895175D01*
X103071124Y-89904435D01*
X103120274Y-90151535D01*
X103122768Y-90160528D01*
X103207900Y-90397639D01*
X103211700Y-90406174D01*
X103330946Y-90628101D01*
X103335957Y-90635968D01*
X103399446Y-90720990D01*
X103410704Y-90729439D01*
X103423123Y-90722667D01*
X104447978Y-89697812D01*
X104454356Y-89686132D01*
X105184408Y-89686132D01*
X105184539Y-89687965D01*
X105188790Y-89694580D01*
X106219913Y-90725703D01*
X106232293Y-90732463D01*
X106240634Y-90726219D01*
X106366765Y-90530127D01*
X106371212Y-90521936D01*
X106474691Y-90292222D01*
X106477882Y-90283455D01*
X106546269Y-90040976D01*
X106548129Y-90031834D01*
X106580116Y-89780396D01*
X106580597Y-89774108D01*
X106582847Y-89688160D01*
X106582696Y-89681851D01*
X106563912Y-89429074D01*
X106562536Y-89419868D01*
X106506929Y-89174126D01*
X106504205Y-89165215D01*
X106412888Y-88930392D01*
X106408877Y-88921983D01*
X106283854Y-88703240D01*
X106278643Y-88695514D01*
X106241391Y-88648261D01*
X106229466Y-88639790D01*
X106217934Y-88646276D01*
X105192022Y-89672188D01*
X105184408Y-89686132D01*
X104454356Y-89686132D01*
X104455592Y-89683868D01*
X104455461Y-89682035D01*
X104451210Y-89675420D01*
X103421321Y-88645531D01*
X103408013Y-88638264D01*
X103397974Y-88645386D01*
X103387761Y-88657666D01*
X103382346Y-88665258D01*
X103251646Y-88880646D01*
X103247408Y-88888963D01*
X103149981Y-89121299D01*
X103147020Y-89130149D01*
X103085006Y-89374331D01*
X103083384Y-89383528D01*
X103058143Y-89634198D01*
X103057898Y-89643523D01*
X100050500Y-89643523D01*
X100050500Y-88273803D01*
X103773216Y-88273803D01*
X103777789Y-88283579D01*
X104807188Y-89312978D01*
X104821132Y-89320592D01*
X104822965Y-89320461D01*
X104829580Y-89316210D01*
X105858419Y-88287371D01*
X105864803Y-88275681D01*
X105855391Y-88263570D01*
X105718593Y-88168670D01*
X105710565Y-88163942D01*
X105484593Y-88052505D01*
X105475960Y-88049017D01*
X105235998Y-87972205D01*
X105226938Y-87970029D01*
X104978260Y-87929529D01*
X104968973Y-87928717D01*
X104717053Y-87925419D01*
X104707742Y-87925989D01*
X104458097Y-87959964D01*
X104448978Y-87961902D01*
X104207098Y-88032404D01*
X104198367Y-88035667D01*
X103969558Y-88141151D01*
X103961406Y-88145670D01*
X103782353Y-88263062D01*
X103773216Y-88273803D01*
X100050500Y-88273803D01*
X100050500Y-85874748D01*
X103369500Y-85874748D01*
X103381133Y-85933231D01*
X103425448Y-85999552D01*
X103491769Y-86043867D01*
X103503938Y-86046288D01*
X103503939Y-86046288D01*
X103544184Y-86054293D01*
X103550252Y-86055500D01*
X106089748Y-86055500D01*
X106095816Y-86054293D01*
X106136061Y-86046288D01*
X106136062Y-86046288D01*
X106148231Y-86043867D01*
X106214552Y-85999552D01*
X106258867Y-85933231D01*
X106270500Y-85874748D01*
X106270500Y-83335252D01*
X106258867Y-83276769D01*
X106214552Y-83210448D01*
X106148231Y-83166133D01*
X106136062Y-83163712D01*
X106136061Y-83163712D01*
X106095816Y-83155707D01*
X106089748Y-83154500D01*
X103550252Y-83154500D01*
X103544184Y-83155707D01*
X103503939Y-83163712D01*
X103503938Y-83163712D01*
X103491769Y-83166133D01*
X103425448Y-83210448D01*
X103381133Y-83276769D01*
X103369500Y-83335252D01*
X103369500Y-85874748D01*
X100050500Y-85874748D01*
X100050500Y-55277966D01*
X102298257Y-55277966D01*
X102328565Y-55412446D01*
X102331645Y-55422275D01*
X102411770Y-55619603D01*
X102416413Y-55628794D01*
X102527694Y-55810388D01*
X102533777Y-55818699D01*
X102673213Y-55979667D01*
X102680580Y-55986883D01*
X102844434Y-56122916D01*
X102852881Y-56128831D01*
X103036756Y-56236279D01*
X103046042Y-56240729D01*
X103245001Y-56316703D01*
X103254899Y-56319579D01*
X103358250Y-56340606D01*
X103372299Y-56339410D01*
X103376000Y-56329065D01*
X103376000Y-56328517D01*
X103884000Y-56328517D01*
X103888064Y-56342359D01*
X103901478Y-56344393D01*
X103908184Y-56343534D01*
X103918262Y-56341392D01*
X104122255Y-56280191D01*
X104131842Y-56276433D01*
X104323095Y-56182739D01*
X104331945Y-56177464D01*
X104505328Y-56053792D01*
X104513200Y-56047139D01*
X104664052Y-55896812D01*
X104670730Y-55888965D01*
X104795003Y-55716020D01*
X104800313Y-55707183D01*
X104894670Y-55516267D01*
X104898469Y-55506672D01*
X104939593Y-55371319D01*
X104978534Y-55311955D01*
X105043388Y-55283068D01*
X105113564Y-55293830D01*
X105166782Y-55340823D01*
X105181270Y-55373217D01*
X105188544Y-55398586D01*
X105191359Y-55404063D01*
X105191360Y-55404066D01*
X105279897Y-55576341D01*
X105282712Y-55581818D01*
X105410677Y-55743270D01*
X105415370Y-55747264D01*
X105415371Y-55747265D01*
X105489541Y-55810388D01*
X105567564Y-55876791D01*
X105572942Y-55879797D01*
X105572944Y-55879798D01*
X105603387Y-55896812D01*
X105747398Y-55977297D01*
X105831280Y-56004552D01*
X105937471Y-56039056D01*
X105937475Y-56039057D01*
X105943329Y-56040959D01*
X106147894Y-56065351D01*
X106154029Y-56064879D01*
X106154031Y-56064879D01*
X106226625Y-56059293D01*
X106353300Y-56049546D01*
X106359230Y-56047890D01*
X106359232Y-56047890D01*
X106545797Y-55995800D01*
X106545796Y-55995800D01*
X106551725Y-55994145D01*
X106557214Y-55991372D01*
X106557220Y-55991370D01*
X106730116Y-55904033D01*
X106735610Y-55901258D01*
X106751345Y-55888965D01*
X106893101Y-55778213D01*
X106897951Y-55774424D01*
X106955992Y-55707183D01*
X107028540Y-55623134D01*
X107028540Y-55623133D01*
X107032564Y-55618472D01*
X107053387Y-55581818D01*
X107071056Y-55550714D01*
X107134323Y-55439344D01*
X107199351Y-55243863D01*
X107225171Y-55039474D01*
X107225583Y-55010000D01*
X107224138Y-54995262D01*
X107654520Y-54995262D01*
X107671759Y-55200553D01*
X107673458Y-55206478D01*
X107695147Y-55282115D01*
X107728544Y-55398586D01*
X107731359Y-55404063D01*
X107731360Y-55404066D01*
X107819897Y-55576341D01*
X107822712Y-55581818D01*
X107950677Y-55743270D01*
X107955370Y-55747264D01*
X107955371Y-55747265D01*
X108029541Y-55810388D01*
X108107564Y-55876791D01*
X108112942Y-55879797D01*
X108112944Y-55879798D01*
X108143387Y-55896812D01*
X108287398Y-55977297D01*
X108371280Y-56004552D01*
X108477471Y-56039056D01*
X108477475Y-56039057D01*
X108483329Y-56040959D01*
X108687894Y-56065351D01*
X108694029Y-56064879D01*
X108694031Y-56064879D01*
X108766625Y-56059293D01*
X108893300Y-56049546D01*
X108899230Y-56047890D01*
X108899232Y-56047890D01*
X109085797Y-55995800D01*
X109085796Y-55995800D01*
X109091725Y-55994145D01*
X109097214Y-55991372D01*
X109097220Y-55991370D01*
X109270116Y-55904033D01*
X109275610Y-55901258D01*
X109291345Y-55888965D01*
X109303142Y-55879748D01*
X110199500Y-55879748D01*
X110200707Y-55885816D01*
X110204331Y-55904033D01*
X110211133Y-55938231D01*
X110255448Y-56004552D01*
X110321769Y-56048867D01*
X110333938Y-56051288D01*
X110333939Y-56051288D01*
X110374184Y-56059293D01*
X110380252Y-56060500D01*
X112119748Y-56060500D01*
X112125816Y-56059293D01*
X112166061Y-56051288D01*
X112166062Y-56051288D01*
X112178231Y-56048867D01*
X112244552Y-56004552D01*
X112288867Y-55938231D01*
X112295670Y-55904033D01*
X112299293Y-55885816D01*
X112300500Y-55879748D01*
X112300500Y-54140252D01*
X112288867Y-54081769D01*
X112244552Y-54015448D01*
X112178231Y-53971133D01*
X112166062Y-53968712D01*
X112166061Y-53968712D01*
X112125816Y-53960707D01*
X112119748Y-53959500D01*
X110380252Y-53959500D01*
X110374184Y-53960707D01*
X110333939Y-53968712D01*
X110333938Y-53968712D01*
X110321769Y-53971133D01*
X110255448Y-54015448D01*
X110211133Y-54081769D01*
X110199500Y-54140252D01*
X110199500Y-55879748D01*
X109303142Y-55879748D01*
X109433101Y-55778213D01*
X109437951Y-55774424D01*
X109495992Y-55707183D01*
X109568540Y-55623134D01*
X109568540Y-55623133D01*
X109572564Y-55618472D01*
X109593387Y-55581818D01*
X109611056Y-55550714D01*
X109674323Y-55439344D01*
X109739351Y-55243863D01*
X109765171Y-55039474D01*
X109765583Y-55010000D01*
X109745480Y-54804970D01*
X109685935Y-54607749D01*
X109589218Y-54425849D01*
X109513206Y-54332649D01*
X109462906Y-54270975D01*
X109462903Y-54270972D01*
X109459011Y-54266200D01*
X109441786Y-54251950D01*
X109305025Y-54138811D01*
X109305021Y-54138809D01*
X109300275Y-54134882D01*
X109119055Y-54036897D01*
X108922254Y-53975977D01*
X108916129Y-53975333D01*
X108916128Y-53975333D01*
X108723498Y-53955087D01*
X108723496Y-53955087D01*
X108717369Y-53954443D01*
X108630529Y-53962346D01*
X108518342Y-53972555D01*
X108518339Y-53972556D01*
X108512203Y-53973114D01*
X108314572Y-54031280D01*
X108132002Y-54126726D01*
X108127201Y-54130586D01*
X108127198Y-54130588D01*
X108094688Y-54156727D01*
X107971447Y-54255815D01*
X107839024Y-54413630D01*
X107836056Y-54419028D01*
X107836053Y-54419033D01*
X107777255Y-54525988D01*
X107739776Y-54594162D01*
X107677484Y-54790532D01*
X107676798Y-54796649D01*
X107676797Y-54796653D01*
X107655207Y-54989137D01*
X107654520Y-54995262D01*
X107224138Y-54995262D01*
X107205480Y-54804970D01*
X107145935Y-54607749D01*
X107049218Y-54425849D01*
X106973206Y-54332649D01*
X106922906Y-54270975D01*
X106922903Y-54270972D01*
X106919011Y-54266200D01*
X106901786Y-54251950D01*
X106765025Y-54138811D01*
X106765021Y-54138809D01*
X106760275Y-54134882D01*
X106579055Y-54036897D01*
X106382254Y-53975977D01*
X106376129Y-53975333D01*
X106376128Y-53975333D01*
X106183498Y-53955087D01*
X106183496Y-53955087D01*
X106177369Y-53954443D01*
X106090529Y-53962346D01*
X105978342Y-53972555D01*
X105978339Y-53972556D01*
X105972203Y-53973114D01*
X105774572Y-54031280D01*
X105592002Y-54126726D01*
X105587201Y-54130586D01*
X105587198Y-54130588D01*
X105554688Y-54156727D01*
X105431447Y-54255815D01*
X105299024Y-54413630D01*
X105296056Y-54419028D01*
X105296053Y-54419033D01*
X105237255Y-54525988D01*
X105199776Y-54594162D01*
X105197914Y-54600032D01*
X105181068Y-54653138D01*
X105141405Y-54712022D01*
X105076202Y-54740114D01*
X105006163Y-54728497D01*
X104953523Y-54680857D01*
X104938762Y-54645735D01*
X104921214Y-54575875D01*
X104917894Y-54566124D01*
X104832972Y-54370814D01*
X104828105Y-54361739D01*
X104712426Y-54182926D01*
X104706136Y-54174757D01*
X104562806Y-54017240D01*
X104555273Y-54010215D01*
X104388139Y-53878222D01*
X104379552Y-53872517D01*
X104193117Y-53769599D01*
X104183705Y-53765369D01*
X103982959Y-53694280D01*
X103972988Y-53691646D01*
X103901837Y-53678972D01*
X103888540Y-53680432D01*
X103884000Y-53694989D01*
X103884000Y-56328517D01*
X103376000Y-56328517D01*
X103376000Y-55282115D01*
X103371525Y-55266876D01*
X103370135Y-55265671D01*
X103362452Y-55264000D01*
X102313225Y-55264000D01*
X102299694Y-55267973D01*
X102298257Y-55277966D01*
X100050500Y-55277966D01*
X100050500Y-54744183D01*
X102294389Y-54744183D01*
X102295912Y-54752607D01*
X102308292Y-54756000D01*
X103357885Y-54756000D01*
X103373124Y-54751525D01*
X103374329Y-54750135D01*
X103376000Y-54742452D01*
X103376000Y-53693102D01*
X103372082Y-53679758D01*
X103357806Y-53677771D01*
X103319324Y-53683660D01*
X103309288Y-53686051D01*
X103106868Y-53752212D01*
X103097359Y-53756209D01*
X102908463Y-53854542D01*
X102899738Y-53860036D01*
X102729433Y-53987905D01*
X102721726Y-53994748D01*
X102574590Y-54148717D01*
X102568104Y-54156727D01*
X102448098Y-54332649D01*
X102443000Y-54341623D01*
X102353338Y-54534783D01*
X102349775Y-54544470D01*
X102294389Y-54744183D01*
X100050500Y-54744183D01*
X100050500Y-49639748D01*
X107319500Y-49639748D01*
X107320707Y-49645816D01*
X107324331Y-49664033D01*
X107331133Y-49698231D01*
X107375448Y-49764552D01*
X107441769Y-49808867D01*
X107453938Y-49811288D01*
X107453939Y-49811288D01*
X107494184Y-49819293D01*
X107500252Y-49820500D01*
X109239748Y-49820500D01*
X109245816Y-49819293D01*
X109286061Y-49811288D01*
X109286062Y-49811288D01*
X109298231Y-49808867D01*
X109364552Y-49764552D01*
X109408867Y-49698231D01*
X109415670Y-49664033D01*
X109419293Y-49645816D01*
X109420500Y-49639748D01*
X109420500Y-48755262D01*
X109854520Y-48755262D01*
X109855036Y-48761406D01*
X109864645Y-48875831D01*
X109871759Y-48960553D01*
X109873458Y-48966478D01*
X109919395Y-49126678D01*
X109928544Y-49158586D01*
X109931359Y-49164063D01*
X109931360Y-49164066D01*
X110019897Y-49336341D01*
X110022712Y-49341818D01*
X110150677Y-49503270D01*
X110155370Y-49507264D01*
X110155371Y-49507265D01*
X110229541Y-49570388D01*
X110307564Y-49636791D01*
X110312942Y-49639797D01*
X110312944Y-49639798D01*
X110343387Y-49656812D01*
X110487398Y-49737297D01*
X110564020Y-49762193D01*
X110677471Y-49799056D01*
X110677475Y-49799057D01*
X110683329Y-49800959D01*
X110887894Y-49825351D01*
X110894029Y-49824879D01*
X110894031Y-49824879D01*
X110966625Y-49819293D01*
X111093300Y-49809546D01*
X111099230Y-49807890D01*
X111099232Y-49807890D01*
X111262900Y-49762193D01*
X111291725Y-49754145D01*
X111297214Y-49751372D01*
X111297220Y-49751370D01*
X111470116Y-49664033D01*
X111475610Y-49661258D01*
X111491345Y-49648965D01*
X111633101Y-49538213D01*
X111637951Y-49534424D01*
X111649316Y-49521258D01*
X111768540Y-49383134D01*
X111768540Y-49383133D01*
X111772564Y-49378472D01*
X111793387Y-49341818D01*
X111811056Y-49310714D01*
X111874323Y-49199344D01*
X111939351Y-49003863D01*
X111965171Y-48799474D01*
X111965583Y-48770000D01*
X111945480Y-48564970D01*
X111885935Y-48367749D01*
X111789218Y-48185849D01*
X111685752Y-48058987D01*
X111662906Y-48030975D01*
X111662903Y-48030972D01*
X111659011Y-48026200D01*
X111559546Y-47943915D01*
X111505025Y-47898811D01*
X111505021Y-47898809D01*
X111500275Y-47894882D01*
X111319055Y-47796897D01*
X111122254Y-47735977D01*
X111116129Y-47735333D01*
X111116128Y-47735333D01*
X110923498Y-47715087D01*
X110923496Y-47715087D01*
X110917369Y-47714443D01*
X110830529Y-47722346D01*
X110718342Y-47732555D01*
X110718339Y-47732556D01*
X110712203Y-47733114D01*
X110514572Y-47791280D01*
X110509107Y-47794137D01*
X110507313Y-47795075D01*
X110332002Y-47886726D01*
X110327201Y-47890586D01*
X110327198Y-47890588D01*
X110272263Y-47934757D01*
X110171447Y-48015815D01*
X110039024Y-48173630D01*
X110036056Y-48179028D01*
X110036053Y-48179033D01*
X109955190Y-48326124D01*
X109939776Y-48354162D01*
X109877484Y-48550532D01*
X109876798Y-48556649D01*
X109876797Y-48556653D01*
X109865309Y-48659073D01*
X109854520Y-48755262D01*
X109420500Y-48755262D01*
X109420500Y-47900252D01*
X109408867Y-47841769D01*
X109364552Y-47775448D01*
X109298231Y-47731133D01*
X109286062Y-47728712D01*
X109286061Y-47728712D01*
X109245816Y-47720707D01*
X109239748Y-47719500D01*
X107500252Y-47719500D01*
X107494184Y-47720707D01*
X107453939Y-47728712D01*
X107453938Y-47728712D01*
X107441769Y-47731133D01*
X107375448Y-47775448D01*
X107331133Y-47841769D01*
X107319500Y-47900252D01*
X107319500Y-49639748D01*
X100050500Y-49639748D01*
X100050500Y-47554288D01*
X101945404Y-47554288D01*
X101945985Y-47559308D01*
X101945985Y-47559312D01*
X101966108Y-47733233D01*
X101974081Y-47802140D01*
X101975460Y-47807011D01*
X101975460Y-47807014D01*
X102000799Y-47896558D01*
X102042017Y-48042219D01*
X102078170Y-48119749D01*
X102139341Y-48250932D01*
X102147462Y-48268348D01*
X102287706Y-48474710D01*
X102381486Y-48573879D01*
X102445905Y-48642000D01*
X102459138Y-48655994D01*
X102657349Y-48807538D01*
X102877239Y-48925443D01*
X103113152Y-49006674D01*
X103235332Y-49027778D01*
X103355107Y-49048467D01*
X103355113Y-49048468D01*
X103359017Y-49049142D01*
X103362978Y-49049322D01*
X103362979Y-49049322D01*
X103387503Y-49050436D01*
X103387522Y-49050436D01*
X103388922Y-49050500D01*
X103562691Y-49050500D01*
X103565199Y-49050298D01*
X103565204Y-49050298D01*
X103743661Y-49035940D01*
X103743666Y-49035939D01*
X103748702Y-49035534D01*
X103753610Y-49034329D01*
X103753613Y-49034328D01*
X103986092Y-48977225D01*
X103991006Y-48976018D01*
X103995658Y-48974043D01*
X103995662Y-48974042D01*
X104216022Y-48880505D01*
X104216023Y-48880505D01*
X104220677Y-48878529D01*
X104431808Y-48745573D01*
X104529923Y-48659073D01*
X104615168Y-48583920D01*
X104615171Y-48583917D01*
X104618965Y-48580572D01*
X104777334Y-48387770D01*
X104902840Y-48172128D01*
X104929905Y-48101623D01*
X104990443Y-47943915D01*
X104992255Y-47939195D01*
X104998623Y-47908717D01*
X105042243Y-47699915D01*
X105043278Y-47694961D01*
X105043803Y-47683415D01*
X105053914Y-47460729D01*
X105054596Y-47445712D01*
X105047821Y-47387152D01*
X105026501Y-47202890D01*
X105025919Y-47197860D01*
X105007921Y-47134255D01*
X104969424Y-46998213D01*
X104957983Y-46957781D01*
X104852538Y-46731652D01*
X104712294Y-46525290D01*
X104560616Y-46364895D01*
X104544344Y-46347688D01*
X104544343Y-46347687D01*
X104540862Y-46344006D01*
X104531537Y-46336876D01*
X104372472Y-46215262D01*
X107314520Y-46215262D01*
X107315036Y-46221406D01*
X107330902Y-46410342D01*
X107331759Y-46420553D01*
X107333458Y-46426478D01*
X107379395Y-46586678D01*
X107388544Y-46618586D01*
X107391359Y-46624063D01*
X107391360Y-46624066D01*
X107479897Y-46796341D01*
X107482712Y-46801818D01*
X107610677Y-46963270D01*
X107615370Y-46967264D01*
X107615371Y-46967265D01*
X107719735Y-47056085D01*
X107767564Y-47096791D01*
X107772942Y-47099797D01*
X107772944Y-47099798D01*
X107804563Y-47117469D01*
X107947398Y-47197297D01*
X108042238Y-47228113D01*
X108137471Y-47259056D01*
X108137475Y-47259057D01*
X108143329Y-47260959D01*
X108347894Y-47285351D01*
X108354029Y-47284879D01*
X108354031Y-47284879D01*
X108410039Y-47280569D01*
X108553300Y-47269546D01*
X108559230Y-47267890D01*
X108559232Y-47267890D01*
X108697768Y-47229210D01*
X108751725Y-47214145D01*
X108757214Y-47211372D01*
X108757220Y-47211370D01*
X108930116Y-47124033D01*
X108935610Y-47121258D01*
X108943568Y-47115041D01*
X109051919Y-47030388D01*
X109097951Y-46994424D01*
X109106314Y-46984736D01*
X109228540Y-46843134D01*
X109228540Y-46843133D01*
X109232564Y-46838472D01*
X109235902Y-46832597D01*
X109271056Y-46770714D01*
X109334323Y-46659344D01*
X109399351Y-46463863D01*
X109425171Y-46259474D01*
X109425583Y-46230000D01*
X109424138Y-46215262D01*
X109854520Y-46215262D01*
X109855036Y-46221406D01*
X109870902Y-46410342D01*
X109871759Y-46420553D01*
X109873458Y-46426478D01*
X109919395Y-46586678D01*
X109928544Y-46618586D01*
X109931359Y-46624063D01*
X109931360Y-46624066D01*
X110019897Y-46796341D01*
X110022712Y-46801818D01*
X110150677Y-46963270D01*
X110155370Y-46967264D01*
X110155371Y-46967265D01*
X110259735Y-47056085D01*
X110307564Y-47096791D01*
X110312942Y-47099797D01*
X110312944Y-47099798D01*
X110344563Y-47117469D01*
X110487398Y-47197297D01*
X110582238Y-47228113D01*
X110677471Y-47259056D01*
X110677475Y-47259057D01*
X110683329Y-47260959D01*
X110887894Y-47285351D01*
X110894029Y-47284879D01*
X110894031Y-47284879D01*
X110950039Y-47280569D01*
X111093300Y-47269546D01*
X111099230Y-47267890D01*
X111099232Y-47267890D01*
X111237768Y-47229210D01*
X111291725Y-47214145D01*
X111297214Y-47211372D01*
X111297220Y-47211370D01*
X111470116Y-47124033D01*
X111475610Y-47121258D01*
X111483568Y-47115041D01*
X111591919Y-47030388D01*
X111637951Y-46994424D01*
X111646314Y-46984736D01*
X111768540Y-46843134D01*
X111768540Y-46843133D01*
X111772564Y-46838472D01*
X111775902Y-46832597D01*
X111811056Y-46770714D01*
X111874323Y-46659344D01*
X111883271Y-46632444D01*
X111898496Y-46586678D01*
X111938978Y-46528354D01*
X112004566Y-46501175D01*
X112074437Y-46513770D01*
X112126406Y-46562141D01*
X112140971Y-46598751D01*
X112148564Y-46632444D01*
X112151645Y-46642275D01*
X112231770Y-46839603D01*
X112236413Y-46848794D01*
X112347694Y-47030388D01*
X112353777Y-47038699D01*
X112493213Y-47199667D01*
X112500580Y-47206883D01*
X112664434Y-47342916D01*
X112672881Y-47348831D01*
X112856756Y-47456279D01*
X112866042Y-47460729D01*
X113065001Y-47536703D01*
X113079866Y-47541022D01*
X113079289Y-47543008D01*
X113134260Y-47572082D01*
X113169110Y-47633936D01*
X113164988Y-47704813D01*
X113123201Y-47762209D01*
X113081930Y-47783228D01*
X113060489Y-47789538D01*
X113060484Y-47789540D01*
X113054572Y-47791280D01*
X113049107Y-47794137D01*
X113047313Y-47795075D01*
X112872002Y-47886726D01*
X112867201Y-47890586D01*
X112867198Y-47890588D01*
X112812263Y-47934757D01*
X112711447Y-48015815D01*
X112579024Y-48173630D01*
X112576056Y-48179028D01*
X112576053Y-48179033D01*
X112495190Y-48326124D01*
X112479776Y-48354162D01*
X112417484Y-48550532D01*
X112416798Y-48556649D01*
X112416797Y-48556653D01*
X112405309Y-48659073D01*
X112394520Y-48755262D01*
X112395036Y-48761406D01*
X112404645Y-48875831D01*
X112411759Y-48960553D01*
X112413458Y-48966478D01*
X112459395Y-49126678D01*
X112468544Y-49158586D01*
X112471359Y-49164063D01*
X112471360Y-49164066D01*
X112559897Y-49336341D01*
X112562712Y-49341818D01*
X112690677Y-49503270D01*
X112695370Y-49507264D01*
X112695371Y-49507265D01*
X112769541Y-49570388D01*
X112847564Y-49636791D01*
X112852942Y-49639797D01*
X112852944Y-49639798D01*
X112883387Y-49656812D01*
X113027398Y-49737297D01*
X113104020Y-49762193D01*
X113217471Y-49799056D01*
X113217475Y-49799057D01*
X113223329Y-49800959D01*
X113427894Y-49825351D01*
X113434029Y-49824879D01*
X113434031Y-49824879D01*
X113506625Y-49819293D01*
X113633300Y-49809546D01*
X113639230Y-49807890D01*
X113639232Y-49807890D01*
X113802900Y-49762193D01*
X113831725Y-49754145D01*
X113837214Y-49751372D01*
X113837220Y-49751370D01*
X114010116Y-49664033D01*
X114015610Y-49661258D01*
X114031345Y-49648965D01*
X114173101Y-49538213D01*
X114177951Y-49534424D01*
X114189316Y-49521258D01*
X114308540Y-49383134D01*
X114308540Y-49383133D01*
X114312564Y-49378472D01*
X114333387Y-49341818D01*
X114351056Y-49310714D01*
X114414323Y-49199344D01*
X114479351Y-49003863D01*
X114505171Y-48799474D01*
X114505583Y-48770000D01*
X114504138Y-48755262D01*
X114934520Y-48755262D01*
X114935036Y-48761406D01*
X114944645Y-48875831D01*
X114951759Y-48960553D01*
X114953458Y-48966478D01*
X114999395Y-49126678D01*
X115008544Y-49158586D01*
X115011359Y-49164063D01*
X115011360Y-49164066D01*
X115099897Y-49336341D01*
X115102712Y-49341818D01*
X115230677Y-49503270D01*
X115235370Y-49507264D01*
X115235371Y-49507265D01*
X115309541Y-49570388D01*
X115387564Y-49636791D01*
X115392942Y-49639797D01*
X115392944Y-49639798D01*
X115567398Y-49737297D01*
X115566755Y-49738448D01*
X115615964Y-49779691D01*
X115637100Y-49849545D01*
X115637100Y-73118917D01*
X115635023Y-73138430D01*
X115634809Y-73142968D01*
X115632618Y-73153146D01*
X115633842Y-73163487D01*
X115636227Y-73183642D01*
X115636540Y-73188950D01*
X115636672Y-73188939D01*
X115637100Y-73194117D01*
X115637100Y-73199318D01*
X115637954Y-73204447D01*
X115637954Y-73204450D01*
X115640012Y-73216814D01*
X115640849Y-73222693D01*
X115646426Y-73269817D01*
X115650112Y-73277493D01*
X115651510Y-73285891D01*
X115656455Y-73295055D01*
X115656455Y-73295056D01*
X115674047Y-73327660D01*
X115676735Y-73332933D01*
X115697283Y-73375725D01*
X115700623Y-73379699D01*
X115702561Y-73381637D01*
X115704043Y-73383253D01*
X115704292Y-73383715D01*
X115704263Y-73383741D01*
X115704375Y-73383868D01*
X115707298Y-73389286D01*
X115714946Y-73396356D01*
X115714947Y-73396357D01*
X115743994Y-73423207D01*
X115747561Y-73426637D01*
X139155623Y-96834699D01*
X139189649Y-96897011D01*
X139192086Y-96913250D01*
X139200653Y-97015264D01*
X139201175Y-97021483D01*
X139202873Y-97027403D01*
X139202873Y-97027405D01*
X139223284Y-97098584D01*
X139255258Y-97210091D01*
X139258076Y-97215574D01*
X139342123Y-97379113D01*
X139342126Y-97379117D01*
X139344944Y-97384601D01*
X139466818Y-97538369D01*
X139471511Y-97542363D01*
X139471512Y-97542364D01*
X139529158Y-97591424D01*
X139616238Y-97665535D01*
X139621616Y-97668541D01*
X139621618Y-97668542D01*
X139657932Y-97688837D01*
X139787513Y-97761257D01*
X139974118Y-97821889D01*
X140168946Y-97845121D01*
X140175081Y-97844649D01*
X140175083Y-97844649D01*
X140358434Y-97830541D01*
X140358438Y-97830540D01*
X140364576Y-97830068D01*
X140553556Y-97777303D01*
X140728689Y-97688837D01*
X140758515Y-97665535D01*
X140840055Y-97601829D01*
X140883303Y-97568040D01*
X140888335Y-97562211D01*
X141007485Y-97424173D01*
X141007485Y-97424172D01*
X141011509Y-97419511D01*
X141022915Y-97399434D01*
X141071584Y-97313761D01*
X141108425Y-97248909D01*
X141170358Y-97062732D01*
X141194949Y-96868071D01*
X141195265Y-96845475D01*
X143877483Y-96845475D01*
X143896472Y-97062519D01*
X143898375Y-97073312D01*
X143954764Y-97283761D01*
X143958510Y-97294053D01*
X144050586Y-97491511D01*
X144056069Y-97501006D01*
X144092509Y-97553048D01*
X144102988Y-97561424D01*
X144116434Y-97554356D01*
X144817978Y-96852812D01*
X144824356Y-96841132D01*
X145554408Y-96841132D01*
X145554539Y-96842965D01*
X145558790Y-96849580D01*
X146264287Y-97555077D01*
X146276062Y-97561507D01*
X146288077Y-97552211D01*
X146323931Y-97501006D01*
X146329414Y-97491511D01*
X146421490Y-97294053D01*
X146425236Y-97283761D01*
X146481625Y-97073312D01*
X146483528Y-97062519D01*
X146502517Y-96845475D01*
X146502517Y-96834525D01*
X146483528Y-96617481D01*
X146481625Y-96606688D01*
X146425236Y-96396239D01*
X146421490Y-96385947D01*
X146329414Y-96188489D01*
X146323931Y-96178994D01*
X146287491Y-96126952D01*
X146277012Y-96118576D01*
X146263566Y-96125644D01*
X145562022Y-96827188D01*
X145554408Y-96841132D01*
X144824356Y-96841132D01*
X144825592Y-96838868D01*
X144825461Y-96837035D01*
X144821210Y-96830420D01*
X144115713Y-96124923D01*
X144103938Y-96118493D01*
X144091923Y-96127789D01*
X144056069Y-96178994D01*
X144050586Y-96188489D01*
X143958510Y-96385947D01*
X143954764Y-96396239D01*
X143898375Y-96606688D01*
X143896472Y-96617481D01*
X143877483Y-96834525D01*
X143877483Y-96845475D01*
X141195265Y-96845475D01*
X141195341Y-96840000D01*
X141176194Y-96644728D01*
X141174413Y-96638829D01*
X141174412Y-96638824D01*
X141121265Y-96462793D01*
X141119484Y-96456894D01*
X141027370Y-96283653D01*
X140903361Y-96131602D01*
X140752180Y-96006535D01*
X140579585Y-95913213D01*
X140485869Y-95884203D01*
X140398039Y-95857015D01*
X140398036Y-95857014D01*
X140392152Y-95855193D01*
X140386027Y-95854549D01*
X140386026Y-95854549D01*
X140203147Y-95835327D01*
X140203146Y-95835327D01*
X140197019Y-95834683D01*
X140087138Y-95844683D01*
X140007759Y-95851907D01*
X140007758Y-95851907D01*
X140001618Y-95852466D01*
X139995704Y-95854207D01*
X139995702Y-95854207D01*
X139952185Y-95867015D01*
X139813393Y-95907864D01*
X139807928Y-95910721D01*
X139644972Y-95995912D01*
X139644968Y-95995915D01*
X139639512Y-95998767D01*
X139634712Y-96002627D01*
X139634711Y-96002627D01*
X139549311Y-96071290D01*
X139483688Y-96098386D01*
X139413834Y-96085702D01*
X139381264Y-96062188D01*
X139072064Y-95752988D01*
X144468576Y-95752988D01*
X144475644Y-95766434D01*
X145177188Y-96467978D01*
X145191132Y-96475592D01*
X145192965Y-96475461D01*
X145199580Y-96471210D01*
X145905077Y-95765713D01*
X145911507Y-95753938D01*
X145902211Y-95741923D01*
X145851006Y-95706069D01*
X145841511Y-95700586D01*
X145644053Y-95608510D01*
X145633761Y-95604764D01*
X145423312Y-95548375D01*
X145412519Y-95546472D01*
X145195475Y-95527483D01*
X145184525Y-95527483D01*
X144967481Y-95546472D01*
X144956688Y-95548375D01*
X144746239Y-95604764D01*
X144735947Y-95608510D01*
X144538489Y-95700586D01*
X144528994Y-95706069D01*
X144476952Y-95742509D01*
X144468576Y-95752988D01*
X139072064Y-95752988D01*
X125257926Y-81938850D01*
X125223900Y-81876538D01*
X125228965Y-81805723D01*
X125271512Y-81748887D01*
X125338032Y-81724076D01*
X125356151Y-81724504D01*
X125361781Y-81724622D01*
X125367894Y-81725351D01*
X125374029Y-81724879D01*
X125374031Y-81724879D01*
X125446625Y-81719293D01*
X125573300Y-81709546D01*
X125579230Y-81707890D01*
X125579232Y-81707890D01*
X125765797Y-81655800D01*
X125765796Y-81655800D01*
X125771725Y-81654145D01*
X125777214Y-81651372D01*
X125777220Y-81651370D01*
X125950116Y-81564033D01*
X125955610Y-81561258D01*
X125971345Y-81548965D01*
X126113101Y-81438213D01*
X126117951Y-81434424D01*
X126175992Y-81367183D01*
X126248540Y-81283134D01*
X126248540Y-81283133D01*
X126252564Y-81278472D01*
X126273387Y-81241818D01*
X126291056Y-81210714D01*
X126354323Y-81099344D01*
X126419351Y-80903863D01*
X126445171Y-80699474D01*
X126445583Y-80670000D01*
X126444138Y-80655262D01*
X126874520Y-80655262D01*
X126875036Y-80661405D01*
X126875036Y-80661406D01*
X126890175Y-80841684D01*
X126891759Y-80860553D01*
X126893458Y-80866478D01*
X126939395Y-81026678D01*
X126948544Y-81058586D01*
X126951359Y-81064063D01*
X126951360Y-81064066D01*
X127039897Y-81236341D01*
X127042712Y-81241818D01*
X127170677Y-81403270D01*
X127175370Y-81407264D01*
X127175371Y-81407265D01*
X127249541Y-81470388D01*
X127327564Y-81536791D01*
X127332942Y-81539797D01*
X127332944Y-81539798D01*
X127363387Y-81556812D01*
X127507398Y-81637297D01*
X127591280Y-81664552D01*
X127697471Y-81699056D01*
X127697475Y-81699057D01*
X127703329Y-81700959D01*
X127907894Y-81725351D01*
X127914029Y-81724879D01*
X127914031Y-81724879D01*
X127986625Y-81719293D01*
X128113300Y-81709546D01*
X128119230Y-81707890D01*
X128119232Y-81707890D01*
X128305797Y-81655800D01*
X128305796Y-81655800D01*
X128311725Y-81654145D01*
X128317214Y-81651372D01*
X128317220Y-81651370D01*
X128490116Y-81564033D01*
X128495610Y-81561258D01*
X128511345Y-81548965D01*
X128653101Y-81438213D01*
X128657951Y-81434424D01*
X128715992Y-81367183D01*
X128788540Y-81283134D01*
X128788540Y-81283133D01*
X128792564Y-81278472D01*
X128813387Y-81241818D01*
X128831056Y-81210714D01*
X128894323Y-81099344D01*
X128903271Y-81072444D01*
X128918496Y-81026678D01*
X128958978Y-80968354D01*
X129024566Y-80941175D01*
X129094437Y-80953770D01*
X129146406Y-81002141D01*
X129160971Y-81038751D01*
X129168564Y-81072444D01*
X129171645Y-81082275D01*
X129251770Y-81279603D01*
X129256413Y-81288794D01*
X129367694Y-81470388D01*
X129373777Y-81478699D01*
X129513213Y-81639667D01*
X129520580Y-81646883D01*
X129684434Y-81782916D01*
X129692881Y-81788831D01*
X129876756Y-81896279D01*
X129886042Y-81900729D01*
X130085001Y-81976703D01*
X130094899Y-81979579D01*
X130198250Y-82000606D01*
X130212299Y-81999410D01*
X130216000Y-81989065D01*
X130216000Y-81988517D01*
X130724000Y-81988517D01*
X130728064Y-82002359D01*
X130741478Y-82004393D01*
X130748184Y-82003534D01*
X130758262Y-82001392D01*
X130962255Y-81940191D01*
X130971842Y-81936433D01*
X131163095Y-81842739D01*
X131171945Y-81837464D01*
X131345328Y-81713792D01*
X131353200Y-81707139D01*
X131504052Y-81556812D01*
X131510730Y-81548965D01*
X131635003Y-81376020D01*
X131640313Y-81367183D01*
X131734670Y-81176267D01*
X131738469Y-81166672D01*
X131779593Y-81031319D01*
X131818534Y-80971955D01*
X131883388Y-80943068D01*
X131953564Y-80953830D01*
X132006782Y-81000823D01*
X132021270Y-81033217D01*
X132028544Y-81058586D01*
X132031359Y-81064063D01*
X132031360Y-81064066D01*
X132119897Y-81236341D01*
X132122712Y-81241818D01*
X132250677Y-81403270D01*
X132255370Y-81407264D01*
X132255371Y-81407265D01*
X132329541Y-81470388D01*
X132407564Y-81536791D01*
X132412942Y-81539797D01*
X132412944Y-81539798D01*
X132443387Y-81556812D01*
X132587398Y-81637297D01*
X132671280Y-81664552D01*
X132777471Y-81699056D01*
X132777475Y-81699057D01*
X132783329Y-81700959D01*
X132987894Y-81725351D01*
X132994029Y-81724879D01*
X132994031Y-81724879D01*
X133066625Y-81719293D01*
X133193300Y-81709546D01*
X133199230Y-81707890D01*
X133199232Y-81707890D01*
X133385797Y-81655800D01*
X133385796Y-81655800D01*
X133391725Y-81654145D01*
X133397214Y-81651372D01*
X133397220Y-81651370D01*
X133570116Y-81564033D01*
X133575610Y-81561258D01*
X133591345Y-81548965D01*
X133733101Y-81438213D01*
X133737951Y-81434424D01*
X133795992Y-81367183D01*
X133868540Y-81283134D01*
X133868540Y-81283133D01*
X133872564Y-81278472D01*
X133893387Y-81241818D01*
X133911056Y-81210714D01*
X133974323Y-81099344D01*
X134039351Y-80903863D01*
X134065171Y-80699474D01*
X134065583Y-80670000D01*
X134064138Y-80655262D01*
X134494520Y-80655262D01*
X134495036Y-80661405D01*
X134495036Y-80661406D01*
X134510175Y-80841684D01*
X134511759Y-80860553D01*
X134513458Y-80866478D01*
X134559395Y-81026678D01*
X134568544Y-81058586D01*
X134571359Y-81064063D01*
X134571360Y-81064066D01*
X134659897Y-81236341D01*
X134662712Y-81241818D01*
X134790677Y-81403270D01*
X134795370Y-81407264D01*
X134795371Y-81407265D01*
X134869541Y-81470388D01*
X134947564Y-81536791D01*
X134952942Y-81539797D01*
X134952944Y-81539798D01*
X134983387Y-81556812D01*
X135127398Y-81637297D01*
X135211280Y-81664552D01*
X135317471Y-81699056D01*
X135317475Y-81699057D01*
X135323329Y-81700959D01*
X135527894Y-81725351D01*
X135534029Y-81724879D01*
X135534031Y-81724879D01*
X135606625Y-81719293D01*
X135733300Y-81709546D01*
X135739230Y-81707890D01*
X135739232Y-81707890D01*
X135925797Y-81655800D01*
X135925796Y-81655800D01*
X135931725Y-81654145D01*
X135937214Y-81651372D01*
X135937220Y-81651370D01*
X136110116Y-81564033D01*
X136115610Y-81561258D01*
X136131345Y-81548965D01*
X136273101Y-81438213D01*
X136277951Y-81434424D01*
X136335992Y-81367183D01*
X136408540Y-81283134D01*
X136408540Y-81283133D01*
X136412564Y-81278472D01*
X136433387Y-81241818D01*
X136451056Y-81210714D01*
X136514323Y-81099344D01*
X136579351Y-80903863D01*
X136605171Y-80699474D01*
X136605583Y-80670000D01*
X136585480Y-80464970D01*
X136525935Y-80267749D01*
X136429218Y-80085849D01*
X136353206Y-79992649D01*
X136302906Y-79930975D01*
X136302903Y-79930972D01*
X136299011Y-79926200D01*
X136281786Y-79911950D01*
X136145025Y-79798811D01*
X136145021Y-79798809D01*
X136140275Y-79794882D01*
X135959055Y-79696897D01*
X135762254Y-79635977D01*
X135756129Y-79635333D01*
X135756128Y-79635333D01*
X135563498Y-79615087D01*
X135563496Y-79615087D01*
X135557369Y-79614443D01*
X135470529Y-79622346D01*
X135358342Y-79632555D01*
X135358339Y-79632556D01*
X135352203Y-79633114D01*
X135154572Y-79691280D01*
X134972002Y-79786726D01*
X134967201Y-79790586D01*
X134967198Y-79790588D01*
X134934688Y-79816727D01*
X134811447Y-79915815D01*
X134679024Y-80073630D01*
X134676056Y-80079028D01*
X134676053Y-80079033D01*
X134669315Y-80091290D01*
X134579776Y-80254162D01*
X134517484Y-80450532D01*
X134516798Y-80456649D01*
X134516797Y-80456653D01*
X134495207Y-80649137D01*
X134494520Y-80655262D01*
X134064138Y-80655262D01*
X134045480Y-80464970D01*
X133985935Y-80267749D01*
X133889218Y-80085849D01*
X133813206Y-79992649D01*
X133762906Y-79930975D01*
X133762903Y-79930972D01*
X133759011Y-79926200D01*
X133741786Y-79911950D01*
X133605025Y-79798811D01*
X133605021Y-79798809D01*
X133600275Y-79794882D01*
X133419055Y-79696897D01*
X133222254Y-79635977D01*
X133216129Y-79635333D01*
X133216128Y-79635333D01*
X133023498Y-79615087D01*
X133023496Y-79615087D01*
X133017369Y-79614443D01*
X132930529Y-79622346D01*
X132818342Y-79632555D01*
X132818339Y-79632556D01*
X132812203Y-79633114D01*
X132614572Y-79691280D01*
X132432002Y-79786726D01*
X132427201Y-79790586D01*
X132427198Y-79790588D01*
X132394688Y-79816727D01*
X132271447Y-79915815D01*
X132139024Y-80073630D01*
X132136056Y-80079028D01*
X132136053Y-80079033D01*
X132129315Y-80091290D01*
X132039776Y-80254162D01*
X132037914Y-80260032D01*
X132021068Y-80313138D01*
X131981405Y-80372022D01*
X131916202Y-80400114D01*
X131846163Y-80388497D01*
X131793523Y-80340857D01*
X131778762Y-80305735D01*
X131761214Y-80235875D01*
X131757894Y-80226124D01*
X131672972Y-80030814D01*
X131668105Y-80021739D01*
X131552426Y-79842926D01*
X131546136Y-79834757D01*
X131402806Y-79677240D01*
X131395273Y-79670215D01*
X131228139Y-79538222D01*
X131219552Y-79532517D01*
X131033117Y-79429599D01*
X131023705Y-79425369D01*
X130822959Y-79354280D01*
X130812988Y-79351646D01*
X130741837Y-79338972D01*
X130728540Y-79340432D01*
X130724000Y-79354989D01*
X130724000Y-81988517D01*
X130216000Y-81988517D01*
X130216000Y-79353102D01*
X130212082Y-79339758D01*
X130197806Y-79337771D01*
X130159324Y-79343660D01*
X130149288Y-79346051D01*
X129946868Y-79412212D01*
X129937359Y-79416209D01*
X129748463Y-79514542D01*
X129739738Y-79520036D01*
X129569433Y-79647905D01*
X129561726Y-79654748D01*
X129414590Y-79808717D01*
X129408104Y-79816727D01*
X129288098Y-79992649D01*
X129283000Y-80001623D01*
X129193338Y-80194783D01*
X129189775Y-80204470D01*
X129161012Y-80308185D01*
X129123533Y-80368483D01*
X129059405Y-80398946D01*
X128988986Y-80389903D01*
X128934636Y-80344224D01*
X128918973Y-80310933D01*
X128918143Y-80308185D01*
X128905935Y-80267749D01*
X128809218Y-80085849D01*
X128733206Y-79992649D01*
X128682906Y-79930975D01*
X128682903Y-79930972D01*
X128679011Y-79926200D01*
X128661786Y-79911950D01*
X128525025Y-79798811D01*
X128525021Y-79798809D01*
X128520275Y-79794882D01*
X128339055Y-79696897D01*
X128142254Y-79635977D01*
X128136129Y-79635333D01*
X128136128Y-79635333D01*
X127943498Y-79615087D01*
X127943496Y-79615087D01*
X127937369Y-79614443D01*
X127850529Y-79622346D01*
X127738342Y-79632555D01*
X127738339Y-79632556D01*
X127732203Y-79633114D01*
X127534572Y-79691280D01*
X127352002Y-79786726D01*
X127347201Y-79790586D01*
X127347198Y-79790588D01*
X127314688Y-79816727D01*
X127191447Y-79915815D01*
X127059024Y-80073630D01*
X127056056Y-80079028D01*
X127056053Y-80079033D01*
X127049315Y-80091290D01*
X126959776Y-80254162D01*
X126897484Y-80450532D01*
X126896798Y-80456649D01*
X126896797Y-80456653D01*
X126875207Y-80649137D01*
X126874520Y-80655262D01*
X126444138Y-80655262D01*
X126425480Y-80464970D01*
X126365935Y-80267749D01*
X126269218Y-80085849D01*
X126193206Y-79992649D01*
X126142906Y-79930975D01*
X126142903Y-79930972D01*
X126139011Y-79926200D01*
X126121786Y-79911950D01*
X125985025Y-79798811D01*
X125985021Y-79798809D01*
X125980275Y-79794882D01*
X125974851Y-79791949D01*
X125974078Y-79791531D01*
X125973751Y-79791207D01*
X125969744Y-79788504D01*
X125970258Y-79787743D01*
X125923666Y-79741540D01*
X125908000Y-79680692D01*
X125908000Y-77056752D01*
X125928002Y-76988631D01*
X125944905Y-76967657D01*
X128259424Y-74653138D01*
X131244758Y-74653138D01*
X131262035Y-74809633D01*
X131316143Y-74957490D01*
X131403958Y-75088172D01*
X131520410Y-75194135D01*
X131527085Y-75197759D01*
X131652099Y-75265637D01*
X131652101Y-75265638D01*
X131658776Y-75269262D01*
X131666125Y-75271190D01*
X131803719Y-75307287D01*
X131803721Y-75307287D01*
X131811069Y-75309215D01*
X131892782Y-75310499D01*
X131960897Y-75311569D01*
X131960900Y-75311569D01*
X131968495Y-75311688D01*
X131975900Y-75309992D01*
X131983455Y-75309198D01*
X131983798Y-75312461D01*
X132039910Y-75315879D01*
X132086222Y-75345298D01*
X137002595Y-80261671D01*
X137036621Y-80323983D01*
X137039500Y-80350766D01*
X137039500Y-81539748D01*
X137040707Y-81545816D01*
X137044331Y-81564033D01*
X137051133Y-81598231D01*
X137095448Y-81664552D01*
X137161769Y-81708867D01*
X137173938Y-81711288D01*
X137173939Y-81711288D01*
X137214184Y-81719293D01*
X137220252Y-81720500D01*
X138959748Y-81720500D01*
X138965816Y-81719293D01*
X139006061Y-81711288D01*
X139006062Y-81711288D01*
X139018231Y-81708867D01*
X139084552Y-81664552D01*
X139128867Y-81598231D01*
X139135670Y-81564033D01*
X139139293Y-81545816D01*
X139140500Y-81539748D01*
X139140500Y-79800252D01*
X139131659Y-79755803D01*
X139131288Y-79753939D01*
X139131288Y-79753938D01*
X139128867Y-79741769D01*
X139084552Y-79675448D01*
X139018231Y-79631133D01*
X139006062Y-79628712D01*
X139006061Y-79628712D01*
X138965816Y-79620707D01*
X138959748Y-79619500D01*
X137410766Y-79619500D01*
X137342645Y-79599498D01*
X137321671Y-79582595D01*
X132581920Y-74842844D01*
X132547894Y-74780532D01*
X132546272Y-74735997D01*
X132554553Y-74677810D01*
X132554554Y-74677800D01*
X132555134Y-74673723D01*
X132555278Y-74660000D01*
X132536363Y-74503694D01*
X132480710Y-74356412D01*
X132391531Y-74226657D01*
X132344971Y-74185174D01*
X132279648Y-74126972D01*
X132279645Y-74126970D01*
X132273976Y-74121919D01*
X132134831Y-74048245D01*
X132118122Y-74044048D01*
X131989498Y-74011740D01*
X131989496Y-74011740D01*
X131982128Y-74009889D01*
X131974530Y-74009849D01*
X131974528Y-74009849D01*
X131907319Y-74009497D01*
X131824684Y-74009065D01*
X131817305Y-74010837D01*
X131817301Y-74010837D01*
X131678967Y-74044048D01*
X131678963Y-74044049D01*
X131671588Y-74045820D01*
X131531679Y-74118032D01*
X131525957Y-74123024D01*
X131525955Y-74123025D01*
X131418759Y-74216538D01*
X131418756Y-74216541D01*
X131413034Y-74221533D01*
X131322501Y-74350348D01*
X131265309Y-74497039D01*
X131244758Y-74653138D01*
X128259424Y-74653138D01*
X134949425Y-67963138D01*
X141284758Y-67963138D01*
X141302035Y-68119633D01*
X141356143Y-68267490D01*
X141443958Y-68398172D01*
X141560410Y-68504135D01*
X141567085Y-68507759D01*
X141692099Y-68575637D01*
X141692101Y-68575638D01*
X141698776Y-68579262D01*
X141706125Y-68581190D01*
X141843719Y-68617287D01*
X141843721Y-68617287D01*
X141851069Y-68619215D01*
X141932782Y-68620499D01*
X142000897Y-68621569D01*
X142000900Y-68621569D01*
X142008495Y-68621688D01*
X142015900Y-68619992D01*
X142023455Y-68619198D01*
X142023798Y-68622461D01*
X142079910Y-68625879D01*
X142126222Y-68655298D01*
X150650195Y-77179271D01*
X150684221Y-77241583D01*
X150687100Y-77268366D01*
X150687100Y-95849162D01*
X150667098Y-95917283D01*
X150619475Y-95960824D01*
X150489512Y-96028767D01*
X150484712Y-96032627D01*
X150484711Y-96032627D01*
X150455535Y-96056085D01*
X150336600Y-96151711D01*
X150210480Y-96302016D01*
X150207516Y-96307408D01*
X150207513Y-96307412D01*
X150164338Y-96385947D01*
X150115956Y-96473954D01*
X150056628Y-96660978D01*
X150034757Y-96855963D01*
X150051175Y-97051483D01*
X150105258Y-97240091D01*
X150108076Y-97245574D01*
X150192123Y-97409113D01*
X150192126Y-97409117D01*
X150194944Y-97414601D01*
X150316818Y-97568369D01*
X150321511Y-97572363D01*
X150321512Y-97572364D01*
X150343908Y-97591424D01*
X150466238Y-97695535D01*
X150471616Y-97698541D01*
X150471618Y-97698542D01*
X150507932Y-97718837D01*
X150637513Y-97791257D01*
X150824118Y-97851889D01*
X151018946Y-97875121D01*
X151025081Y-97874649D01*
X151025083Y-97874649D01*
X151208434Y-97860541D01*
X151208438Y-97860540D01*
X151214576Y-97860068D01*
X151403556Y-97807303D01*
X151578689Y-97718837D01*
X151608515Y-97695535D01*
X151728453Y-97601829D01*
X151733303Y-97598040D01*
X151744493Y-97585077D01*
X151857485Y-97454173D01*
X151857485Y-97454172D01*
X151861509Y-97449511D01*
X151875915Y-97424153D01*
X151955378Y-97284272D01*
X151958425Y-97278909D01*
X152020358Y-97092732D01*
X152044949Y-96898071D01*
X152045265Y-96875475D01*
X154727483Y-96875475D01*
X154746472Y-97092519D01*
X154748375Y-97103312D01*
X154804764Y-97313761D01*
X154808510Y-97324053D01*
X154900586Y-97521511D01*
X154906069Y-97531006D01*
X154942509Y-97583048D01*
X154952988Y-97591424D01*
X154966434Y-97584356D01*
X155667978Y-96882812D01*
X155674356Y-96871132D01*
X156404408Y-96871132D01*
X156404539Y-96872965D01*
X156408790Y-96879580D01*
X157114287Y-97585077D01*
X157126062Y-97591507D01*
X157138077Y-97582211D01*
X157173931Y-97531006D01*
X157179414Y-97521511D01*
X157271490Y-97324053D01*
X157275236Y-97313761D01*
X157331625Y-97103312D01*
X157333528Y-97092519D01*
X157352517Y-96875475D01*
X157352517Y-96864525D01*
X157333528Y-96647481D01*
X157331625Y-96636688D01*
X157309546Y-96554288D01*
X159945404Y-96554288D01*
X159945985Y-96559308D01*
X159945985Y-96559312D01*
X159956342Y-96648824D01*
X159974081Y-96802140D01*
X159975460Y-96807011D01*
X159975460Y-96807014D01*
X159993604Y-96871132D01*
X160042017Y-97042219D01*
X160068300Y-97098584D01*
X160143061Y-97258909D01*
X160147462Y-97268348D01*
X160150304Y-97272529D01*
X160150304Y-97272530D01*
X160154639Y-97278909D01*
X160287706Y-97474710D01*
X160459138Y-97655994D01*
X160463164Y-97659072D01*
X160463165Y-97659073D01*
X160630883Y-97787303D01*
X160657349Y-97807538D01*
X160877239Y-97925443D01*
X161113152Y-98006674D01*
X161241099Y-98028774D01*
X161355107Y-98048467D01*
X161355113Y-98048468D01*
X161359017Y-98049142D01*
X161362978Y-98049322D01*
X161362979Y-98049322D01*
X161387503Y-98050436D01*
X161387522Y-98050436D01*
X161388922Y-98050500D01*
X161562691Y-98050500D01*
X161565199Y-98050298D01*
X161565204Y-98050298D01*
X161743661Y-98035940D01*
X161743666Y-98035939D01*
X161748702Y-98035534D01*
X161753610Y-98034329D01*
X161753613Y-98034328D01*
X161986092Y-97977225D01*
X161991006Y-97976018D01*
X161995658Y-97974043D01*
X161995662Y-97974042D01*
X162216022Y-97880505D01*
X162216023Y-97880505D01*
X162220677Y-97878529D01*
X162431808Y-97745573D01*
X162519183Y-97668542D01*
X162615168Y-97583920D01*
X162615171Y-97583917D01*
X162618965Y-97580572D01*
X162777334Y-97387770D01*
X162902840Y-97172128D01*
X162933318Y-97092732D01*
X162990443Y-96943915D01*
X162992255Y-96939195D01*
X162997676Y-96913250D01*
X163042243Y-96699915D01*
X163043278Y-96694961D01*
X163043919Y-96680862D01*
X163052076Y-96501210D01*
X163054596Y-96445712D01*
X163053769Y-96438559D01*
X163026501Y-96202890D01*
X163025919Y-96197860D01*
X163020581Y-96178994D01*
X162978070Y-96028767D01*
X162957983Y-95957781D01*
X162900882Y-95835327D01*
X162854675Y-95736234D01*
X162854673Y-95736230D01*
X162852538Y-95731652D01*
X162831426Y-95700586D01*
X162807980Y-95666087D01*
X162712294Y-95525290D01*
X162540862Y-95344006D01*
X162342651Y-95192462D01*
X162122761Y-95074557D01*
X161886848Y-94993326D01*
X161758901Y-94971226D01*
X161644893Y-94951533D01*
X161644887Y-94951532D01*
X161640983Y-94950858D01*
X161637022Y-94950678D01*
X161637021Y-94950678D01*
X161612497Y-94949564D01*
X161612478Y-94949564D01*
X161611078Y-94949500D01*
X161437309Y-94949500D01*
X161434801Y-94949702D01*
X161434796Y-94949702D01*
X161256339Y-94964060D01*
X161256334Y-94964061D01*
X161251298Y-94964466D01*
X161246390Y-94965671D01*
X161246387Y-94965672D01*
X161016392Y-95022165D01*
X161008994Y-95023982D01*
X161004342Y-95025957D01*
X161004338Y-95025958D01*
X160783978Y-95119495D01*
X160779323Y-95121471D01*
X160568192Y-95254427D01*
X160564398Y-95257772D01*
X160384832Y-95416080D01*
X160384829Y-95416083D01*
X160381035Y-95419428D01*
X160222666Y-95612230D01*
X160097160Y-95827872D01*
X160095347Y-95832595D01*
X160095346Y-95832597D01*
X160049051Y-95953199D01*
X160007745Y-96060805D01*
X160006712Y-96065751D01*
X160006710Y-96065757D01*
X159988754Y-96151711D01*
X159956722Y-96305039D01*
X159956493Y-96310088D01*
X159956492Y-96310094D01*
X159956083Y-96319104D01*
X159945404Y-96554288D01*
X157309546Y-96554288D01*
X157275236Y-96426239D01*
X157271490Y-96415947D01*
X157179414Y-96218489D01*
X157173931Y-96208994D01*
X157137491Y-96156952D01*
X157127012Y-96148576D01*
X157113566Y-96155644D01*
X156412022Y-96857188D01*
X156404408Y-96871132D01*
X155674356Y-96871132D01*
X155675592Y-96868868D01*
X155675461Y-96867035D01*
X155671210Y-96860420D01*
X154965713Y-96154923D01*
X154953938Y-96148493D01*
X154941923Y-96157789D01*
X154906069Y-96208994D01*
X154900586Y-96218489D01*
X154808510Y-96415947D01*
X154804764Y-96426239D01*
X154748375Y-96636688D01*
X154746472Y-96647481D01*
X154727483Y-96864525D01*
X154727483Y-96875475D01*
X152045265Y-96875475D01*
X152045341Y-96870000D01*
X152026194Y-96674728D01*
X152024413Y-96668829D01*
X152024412Y-96668824D01*
X151971265Y-96492793D01*
X151969484Y-96486894D01*
X151877370Y-96313653D01*
X151753361Y-96161602D01*
X151602180Y-96036535D01*
X151458971Y-95959102D01*
X151408562Y-95909107D01*
X151392900Y-95848266D01*
X151392900Y-95782988D01*
X155318576Y-95782988D01*
X155325644Y-95796434D01*
X156027188Y-96497978D01*
X156041132Y-96505592D01*
X156042965Y-96505461D01*
X156049580Y-96501210D01*
X156755077Y-95795713D01*
X156761507Y-95783938D01*
X156752211Y-95771923D01*
X156701006Y-95736069D01*
X156691511Y-95730586D01*
X156494053Y-95638510D01*
X156483761Y-95634764D01*
X156273312Y-95578375D01*
X156262519Y-95576472D01*
X156045475Y-95557483D01*
X156034525Y-95557483D01*
X155817481Y-95576472D01*
X155806688Y-95578375D01*
X155596239Y-95634764D01*
X155585947Y-95638510D01*
X155388489Y-95730586D01*
X155378994Y-95736069D01*
X155326952Y-95772509D01*
X155318576Y-95782988D01*
X151392900Y-95782988D01*
X151392900Y-90575262D01*
X151814520Y-90575262D01*
X151831759Y-90780553D01*
X151833458Y-90786478D01*
X151855147Y-90862115D01*
X151888544Y-90978586D01*
X151891359Y-90984063D01*
X151891360Y-90984066D01*
X151957650Y-91113052D01*
X151982712Y-91161818D01*
X152110677Y-91323270D01*
X152115370Y-91327264D01*
X152115371Y-91327265D01*
X152223066Y-91418920D01*
X152267564Y-91456791D01*
X152447398Y-91557297D01*
X152542238Y-91588113D01*
X152637471Y-91619056D01*
X152637475Y-91619057D01*
X152643329Y-91620959D01*
X152847894Y-91645351D01*
X152854029Y-91644879D01*
X152854031Y-91644879D01*
X152910039Y-91640569D01*
X153053300Y-91629546D01*
X153059230Y-91627890D01*
X153059232Y-91627890D01*
X153245797Y-91575800D01*
X153245796Y-91575800D01*
X153251725Y-91574145D01*
X153257214Y-91571372D01*
X153257220Y-91571370D01*
X153430116Y-91484033D01*
X153435610Y-91481258D01*
X153597951Y-91354424D01*
X153645332Y-91299533D01*
X153728540Y-91203134D01*
X153728540Y-91203133D01*
X153732564Y-91198472D01*
X153741793Y-91182227D01*
X153781089Y-91113052D01*
X153834323Y-91019344D01*
X153899351Y-90823863D01*
X153925171Y-90619474D01*
X153925583Y-90590000D01*
X153924138Y-90575262D01*
X154354520Y-90575262D01*
X154371759Y-90780553D01*
X154373458Y-90786478D01*
X154395147Y-90862115D01*
X154428544Y-90978586D01*
X154431359Y-90984063D01*
X154431360Y-90984066D01*
X154497650Y-91113052D01*
X154522712Y-91161818D01*
X154650677Y-91323270D01*
X154655370Y-91327264D01*
X154655371Y-91327265D01*
X154763066Y-91418920D01*
X154807564Y-91456791D01*
X154987398Y-91557297D01*
X155082238Y-91588113D01*
X155177471Y-91619056D01*
X155177475Y-91619057D01*
X155183329Y-91620959D01*
X155387894Y-91645351D01*
X155394029Y-91644879D01*
X155394031Y-91644879D01*
X155450039Y-91640569D01*
X155593300Y-91629546D01*
X155599230Y-91627890D01*
X155599232Y-91627890D01*
X155785797Y-91575800D01*
X155785796Y-91575800D01*
X155791725Y-91574145D01*
X155797214Y-91571372D01*
X155797220Y-91571370D01*
X155970116Y-91484033D01*
X155975610Y-91481258D01*
X156137951Y-91354424D01*
X156185332Y-91299533D01*
X156268540Y-91203134D01*
X156268540Y-91203133D01*
X156272564Y-91198472D01*
X156281793Y-91182227D01*
X156321089Y-91113052D01*
X156374323Y-91019344D01*
X156439351Y-90823863D01*
X156465171Y-90619474D01*
X156465583Y-90590000D01*
X156464138Y-90575262D01*
X156894520Y-90575262D01*
X156911759Y-90780553D01*
X156913458Y-90786478D01*
X156935147Y-90862115D01*
X156968544Y-90978586D01*
X156971359Y-90984063D01*
X156971360Y-90984066D01*
X157037650Y-91113052D01*
X157062712Y-91161818D01*
X157190677Y-91323270D01*
X157195370Y-91327264D01*
X157195371Y-91327265D01*
X157303066Y-91418920D01*
X157347564Y-91456791D01*
X157527398Y-91557297D01*
X157622238Y-91588113D01*
X157717471Y-91619056D01*
X157717475Y-91619057D01*
X157723329Y-91620959D01*
X157927894Y-91645351D01*
X157934029Y-91644879D01*
X157934031Y-91644879D01*
X157990039Y-91640569D01*
X158133300Y-91629546D01*
X158139230Y-91627890D01*
X158139232Y-91627890D01*
X158325797Y-91575800D01*
X158325796Y-91575800D01*
X158331725Y-91574145D01*
X158337214Y-91571372D01*
X158337220Y-91571370D01*
X158510116Y-91484033D01*
X158515610Y-91481258D01*
X158677951Y-91354424D01*
X158725332Y-91299533D01*
X158808540Y-91203134D01*
X158808540Y-91203133D01*
X158812564Y-91198472D01*
X158821793Y-91182227D01*
X158896445Y-91050815D01*
X158947484Y-91001464D01*
X159017102Y-90987542D01*
X159083196Y-91013468D01*
X159124781Y-91071011D01*
X159132001Y-91113052D01*
X159132001Y-91484669D01*
X159132371Y-91491490D01*
X159137895Y-91542352D01*
X159141521Y-91557604D01*
X159186676Y-91678054D01*
X159195214Y-91693649D01*
X159271715Y-91795724D01*
X159284276Y-91808285D01*
X159386351Y-91884786D01*
X159401946Y-91893324D01*
X159522394Y-91938478D01*
X159537649Y-91942105D01*
X159588514Y-91947631D01*
X159595328Y-91948000D01*
X160217885Y-91948000D01*
X160233124Y-91943525D01*
X160234329Y-91942135D01*
X160236000Y-91934452D01*
X160236000Y-91929884D01*
X160744000Y-91929884D01*
X160748475Y-91945123D01*
X160749865Y-91946328D01*
X160757548Y-91947999D01*
X161384669Y-91947999D01*
X161391490Y-91947629D01*
X161442352Y-91942105D01*
X161457604Y-91938479D01*
X161578054Y-91893324D01*
X161593649Y-91884786D01*
X161695724Y-91808285D01*
X161708285Y-91795724D01*
X161784786Y-91693649D01*
X161793324Y-91678054D01*
X161838478Y-91557606D01*
X161842105Y-91542351D01*
X161847631Y-91491486D01*
X161848000Y-91484672D01*
X161848000Y-90862115D01*
X161843525Y-90846876D01*
X161842135Y-90845671D01*
X161834452Y-90844000D01*
X160762115Y-90844000D01*
X160746876Y-90848475D01*
X160745671Y-90849865D01*
X160744000Y-90857548D01*
X160744000Y-91929884D01*
X160236000Y-91929884D01*
X160236000Y-90317885D01*
X160744000Y-90317885D01*
X160748475Y-90333124D01*
X160749865Y-90334329D01*
X160757548Y-90336000D01*
X161829884Y-90336000D01*
X161845123Y-90331525D01*
X161846328Y-90330135D01*
X161847999Y-90322452D01*
X161847999Y-89695331D01*
X161847629Y-89688510D01*
X161842105Y-89637648D01*
X161838479Y-89622396D01*
X161793324Y-89501946D01*
X161784786Y-89486351D01*
X161708285Y-89384276D01*
X161695724Y-89371715D01*
X161593649Y-89295214D01*
X161578054Y-89286676D01*
X161457606Y-89241522D01*
X161442351Y-89237895D01*
X161391486Y-89232369D01*
X161384672Y-89232000D01*
X160762115Y-89232000D01*
X160746876Y-89236475D01*
X160745671Y-89237865D01*
X160744000Y-89245548D01*
X160744000Y-90317885D01*
X160236000Y-90317885D01*
X160236000Y-89250116D01*
X160231525Y-89234877D01*
X160230135Y-89233672D01*
X160222452Y-89232001D01*
X159595331Y-89232001D01*
X159588510Y-89232371D01*
X159537648Y-89237895D01*
X159522396Y-89241521D01*
X159401946Y-89286676D01*
X159386351Y-89295214D01*
X159284276Y-89371715D01*
X159271715Y-89384276D01*
X159195214Y-89486351D01*
X159186676Y-89501946D01*
X159141522Y-89622394D01*
X159137895Y-89637649D01*
X159132369Y-89688514D01*
X159132000Y-89695328D01*
X159132000Y-90069942D01*
X159111998Y-90138063D01*
X159058342Y-90184556D01*
X158988068Y-90194660D01*
X158923488Y-90165166D01*
X158894748Y-90129095D01*
X158863297Y-90069942D01*
X158829218Y-90005849D01*
X158755859Y-89915902D01*
X158702906Y-89850975D01*
X158702903Y-89850972D01*
X158699011Y-89846200D01*
X158611867Y-89774108D01*
X158545025Y-89718811D01*
X158545021Y-89718809D01*
X158540275Y-89714882D01*
X158359055Y-89616897D01*
X158162254Y-89555977D01*
X158156129Y-89555333D01*
X158156128Y-89555333D01*
X157963498Y-89535087D01*
X157963496Y-89535087D01*
X157957369Y-89534443D01*
X157870529Y-89542346D01*
X157758342Y-89552555D01*
X157758339Y-89552556D01*
X157752203Y-89553114D01*
X157554572Y-89611280D01*
X157372002Y-89706726D01*
X157367201Y-89710586D01*
X157367198Y-89710588D01*
X157216254Y-89831950D01*
X157211447Y-89835815D01*
X157079024Y-89993630D01*
X157076056Y-89999028D01*
X157076053Y-89999033D01*
X156992215Y-90151535D01*
X156979776Y-90174162D01*
X156917484Y-90370532D01*
X156916798Y-90376649D01*
X156916797Y-90376653D01*
X156914443Y-90397639D01*
X156894520Y-90575262D01*
X156464138Y-90575262D01*
X156445480Y-90384970D01*
X156385935Y-90187749D01*
X156289218Y-90005849D01*
X156215859Y-89915902D01*
X156162906Y-89850975D01*
X156162903Y-89850972D01*
X156159011Y-89846200D01*
X156071867Y-89774108D01*
X156005025Y-89718811D01*
X156005021Y-89718809D01*
X156000275Y-89714882D01*
X155819055Y-89616897D01*
X155622254Y-89555977D01*
X155616129Y-89555333D01*
X155616128Y-89555333D01*
X155423498Y-89535087D01*
X155423496Y-89535087D01*
X155417369Y-89534443D01*
X155330529Y-89542346D01*
X155218342Y-89552555D01*
X155218339Y-89552556D01*
X155212203Y-89553114D01*
X155014572Y-89611280D01*
X154832002Y-89706726D01*
X154827201Y-89710586D01*
X154827198Y-89710588D01*
X154676254Y-89831950D01*
X154671447Y-89835815D01*
X154539024Y-89993630D01*
X154536056Y-89999028D01*
X154536053Y-89999033D01*
X154452215Y-90151535D01*
X154439776Y-90174162D01*
X154377484Y-90370532D01*
X154376798Y-90376649D01*
X154376797Y-90376653D01*
X154374443Y-90397639D01*
X154354520Y-90575262D01*
X153924138Y-90575262D01*
X153905480Y-90384970D01*
X153845935Y-90187749D01*
X153749218Y-90005849D01*
X153675859Y-89915902D01*
X153622906Y-89850975D01*
X153622903Y-89850972D01*
X153619011Y-89846200D01*
X153531867Y-89774108D01*
X153465025Y-89718811D01*
X153465021Y-89718809D01*
X153460275Y-89714882D01*
X153279055Y-89616897D01*
X153082254Y-89555977D01*
X153076129Y-89555333D01*
X153076128Y-89555333D01*
X152883498Y-89535087D01*
X152883496Y-89535087D01*
X152877369Y-89534443D01*
X152790529Y-89542346D01*
X152678342Y-89552555D01*
X152678339Y-89552556D01*
X152672203Y-89553114D01*
X152474572Y-89611280D01*
X152292002Y-89706726D01*
X152287201Y-89710586D01*
X152287198Y-89710588D01*
X152136254Y-89831950D01*
X152131447Y-89835815D01*
X151999024Y-89993630D01*
X151996056Y-89999028D01*
X151996053Y-89999033D01*
X151912215Y-90151535D01*
X151899776Y-90174162D01*
X151837484Y-90370532D01*
X151836798Y-90376649D01*
X151836797Y-90376653D01*
X151834443Y-90397639D01*
X151814520Y-90575262D01*
X151392900Y-90575262D01*
X151392900Y-77121083D01*
X151394976Y-77101575D01*
X151395190Y-77097035D01*
X151397382Y-77086854D01*
X151394711Y-77064289D01*
X151393773Y-77056358D01*
X151393460Y-77051049D01*
X151393328Y-77051060D01*
X151392900Y-77045883D01*
X151392900Y-77040682D01*
X151389987Y-77023182D01*
X151389150Y-77017300D01*
X151384798Y-76980523D01*
X151384798Y-76980522D01*
X151383574Y-76970182D01*
X151379888Y-76962505D01*
X151378490Y-76954109D01*
X151373548Y-76944949D01*
X151373546Y-76944944D01*
X151355955Y-76912342D01*
X151353260Y-76907054D01*
X151336147Y-76871417D01*
X151336146Y-76871415D01*
X151332717Y-76864275D01*
X151329377Y-76860301D01*
X151327441Y-76858365D01*
X151325957Y-76856747D01*
X151325708Y-76856285D01*
X151325737Y-76856259D01*
X151325625Y-76856132D01*
X151322702Y-76850714D01*
X151304288Y-76833692D01*
X151286006Y-76816793D01*
X151282439Y-76813363D01*
X142621920Y-68152844D01*
X142587894Y-68090532D01*
X142586272Y-68045997D01*
X142594553Y-67987810D01*
X142594554Y-67987800D01*
X142595134Y-67983723D01*
X142595278Y-67970000D01*
X142576363Y-67813694D01*
X142520710Y-67666412D01*
X142431531Y-67536657D01*
X142384971Y-67495174D01*
X142319648Y-67436972D01*
X142319645Y-67436970D01*
X142313976Y-67431919D01*
X142174831Y-67358245D01*
X142158122Y-67354048D01*
X142029498Y-67321740D01*
X142029496Y-67321740D01*
X142022128Y-67319889D01*
X142014530Y-67319849D01*
X142014528Y-67319849D01*
X141947319Y-67319497D01*
X141864684Y-67319065D01*
X141857305Y-67320837D01*
X141857301Y-67320837D01*
X141718967Y-67354048D01*
X141718963Y-67354049D01*
X141711588Y-67355820D01*
X141571679Y-67428032D01*
X141565957Y-67433024D01*
X141565955Y-67433025D01*
X141458759Y-67526538D01*
X141458756Y-67526541D01*
X141453034Y-67531533D01*
X141362501Y-67660348D01*
X141305309Y-67807039D01*
X141284758Y-67963138D01*
X134949425Y-67963138D01*
X141227658Y-61684905D01*
X141289970Y-61650879D01*
X141316753Y-61648000D01*
X151713500Y-61648000D01*
X151781621Y-61668002D01*
X151828114Y-61721658D01*
X151839500Y-61774000D01*
X151839500Y-61999748D01*
X151840707Y-62005816D01*
X151844331Y-62024033D01*
X151851133Y-62058231D01*
X151895448Y-62124552D01*
X151961769Y-62168867D01*
X151973938Y-62171288D01*
X151973939Y-62171288D01*
X152014184Y-62179293D01*
X152020252Y-62180500D01*
X153759748Y-62180500D01*
X153765816Y-62179293D01*
X153806061Y-62171288D01*
X153806062Y-62171288D01*
X153818231Y-62168867D01*
X153884552Y-62124552D01*
X153928867Y-62058231D01*
X153935670Y-62024033D01*
X153939293Y-62005816D01*
X153940500Y-61999748D01*
X153940500Y-61115262D01*
X154374520Y-61115262D01*
X154391759Y-61320553D01*
X154393458Y-61326478D01*
X154439395Y-61486678D01*
X154448544Y-61518586D01*
X154451359Y-61524063D01*
X154451360Y-61524066D01*
X154510571Y-61639278D01*
X154542712Y-61701818D01*
X154670677Y-61863270D01*
X154675370Y-61867264D01*
X154675371Y-61867265D01*
X154749541Y-61930388D01*
X154827564Y-61996791D01*
X154832942Y-61999797D01*
X154832944Y-61999798D01*
X154875272Y-62023454D01*
X155007398Y-62097297D01*
X155091280Y-62124552D01*
X155197471Y-62159056D01*
X155197475Y-62159057D01*
X155203329Y-62160959D01*
X155407894Y-62185351D01*
X155414029Y-62184879D01*
X155414031Y-62184879D01*
X155486625Y-62179293D01*
X155613300Y-62169546D01*
X155619230Y-62167890D01*
X155619232Y-62167890D01*
X155805797Y-62115800D01*
X155805796Y-62115800D01*
X155811725Y-62114145D01*
X155817214Y-62111372D01*
X155817220Y-62111370D01*
X155971036Y-62033671D01*
X155995610Y-62021258D01*
X156011345Y-62008965D01*
X156153101Y-61898213D01*
X156157951Y-61894424D01*
X156176137Y-61873356D01*
X156288540Y-61743134D01*
X156288540Y-61743133D01*
X156292564Y-61738472D01*
X156313387Y-61701818D01*
X156350482Y-61636518D01*
X156394323Y-61559344D01*
X156459351Y-61363863D01*
X156485171Y-61159474D01*
X156485583Y-61130000D01*
X156484138Y-61115262D01*
X156914520Y-61115262D01*
X156931759Y-61320553D01*
X156933458Y-61326478D01*
X156979395Y-61486678D01*
X156988544Y-61518586D01*
X156991359Y-61524063D01*
X156991360Y-61524066D01*
X157050571Y-61639278D01*
X157082712Y-61701818D01*
X157210677Y-61863270D01*
X157215370Y-61867264D01*
X157215371Y-61867265D01*
X157289541Y-61930388D01*
X157367564Y-61996791D01*
X157372942Y-61999797D01*
X157372944Y-61999798D01*
X157415272Y-62023454D01*
X157547398Y-62097297D01*
X157631280Y-62124552D01*
X157737471Y-62159056D01*
X157737475Y-62159057D01*
X157743329Y-62160959D01*
X157947894Y-62185351D01*
X157954029Y-62184879D01*
X157954031Y-62184879D01*
X158026625Y-62179293D01*
X158153300Y-62169546D01*
X158159230Y-62167890D01*
X158159232Y-62167890D01*
X158345797Y-62115800D01*
X158345796Y-62115800D01*
X158351725Y-62114145D01*
X158357214Y-62111372D01*
X158357220Y-62111370D01*
X158511036Y-62033671D01*
X158535610Y-62021258D01*
X158551345Y-62008965D01*
X158693101Y-61898213D01*
X158697951Y-61894424D01*
X158716137Y-61873356D01*
X158828540Y-61743134D01*
X158828540Y-61743133D01*
X158832564Y-61738472D01*
X158853387Y-61701818D01*
X158890482Y-61636518D01*
X158934323Y-61559344D01*
X158943271Y-61532444D01*
X158958496Y-61486678D01*
X158998978Y-61428354D01*
X159064566Y-61401175D01*
X159134437Y-61413770D01*
X159186406Y-61462141D01*
X159200971Y-61498751D01*
X159208564Y-61532444D01*
X159211645Y-61542275D01*
X159291770Y-61739603D01*
X159296413Y-61748794D01*
X159407694Y-61930388D01*
X159413777Y-61938699D01*
X159553213Y-62099667D01*
X159560580Y-62106883D01*
X159724434Y-62242916D01*
X159732881Y-62248831D01*
X159916756Y-62356279D01*
X159926042Y-62360729D01*
X160125001Y-62436703D01*
X160134899Y-62439579D01*
X160238250Y-62460606D01*
X160252299Y-62459410D01*
X160256000Y-62449065D01*
X160256000Y-62448517D01*
X160764000Y-62448517D01*
X160768064Y-62462359D01*
X160781478Y-62464393D01*
X160788184Y-62463534D01*
X160798262Y-62461392D01*
X161002255Y-62400191D01*
X161011842Y-62396433D01*
X161203095Y-62302739D01*
X161211945Y-62297464D01*
X161385328Y-62173792D01*
X161393200Y-62167139D01*
X161544052Y-62016812D01*
X161550730Y-62008965D01*
X161675003Y-61836020D01*
X161680313Y-61827183D01*
X161774670Y-61636267D01*
X161778469Y-61626672D01*
X161840377Y-61422910D01*
X161842555Y-61412837D01*
X161843986Y-61401962D01*
X161841775Y-61387778D01*
X161828617Y-61384000D01*
X160782115Y-61384000D01*
X160766876Y-61388475D01*
X160765671Y-61389865D01*
X160764000Y-61397548D01*
X160764000Y-62448517D01*
X160256000Y-62448517D01*
X160256000Y-60857885D01*
X160764000Y-60857885D01*
X160768475Y-60873124D01*
X160769865Y-60874329D01*
X160777548Y-60876000D01*
X161828344Y-60876000D01*
X161841875Y-60872027D01*
X161843180Y-60862947D01*
X161801214Y-60695875D01*
X161797894Y-60686124D01*
X161712972Y-60490814D01*
X161708105Y-60481739D01*
X161592426Y-60302926D01*
X161586136Y-60294757D01*
X161442806Y-60137240D01*
X161435273Y-60130215D01*
X161268139Y-59998222D01*
X161259552Y-59992517D01*
X161073117Y-59889599D01*
X161063705Y-59885369D01*
X160862959Y-59814280D01*
X160852988Y-59811646D01*
X160781837Y-59798972D01*
X160768540Y-59800432D01*
X160764000Y-59814989D01*
X160764000Y-60857885D01*
X160256000Y-60857885D01*
X160256000Y-59813102D01*
X160252082Y-59799758D01*
X160237806Y-59797771D01*
X160199324Y-59803660D01*
X160189288Y-59806051D01*
X159986868Y-59872212D01*
X159977359Y-59876209D01*
X159788463Y-59974542D01*
X159779738Y-59980036D01*
X159609433Y-60107905D01*
X159601726Y-60114748D01*
X159454590Y-60268717D01*
X159448104Y-60276727D01*
X159328098Y-60452649D01*
X159323000Y-60461623D01*
X159233338Y-60654783D01*
X159229775Y-60664470D01*
X159201012Y-60768185D01*
X159163533Y-60828483D01*
X159099405Y-60858946D01*
X159028986Y-60849903D01*
X158974636Y-60804224D01*
X158958973Y-60770933D01*
X158958143Y-60768185D01*
X158945935Y-60727749D01*
X158849218Y-60545849D01*
X158773206Y-60452649D01*
X158722906Y-60390975D01*
X158722903Y-60390972D01*
X158719011Y-60386200D01*
X158701786Y-60371950D01*
X158565025Y-60258811D01*
X158565021Y-60258809D01*
X158560275Y-60254882D01*
X158379055Y-60156897D01*
X158182254Y-60095977D01*
X158176129Y-60095333D01*
X158176128Y-60095333D01*
X157983498Y-60075087D01*
X157983496Y-60075087D01*
X157977369Y-60074443D01*
X157890529Y-60082346D01*
X157778342Y-60092555D01*
X157778339Y-60092556D01*
X157772203Y-60093114D01*
X157574572Y-60151280D01*
X157392002Y-60246726D01*
X157387201Y-60250586D01*
X157387198Y-60250588D01*
X157354688Y-60276727D01*
X157231447Y-60375815D01*
X157099024Y-60533630D01*
X157096056Y-60539028D01*
X157096053Y-60539033D01*
X157032420Y-60654783D01*
X156999776Y-60714162D01*
X156937484Y-60910532D01*
X156936798Y-60916649D01*
X156936797Y-60916653D01*
X156922860Y-61040905D01*
X156914520Y-61115262D01*
X156484138Y-61115262D01*
X156465480Y-60924970D01*
X156405935Y-60727749D01*
X156309218Y-60545849D01*
X156233206Y-60452649D01*
X156182906Y-60390975D01*
X156182903Y-60390972D01*
X156179011Y-60386200D01*
X156161786Y-60371950D01*
X156025025Y-60258811D01*
X156025021Y-60258809D01*
X156020275Y-60254882D01*
X155839055Y-60156897D01*
X155642254Y-60095977D01*
X155636129Y-60095333D01*
X155636128Y-60095333D01*
X155443498Y-60075087D01*
X155443496Y-60075087D01*
X155437369Y-60074443D01*
X155350529Y-60082346D01*
X155238342Y-60092555D01*
X155238339Y-60092556D01*
X155232203Y-60093114D01*
X155034572Y-60151280D01*
X154852002Y-60246726D01*
X154847201Y-60250586D01*
X154847198Y-60250588D01*
X154814688Y-60276727D01*
X154691447Y-60375815D01*
X154559024Y-60533630D01*
X154556056Y-60539028D01*
X154556053Y-60539033D01*
X154492420Y-60654783D01*
X154459776Y-60714162D01*
X154397484Y-60910532D01*
X154396798Y-60916649D01*
X154396797Y-60916653D01*
X154382860Y-61040905D01*
X154374520Y-61115262D01*
X153940500Y-61115262D01*
X153940500Y-60260252D01*
X153928867Y-60201769D01*
X153884552Y-60135448D01*
X153818231Y-60091133D01*
X153806062Y-60088712D01*
X153806061Y-60088712D01*
X153765816Y-60080707D01*
X153759748Y-60079500D01*
X152020252Y-60079500D01*
X152014184Y-60080707D01*
X151973939Y-60088712D01*
X151973938Y-60088712D01*
X151961769Y-60091133D01*
X151895448Y-60135448D01*
X151851133Y-60201769D01*
X151839500Y-60260252D01*
X151839500Y-60486000D01*
X151819498Y-60554121D01*
X151765842Y-60600614D01*
X151713500Y-60612000D01*
X141316752Y-60612000D01*
X141248631Y-60591998D01*
X141227657Y-60575095D01*
X130502926Y-49850364D01*
X130468900Y-49788052D01*
X130473965Y-49717237D01*
X130516512Y-49660401D01*
X130583032Y-49635590D01*
X130653491Y-49651281D01*
X130676308Y-49664033D01*
X130802018Y-49734290D01*
X130807398Y-49737297D01*
X130884020Y-49762193D01*
X130997471Y-49799056D01*
X130997475Y-49799057D01*
X131003329Y-49800959D01*
X131207894Y-49825351D01*
X131214029Y-49824879D01*
X131214031Y-49824879D01*
X131286625Y-49819293D01*
X131413300Y-49809546D01*
X131419230Y-49807890D01*
X131419232Y-49807890D01*
X131582900Y-49762193D01*
X131611725Y-49754145D01*
X131617214Y-49751372D01*
X131617220Y-49751370D01*
X131790116Y-49664033D01*
X131795610Y-49661258D01*
X131811345Y-49648965D01*
X131953101Y-49538213D01*
X131957951Y-49534424D01*
X131967870Y-49522933D01*
X131980474Y-49508332D01*
X132040127Y-49469835D01*
X132111123Y-49469700D01*
X132161380Y-49498136D01*
X132186420Y-49521282D01*
X132189961Y-49524688D01*
X140458688Y-57793415D01*
X140471021Y-57808684D01*
X140474073Y-57812038D01*
X140479724Y-57820790D01*
X140503848Y-57839808D01*
X140507815Y-57843334D01*
X140507901Y-57843233D01*
X140511864Y-57846591D01*
X140515542Y-57850269D01*
X140529976Y-57860584D01*
X140534706Y-57864135D01*
X140571987Y-57893525D01*
X140580022Y-57896347D01*
X140586948Y-57901296D01*
X140596919Y-57904278D01*
X140596923Y-57904280D01*
X140632425Y-57914897D01*
X140638041Y-57916721D01*
X140682836Y-57932452D01*
X140688008Y-57932900D01*
X140690712Y-57932900D01*
X140692944Y-57932996D01*
X140693444Y-57933146D01*
X140693442Y-57933184D01*
X140693606Y-57933194D01*
X140699507Y-57934959D01*
X140749438Y-57932997D01*
X140754384Y-57932900D01*
X145156241Y-57932900D01*
X145224362Y-57952902D01*
X145260821Y-57988622D01*
X145273958Y-58008172D01*
X145390410Y-58114135D01*
X145397085Y-58117759D01*
X145522099Y-58185637D01*
X145522101Y-58185638D01*
X145528776Y-58189262D01*
X145536125Y-58191190D01*
X145673719Y-58227287D01*
X145673721Y-58227287D01*
X145681069Y-58229215D01*
X145764380Y-58230524D01*
X145830898Y-58231569D01*
X145830901Y-58231569D01*
X145838495Y-58231688D01*
X145991968Y-58196538D01*
X146132625Y-58125795D01*
X146158869Y-58103381D01*
X146246574Y-58028474D01*
X146246576Y-58028471D01*
X146252348Y-58023542D01*
X146344224Y-57895683D01*
X146402950Y-57749598D01*
X146425134Y-57593723D01*
X146425278Y-57580000D01*
X146406363Y-57423694D01*
X146350710Y-57276412D01*
X146261531Y-57146657D01*
X146214971Y-57105174D01*
X146149648Y-57046972D01*
X146149645Y-57046970D01*
X146143976Y-57041919D01*
X146004831Y-56968245D01*
X145874467Y-56935500D01*
X145859498Y-56931740D01*
X145859496Y-56931740D01*
X145852128Y-56929889D01*
X145844530Y-56929849D01*
X145844528Y-56929849D01*
X145777319Y-56929497D01*
X145694684Y-56929065D01*
X145687305Y-56930837D01*
X145687301Y-56930837D01*
X145548967Y-56964048D01*
X145548963Y-56964049D01*
X145541588Y-56965820D01*
X145401679Y-57038032D01*
X145395957Y-57043024D01*
X145395955Y-57043025D01*
X145288759Y-57136538D01*
X145288756Y-57136541D01*
X145283034Y-57141533D01*
X145278664Y-57147751D01*
X145278662Y-57147753D01*
X145260530Y-57173551D01*
X145204995Y-57217783D01*
X145157444Y-57227100D01*
X140942715Y-57227100D01*
X140874594Y-57207098D01*
X140853620Y-57190195D01*
X140418173Y-56754748D01*
X153349500Y-56754748D01*
X153361133Y-56813231D01*
X153405448Y-56879552D01*
X153471769Y-56923867D01*
X153483938Y-56926288D01*
X153483939Y-56926288D01*
X153511349Y-56931740D01*
X153530252Y-56935500D01*
X155369748Y-56935500D01*
X155388651Y-56931740D01*
X155416061Y-56926288D01*
X155416062Y-56926288D01*
X155428231Y-56923867D01*
X155494552Y-56879552D01*
X155538867Y-56813231D01*
X155550500Y-56754748D01*
X155550500Y-54915252D01*
X155538867Y-54856769D01*
X155494552Y-54790448D01*
X155428231Y-54746133D01*
X155416062Y-54743712D01*
X155416061Y-54743712D01*
X155375816Y-54735707D01*
X155369748Y-54734500D01*
X155250297Y-54734500D01*
X155182176Y-54714498D01*
X155135683Y-54660842D01*
X155125579Y-54590568D01*
X155155073Y-54525988D01*
X155177129Y-54505921D01*
X155235096Y-54464574D01*
X155243497Y-54453874D01*
X155236510Y-54440721D01*
X154462811Y-53667021D01*
X154448868Y-53659408D01*
X154447034Y-53659539D01*
X154440420Y-53663790D01*
X153660180Y-54444031D01*
X153653423Y-54456406D01*
X153658704Y-54463461D01*
X153720740Y-54499712D01*
X153769463Y-54551351D01*
X153782534Y-54621134D01*
X153755802Y-54686906D01*
X153697755Y-54727784D01*
X153657169Y-54734500D01*
X153530252Y-54734500D01*
X153524184Y-54735707D01*
X153483939Y-54743712D01*
X153483938Y-54743712D01*
X153471769Y-54746133D01*
X153405448Y-54790448D01*
X153361133Y-54856769D01*
X153349500Y-54915252D01*
X153349500Y-56754748D01*
X140418173Y-56754748D01*
X136929063Y-53265638D01*
X153037893Y-53265638D01*
X153050627Y-53486468D01*
X153052061Y-53496670D01*
X153100685Y-53712439D01*
X153103773Y-53722292D01*
X153186986Y-53927220D01*
X153191634Y-53936421D01*
X153280097Y-54080781D01*
X153290553Y-54090242D01*
X153299331Y-54086458D01*
X154077979Y-53307811D01*
X154084356Y-53296132D01*
X154814408Y-53296132D01*
X154814539Y-53297966D01*
X154818790Y-53304580D01*
X155596307Y-54082096D01*
X155608313Y-54088652D01*
X155620052Y-54079684D01*
X155658010Y-54026859D01*
X155663321Y-54018020D01*
X155761318Y-53819737D01*
X155765117Y-53810142D01*
X155829415Y-53598517D01*
X155831594Y-53588436D01*
X155860702Y-53367338D01*
X155861221Y-53360663D01*
X155862744Y-53298364D01*
X155862550Y-53291646D01*
X155844279Y-53069400D01*
X155842596Y-53059238D01*
X155788710Y-52844708D01*
X155785389Y-52834953D01*
X155697193Y-52632118D01*
X155692315Y-52623020D01*
X155619224Y-52510038D01*
X155608538Y-52500835D01*
X155598973Y-52505238D01*
X154822021Y-53282189D01*
X154814408Y-53296132D01*
X154084356Y-53296132D01*
X154085592Y-53293868D01*
X154085461Y-53292034D01*
X154081210Y-53285420D01*
X153303862Y-52508073D01*
X153292330Y-52501776D01*
X153280048Y-52511399D01*
X153224467Y-52592877D01*
X153219379Y-52601833D01*
X153126252Y-52802459D01*
X153122689Y-52812146D01*
X153063581Y-53025280D01*
X153061650Y-53035400D01*
X153038145Y-53255349D01*
X153037893Y-53265638D01*
X136929063Y-53265638D01*
X135799136Y-52135711D01*
X153655508Y-52135711D01*
X153662251Y-52148040D01*
X154437189Y-52922979D01*
X154451132Y-52930592D01*
X154452966Y-52930461D01*
X154459580Y-52926210D01*
X155238994Y-52146795D01*
X155246011Y-52133944D01*
X155238237Y-52123274D01*
X155235902Y-52121430D01*
X155227320Y-52115729D01*
X155033678Y-52008833D01*
X155024272Y-52004606D01*
X154815772Y-51930772D01*
X154805809Y-51928140D01*
X154588047Y-51889350D01*
X154577796Y-51888381D01*
X154356616Y-51885679D01*
X154346332Y-51886399D01*
X154127693Y-51919855D01*
X154117666Y-51922244D01*
X153907426Y-51990961D01*
X153897916Y-51994958D01*
X153701725Y-52097089D01*
X153693007Y-52102578D01*
X153663961Y-52124386D01*
X153655508Y-52135711D01*
X135799136Y-52135711D01*
X133700997Y-50037572D01*
X133666971Y-49975260D01*
X133672036Y-49904445D01*
X133714583Y-49847609D01*
X133780425Y-49822848D01*
X133947159Y-49810019D01*
X133947164Y-49810018D01*
X133953300Y-49809546D01*
X133959230Y-49807890D01*
X133959232Y-49807890D01*
X134122900Y-49762193D01*
X134151725Y-49754145D01*
X134157214Y-49751372D01*
X134157220Y-49751370D01*
X134330116Y-49664033D01*
X134335610Y-49661258D01*
X134351345Y-49648965D01*
X134493101Y-49538213D01*
X134497951Y-49534424D01*
X134509316Y-49521258D01*
X134628540Y-49383134D01*
X134628540Y-49383133D01*
X134632564Y-49378472D01*
X134653387Y-49341818D01*
X134671056Y-49310714D01*
X134734323Y-49199344D01*
X134799351Y-49003863D01*
X134825171Y-48799474D01*
X134825583Y-48770000D01*
X134824138Y-48755262D01*
X135254520Y-48755262D01*
X135255036Y-48761406D01*
X135264645Y-48875831D01*
X135271759Y-48960553D01*
X135273458Y-48966478D01*
X135319395Y-49126678D01*
X135328544Y-49158586D01*
X135331359Y-49164063D01*
X135331360Y-49164066D01*
X135419897Y-49336341D01*
X135422712Y-49341818D01*
X135550677Y-49503270D01*
X135555370Y-49507264D01*
X135555371Y-49507265D01*
X135629541Y-49570388D01*
X135707564Y-49636791D01*
X135712942Y-49639797D01*
X135712944Y-49639798D01*
X135743387Y-49656812D01*
X135887398Y-49737297D01*
X135964020Y-49762193D01*
X136077471Y-49799056D01*
X136077475Y-49799057D01*
X136083329Y-49800959D01*
X136287894Y-49825351D01*
X136294029Y-49824879D01*
X136294031Y-49824879D01*
X136366625Y-49819293D01*
X136493300Y-49809546D01*
X136499230Y-49807890D01*
X136499232Y-49807890D01*
X136662900Y-49762193D01*
X136691725Y-49754145D01*
X136697214Y-49751372D01*
X136697220Y-49751370D01*
X136870116Y-49664033D01*
X136875610Y-49661258D01*
X136891345Y-49648965D01*
X137033101Y-49538213D01*
X137037951Y-49534424D01*
X137049316Y-49521258D01*
X137168540Y-49383134D01*
X137168540Y-49383133D01*
X137172564Y-49378472D01*
X137193387Y-49341818D01*
X137211056Y-49310714D01*
X137274323Y-49199344D01*
X137283271Y-49172444D01*
X137298496Y-49126678D01*
X137338978Y-49068354D01*
X137404566Y-49041175D01*
X137474437Y-49053770D01*
X137526406Y-49102141D01*
X137540971Y-49138751D01*
X137548564Y-49172444D01*
X137551645Y-49182275D01*
X137631770Y-49379603D01*
X137636413Y-49388794D01*
X137747694Y-49570388D01*
X137753777Y-49578699D01*
X137893213Y-49739667D01*
X137900580Y-49746883D01*
X138064434Y-49882916D01*
X138072881Y-49888831D01*
X138256756Y-49996279D01*
X138266042Y-50000729D01*
X138465001Y-50076703D01*
X138474899Y-50079579D01*
X138578250Y-50100606D01*
X138592299Y-50099410D01*
X138596000Y-50089065D01*
X138596000Y-48642000D01*
X138616002Y-48573879D01*
X138669658Y-48527386D01*
X138722000Y-48516000D01*
X138978000Y-48516000D01*
X139046121Y-48536002D01*
X139092614Y-48589658D01*
X139104000Y-48642000D01*
X139104000Y-50088517D01*
X139108064Y-50102359D01*
X139121478Y-50104393D01*
X139128184Y-50103534D01*
X139138262Y-50101392D01*
X139342255Y-50040191D01*
X139351842Y-50036433D01*
X139543095Y-49942739D01*
X139551945Y-49937464D01*
X139725328Y-49813792D01*
X139733200Y-49807139D01*
X139884052Y-49656812D01*
X139890730Y-49648965D01*
X140015003Y-49476020D01*
X140020313Y-49467183D01*
X140114670Y-49276267D01*
X140118469Y-49266672D01*
X140159593Y-49131319D01*
X140198534Y-49071955D01*
X140263388Y-49043068D01*
X140333564Y-49053830D01*
X140386782Y-49100823D01*
X140401270Y-49133217D01*
X140408544Y-49158586D01*
X140411359Y-49164063D01*
X140411360Y-49164066D01*
X140499897Y-49336341D01*
X140502712Y-49341818D01*
X140630677Y-49503270D01*
X140635370Y-49507264D01*
X140635371Y-49507265D01*
X140709541Y-49570388D01*
X140787564Y-49636791D01*
X140792942Y-49639797D01*
X140792944Y-49639798D01*
X140823387Y-49656812D01*
X140967398Y-49737297D01*
X141044020Y-49762193D01*
X141157471Y-49799056D01*
X141157475Y-49799057D01*
X141163329Y-49800959D01*
X141367894Y-49825351D01*
X141374029Y-49824879D01*
X141374031Y-49824879D01*
X141446625Y-49819293D01*
X141573300Y-49809546D01*
X141579230Y-49807890D01*
X141579232Y-49807890D01*
X141742900Y-49762193D01*
X141771725Y-49754145D01*
X141777214Y-49751372D01*
X141777220Y-49751370D01*
X141950116Y-49664033D01*
X141955610Y-49661258D01*
X141971345Y-49648965D01*
X142113101Y-49538213D01*
X142117951Y-49534424D01*
X142129316Y-49521258D01*
X142248540Y-49383134D01*
X142248540Y-49383133D01*
X142252564Y-49378472D01*
X142273387Y-49341818D01*
X142291056Y-49310714D01*
X142354323Y-49199344D01*
X142419351Y-49003863D01*
X142445171Y-48799474D01*
X142445583Y-48770000D01*
X142425480Y-48564970D01*
X142365935Y-48367749D01*
X142269218Y-48185849D01*
X142165752Y-48058987D01*
X142142906Y-48030975D01*
X142142903Y-48030972D01*
X142139011Y-48026200D01*
X142039546Y-47943915D01*
X141985025Y-47898811D01*
X141985021Y-47898809D01*
X141980275Y-47894882D01*
X141799055Y-47796897D01*
X141602254Y-47735977D01*
X141596129Y-47735333D01*
X141596128Y-47735333D01*
X141403498Y-47715087D01*
X141403496Y-47715087D01*
X141397369Y-47714443D01*
X141310529Y-47722346D01*
X141198342Y-47732555D01*
X141198339Y-47732556D01*
X141192203Y-47733114D01*
X140994572Y-47791280D01*
X140989107Y-47794137D01*
X140987313Y-47795075D01*
X140812002Y-47886726D01*
X140807201Y-47890586D01*
X140807198Y-47890588D01*
X140752263Y-47934757D01*
X140651447Y-48015815D01*
X140519024Y-48173630D01*
X140516056Y-48179028D01*
X140516053Y-48179033D01*
X140435190Y-48326124D01*
X140419776Y-48354162D01*
X140417914Y-48360032D01*
X140401068Y-48413138D01*
X140361405Y-48472022D01*
X140296202Y-48500114D01*
X140226163Y-48488497D01*
X140173523Y-48440857D01*
X140158762Y-48405735D01*
X140141214Y-48335875D01*
X140137894Y-48326124D01*
X140052972Y-48130814D01*
X140048105Y-48121739D01*
X139932426Y-47942926D01*
X139926136Y-47934757D01*
X139782806Y-47777240D01*
X139775273Y-47770215D01*
X139608139Y-47638222D01*
X139599552Y-47632517D01*
X139413117Y-47529599D01*
X139403705Y-47525369D01*
X139212031Y-47457493D01*
X139154495Y-47415899D01*
X139128579Y-47349801D01*
X139142513Y-47280185D01*
X139191872Y-47229154D01*
X139220206Y-47217362D01*
X139225790Y-47215803D01*
X139225799Y-47215800D01*
X139231725Y-47214145D01*
X139237214Y-47211372D01*
X139237220Y-47211370D01*
X139410116Y-47124033D01*
X139415610Y-47121258D01*
X139423568Y-47115041D01*
X139531919Y-47030388D01*
X139577951Y-46994424D01*
X139586314Y-46984736D01*
X139708540Y-46843134D01*
X139708540Y-46843133D01*
X139712564Y-46838472D01*
X139715902Y-46832597D01*
X139751056Y-46770714D01*
X139814323Y-46659344D01*
X139879351Y-46463863D01*
X139905171Y-46259474D01*
X139905583Y-46230000D01*
X139904138Y-46215262D01*
X140334520Y-46215262D01*
X140335036Y-46221406D01*
X140350902Y-46410342D01*
X140351759Y-46420553D01*
X140353458Y-46426478D01*
X140399395Y-46586678D01*
X140408544Y-46618586D01*
X140411359Y-46624063D01*
X140411360Y-46624066D01*
X140499897Y-46796341D01*
X140502712Y-46801818D01*
X140630677Y-46963270D01*
X140635370Y-46967264D01*
X140635371Y-46967265D01*
X140739735Y-47056085D01*
X140787564Y-47096791D01*
X140792942Y-47099797D01*
X140792944Y-47099798D01*
X140824563Y-47117469D01*
X140967398Y-47197297D01*
X141062238Y-47228113D01*
X141157471Y-47259056D01*
X141157475Y-47259057D01*
X141163329Y-47260959D01*
X141367894Y-47285351D01*
X141374029Y-47284879D01*
X141374031Y-47284879D01*
X141430039Y-47280569D01*
X141573300Y-47269546D01*
X141579230Y-47267890D01*
X141579232Y-47267890D01*
X141717768Y-47229210D01*
X141771725Y-47214145D01*
X141777214Y-47211372D01*
X141777220Y-47211370D01*
X141950116Y-47124033D01*
X141955610Y-47121258D01*
X141963568Y-47115041D01*
X142071919Y-47030388D01*
X142117951Y-46994424D01*
X142126314Y-46984736D01*
X142248540Y-46843134D01*
X142248540Y-46843133D01*
X142252564Y-46838472D01*
X142255902Y-46832597D01*
X142291056Y-46770714D01*
X142354323Y-46659344D01*
X142363271Y-46632444D01*
X142378496Y-46586678D01*
X142418978Y-46528354D01*
X142484566Y-46501175D01*
X142554437Y-46513770D01*
X142606406Y-46562141D01*
X142620971Y-46598751D01*
X142628564Y-46632444D01*
X142631645Y-46642275D01*
X142711770Y-46839603D01*
X142716413Y-46848794D01*
X142827694Y-47030388D01*
X142833777Y-47038699D01*
X142973213Y-47199667D01*
X142980580Y-47206883D01*
X143144434Y-47342916D01*
X143152881Y-47348831D01*
X143336756Y-47456279D01*
X143346042Y-47460729D01*
X143545001Y-47536703D01*
X143559866Y-47541022D01*
X143559289Y-47543008D01*
X143614260Y-47572082D01*
X143649110Y-47633936D01*
X143644988Y-47704813D01*
X143603201Y-47762209D01*
X143561930Y-47783228D01*
X143540489Y-47789538D01*
X143540484Y-47789540D01*
X143534572Y-47791280D01*
X143529107Y-47794137D01*
X143527313Y-47795075D01*
X143352002Y-47886726D01*
X143347201Y-47890586D01*
X143347198Y-47890588D01*
X143292263Y-47934757D01*
X143191447Y-48015815D01*
X143059024Y-48173630D01*
X143056056Y-48179028D01*
X143056053Y-48179033D01*
X142975190Y-48326124D01*
X142959776Y-48354162D01*
X142897484Y-48550532D01*
X142896798Y-48556649D01*
X142896797Y-48556653D01*
X142885309Y-48659073D01*
X142874520Y-48755262D01*
X142875036Y-48761406D01*
X142884645Y-48875831D01*
X142891759Y-48960553D01*
X142893458Y-48966478D01*
X142939395Y-49126678D01*
X142948544Y-49158586D01*
X142951359Y-49164063D01*
X142951360Y-49164066D01*
X143039897Y-49336341D01*
X143042712Y-49341818D01*
X143170677Y-49503270D01*
X143175370Y-49507264D01*
X143175371Y-49507265D01*
X143249541Y-49570388D01*
X143327564Y-49636791D01*
X143332942Y-49639797D01*
X143332944Y-49639798D01*
X143363387Y-49656812D01*
X143507398Y-49737297D01*
X143584020Y-49762193D01*
X143697471Y-49799056D01*
X143697475Y-49799057D01*
X143703329Y-49800959D01*
X143907894Y-49825351D01*
X143914029Y-49824879D01*
X143914031Y-49824879D01*
X143986625Y-49819293D01*
X144113300Y-49809546D01*
X144119230Y-49807890D01*
X144119232Y-49807890D01*
X144282900Y-49762193D01*
X144311725Y-49754145D01*
X144317214Y-49751372D01*
X144317220Y-49751370D01*
X144490116Y-49664033D01*
X144495610Y-49661258D01*
X144511345Y-49648965D01*
X144653101Y-49538213D01*
X144657951Y-49534424D01*
X144669316Y-49521258D01*
X144788540Y-49383134D01*
X144788540Y-49383133D01*
X144792564Y-49378472D01*
X144813387Y-49341818D01*
X144831056Y-49310714D01*
X144894323Y-49199344D01*
X144959351Y-49003863D01*
X144985171Y-48799474D01*
X144985583Y-48770000D01*
X144984138Y-48755262D01*
X145414520Y-48755262D01*
X145415036Y-48761406D01*
X145424645Y-48875831D01*
X145431759Y-48960553D01*
X145433458Y-48966478D01*
X145479395Y-49126678D01*
X145488544Y-49158586D01*
X145491359Y-49164063D01*
X145491360Y-49164066D01*
X145579897Y-49336341D01*
X145582712Y-49341818D01*
X145710677Y-49503270D01*
X145715370Y-49507264D01*
X145715371Y-49507265D01*
X145789541Y-49570388D01*
X145867564Y-49636791D01*
X145872942Y-49639797D01*
X145872944Y-49639798D01*
X145903387Y-49656812D01*
X146047398Y-49737297D01*
X146124020Y-49762193D01*
X146237471Y-49799056D01*
X146237475Y-49799057D01*
X146243329Y-49800959D01*
X146447894Y-49825351D01*
X146454029Y-49824879D01*
X146454031Y-49824879D01*
X146526625Y-49819293D01*
X146653300Y-49809546D01*
X146659230Y-49807890D01*
X146659232Y-49807890D01*
X146822900Y-49762193D01*
X146851725Y-49754145D01*
X146857214Y-49751372D01*
X146857220Y-49751370D01*
X147030116Y-49664033D01*
X147035610Y-49661258D01*
X147051345Y-49648965D01*
X147193101Y-49538213D01*
X147197951Y-49534424D01*
X147209316Y-49521258D01*
X147328540Y-49383134D01*
X147328540Y-49383133D01*
X147332564Y-49378472D01*
X147353387Y-49341818D01*
X147371056Y-49310714D01*
X147434323Y-49199344D01*
X147499351Y-49003863D01*
X147525171Y-48799474D01*
X147525583Y-48770000D01*
X147505480Y-48564970D01*
X147445935Y-48367749D01*
X147349218Y-48185849D01*
X147245752Y-48058987D01*
X147222906Y-48030975D01*
X147222903Y-48030972D01*
X147219011Y-48026200D01*
X147119546Y-47943915D01*
X147065025Y-47898811D01*
X147065021Y-47898809D01*
X147060275Y-47894882D01*
X146879055Y-47796897D01*
X146682254Y-47735977D01*
X146676129Y-47735333D01*
X146676128Y-47735333D01*
X146483498Y-47715087D01*
X146483496Y-47715087D01*
X146477369Y-47714443D01*
X146390529Y-47722346D01*
X146278342Y-47732555D01*
X146278339Y-47732556D01*
X146272203Y-47733114D01*
X146074572Y-47791280D01*
X146069107Y-47794137D01*
X146067313Y-47795075D01*
X145892002Y-47886726D01*
X145887201Y-47890586D01*
X145887198Y-47890588D01*
X145832263Y-47934757D01*
X145731447Y-48015815D01*
X145599024Y-48173630D01*
X145596056Y-48179028D01*
X145596053Y-48179033D01*
X145515190Y-48326124D01*
X145499776Y-48354162D01*
X145437484Y-48550532D01*
X145436798Y-48556649D01*
X145436797Y-48556653D01*
X145425309Y-48659073D01*
X145414520Y-48755262D01*
X144984138Y-48755262D01*
X144965480Y-48564970D01*
X144905935Y-48367749D01*
X144809218Y-48185849D01*
X144705752Y-48058987D01*
X144682906Y-48030975D01*
X144682903Y-48030972D01*
X144679011Y-48026200D01*
X144579546Y-47943915D01*
X144525025Y-47898811D01*
X144525021Y-47898809D01*
X144520275Y-47894882D01*
X144339055Y-47796897D01*
X144288183Y-47781150D01*
X144229025Y-47741899D01*
X144200477Y-47676895D01*
X144211605Y-47606776D01*
X144258876Y-47553804D01*
X144289235Y-47540099D01*
X144422255Y-47500191D01*
X144431842Y-47496433D01*
X144623095Y-47402739D01*
X144631945Y-47397464D01*
X144805328Y-47273792D01*
X144813200Y-47267139D01*
X144964052Y-47116812D01*
X144970730Y-47108965D01*
X145095003Y-46936020D01*
X145100313Y-46927183D01*
X145194670Y-46736267D01*
X145198469Y-46726672D01*
X145239593Y-46591319D01*
X145278534Y-46531955D01*
X145343388Y-46503068D01*
X145413564Y-46513830D01*
X145466782Y-46560823D01*
X145481270Y-46593217D01*
X145488544Y-46618586D01*
X145491359Y-46624063D01*
X145491360Y-46624066D01*
X145579897Y-46796341D01*
X145582712Y-46801818D01*
X145710677Y-46963270D01*
X145715370Y-46967264D01*
X145715371Y-46967265D01*
X145819735Y-47056085D01*
X145867564Y-47096791D01*
X145872942Y-47099797D01*
X145872944Y-47099798D01*
X145904563Y-47117469D01*
X146047398Y-47197297D01*
X146142238Y-47228113D01*
X146237471Y-47259056D01*
X146237475Y-47259057D01*
X146243329Y-47260959D01*
X146447894Y-47285351D01*
X146454029Y-47284879D01*
X146454031Y-47284879D01*
X146510039Y-47280569D01*
X146653300Y-47269546D01*
X146659230Y-47267890D01*
X146659232Y-47267890D01*
X146797768Y-47229210D01*
X146851725Y-47214145D01*
X146857214Y-47211372D01*
X146857220Y-47211370D01*
X147030116Y-47124033D01*
X147035610Y-47121258D01*
X147043568Y-47115041D01*
X147151919Y-47030388D01*
X147197951Y-46994424D01*
X147206314Y-46984736D01*
X147328540Y-46843134D01*
X147328540Y-46843133D01*
X147332564Y-46838472D01*
X147335902Y-46832597D01*
X147371056Y-46770714D01*
X147434323Y-46659344D01*
X147443271Y-46632444D01*
X147458496Y-46586678D01*
X147498978Y-46528354D01*
X147564566Y-46501175D01*
X147634437Y-46513770D01*
X147686406Y-46562141D01*
X147700971Y-46598751D01*
X147708564Y-46632444D01*
X147711645Y-46642275D01*
X147791770Y-46839603D01*
X147796413Y-46848794D01*
X147907694Y-47030388D01*
X147913777Y-47038699D01*
X148053213Y-47199667D01*
X148060580Y-47206883D01*
X148224434Y-47342916D01*
X148232881Y-47348831D01*
X148416756Y-47456279D01*
X148426042Y-47460729D01*
X148625001Y-47536703D01*
X148639866Y-47541022D01*
X148639289Y-47543008D01*
X148694260Y-47572082D01*
X148729110Y-47633936D01*
X148724988Y-47704813D01*
X148683201Y-47762209D01*
X148641930Y-47783228D01*
X148620489Y-47789538D01*
X148620484Y-47789540D01*
X148614572Y-47791280D01*
X148609107Y-47794137D01*
X148607313Y-47795075D01*
X148432002Y-47886726D01*
X148427201Y-47890586D01*
X148427198Y-47890588D01*
X148372263Y-47934757D01*
X148271447Y-48015815D01*
X148139024Y-48173630D01*
X148136056Y-48179028D01*
X148136053Y-48179033D01*
X148055190Y-48326124D01*
X148039776Y-48354162D01*
X147977484Y-48550532D01*
X147976798Y-48556649D01*
X147976797Y-48556653D01*
X147965309Y-48659073D01*
X147954520Y-48755262D01*
X147955036Y-48761406D01*
X147964645Y-48875831D01*
X147971759Y-48960553D01*
X147973458Y-48966478D01*
X148019395Y-49126678D01*
X148028544Y-49158586D01*
X148031359Y-49164063D01*
X148031360Y-49164066D01*
X148119897Y-49336341D01*
X148122712Y-49341818D01*
X148250677Y-49503270D01*
X148255370Y-49507264D01*
X148255371Y-49507265D01*
X148329541Y-49570388D01*
X148407564Y-49636791D01*
X148412942Y-49639797D01*
X148412944Y-49639798D01*
X148443387Y-49656812D01*
X148587398Y-49737297D01*
X148664020Y-49762193D01*
X148777471Y-49799056D01*
X148777475Y-49799057D01*
X148783329Y-49800959D01*
X148987894Y-49825351D01*
X148994029Y-49824879D01*
X148994031Y-49824879D01*
X149066625Y-49819293D01*
X149193300Y-49809546D01*
X149199230Y-49807890D01*
X149199232Y-49807890D01*
X149362900Y-49762193D01*
X149391725Y-49754145D01*
X149397214Y-49751372D01*
X149397220Y-49751370D01*
X149570116Y-49664033D01*
X149575610Y-49661258D01*
X149591345Y-49648965D01*
X149733101Y-49538213D01*
X149737951Y-49534424D01*
X149749316Y-49521258D01*
X149868540Y-49383134D01*
X149868540Y-49383133D01*
X149872564Y-49378472D01*
X149893387Y-49341818D01*
X149911056Y-49310714D01*
X149974323Y-49199344D01*
X150039351Y-49003863D01*
X150065171Y-48799474D01*
X150065583Y-48770000D01*
X150064138Y-48755262D01*
X150494520Y-48755262D01*
X150495036Y-48761406D01*
X150504645Y-48875831D01*
X150511759Y-48960553D01*
X150513458Y-48966478D01*
X150559395Y-49126678D01*
X150568544Y-49158586D01*
X150571359Y-49164063D01*
X150571360Y-49164066D01*
X150659897Y-49336341D01*
X150662712Y-49341818D01*
X150790677Y-49503270D01*
X150795370Y-49507264D01*
X150795371Y-49507265D01*
X150869541Y-49570388D01*
X150947564Y-49636791D01*
X150952942Y-49639797D01*
X150952944Y-49639798D01*
X150983387Y-49656812D01*
X151127398Y-49737297D01*
X151204020Y-49762193D01*
X151317471Y-49799056D01*
X151317475Y-49799057D01*
X151323329Y-49800959D01*
X151527894Y-49825351D01*
X151534029Y-49824879D01*
X151534031Y-49824879D01*
X151606625Y-49819293D01*
X151733300Y-49809546D01*
X151739230Y-49807890D01*
X151739232Y-49807890D01*
X151902900Y-49762193D01*
X151931725Y-49754145D01*
X151937214Y-49751372D01*
X151937220Y-49751370D01*
X152110116Y-49664033D01*
X152115610Y-49661258D01*
X152131345Y-49648965D01*
X152273101Y-49538213D01*
X152277951Y-49534424D01*
X152289316Y-49521258D01*
X152408540Y-49383134D01*
X152408540Y-49383133D01*
X152412564Y-49378472D01*
X152433387Y-49341818D01*
X152451056Y-49310714D01*
X152514323Y-49199344D01*
X152579351Y-49003863D01*
X152605171Y-48799474D01*
X152605583Y-48770000D01*
X152604138Y-48755262D01*
X153034520Y-48755262D01*
X153035036Y-48761406D01*
X153044645Y-48875831D01*
X153051759Y-48960553D01*
X153053458Y-48966478D01*
X153099395Y-49126678D01*
X153108544Y-49158586D01*
X153111359Y-49164063D01*
X153111360Y-49164066D01*
X153199897Y-49336341D01*
X153202712Y-49341818D01*
X153330677Y-49503270D01*
X153335370Y-49507264D01*
X153335371Y-49507265D01*
X153409541Y-49570388D01*
X153487564Y-49636791D01*
X153492942Y-49639797D01*
X153492944Y-49639798D01*
X153523387Y-49656812D01*
X153667398Y-49737297D01*
X153744020Y-49762193D01*
X153857471Y-49799056D01*
X153857475Y-49799057D01*
X153863329Y-49800959D01*
X154067894Y-49825351D01*
X154074029Y-49824879D01*
X154074031Y-49824879D01*
X154146625Y-49819293D01*
X154273300Y-49809546D01*
X154279230Y-49807890D01*
X154279232Y-49807890D01*
X154442900Y-49762193D01*
X154471725Y-49754145D01*
X154477214Y-49751372D01*
X154477220Y-49751370D01*
X154650116Y-49664033D01*
X154655610Y-49661258D01*
X154671345Y-49648965D01*
X154813101Y-49538213D01*
X154817951Y-49534424D01*
X154829316Y-49521258D01*
X154948540Y-49383134D01*
X154948540Y-49383133D01*
X154952564Y-49378472D01*
X154973387Y-49341818D01*
X154991056Y-49310714D01*
X155054323Y-49199344D01*
X155063271Y-49172444D01*
X155078496Y-49126678D01*
X155118978Y-49068354D01*
X155184566Y-49041175D01*
X155254437Y-49053770D01*
X155306406Y-49102141D01*
X155320971Y-49138751D01*
X155328564Y-49172444D01*
X155331645Y-49182275D01*
X155411770Y-49379603D01*
X155416413Y-49388794D01*
X155527694Y-49570388D01*
X155533777Y-49578699D01*
X155673213Y-49739667D01*
X155680580Y-49746883D01*
X155844434Y-49882916D01*
X155852881Y-49888831D01*
X156036756Y-49996279D01*
X156046042Y-50000729D01*
X156245001Y-50076703D01*
X156254899Y-50079579D01*
X156358250Y-50100606D01*
X156372299Y-50099410D01*
X156376000Y-50089065D01*
X156376000Y-50088517D01*
X156884000Y-50088517D01*
X156888064Y-50102359D01*
X156901478Y-50104393D01*
X156908184Y-50103534D01*
X156918262Y-50101392D01*
X157122255Y-50040191D01*
X157131842Y-50036433D01*
X157323095Y-49942739D01*
X157331945Y-49937464D01*
X157505328Y-49813792D01*
X157513200Y-49807139D01*
X157664052Y-49656812D01*
X157670730Y-49648965D01*
X157795003Y-49476020D01*
X157800313Y-49467183D01*
X157894670Y-49276267D01*
X157898469Y-49266672D01*
X157960377Y-49062910D01*
X157962555Y-49052837D01*
X157963986Y-49041962D01*
X157961775Y-49027778D01*
X157948617Y-49024000D01*
X156902115Y-49024000D01*
X156886876Y-49028475D01*
X156885671Y-49029865D01*
X156884000Y-49037548D01*
X156884000Y-50088517D01*
X156376000Y-50088517D01*
X156376000Y-48642000D01*
X156396002Y-48573879D01*
X156449658Y-48527386D01*
X156502000Y-48516000D01*
X157948344Y-48516000D01*
X157961875Y-48512027D01*
X157963180Y-48502947D01*
X157921214Y-48335875D01*
X157917894Y-48326124D01*
X157832972Y-48130814D01*
X157828105Y-48121739D01*
X157712426Y-47942926D01*
X157706136Y-47934757D01*
X157562806Y-47777240D01*
X157555273Y-47770215D01*
X157388139Y-47638222D01*
X157379552Y-47632517D01*
X157237841Y-47554288D01*
X159945404Y-47554288D01*
X159945985Y-47559308D01*
X159945985Y-47559312D01*
X159966108Y-47733233D01*
X159974081Y-47802140D01*
X159975460Y-47807011D01*
X159975460Y-47807014D01*
X160000799Y-47896558D01*
X160042017Y-48042219D01*
X160078170Y-48119749D01*
X160139341Y-48250932D01*
X160147462Y-48268348D01*
X160287706Y-48474710D01*
X160381486Y-48573879D01*
X160445905Y-48642000D01*
X160459138Y-48655994D01*
X160657349Y-48807538D01*
X160877239Y-48925443D01*
X161113152Y-49006674D01*
X161235332Y-49027778D01*
X161355107Y-49048467D01*
X161355113Y-49048468D01*
X161359017Y-49049142D01*
X161362978Y-49049322D01*
X161362979Y-49049322D01*
X161387503Y-49050436D01*
X161387522Y-49050436D01*
X161388922Y-49050500D01*
X161562691Y-49050500D01*
X161565199Y-49050298D01*
X161565204Y-49050298D01*
X161743661Y-49035940D01*
X161743666Y-49035939D01*
X161748702Y-49035534D01*
X161753610Y-49034329D01*
X161753613Y-49034328D01*
X161986092Y-48977225D01*
X161991006Y-48976018D01*
X161995658Y-48974043D01*
X161995662Y-48974042D01*
X162216022Y-48880505D01*
X162216023Y-48880505D01*
X162220677Y-48878529D01*
X162431808Y-48745573D01*
X162529923Y-48659073D01*
X162615168Y-48583920D01*
X162615171Y-48583917D01*
X162618965Y-48580572D01*
X162777334Y-48387770D01*
X162902840Y-48172128D01*
X162929905Y-48101623D01*
X162990443Y-47943915D01*
X162992255Y-47939195D01*
X162998623Y-47908717D01*
X163042243Y-47699915D01*
X163043278Y-47694961D01*
X163043803Y-47683415D01*
X163053914Y-47460729D01*
X163054596Y-47445712D01*
X163047821Y-47387152D01*
X163026501Y-47202890D01*
X163025919Y-47197860D01*
X163007921Y-47134255D01*
X162969424Y-46998213D01*
X162957983Y-46957781D01*
X162852538Y-46731652D01*
X162712294Y-46525290D01*
X162560616Y-46364895D01*
X162544344Y-46347688D01*
X162544343Y-46347687D01*
X162540862Y-46344006D01*
X162531537Y-46336876D01*
X162346677Y-46195540D01*
X162346676Y-46195539D01*
X162342651Y-46192462D01*
X162122761Y-46074557D01*
X161886848Y-45993326D01*
X161758901Y-45971226D01*
X161644893Y-45951533D01*
X161644887Y-45951532D01*
X161640983Y-45950858D01*
X161637022Y-45950678D01*
X161637021Y-45950678D01*
X161612497Y-45949564D01*
X161612478Y-45949564D01*
X161611078Y-45949500D01*
X161437309Y-45949500D01*
X161434801Y-45949702D01*
X161434796Y-45949702D01*
X161256339Y-45964060D01*
X161256334Y-45964061D01*
X161251298Y-45964466D01*
X161246390Y-45965671D01*
X161246387Y-45965672D01*
X161063752Y-46010532D01*
X161008994Y-46023982D01*
X161004342Y-46025957D01*
X161004338Y-46025958D01*
X160783978Y-46119495D01*
X160779323Y-46121471D01*
X160568192Y-46254427D01*
X160564398Y-46257772D01*
X160384832Y-46416080D01*
X160384829Y-46416083D01*
X160381035Y-46419428D01*
X160222666Y-46612230D01*
X160097160Y-46827872D01*
X160007745Y-47060805D01*
X160006712Y-47065751D01*
X160006710Y-47065757D01*
X159974816Y-47218429D01*
X159956722Y-47305039D01*
X159956493Y-47310088D01*
X159956492Y-47310094D01*
X159955002Y-47342916D01*
X159945404Y-47554288D01*
X157237841Y-47554288D01*
X157193117Y-47529599D01*
X157183705Y-47525369D01*
X156992031Y-47457493D01*
X156934495Y-47415899D01*
X156908579Y-47349801D01*
X156922513Y-47280185D01*
X156971872Y-47229154D01*
X157000206Y-47217362D01*
X157005790Y-47215803D01*
X157005799Y-47215800D01*
X157011725Y-47214145D01*
X157017214Y-47211372D01*
X157017220Y-47211370D01*
X157190116Y-47124033D01*
X157195610Y-47121258D01*
X157203568Y-47115041D01*
X157311919Y-47030388D01*
X157357951Y-46994424D01*
X157366314Y-46984736D01*
X157488540Y-46843134D01*
X157488540Y-46843133D01*
X157492564Y-46838472D01*
X157495902Y-46832597D01*
X157531056Y-46770714D01*
X157594323Y-46659344D01*
X157659351Y-46463863D01*
X157685171Y-46259474D01*
X157685583Y-46230000D01*
X157665480Y-46024970D01*
X157605935Y-45827749D01*
X157509218Y-45645849D01*
X157433206Y-45552649D01*
X157382906Y-45490975D01*
X157382903Y-45490972D01*
X157379011Y-45486200D01*
X157366458Y-45475815D01*
X157225025Y-45358811D01*
X157225021Y-45358809D01*
X157220275Y-45354882D01*
X157039055Y-45256897D01*
X156842254Y-45195977D01*
X156836129Y-45195333D01*
X156836128Y-45195333D01*
X156643498Y-45175087D01*
X156643496Y-45175087D01*
X156637369Y-45174443D01*
X156550529Y-45182346D01*
X156438342Y-45192555D01*
X156438339Y-45192556D01*
X156432203Y-45193114D01*
X156234572Y-45251280D01*
X156052002Y-45346726D01*
X156047201Y-45350586D01*
X156047198Y-45350588D01*
X155939764Y-45436967D01*
X155891447Y-45475815D01*
X155759024Y-45633630D01*
X155756056Y-45639028D01*
X155756053Y-45639033D01*
X155749315Y-45651290D01*
X155659776Y-45814162D01*
X155597484Y-46010532D01*
X155596798Y-46016649D01*
X155596797Y-46016653D01*
X155577346Y-46190069D01*
X155574520Y-46215262D01*
X155575036Y-46221406D01*
X155590902Y-46410342D01*
X155591759Y-46420553D01*
X155593458Y-46426478D01*
X155639395Y-46586678D01*
X155648544Y-46618586D01*
X155651359Y-46624063D01*
X155651360Y-46624066D01*
X155739897Y-46796341D01*
X155742712Y-46801818D01*
X155870677Y-46963270D01*
X155875370Y-46967264D01*
X155875371Y-46967265D01*
X155979735Y-47056085D01*
X156027564Y-47096791D01*
X156032942Y-47099797D01*
X156032944Y-47099798D01*
X156064563Y-47117469D01*
X156207398Y-47197297D01*
X156272437Y-47218429D01*
X156331042Y-47258502D01*
X156358680Y-47323898D01*
X156346574Y-47393855D01*
X156298568Y-47446162D01*
X156272646Y-47458027D01*
X156106868Y-47512212D01*
X156097359Y-47516209D01*
X155908463Y-47614542D01*
X155899738Y-47620036D01*
X155729433Y-47747905D01*
X155721726Y-47754748D01*
X155574590Y-47908717D01*
X155568104Y-47916727D01*
X155448098Y-48092649D01*
X155443000Y-48101623D01*
X155353338Y-48294783D01*
X155349775Y-48304470D01*
X155321012Y-48408185D01*
X155283533Y-48468483D01*
X155219405Y-48498946D01*
X155148986Y-48489903D01*
X155094636Y-48444224D01*
X155078973Y-48410933D01*
X155078143Y-48408185D01*
X155065935Y-48367749D01*
X154969218Y-48185849D01*
X154865752Y-48058987D01*
X154842906Y-48030975D01*
X154842903Y-48030972D01*
X154839011Y-48026200D01*
X154739546Y-47943915D01*
X154685025Y-47898811D01*
X154685021Y-47898809D01*
X154680275Y-47894882D01*
X154499055Y-47796897D01*
X154302254Y-47735977D01*
X154296129Y-47735333D01*
X154296128Y-47735333D01*
X154103498Y-47715087D01*
X154103496Y-47715087D01*
X154097369Y-47714443D01*
X154010529Y-47722346D01*
X153898342Y-47732555D01*
X153898339Y-47732556D01*
X153892203Y-47733114D01*
X153694572Y-47791280D01*
X153689107Y-47794137D01*
X153687313Y-47795075D01*
X153512002Y-47886726D01*
X153507201Y-47890586D01*
X153507198Y-47890588D01*
X153452263Y-47934757D01*
X153351447Y-48015815D01*
X153219024Y-48173630D01*
X153216056Y-48179028D01*
X153216053Y-48179033D01*
X153135190Y-48326124D01*
X153119776Y-48354162D01*
X153057484Y-48550532D01*
X153056798Y-48556649D01*
X153056797Y-48556653D01*
X153045309Y-48659073D01*
X153034520Y-48755262D01*
X152604138Y-48755262D01*
X152585480Y-48564970D01*
X152525935Y-48367749D01*
X152429218Y-48185849D01*
X152325752Y-48058987D01*
X152302906Y-48030975D01*
X152302903Y-48030972D01*
X152299011Y-48026200D01*
X152199546Y-47943915D01*
X152145025Y-47898811D01*
X152145021Y-47898809D01*
X152140275Y-47894882D01*
X151959055Y-47796897D01*
X151762254Y-47735977D01*
X151756129Y-47735333D01*
X151756128Y-47735333D01*
X151563498Y-47715087D01*
X151563496Y-47715087D01*
X151557369Y-47714443D01*
X151470529Y-47722346D01*
X151358342Y-47732555D01*
X151358339Y-47732556D01*
X151352203Y-47733114D01*
X151154572Y-47791280D01*
X151149107Y-47794137D01*
X151147313Y-47795075D01*
X150972002Y-47886726D01*
X150967201Y-47890586D01*
X150967198Y-47890588D01*
X150912263Y-47934757D01*
X150811447Y-48015815D01*
X150679024Y-48173630D01*
X150676056Y-48179028D01*
X150676053Y-48179033D01*
X150595190Y-48326124D01*
X150579776Y-48354162D01*
X150517484Y-48550532D01*
X150516798Y-48556649D01*
X150516797Y-48556653D01*
X150505309Y-48659073D01*
X150494520Y-48755262D01*
X150064138Y-48755262D01*
X150045480Y-48564970D01*
X149985935Y-48367749D01*
X149889218Y-48185849D01*
X149785752Y-48058987D01*
X149762906Y-48030975D01*
X149762903Y-48030972D01*
X149759011Y-48026200D01*
X149659546Y-47943915D01*
X149605025Y-47898811D01*
X149605021Y-47898809D01*
X149600275Y-47894882D01*
X149419055Y-47796897D01*
X149368183Y-47781150D01*
X149309025Y-47741899D01*
X149280477Y-47676895D01*
X149291605Y-47606776D01*
X149338876Y-47553804D01*
X149369235Y-47540099D01*
X149502255Y-47500191D01*
X149511842Y-47496433D01*
X149703095Y-47402739D01*
X149711945Y-47397464D01*
X149885328Y-47273792D01*
X149893200Y-47267139D01*
X150044052Y-47116812D01*
X150050730Y-47108965D01*
X150175003Y-46936020D01*
X150180313Y-46927183D01*
X150274670Y-46736267D01*
X150278469Y-46726672D01*
X150319593Y-46591319D01*
X150358534Y-46531955D01*
X150423388Y-46503068D01*
X150493564Y-46513830D01*
X150546782Y-46560823D01*
X150561270Y-46593217D01*
X150568544Y-46618586D01*
X150571359Y-46624063D01*
X150571360Y-46624066D01*
X150659897Y-46796341D01*
X150662712Y-46801818D01*
X150790677Y-46963270D01*
X150795370Y-46967264D01*
X150795371Y-46967265D01*
X150899735Y-47056085D01*
X150947564Y-47096791D01*
X150952942Y-47099797D01*
X150952944Y-47099798D01*
X150984563Y-47117469D01*
X151127398Y-47197297D01*
X151222238Y-47228113D01*
X151317471Y-47259056D01*
X151317475Y-47259057D01*
X151323329Y-47260959D01*
X151527894Y-47285351D01*
X151534029Y-47284879D01*
X151534031Y-47284879D01*
X151590039Y-47280569D01*
X151733300Y-47269546D01*
X151739230Y-47267890D01*
X151739232Y-47267890D01*
X151877768Y-47229210D01*
X151931725Y-47214145D01*
X151937214Y-47211372D01*
X151937220Y-47211370D01*
X152110116Y-47124033D01*
X152115610Y-47121258D01*
X152123568Y-47115041D01*
X152231919Y-47030388D01*
X152277951Y-46994424D01*
X152286314Y-46984736D01*
X152408540Y-46843134D01*
X152408540Y-46843133D01*
X152412564Y-46838472D01*
X152415902Y-46832597D01*
X152451056Y-46770714D01*
X152514323Y-46659344D01*
X152579351Y-46463863D01*
X152605171Y-46259474D01*
X152605583Y-46230000D01*
X152604138Y-46215262D01*
X153034520Y-46215262D01*
X153035036Y-46221406D01*
X153050902Y-46410342D01*
X153051759Y-46420553D01*
X153053458Y-46426478D01*
X153099395Y-46586678D01*
X153108544Y-46618586D01*
X153111359Y-46624063D01*
X153111360Y-46624066D01*
X153199897Y-46796341D01*
X153202712Y-46801818D01*
X153330677Y-46963270D01*
X153335370Y-46967264D01*
X153335371Y-46967265D01*
X153439735Y-47056085D01*
X153487564Y-47096791D01*
X153492942Y-47099797D01*
X153492944Y-47099798D01*
X153524563Y-47117469D01*
X153667398Y-47197297D01*
X153762238Y-47228113D01*
X153857471Y-47259056D01*
X153857475Y-47259057D01*
X153863329Y-47260959D01*
X154067894Y-47285351D01*
X154074029Y-47284879D01*
X154074031Y-47284879D01*
X154130039Y-47280569D01*
X154273300Y-47269546D01*
X154279230Y-47267890D01*
X154279232Y-47267890D01*
X154417768Y-47229210D01*
X154471725Y-47214145D01*
X154477214Y-47211372D01*
X154477220Y-47211370D01*
X154650116Y-47124033D01*
X154655610Y-47121258D01*
X154663568Y-47115041D01*
X154771919Y-47030388D01*
X154817951Y-46994424D01*
X154826314Y-46984736D01*
X154948540Y-46843134D01*
X154948540Y-46843133D01*
X154952564Y-46838472D01*
X154955902Y-46832597D01*
X154991056Y-46770714D01*
X155054323Y-46659344D01*
X155119351Y-46463863D01*
X155145171Y-46259474D01*
X155145583Y-46230000D01*
X155125480Y-46024970D01*
X155065935Y-45827749D01*
X154969218Y-45645849D01*
X154893206Y-45552649D01*
X154842906Y-45490975D01*
X154842903Y-45490972D01*
X154839011Y-45486200D01*
X154826458Y-45475815D01*
X154685025Y-45358811D01*
X154685021Y-45358809D01*
X154680275Y-45354882D01*
X154499055Y-45256897D01*
X154302254Y-45195977D01*
X154296129Y-45195333D01*
X154296128Y-45195333D01*
X154103498Y-45175087D01*
X154103496Y-45175087D01*
X154097369Y-45174443D01*
X154010529Y-45182346D01*
X153898342Y-45192555D01*
X153898339Y-45192556D01*
X153892203Y-45193114D01*
X153694572Y-45251280D01*
X153512002Y-45346726D01*
X153507201Y-45350586D01*
X153507198Y-45350588D01*
X153399764Y-45436967D01*
X153351447Y-45475815D01*
X153219024Y-45633630D01*
X153216056Y-45639028D01*
X153216053Y-45639033D01*
X153209315Y-45651290D01*
X153119776Y-45814162D01*
X153057484Y-46010532D01*
X153056798Y-46016649D01*
X153056797Y-46016653D01*
X153037346Y-46190069D01*
X153034520Y-46215262D01*
X152604138Y-46215262D01*
X152585480Y-46024970D01*
X152525935Y-45827749D01*
X152429218Y-45645849D01*
X152353206Y-45552649D01*
X152302906Y-45490975D01*
X152302903Y-45490972D01*
X152299011Y-45486200D01*
X152286458Y-45475815D01*
X152145025Y-45358811D01*
X152145021Y-45358809D01*
X152140275Y-45354882D01*
X151959055Y-45256897D01*
X151762254Y-45195977D01*
X151756129Y-45195333D01*
X151756128Y-45195333D01*
X151563498Y-45175087D01*
X151563496Y-45175087D01*
X151557369Y-45174443D01*
X151470529Y-45182346D01*
X151358342Y-45192555D01*
X151358339Y-45192556D01*
X151352203Y-45193114D01*
X151154572Y-45251280D01*
X150972002Y-45346726D01*
X150967201Y-45350586D01*
X150967198Y-45350588D01*
X150859764Y-45436967D01*
X150811447Y-45475815D01*
X150679024Y-45633630D01*
X150676056Y-45639028D01*
X150676053Y-45639033D01*
X150669315Y-45651290D01*
X150579776Y-45814162D01*
X150577914Y-45820032D01*
X150561068Y-45873138D01*
X150521405Y-45932022D01*
X150456202Y-45960114D01*
X150386163Y-45948497D01*
X150333523Y-45900857D01*
X150318762Y-45865735D01*
X150301214Y-45795875D01*
X150297894Y-45786124D01*
X150212972Y-45590814D01*
X150208105Y-45581739D01*
X150092426Y-45402926D01*
X150086136Y-45394757D01*
X149942806Y-45237240D01*
X149935273Y-45230215D01*
X149768139Y-45098222D01*
X149759552Y-45092517D01*
X149573117Y-44989599D01*
X149563705Y-44985369D01*
X149362959Y-44914280D01*
X149352988Y-44911646D01*
X149281837Y-44898972D01*
X149268540Y-44900432D01*
X149264000Y-44914989D01*
X149264000Y-46358000D01*
X149243998Y-46426121D01*
X149190342Y-46472614D01*
X149138000Y-46484000D01*
X148882000Y-46484000D01*
X148813879Y-46463998D01*
X148767386Y-46410342D01*
X148756000Y-46358000D01*
X148756000Y-44913102D01*
X148752082Y-44899758D01*
X148737806Y-44897771D01*
X148699324Y-44903660D01*
X148689288Y-44906051D01*
X148486868Y-44972212D01*
X148477359Y-44976209D01*
X148288463Y-45074542D01*
X148279738Y-45080036D01*
X148109433Y-45207905D01*
X148101726Y-45214748D01*
X147954590Y-45368717D01*
X147948104Y-45376727D01*
X147828098Y-45552649D01*
X147823000Y-45561623D01*
X147733338Y-45754783D01*
X147729775Y-45764470D01*
X147701012Y-45868185D01*
X147663533Y-45928483D01*
X147599405Y-45958946D01*
X147528986Y-45949903D01*
X147474636Y-45904224D01*
X147458973Y-45870933D01*
X147458143Y-45868185D01*
X147445935Y-45827749D01*
X147349218Y-45645849D01*
X147273206Y-45552649D01*
X147222906Y-45490975D01*
X147222903Y-45490972D01*
X147219011Y-45486200D01*
X147206458Y-45475815D01*
X147065025Y-45358811D01*
X147065021Y-45358809D01*
X147060275Y-45354882D01*
X146879055Y-45256897D01*
X146682254Y-45195977D01*
X146676129Y-45195333D01*
X146676128Y-45195333D01*
X146483498Y-45175087D01*
X146483496Y-45175087D01*
X146477369Y-45174443D01*
X146390529Y-45182346D01*
X146278342Y-45192555D01*
X146278339Y-45192556D01*
X146272203Y-45193114D01*
X146074572Y-45251280D01*
X145892002Y-45346726D01*
X145887201Y-45350586D01*
X145887198Y-45350588D01*
X145779764Y-45436967D01*
X145731447Y-45475815D01*
X145599024Y-45633630D01*
X145596056Y-45639028D01*
X145596053Y-45639033D01*
X145589315Y-45651290D01*
X145499776Y-45814162D01*
X145497914Y-45820032D01*
X145481068Y-45873138D01*
X145441405Y-45932022D01*
X145376202Y-45960114D01*
X145306163Y-45948497D01*
X145253523Y-45900857D01*
X145238762Y-45865735D01*
X145221214Y-45795875D01*
X145217894Y-45786124D01*
X145132972Y-45590814D01*
X145128105Y-45581739D01*
X145012426Y-45402926D01*
X145006136Y-45394757D01*
X144862806Y-45237240D01*
X144855273Y-45230215D01*
X144688139Y-45098222D01*
X144679552Y-45092517D01*
X144493117Y-44989599D01*
X144483705Y-44985369D01*
X144282959Y-44914280D01*
X144272988Y-44911646D01*
X144201837Y-44898972D01*
X144188540Y-44900432D01*
X144184000Y-44914989D01*
X144184000Y-46358000D01*
X144163998Y-46426121D01*
X144110342Y-46472614D01*
X144058000Y-46484000D01*
X143802000Y-46484000D01*
X143733879Y-46463998D01*
X143687386Y-46410342D01*
X143676000Y-46358000D01*
X143676000Y-44913102D01*
X143672082Y-44899758D01*
X143657806Y-44897771D01*
X143619324Y-44903660D01*
X143609288Y-44906051D01*
X143406868Y-44972212D01*
X143397359Y-44976209D01*
X143208463Y-45074542D01*
X143199738Y-45080036D01*
X143029433Y-45207905D01*
X143021726Y-45214748D01*
X142874590Y-45368717D01*
X142868104Y-45376727D01*
X142748098Y-45552649D01*
X142743000Y-45561623D01*
X142653338Y-45754783D01*
X142649775Y-45764470D01*
X142621012Y-45868185D01*
X142583533Y-45928483D01*
X142519405Y-45958946D01*
X142448986Y-45949903D01*
X142394636Y-45904224D01*
X142378973Y-45870933D01*
X142378143Y-45868185D01*
X142365935Y-45827749D01*
X142269218Y-45645849D01*
X142193206Y-45552649D01*
X142142906Y-45490975D01*
X142142903Y-45490972D01*
X142139011Y-45486200D01*
X142126458Y-45475815D01*
X141985025Y-45358811D01*
X141985021Y-45358809D01*
X141980275Y-45354882D01*
X141799055Y-45256897D01*
X141602254Y-45195977D01*
X141596129Y-45195333D01*
X141596128Y-45195333D01*
X141403498Y-45175087D01*
X141403496Y-45175087D01*
X141397369Y-45174443D01*
X141310529Y-45182346D01*
X141198342Y-45192555D01*
X141198339Y-45192556D01*
X141192203Y-45193114D01*
X140994572Y-45251280D01*
X140812002Y-45346726D01*
X140807201Y-45350586D01*
X140807198Y-45350588D01*
X140699764Y-45436967D01*
X140651447Y-45475815D01*
X140519024Y-45633630D01*
X140516056Y-45639028D01*
X140516053Y-45639033D01*
X140509315Y-45651290D01*
X140419776Y-45814162D01*
X140357484Y-46010532D01*
X140356798Y-46016649D01*
X140356797Y-46016653D01*
X140337346Y-46190069D01*
X140334520Y-46215262D01*
X139904138Y-46215262D01*
X139885480Y-46024970D01*
X139825935Y-45827749D01*
X139729218Y-45645849D01*
X139653206Y-45552649D01*
X139602906Y-45490975D01*
X139602903Y-45490972D01*
X139599011Y-45486200D01*
X139586458Y-45475815D01*
X139445025Y-45358811D01*
X139445021Y-45358809D01*
X139440275Y-45354882D01*
X139259055Y-45256897D01*
X139062254Y-45195977D01*
X139056129Y-45195333D01*
X139056128Y-45195333D01*
X138863498Y-45175087D01*
X138863496Y-45175087D01*
X138857369Y-45174443D01*
X138770529Y-45182346D01*
X138658342Y-45192555D01*
X138658339Y-45192556D01*
X138652203Y-45193114D01*
X138454572Y-45251280D01*
X138272002Y-45346726D01*
X138267201Y-45350586D01*
X138267198Y-45350588D01*
X138159764Y-45436967D01*
X138111447Y-45475815D01*
X137979024Y-45633630D01*
X137976056Y-45639028D01*
X137976053Y-45639033D01*
X137969315Y-45651290D01*
X137879776Y-45814162D01*
X137817484Y-46010532D01*
X137816798Y-46016649D01*
X137816797Y-46016653D01*
X137797346Y-46190069D01*
X137794520Y-46215262D01*
X137795036Y-46221406D01*
X137810902Y-46410342D01*
X137811759Y-46420553D01*
X137813458Y-46426478D01*
X137859395Y-46586678D01*
X137868544Y-46618586D01*
X137871359Y-46624063D01*
X137871360Y-46624066D01*
X137959897Y-46796341D01*
X137962712Y-46801818D01*
X138090677Y-46963270D01*
X138095370Y-46967264D01*
X138095371Y-46967265D01*
X138199735Y-47056085D01*
X138247564Y-47096791D01*
X138252942Y-47099797D01*
X138252944Y-47099798D01*
X138284563Y-47117469D01*
X138427398Y-47197297D01*
X138492437Y-47218429D01*
X138551042Y-47258502D01*
X138578680Y-47323898D01*
X138566574Y-47393855D01*
X138518568Y-47446162D01*
X138492646Y-47458027D01*
X138326868Y-47512212D01*
X138317359Y-47516209D01*
X138128463Y-47614542D01*
X138119738Y-47620036D01*
X137949433Y-47747905D01*
X137941726Y-47754748D01*
X137794590Y-47908717D01*
X137788104Y-47916727D01*
X137668098Y-48092649D01*
X137663000Y-48101623D01*
X137573338Y-48294783D01*
X137569775Y-48304470D01*
X137541012Y-48408185D01*
X137503533Y-48468483D01*
X137439405Y-48498946D01*
X137368986Y-48489903D01*
X137314636Y-48444224D01*
X137298973Y-48410933D01*
X137298143Y-48408185D01*
X137285935Y-48367749D01*
X137189218Y-48185849D01*
X137085752Y-48058987D01*
X137062906Y-48030975D01*
X137062903Y-48030972D01*
X137059011Y-48026200D01*
X136959546Y-47943915D01*
X136905025Y-47898811D01*
X136905021Y-47898809D01*
X136900275Y-47894882D01*
X136719055Y-47796897D01*
X136522254Y-47735977D01*
X136516129Y-47735333D01*
X136516128Y-47735333D01*
X136323498Y-47715087D01*
X136323496Y-47715087D01*
X136317369Y-47714443D01*
X136230529Y-47722346D01*
X136118342Y-47732555D01*
X136118339Y-47732556D01*
X136112203Y-47733114D01*
X135914572Y-47791280D01*
X135909107Y-47794137D01*
X135907313Y-47795075D01*
X135732002Y-47886726D01*
X135727201Y-47890586D01*
X135727198Y-47890588D01*
X135672263Y-47934757D01*
X135571447Y-48015815D01*
X135439024Y-48173630D01*
X135436056Y-48179028D01*
X135436053Y-48179033D01*
X135355190Y-48326124D01*
X135339776Y-48354162D01*
X135277484Y-48550532D01*
X135276798Y-48556649D01*
X135276797Y-48556653D01*
X135265309Y-48659073D01*
X135254520Y-48755262D01*
X134824138Y-48755262D01*
X134805480Y-48564970D01*
X134745935Y-48367749D01*
X134649218Y-48185849D01*
X134545752Y-48058987D01*
X134522906Y-48030975D01*
X134522903Y-48030972D01*
X134519011Y-48026200D01*
X134419546Y-47943915D01*
X134365025Y-47898811D01*
X134365021Y-47898809D01*
X134360275Y-47894882D01*
X134179055Y-47796897D01*
X133982254Y-47735977D01*
X133976129Y-47735333D01*
X133976128Y-47735333D01*
X133783498Y-47715087D01*
X133783496Y-47715087D01*
X133777369Y-47714443D01*
X133690529Y-47722346D01*
X133578342Y-47732555D01*
X133578339Y-47732556D01*
X133572203Y-47733114D01*
X133374572Y-47791280D01*
X133369107Y-47794137D01*
X133367313Y-47795075D01*
X133192002Y-47886726D01*
X133187201Y-47890586D01*
X133187198Y-47890588D01*
X133132263Y-47934757D01*
X133031447Y-48015815D01*
X132946770Y-48116729D01*
X132887663Y-48156054D01*
X132816675Y-48157180D01*
X132756348Y-48119749D01*
X132736670Y-48090283D01*
X132725117Y-48066224D01*
X132721777Y-48062250D01*
X132719839Y-48060312D01*
X132718357Y-48058696D01*
X132718108Y-48058234D01*
X132718137Y-48058208D01*
X132718025Y-48058081D01*
X132715102Y-48052663D01*
X132698539Y-48037352D01*
X132678406Y-48018742D01*
X132674839Y-48015312D01*
X132108991Y-47449464D01*
X132074965Y-47387152D01*
X132080030Y-47316337D01*
X132111040Y-47272299D01*
X132109536Y-47270790D01*
X132264052Y-47116812D01*
X132270730Y-47108965D01*
X132395003Y-46936020D01*
X132400313Y-46927183D01*
X132494670Y-46736267D01*
X132498469Y-46726672D01*
X132539593Y-46591319D01*
X132578534Y-46531955D01*
X132643388Y-46503068D01*
X132713564Y-46513830D01*
X132766782Y-46560823D01*
X132781270Y-46593217D01*
X132788544Y-46618586D01*
X132791359Y-46624063D01*
X132791360Y-46624066D01*
X132879897Y-46796341D01*
X132882712Y-46801818D01*
X133010677Y-46963270D01*
X133015370Y-46967264D01*
X133015371Y-46967265D01*
X133119735Y-47056085D01*
X133167564Y-47096791D01*
X133172942Y-47099797D01*
X133172944Y-47099798D01*
X133204563Y-47117469D01*
X133347398Y-47197297D01*
X133442238Y-47228113D01*
X133537471Y-47259056D01*
X133537475Y-47259057D01*
X133543329Y-47260959D01*
X133747894Y-47285351D01*
X133754029Y-47284879D01*
X133754031Y-47284879D01*
X133810039Y-47280569D01*
X133953300Y-47269546D01*
X133959230Y-47267890D01*
X133959232Y-47267890D01*
X134097768Y-47229210D01*
X134151725Y-47214145D01*
X134157214Y-47211372D01*
X134157220Y-47211370D01*
X134330116Y-47124033D01*
X134335610Y-47121258D01*
X134343568Y-47115041D01*
X134451919Y-47030388D01*
X134497951Y-46994424D01*
X134506314Y-46984736D01*
X134628540Y-46843134D01*
X134628540Y-46843133D01*
X134632564Y-46838472D01*
X134635902Y-46832597D01*
X134671056Y-46770714D01*
X134734323Y-46659344D01*
X134799351Y-46463863D01*
X134825171Y-46259474D01*
X134825583Y-46230000D01*
X134824138Y-46215262D01*
X135254520Y-46215262D01*
X135255036Y-46221406D01*
X135270902Y-46410342D01*
X135271759Y-46420553D01*
X135273458Y-46426478D01*
X135319395Y-46586678D01*
X135328544Y-46618586D01*
X135331359Y-46624063D01*
X135331360Y-46624066D01*
X135419897Y-46796341D01*
X135422712Y-46801818D01*
X135550677Y-46963270D01*
X135555370Y-46967264D01*
X135555371Y-46967265D01*
X135659735Y-47056085D01*
X135707564Y-47096791D01*
X135712942Y-47099797D01*
X135712944Y-47099798D01*
X135744563Y-47117469D01*
X135887398Y-47197297D01*
X135982238Y-47228113D01*
X136077471Y-47259056D01*
X136077475Y-47259057D01*
X136083329Y-47260959D01*
X136287894Y-47285351D01*
X136294029Y-47284879D01*
X136294031Y-47284879D01*
X136350039Y-47280569D01*
X136493300Y-47269546D01*
X136499230Y-47267890D01*
X136499232Y-47267890D01*
X136637768Y-47229210D01*
X136691725Y-47214145D01*
X136697214Y-47211372D01*
X136697220Y-47211370D01*
X136870116Y-47124033D01*
X136875610Y-47121258D01*
X136883568Y-47115041D01*
X136991919Y-47030388D01*
X137037951Y-46994424D01*
X137046314Y-46984736D01*
X137168540Y-46843134D01*
X137168540Y-46843133D01*
X137172564Y-46838472D01*
X137175902Y-46832597D01*
X137211056Y-46770714D01*
X137274323Y-46659344D01*
X137339351Y-46463863D01*
X137365171Y-46259474D01*
X137365583Y-46230000D01*
X137345480Y-46024970D01*
X137285935Y-45827749D01*
X137189218Y-45645849D01*
X137113206Y-45552649D01*
X137062906Y-45490975D01*
X137062903Y-45490972D01*
X137059011Y-45486200D01*
X137046458Y-45475815D01*
X136905025Y-45358811D01*
X136905021Y-45358809D01*
X136900275Y-45354882D01*
X136719055Y-45256897D01*
X136522254Y-45195977D01*
X136516129Y-45195333D01*
X136516128Y-45195333D01*
X136323498Y-45175087D01*
X136323496Y-45175087D01*
X136317369Y-45174443D01*
X136230529Y-45182346D01*
X136118342Y-45192555D01*
X136118339Y-45192556D01*
X136112203Y-45193114D01*
X135914572Y-45251280D01*
X135732002Y-45346726D01*
X135727201Y-45350586D01*
X135727198Y-45350588D01*
X135619764Y-45436967D01*
X135571447Y-45475815D01*
X135439024Y-45633630D01*
X135436056Y-45639028D01*
X135436053Y-45639033D01*
X135429315Y-45651290D01*
X135339776Y-45814162D01*
X135277484Y-46010532D01*
X135276798Y-46016649D01*
X135276797Y-46016653D01*
X135257346Y-46190069D01*
X135254520Y-46215262D01*
X134824138Y-46215262D01*
X134805480Y-46024970D01*
X134745935Y-45827749D01*
X134649218Y-45645849D01*
X134573206Y-45552649D01*
X134522906Y-45490975D01*
X134522903Y-45490972D01*
X134519011Y-45486200D01*
X134506458Y-45475815D01*
X134365025Y-45358811D01*
X134365021Y-45358809D01*
X134360275Y-45354882D01*
X134179055Y-45256897D01*
X133982254Y-45195977D01*
X133976129Y-45195333D01*
X133976128Y-45195333D01*
X133783498Y-45175087D01*
X133783496Y-45175087D01*
X133777369Y-45174443D01*
X133690529Y-45182346D01*
X133578342Y-45192555D01*
X133578339Y-45192556D01*
X133572203Y-45193114D01*
X133374572Y-45251280D01*
X133192002Y-45346726D01*
X133187201Y-45350586D01*
X133187198Y-45350588D01*
X133079764Y-45436967D01*
X133031447Y-45475815D01*
X132899024Y-45633630D01*
X132896056Y-45639028D01*
X132896053Y-45639033D01*
X132889315Y-45651290D01*
X132799776Y-45814162D01*
X132797914Y-45820032D01*
X132781068Y-45873138D01*
X132741405Y-45932022D01*
X132676202Y-45960114D01*
X132606163Y-45948497D01*
X132553523Y-45900857D01*
X132538762Y-45865735D01*
X132521214Y-45795875D01*
X132517894Y-45786124D01*
X132432972Y-45590814D01*
X132428105Y-45581739D01*
X132312426Y-45402926D01*
X132306136Y-45394757D01*
X132162806Y-45237240D01*
X132155273Y-45230215D01*
X131988139Y-45098222D01*
X131979552Y-45092517D01*
X131793117Y-44989599D01*
X131783705Y-44985369D01*
X131582959Y-44914280D01*
X131572988Y-44911646D01*
X131501837Y-44898972D01*
X131488540Y-44900432D01*
X131484000Y-44914989D01*
X131484000Y-46358000D01*
X131463998Y-46426121D01*
X131410342Y-46472614D01*
X131358000Y-46484000D01*
X131102000Y-46484000D01*
X131033879Y-46463998D01*
X130987386Y-46410342D01*
X130976000Y-46358000D01*
X130976000Y-44913102D01*
X130972082Y-44899758D01*
X130957806Y-44897771D01*
X130919324Y-44903660D01*
X130909288Y-44906051D01*
X130706868Y-44972212D01*
X130697359Y-44976209D01*
X130508463Y-45074542D01*
X130499738Y-45080036D01*
X130329433Y-45207905D01*
X130321726Y-45214748D01*
X130174590Y-45368717D01*
X130168104Y-45376727D01*
X130048098Y-45552649D01*
X130043000Y-45561623D01*
X129953338Y-45754783D01*
X129949775Y-45764470D01*
X129921012Y-45868185D01*
X129883533Y-45928483D01*
X129819405Y-45958946D01*
X129748986Y-45949903D01*
X129694636Y-45904224D01*
X129678973Y-45870933D01*
X129678143Y-45868185D01*
X129665935Y-45827749D01*
X129569218Y-45645849D01*
X129493206Y-45552649D01*
X129442906Y-45490975D01*
X129442903Y-45490972D01*
X129439011Y-45486200D01*
X129426458Y-45475815D01*
X129285025Y-45358811D01*
X129285021Y-45358809D01*
X129280275Y-45354882D01*
X129099055Y-45256897D01*
X128902254Y-45195977D01*
X128896129Y-45195333D01*
X128896128Y-45195333D01*
X128703498Y-45175087D01*
X128703496Y-45175087D01*
X128697369Y-45174443D01*
X128610529Y-45182346D01*
X128498342Y-45192555D01*
X128498339Y-45192556D01*
X128492203Y-45193114D01*
X128294572Y-45251280D01*
X128112002Y-45346726D01*
X128107201Y-45350586D01*
X128107198Y-45350588D01*
X127999764Y-45436967D01*
X127951447Y-45475815D01*
X127819024Y-45633630D01*
X127816056Y-45639028D01*
X127816053Y-45639033D01*
X127809315Y-45651290D01*
X127719776Y-45814162D01*
X127657484Y-46010532D01*
X127656798Y-46016649D01*
X127656797Y-46016653D01*
X127637346Y-46190069D01*
X127634520Y-46215262D01*
X127635036Y-46221406D01*
X127650902Y-46410342D01*
X127651759Y-46420553D01*
X127653458Y-46426478D01*
X127699395Y-46586678D01*
X127708544Y-46618586D01*
X127711359Y-46624063D01*
X127711360Y-46624066D01*
X127799897Y-46796341D01*
X127802712Y-46801818D01*
X127930677Y-46963270D01*
X127935370Y-46967264D01*
X127935371Y-46967265D01*
X128039735Y-47056085D01*
X128087564Y-47096791D01*
X128092942Y-47099797D01*
X128092944Y-47099798D01*
X128124563Y-47117469D01*
X128267398Y-47197297D01*
X128362238Y-47228113D01*
X128457471Y-47259056D01*
X128457475Y-47259057D01*
X128463329Y-47260959D01*
X128667894Y-47285351D01*
X128674029Y-47284879D01*
X128674031Y-47284879D01*
X128730039Y-47280569D01*
X128873300Y-47269546D01*
X128879230Y-47267890D01*
X128879232Y-47267890D01*
X129065787Y-47215803D01*
X129065788Y-47215803D01*
X129071004Y-47214346D01*
X129071007Y-47214346D01*
X129071725Y-47214145D01*
X129071763Y-47214281D01*
X129139879Y-47208514D01*
X129203803Y-47242879D01*
X129644339Y-47683415D01*
X129656672Y-47698684D01*
X129659724Y-47702038D01*
X129665375Y-47710790D01*
X129689499Y-47729808D01*
X129693466Y-47733334D01*
X129693552Y-47733233D01*
X129697515Y-47736591D01*
X129701193Y-47740269D01*
X129715627Y-47750584D01*
X129720357Y-47754135D01*
X129757638Y-47783525D01*
X129765673Y-47786347D01*
X129772599Y-47791296D01*
X129782570Y-47794278D01*
X129782574Y-47794280D01*
X129818076Y-47804897D01*
X129823692Y-47806721D01*
X129868487Y-47822452D01*
X129873659Y-47822900D01*
X129876363Y-47822900D01*
X129878595Y-47822996D01*
X129879095Y-47823146D01*
X129879093Y-47823184D01*
X129879257Y-47823194D01*
X129885158Y-47824959D01*
X129935089Y-47822997D01*
X129940035Y-47822900D01*
X130383115Y-47822900D01*
X130451236Y-47842902D01*
X130497729Y-47896558D01*
X130507833Y-47966832D01*
X130479636Y-48029890D01*
X130359024Y-48173630D01*
X130356056Y-48179028D01*
X130356053Y-48179033D01*
X130275190Y-48326124D01*
X130259776Y-48354162D01*
X130197484Y-48550532D01*
X130196798Y-48556649D01*
X130196797Y-48556653D01*
X130185309Y-48659073D01*
X130174520Y-48755262D01*
X130175036Y-48761406D01*
X130184645Y-48875831D01*
X130191759Y-48960553D01*
X130193458Y-48966478D01*
X130239395Y-49126678D01*
X130248544Y-49158586D01*
X130251359Y-49164063D01*
X130251360Y-49164066D01*
X130342712Y-49341818D01*
X130340508Y-49342951D01*
X130357517Y-49400602D01*
X130337603Y-49468748D01*
X130284008Y-49515311D01*
X130213747Y-49525506D01*
X130149128Y-49496096D01*
X130142422Y-49489860D01*
X129755941Y-49103379D01*
X129721915Y-49041067D01*
X129720029Y-48998493D01*
X129722716Y-48977225D01*
X129745171Y-48799474D01*
X129745583Y-48770000D01*
X129725480Y-48564970D01*
X129665935Y-48367749D01*
X129569218Y-48185849D01*
X129465752Y-48058987D01*
X129442906Y-48030975D01*
X129442903Y-48030972D01*
X129439011Y-48026200D01*
X129339546Y-47943915D01*
X129285025Y-47898811D01*
X129285021Y-47898809D01*
X129280275Y-47894882D01*
X129099055Y-47796897D01*
X128902254Y-47735977D01*
X128896129Y-47735333D01*
X128896128Y-47735333D01*
X128703498Y-47715087D01*
X128703496Y-47715087D01*
X128697369Y-47714443D01*
X128610529Y-47722346D01*
X128498342Y-47732555D01*
X128498339Y-47732556D01*
X128492203Y-47733114D01*
X128294572Y-47791280D01*
X128289107Y-47794137D01*
X128287313Y-47795075D01*
X128112002Y-47886726D01*
X128107201Y-47890586D01*
X128107198Y-47890588D01*
X128052263Y-47934757D01*
X127951447Y-48015815D01*
X127819024Y-48173630D01*
X127816056Y-48179028D01*
X127816053Y-48179033D01*
X127735190Y-48326124D01*
X127719776Y-48354162D01*
X127657484Y-48550532D01*
X127656798Y-48556649D01*
X127656797Y-48556653D01*
X127645309Y-48659073D01*
X127634520Y-48755262D01*
X127635036Y-48761406D01*
X127644645Y-48875831D01*
X127651759Y-48960553D01*
X127653458Y-48966478D01*
X127699395Y-49126678D01*
X127708544Y-49158586D01*
X127711359Y-49164063D01*
X127711360Y-49164066D01*
X127799897Y-49336341D01*
X127802712Y-49341818D01*
X127930677Y-49503270D01*
X127935370Y-49507264D01*
X127935371Y-49507265D01*
X128009541Y-49570388D01*
X128087564Y-49636791D01*
X128092942Y-49639797D01*
X128092944Y-49639798D01*
X128123387Y-49656812D01*
X128267398Y-49737297D01*
X128344020Y-49762193D01*
X128457471Y-49799056D01*
X128457475Y-49799057D01*
X128463329Y-49800959D01*
X128667894Y-49825351D01*
X128674029Y-49824879D01*
X128674031Y-49824879D01*
X128867158Y-49810019D01*
X128867162Y-49810018D01*
X128873300Y-49809546D01*
X128899073Y-49802350D01*
X128970061Y-49803295D01*
X129022051Y-49834613D01*
X140228342Y-61040905D01*
X140262368Y-61103217D01*
X140257303Y-61174032D01*
X140228342Y-61219095D01*
X125033812Y-76413626D01*
X125030003Y-76417279D01*
X124987122Y-76456710D01*
X124965727Y-76491216D01*
X124959012Y-76500985D01*
X124939663Y-76526475D01*
X124939659Y-76526482D01*
X124934468Y-76533321D01*
X124931306Y-76541307D01*
X124929504Y-76545858D01*
X124919441Y-76565866D01*
X124916859Y-76570030D01*
X124916856Y-76570036D01*
X124912334Y-76577330D01*
X124901011Y-76616305D01*
X124897166Y-76627533D01*
X124885386Y-76657286D01*
X124885384Y-76657294D01*
X124882223Y-76665278D01*
X124881325Y-76673823D01*
X124881324Y-76673826D01*
X124880812Y-76678692D01*
X124876502Y-76700664D01*
X124872739Y-76713618D01*
X124872000Y-76723682D01*
X124872000Y-76755938D01*
X124871310Y-76769109D01*
X124867388Y-76806424D01*
X124868820Y-76814890D01*
X124868820Y-76814893D01*
X124870236Y-76823264D01*
X124872000Y-76844276D01*
X124872000Y-79680055D01*
X124851998Y-79748176D01*
X124815662Y-79784813D01*
X124812002Y-79786726D01*
X124807202Y-79790586D01*
X124807201Y-79790586D01*
X124784651Y-79808717D01*
X124651447Y-79915815D01*
X124519024Y-80073630D01*
X124516056Y-80079028D01*
X124516053Y-80079033D01*
X124509315Y-80091290D01*
X124419776Y-80254162D01*
X124357484Y-80450532D01*
X124356798Y-80456649D01*
X124356797Y-80456653D01*
X124335207Y-80649137D01*
X124334520Y-80655262D01*
X124336054Y-80673522D01*
X124338727Y-80705359D01*
X124324496Y-80774915D01*
X124274919Y-80825734D01*
X124205737Y-80841684D01*
X124138915Y-80817698D01*
X124124074Y-80804998D01*
X116379805Y-73060729D01*
X116345779Y-72998417D01*
X116342900Y-72971634D01*
X116342900Y-63482129D01*
X126889500Y-63482129D01*
X126890707Y-63488197D01*
X126894331Y-63506414D01*
X126901133Y-63540612D01*
X126945448Y-63606933D01*
X127011769Y-63651248D01*
X127023938Y-63653669D01*
X127023939Y-63653669D01*
X127064184Y-63661674D01*
X127070252Y-63662881D01*
X128809748Y-63662881D01*
X128815816Y-63661674D01*
X128856061Y-63653669D01*
X128856062Y-63653669D01*
X128868231Y-63651248D01*
X128934552Y-63606933D01*
X128978867Y-63540612D01*
X128985670Y-63506414D01*
X128989293Y-63488197D01*
X128990500Y-63482129D01*
X128990500Y-62597643D01*
X129424520Y-62597643D01*
X129441759Y-62802934D01*
X129498544Y-63000967D01*
X129501359Y-63006444D01*
X129501360Y-63006447D01*
X129522247Y-63047088D01*
X129592712Y-63184199D01*
X129720677Y-63345651D01*
X129877564Y-63479172D01*
X130057398Y-63579678D01*
X130141280Y-63606933D01*
X130247471Y-63641437D01*
X130247475Y-63641438D01*
X130253329Y-63643340D01*
X130457894Y-63667732D01*
X130464029Y-63667260D01*
X130464031Y-63667260D01*
X130536625Y-63661674D01*
X130663300Y-63651927D01*
X130669230Y-63650271D01*
X130669232Y-63650271D01*
X130855797Y-63598181D01*
X130855796Y-63598181D01*
X130861725Y-63596526D01*
X130867214Y-63593753D01*
X130867220Y-63593751D01*
X131040116Y-63506414D01*
X131045610Y-63503639D01*
X131207951Y-63376805D01*
X131342564Y-63220853D01*
X131363387Y-63184199D01*
X131441276Y-63047088D01*
X131444323Y-63041725D01*
X131509351Y-62846244D01*
X131535171Y-62641855D01*
X131535583Y-62612381D01*
X131534138Y-62597643D01*
X131964520Y-62597643D01*
X131981759Y-62802934D01*
X132038544Y-63000967D01*
X132041359Y-63006444D01*
X132041360Y-63006447D01*
X132062247Y-63047088D01*
X132132712Y-63184199D01*
X132260677Y-63345651D01*
X132417564Y-63479172D01*
X132597398Y-63579678D01*
X132681280Y-63606933D01*
X132787471Y-63641437D01*
X132787475Y-63641438D01*
X132793329Y-63643340D01*
X132997894Y-63667732D01*
X133004029Y-63667260D01*
X133004031Y-63667260D01*
X133076625Y-63661674D01*
X133203300Y-63651927D01*
X133209230Y-63650271D01*
X133209232Y-63650271D01*
X133395797Y-63598181D01*
X133395796Y-63598181D01*
X133401725Y-63596526D01*
X133407214Y-63593753D01*
X133407220Y-63593751D01*
X133580116Y-63506414D01*
X133585610Y-63503639D01*
X133747951Y-63376805D01*
X133882564Y-63220853D01*
X133903387Y-63184199D01*
X133981276Y-63047088D01*
X133984323Y-63041725D01*
X134049351Y-62846244D01*
X134075171Y-62641855D01*
X134075583Y-62612381D01*
X134074138Y-62597643D01*
X134504520Y-62597643D01*
X134521759Y-62802934D01*
X134578544Y-63000967D01*
X134581359Y-63006444D01*
X134581360Y-63006447D01*
X134602247Y-63047088D01*
X134672712Y-63184199D01*
X134800677Y-63345651D01*
X134957564Y-63479172D01*
X135137398Y-63579678D01*
X135221280Y-63606933D01*
X135327471Y-63641437D01*
X135327475Y-63641438D01*
X135333329Y-63643340D01*
X135537894Y-63667732D01*
X135544029Y-63667260D01*
X135544031Y-63667260D01*
X135616625Y-63661674D01*
X135743300Y-63651927D01*
X135749230Y-63650271D01*
X135749232Y-63650271D01*
X135935797Y-63598181D01*
X135935796Y-63598181D01*
X135941725Y-63596526D01*
X135947214Y-63593753D01*
X135947220Y-63593751D01*
X136120116Y-63506414D01*
X136125610Y-63503639D01*
X136287951Y-63376805D01*
X136422564Y-63220853D01*
X136443387Y-63184199D01*
X136521276Y-63047088D01*
X136524323Y-63041725D01*
X136589351Y-62846244D01*
X136615171Y-62641855D01*
X136615583Y-62612381D01*
X136595480Y-62407351D01*
X136535935Y-62210130D01*
X136439218Y-62028230D01*
X136359420Y-61930388D01*
X136312906Y-61873356D01*
X136312903Y-61873353D01*
X136309011Y-61868581D01*
X136302173Y-61862924D01*
X136155025Y-61741192D01*
X136155021Y-61741190D01*
X136150275Y-61737263D01*
X135969055Y-61639278D01*
X135772254Y-61578358D01*
X135766129Y-61577714D01*
X135766128Y-61577714D01*
X135573498Y-61557468D01*
X135573496Y-61557468D01*
X135567369Y-61556824D01*
X135480747Y-61564707D01*
X135368342Y-61574936D01*
X135368339Y-61574937D01*
X135362203Y-61575495D01*
X135164572Y-61633661D01*
X134982002Y-61729107D01*
X134977201Y-61732967D01*
X134977198Y-61732969D01*
X134849028Y-61836020D01*
X134821447Y-61858196D01*
X134689024Y-62016011D01*
X134686056Y-62021409D01*
X134686053Y-62021414D01*
X134609338Y-62160959D01*
X134589776Y-62196543D01*
X134527484Y-62392913D01*
X134526798Y-62399030D01*
X134526797Y-62399034D01*
X134519466Y-62464393D01*
X134504520Y-62597643D01*
X134074138Y-62597643D01*
X134055480Y-62407351D01*
X133995935Y-62210130D01*
X133899218Y-62028230D01*
X133819420Y-61930388D01*
X133772906Y-61873356D01*
X133772903Y-61873353D01*
X133769011Y-61868581D01*
X133762173Y-61862924D01*
X133615025Y-61741192D01*
X133615021Y-61741190D01*
X133610275Y-61737263D01*
X133429055Y-61639278D01*
X133232254Y-61578358D01*
X133226129Y-61577714D01*
X133226128Y-61577714D01*
X133033498Y-61557468D01*
X133033496Y-61557468D01*
X133027369Y-61556824D01*
X132940747Y-61564707D01*
X132828342Y-61574936D01*
X132828339Y-61574937D01*
X132822203Y-61575495D01*
X132624572Y-61633661D01*
X132442002Y-61729107D01*
X132437201Y-61732967D01*
X132437198Y-61732969D01*
X132309028Y-61836020D01*
X132281447Y-61858196D01*
X132149024Y-62016011D01*
X132146056Y-62021409D01*
X132146053Y-62021414D01*
X132069338Y-62160959D01*
X132049776Y-62196543D01*
X131987484Y-62392913D01*
X131986798Y-62399030D01*
X131986797Y-62399034D01*
X131979466Y-62464393D01*
X131964520Y-62597643D01*
X131534138Y-62597643D01*
X131515480Y-62407351D01*
X131455935Y-62210130D01*
X131359218Y-62028230D01*
X131279420Y-61930388D01*
X131232906Y-61873356D01*
X131232903Y-61873353D01*
X131229011Y-61868581D01*
X131222173Y-61862924D01*
X131075025Y-61741192D01*
X131075021Y-61741190D01*
X131070275Y-61737263D01*
X130889055Y-61639278D01*
X130692254Y-61578358D01*
X130686129Y-61577714D01*
X130686128Y-61577714D01*
X130493498Y-61557468D01*
X130493496Y-61557468D01*
X130487369Y-61556824D01*
X130400747Y-61564707D01*
X130288342Y-61574936D01*
X130288339Y-61574937D01*
X130282203Y-61575495D01*
X130084572Y-61633661D01*
X129902002Y-61729107D01*
X129897201Y-61732967D01*
X129897198Y-61732969D01*
X129769028Y-61836020D01*
X129741447Y-61858196D01*
X129609024Y-62016011D01*
X129606056Y-62021409D01*
X129606053Y-62021414D01*
X129529338Y-62160959D01*
X129509776Y-62196543D01*
X129447484Y-62392913D01*
X129446798Y-62399030D01*
X129446797Y-62399034D01*
X129439466Y-62464393D01*
X129424520Y-62597643D01*
X128990500Y-62597643D01*
X128990500Y-61742633D01*
X128983342Y-61706646D01*
X128981288Y-61696320D01*
X128981288Y-61696319D01*
X128978867Y-61684150D01*
X128934552Y-61617829D01*
X128868231Y-61573514D01*
X128856062Y-61571093D01*
X128856061Y-61571093D01*
X128815816Y-61563088D01*
X128809748Y-61561881D01*
X127070252Y-61561881D01*
X127064184Y-61563088D01*
X127023939Y-61571093D01*
X127023938Y-61571093D01*
X127011769Y-61573514D01*
X126945448Y-61617829D01*
X126901133Y-61684150D01*
X126898712Y-61696319D01*
X126898712Y-61696320D01*
X126896658Y-61706646D01*
X126889500Y-61742633D01*
X126889500Y-63482129D01*
X116342900Y-63482129D01*
X116342900Y-49846222D01*
X116362902Y-49778101D01*
X116412089Y-49733756D01*
X116550116Y-49664033D01*
X116555610Y-49661258D01*
X116571345Y-49648965D01*
X116713101Y-49538213D01*
X116717951Y-49534424D01*
X116729316Y-49521258D01*
X116848540Y-49383134D01*
X116848540Y-49383133D01*
X116852564Y-49378472D01*
X116873387Y-49341818D01*
X116891056Y-49310714D01*
X116954323Y-49199344D01*
X116963271Y-49172444D01*
X116978496Y-49126678D01*
X117018978Y-49068354D01*
X117084566Y-49041175D01*
X117154437Y-49053770D01*
X117206406Y-49102141D01*
X117220971Y-49138751D01*
X117228564Y-49172444D01*
X117231645Y-49182275D01*
X117311770Y-49379603D01*
X117316413Y-49388794D01*
X117427694Y-49570388D01*
X117433777Y-49578699D01*
X117573213Y-49739667D01*
X117580580Y-49746883D01*
X117744434Y-49882916D01*
X117752881Y-49888831D01*
X117936756Y-49996279D01*
X117946042Y-50000729D01*
X118145001Y-50076703D01*
X118154899Y-50079579D01*
X118258250Y-50100606D01*
X118272299Y-50099410D01*
X118276000Y-50089065D01*
X118276000Y-48642000D01*
X118296002Y-48573879D01*
X118349658Y-48527386D01*
X118402000Y-48516000D01*
X118658000Y-48516000D01*
X118726121Y-48536002D01*
X118772614Y-48589658D01*
X118784000Y-48642000D01*
X118784000Y-50088517D01*
X118788064Y-50102359D01*
X118801478Y-50104393D01*
X118808184Y-50103534D01*
X118818262Y-50101392D01*
X119022255Y-50040191D01*
X119031842Y-50036433D01*
X119223095Y-49942739D01*
X119231945Y-49937464D01*
X119405328Y-49813792D01*
X119413200Y-49807139D01*
X119564052Y-49656812D01*
X119570730Y-49648965D01*
X119695003Y-49476020D01*
X119700313Y-49467183D01*
X119794670Y-49276267D01*
X119798469Y-49266672D01*
X119839593Y-49131319D01*
X119878534Y-49071955D01*
X119943388Y-49043068D01*
X120013564Y-49053830D01*
X120066782Y-49100823D01*
X120081270Y-49133217D01*
X120088544Y-49158586D01*
X120091359Y-49164063D01*
X120091360Y-49164066D01*
X120179897Y-49336341D01*
X120182712Y-49341818D01*
X120310677Y-49503270D01*
X120315370Y-49507264D01*
X120315371Y-49507265D01*
X120389541Y-49570388D01*
X120467564Y-49636791D01*
X120472942Y-49639797D01*
X120472944Y-49639798D01*
X120503387Y-49656812D01*
X120647398Y-49737297D01*
X120724020Y-49762193D01*
X120837471Y-49799056D01*
X120837475Y-49799057D01*
X120843329Y-49800959D01*
X121047894Y-49825351D01*
X121054029Y-49824879D01*
X121054031Y-49824879D01*
X121126625Y-49819293D01*
X121253300Y-49809546D01*
X121259230Y-49807890D01*
X121259232Y-49807890D01*
X121422900Y-49762193D01*
X121451725Y-49754145D01*
X121457214Y-49751372D01*
X121457220Y-49751370D01*
X121630116Y-49664033D01*
X121635610Y-49661258D01*
X121651345Y-49648965D01*
X121793101Y-49538213D01*
X121797951Y-49534424D01*
X121809316Y-49521258D01*
X121928540Y-49383134D01*
X121928540Y-49383133D01*
X121932564Y-49378472D01*
X121953387Y-49341818D01*
X121971056Y-49310714D01*
X122034323Y-49199344D01*
X122099351Y-49003863D01*
X122125171Y-48799474D01*
X122125583Y-48770000D01*
X122105480Y-48564970D01*
X122045935Y-48367749D01*
X121949218Y-48185849D01*
X121845752Y-48058987D01*
X121822906Y-48030975D01*
X121822903Y-48030972D01*
X121819011Y-48026200D01*
X121719546Y-47943915D01*
X121665025Y-47898811D01*
X121665021Y-47898809D01*
X121660275Y-47894882D01*
X121479055Y-47796897D01*
X121282254Y-47735977D01*
X121276129Y-47735333D01*
X121276128Y-47735333D01*
X121083498Y-47715087D01*
X121083496Y-47715087D01*
X121077369Y-47714443D01*
X120990529Y-47722346D01*
X120878342Y-47732555D01*
X120878339Y-47732556D01*
X120872203Y-47733114D01*
X120674572Y-47791280D01*
X120669107Y-47794137D01*
X120667313Y-47795075D01*
X120492002Y-47886726D01*
X120487201Y-47890586D01*
X120487198Y-47890588D01*
X120432263Y-47934757D01*
X120331447Y-48015815D01*
X120199024Y-48173630D01*
X120196056Y-48179028D01*
X120196053Y-48179033D01*
X120115190Y-48326124D01*
X120099776Y-48354162D01*
X120097914Y-48360032D01*
X120081068Y-48413138D01*
X120041405Y-48472022D01*
X119976202Y-48500114D01*
X119906163Y-48488497D01*
X119853523Y-48440857D01*
X119838762Y-48405735D01*
X119821214Y-48335875D01*
X119817894Y-48326124D01*
X119732972Y-48130814D01*
X119728105Y-48121739D01*
X119612426Y-47942926D01*
X119606136Y-47934757D01*
X119462806Y-47777240D01*
X119455273Y-47770215D01*
X119288139Y-47638222D01*
X119279552Y-47632517D01*
X119093117Y-47529599D01*
X119083705Y-47525369D01*
X118892031Y-47457493D01*
X118834495Y-47415899D01*
X118808579Y-47349801D01*
X118822513Y-47280185D01*
X118871872Y-47229154D01*
X118900206Y-47217362D01*
X118905790Y-47215803D01*
X118905799Y-47215800D01*
X118911725Y-47214145D01*
X118917214Y-47211372D01*
X118917220Y-47211370D01*
X119090116Y-47124033D01*
X119095610Y-47121258D01*
X119103568Y-47115041D01*
X119211919Y-47030388D01*
X119257951Y-46994424D01*
X119266314Y-46984736D01*
X119388540Y-46843134D01*
X119388540Y-46843133D01*
X119392564Y-46838472D01*
X119395902Y-46832597D01*
X119431056Y-46770714D01*
X119494323Y-46659344D01*
X119559351Y-46463863D01*
X119585171Y-46259474D01*
X119585583Y-46230000D01*
X119584138Y-46215262D01*
X120014520Y-46215262D01*
X120015036Y-46221406D01*
X120030902Y-46410342D01*
X120031759Y-46420553D01*
X120033458Y-46426478D01*
X120079395Y-46586678D01*
X120088544Y-46618586D01*
X120091359Y-46624063D01*
X120091360Y-46624066D01*
X120179897Y-46796341D01*
X120182712Y-46801818D01*
X120310677Y-46963270D01*
X120315370Y-46967264D01*
X120315371Y-46967265D01*
X120419735Y-47056085D01*
X120467564Y-47096791D01*
X120472942Y-47099797D01*
X120472944Y-47099798D01*
X120504563Y-47117469D01*
X120647398Y-47197297D01*
X120742238Y-47228113D01*
X120837471Y-47259056D01*
X120837475Y-47259057D01*
X120843329Y-47260959D01*
X121047894Y-47285351D01*
X121054029Y-47284879D01*
X121054031Y-47284879D01*
X121110039Y-47280569D01*
X121253300Y-47269546D01*
X121259230Y-47267890D01*
X121259232Y-47267890D01*
X121397768Y-47229210D01*
X121451725Y-47214145D01*
X121457214Y-47211372D01*
X121457220Y-47211370D01*
X121630116Y-47124033D01*
X121635610Y-47121258D01*
X121643568Y-47115041D01*
X121751919Y-47030388D01*
X121797951Y-46994424D01*
X121806314Y-46984736D01*
X121928540Y-46843134D01*
X121928540Y-46843133D01*
X121932564Y-46838472D01*
X121935902Y-46832597D01*
X121971056Y-46770714D01*
X122034323Y-46659344D01*
X122043271Y-46632444D01*
X122058496Y-46586678D01*
X122098978Y-46528354D01*
X122164566Y-46501175D01*
X122234437Y-46513770D01*
X122286406Y-46562141D01*
X122300971Y-46598751D01*
X122308564Y-46632444D01*
X122311645Y-46642275D01*
X122391770Y-46839603D01*
X122396413Y-46848794D01*
X122507694Y-47030388D01*
X122513777Y-47038699D01*
X122653213Y-47199667D01*
X122660580Y-47206883D01*
X122824434Y-47342916D01*
X122832881Y-47348831D01*
X123016756Y-47456279D01*
X123026042Y-47460729D01*
X123225001Y-47536703D01*
X123239866Y-47541022D01*
X123239289Y-47543008D01*
X123294260Y-47572082D01*
X123329110Y-47633936D01*
X123324988Y-47704813D01*
X123283201Y-47762209D01*
X123241930Y-47783228D01*
X123220489Y-47789538D01*
X123220484Y-47789540D01*
X123214572Y-47791280D01*
X123209107Y-47794137D01*
X123207313Y-47795075D01*
X123032002Y-47886726D01*
X123027201Y-47890586D01*
X123027198Y-47890588D01*
X122972263Y-47934757D01*
X122871447Y-48015815D01*
X122739024Y-48173630D01*
X122736056Y-48179028D01*
X122736053Y-48179033D01*
X122655190Y-48326124D01*
X122639776Y-48354162D01*
X122577484Y-48550532D01*
X122576798Y-48556649D01*
X122576797Y-48556653D01*
X122565309Y-48659073D01*
X122554520Y-48755262D01*
X122555036Y-48761406D01*
X122564645Y-48875831D01*
X122571759Y-48960553D01*
X122573458Y-48966478D01*
X122619395Y-49126678D01*
X122628544Y-49158586D01*
X122631359Y-49164063D01*
X122631360Y-49164066D01*
X122719897Y-49336341D01*
X122722712Y-49341818D01*
X122850677Y-49503270D01*
X122855370Y-49507264D01*
X122855371Y-49507265D01*
X122929541Y-49570388D01*
X123007564Y-49636791D01*
X123012942Y-49639797D01*
X123012944Y-49639798D01*
X123043387Y-49656812D01*
X123187398Y-49737297D01*
X123264020Y-49762193D01*
X123377471Y-49799056D01*
X123377475Y-49799057D01*
X123383329Y-49800959D01*
X123587894Y-49825351D01*
X123594029Y-49824879D01*
X123594031Y-49824879D01*
X123666625Y-49819293D01*
X123793300Y-49809546D01*
X123799230Y-49807890D01*
X123799232Y-49807890D01*
X123962900Y-49762193D01*
X123991725Y-49754145D01*
X123997214Y-49751372D01*
X123997220Y-49751370D01*
X124170116Y-49664033D01*
X124175610Y-49661258D01*
X124191345Y-49648965D01*
X124333101Y-49538213D01*
X124337951Y-49534424D01*
X124349316Y-49521258D01*
X124468540Y-49383134D01*
X124468540Y-49383133D01*
X124472564Y-49378472D01*
X124493387Y-49341818D01*
X124511056Y-49310714D01*
X124574323Y-49199344D01*
X124639351Y-49003863D01*
X124665171Y-48799474D01*
X124665583Y-48770000D01*
X124664138Y-48755262D01*
X125094520Y-48755262D01*
X125095036Y-48761406D01*
X125104645Y-48875831D01*
X125111759Y-48960553D01*
X125113458Y-48966478D01*
X125159395Y-49126678D01*
X125168544Y-49158586D01*
X125171359Y-49164063D01*
X125171360Y-49164066D01*
X125259897Y-49336341D01*
X125262712Y-49341818D01*
X125390677Y-49503270D01*
X125395370Y-49507264D01*
X125395371Y-49507265D01*
X125469541Y-49570388D01*
X125547564Y-49636791D01*
X125552942Y-49639797D01*
X125552944Y-49639798D01*
X125583387Y-49656812D01*
X125727398Y-49737297D01*
X125804020Y-49762193D01*
X125917471Y-49799056D01*
X125917475Y-49799057D01*
X125923329Y-49800959D01*
X126127894Y-49825351D01*
X126134029Y-49824879D01*
X126134031Y-49824879D01*
X126206625Y-49819293D01*
X126333300Y-49809546D01*
X126339230Y-49807890D01*
X126339232Y-49807890D01*
X126502900Y-49762193D01*
X126531725Y-49754145D01*
X126537214Y-49751372D01*
X126537220Y-49751370D01*
X126710116Y-49664033D01*
X126715610Y-49661258D01*
X126731345Y-49648965D01*
X126873101Y-49538213D01*
X126877951Y-49534424D01*
X126889316Y-49521258D01*
X127008540Y-49383134D01*
X127008540Y-49383133D01*
X127012564Y-49378472D01*
X127033387Y-49341818D01*
X127051056Y-49310714D01*
X127114323Y-49199344D01*
X127179351Y-49003863D01*
X127205171Y-48799474D01*
X127205583Y-48770000D01*
X127185480Y-48564970D01*
X127125935Y-48367749D01*
X127029218Y-48185849D01*
X126925752Y-48058987D01*
X126902906Y-48030975D01*
X126902903Y-48030972D01*
X126899011Y-48026200D01*
X126799546Y-47943915D01*
X126745025Y-47898811D01*
X126745021Y-47898809D01*
X126740275Y-47894882D01*
X126559055Y-47796897D01*
X126362254Y-47735977D01*
X126356129Y-47735333D01*
X126356128Y-47735333D01*
X126163498Y-47715087D01*
X126163496Y-47715087D01*
X126157369Y-47714443D01*
X126070529Y-47722346D01*
X125958342Y-47732555D01*
X125958339Y-47732556D01*
X125952203Y-47733114D01*
X125754572Y-47791280D01*
X125749107Y-47794137D01*
X125747313Y-47795075D01*
X125572002Y-47886726D01*
X125567201Y-47890586D01*
X125567198Y-47890588D01*
X125512263Y-47934757D01*
X125411447Y-48015815D01*
X125279024Y-48173630D01*
X125276056Y-48179028D01*
X125276053Y-48179033D01*
X125195190Y-48326124D01*
X125179776Y-48354162D01*
X125117484Y-48550532D01*
X125116798Y-48556649D01*
X125116797Y-48556653D01*
X125105309Y-48659073D01*
X125094520Y-48755262D01*
X124664138Y-48755262D01*
X124645480Y-48564970D01*
X124585935Y-48367749D01*
X124489218Y-48185849D01*
X124385752Y-48058987D01*
X124362906Y-48030975D01*
X124362903Y-48030972D01*
X124359011Y-48026200D01*
X124259546Y-47943915D01*
X124205025Y-47898811D01*
X124205021Y-47898809D01*
X124200275Y-47894882D01*
X124019055Y-47796897D01*
X123968183Y-47781150D01*
X123909025Y-47741899D01*
X123880477Y-47676895D01*
X123891605Y-47606776D01*
X123938876Y-47553804D01*
X123969235Y-47540099D01*
X124102255Y-47500191D01*
X124111842Y-47496433D01*
X124303095Y-47402739D01*
X124311945Y-47397464D01*
X124485328Y-47273792D01*
X124493200Y-47267139D01*
X124644052Y-47116812D01*
X124650730Y-47108965D01*
X124775003Y-46936020D01*
X124780313Y-46927183D01*
X124874670Y-46736267D01*
X124878469Y-46726672D01*
X124919593Y-46591319D01*
X124958534Y-46531955D01*
X125023388Y-46503068D01*
X125093564Y-46513830D01*
X125146782Y-46560823D01*
X125161270Y-46593217D01*
X125168544Y-46618586D01*
X125171359Y-46624063D01*
X125171360Y-46624066D01*
X125259897Y-46796341D01*
X125262712Y-46801818D01*
X125390677Y-46963270D01*
X125395370Y-46967264D01*
X125395371Y-46967265D01*
X125499735Y-47056085D01*
X125547564Y-47096791D01*
X125552942Y-47099797D01*
X125552944Y-47099798D01*
X125584563Y-47117469D01*
X125727398Y-47197297D01*
X125822238Y-47228113D01*
X125917471Y-47259056D01*
X125917475Y-47259057D01*
X125923329Y-47260959D01*
X126127894Y-47285351D01*
X126134029Y-47284879D01*
X126134031Y-47284879D01*
X126190039Y-47280569D01*
X126333300Y-47269546D01*
X126339230Y-47267890D01*
X126339232Y-47267890D01*
X126477768Y-47229210D01*
X126531725Y-47214145D01*
X126537214Y-47211372D01*
X126537220Y-47211370D01*
X126710116Y-47124033D01*
X126715610Y-47121258D01*
X126723568Y-47115041D01*
X126831919Y-47030388D01*
X126877951Y-46994424D01*
X126886314Y-46984736D01*
X127008540Y-46843134D01*
X127008540Y-46843133D01*
X127012564Y-46838472D01*
X127015902Y-46832597D01*
X127051056Y-46770714D01*
X127114323Y-46659344D01*
X127179351Y-46463863D01*
X127205171Y-46259474D01*
X127205583Y-46230000D01*
X127185480Y-46024970D01*
X127125935Y-45827749D01*
X127029218Y-45645849D01*
X126953206Y-45552649D01*
X126902906Y-45490975D01*
X126902903Y-45490972D01*
X126899011Y-45486200D01*
X126886458Y-45475815D01*
X126745025Y-45358811D01*
X126745021Y-45358809D01*
X126740275Y-45354882D01*
X126559055Y-45256897D01*
X126362254Y-45195977D01*
X126356129Y-45195333D01*
X126356128Y-45195333D01*
X126163498Y-45175087D01*
X126163496Y-45175087D01*
X126157369Y-45174443D01*
X126070529Y-45182346D01*
X125958342Y-45192555D01*
X125958339Y-45192556D01*
X125952203Y-45193114D01*
X125754572Y-45251280D01*
X125572002Y-45346726D01*
X125567201Y-45350586D01*
X125567198Y-45350588D01*
X125459764Y-45436967D01*
X125411447Y-45475815D01*
X125279024Y-45633630D01*
X125276056Y-45639028D01*
X125276053Y-45639033D01*
X125269315Y-45651290D01*
X125179776Y-45814162D01*
X125177914Y-45820032D01*
X125161068Y-45873138D01*
X125121405Y-45932022D01*
X125056202Y-45960114D01*
X124986163Y-45948497D01*
X124933523Y-45900857D01*
X124918762Y-45865735D01*
X124901214Y-45795875D01*
X124897894Y-45786124D01*
X124812972Y-45590814D01*
X124808105Y-45581739D01*
X124692426Y-45402926D01*
X124686136Y-45394757D01*
X124542806Y-45237240D01*
X124535273Y-45230215D01*
X124368139Y-45098222D01*
X124359552Y-45092517D01*
X124173117Y-44989599D01*
X124163705Y-44985369D01*
X123962959Y-44914280D01*
X123952988Y-44911646D01*
X123881837Y-44898972D01*
X123868540Y-44900432D01*
X123864000Y-44914989D01*
X123864000Y-46358000D01*
X123843998Y-46426121D01*
X123790342Y-46472614D01*
X123738000Y-46484000D01*
X123482000Y-46484000D01*
X123413879Y-46463998D01*
X123367386Y-46410342D01*
X123356000Y-46358000D01*
X123356000Y-44913102D01*
X123352082Y-44899758D01*
X123337806Y-44897771D01*
X123299324Y-44903660D01*
X123289288Y-44906051D01*
X123086868Y-44972212D01*
X123077359Y-44976209D01*
X122888463Y-45074542D01*
X122879738Y-45080036D01*
X122709433Y-45207905D01*
X122701726Y-45214748D01*
X122554590Y-45368717D01*
X122548104Y-45376727D01*
X122428098Y-45552649D01*
X122423000Y-45561623D01*
X122333338Y-45754783D01*
X122329775Y-45764470D01*
X122301012Y-45868185D01*
X122263533Y-45928483D01*
X122199405Y-45958946D01*
X122128986Y-45949903D01*
X122074636Y-45904224D01*
X122058973Y-45870933D01*
X122058143Y-45868185D01*
X122045935Y-45827749D01*
X121949218Y-45645849D01*
X121873206Y-45552649D01*
X121822906Y-45490975D01*
X121822903Y-45490972D01*
X121819011Y-45486200D01*
X121806458Y-45475815D01*
X121665025Y-45358811D01*
X121665021Y-45358809D01*
X121660275Y-45354882D01*
X121479055Y-45256897D01*
X121282254Y-45195977D01*
X121276129Y-45195333D01*
X121276128Y-45195333D01*
X121083498Y-45175087D01*
X121083496Y-45175087D01*
X121077369Y-45174443D01*
X120990529Y-45182346D01*
X120878342Y-45192555D01*
X120878339Y-45192556D01*
X120872203Y-45193114D01*
X120674572Y-45251280D01*
X120492002Y-45346726D01*
X120487201Y-45350586D01*
X120487198Y-45350588D01*
X120379764Y-45436967D01*
X120331447Y-45475815D01*
X120199024Y-45633630D01*
X120196056Y-45639028D01*
X120196053Y-45639033D01*
X120189315Y-45651290D01*
X120099776Y-45814162D01*
X120037484Y-46010532D01*
X120036798Y-46016649D01*
X120036797Y-46016653D01*
X120017346Y-46190069D01*
X120014520Y-46215262D01*
X119584138Y-46215262D01*
X119565480Y-46024970D01*
X119505935Y-45827749D01*
X119409218Y-45645849D01*
X119333206Y-45552649D01*
X119282906Y-45490975D01*
X119282903Y-45490972D01*
X119279011Y-45486200D01*
X119266458Y-45475815D01*
X119125025Y-45358811D01*
X119125021Y-45358809D01*
X119120275Y-45354882D01*
X118939055Y-45256897D01*
X118742254Y-45195977D01*
X118736129Y-45195333D01*
X118736128Y-45195333D01*
X118543498Y-45175087D01*
X118543496Y-45175087D01*
X118537369Y-45174443D01*
X118450529Y-45182346D01*
X118338342Y-45192555D01*
X118338339Y-45192556D01*
X118332203Y-45193114D01*
X118134572Y-45251280D01*
X117952002Y-45346726D01*
X117947201Y-45350586D01*
X117947198Y-45350588D01*
X117839764Y-45436967D01*
X117791447Y-45475815D01*
X117659024Y-45633630D01*
X117656056Y-45639028D01*
X117656053Y-45639033D01*
X117649315Y-45651290D01*
X117559776Y-45814162D01*
X117497484Y-46010532D01*
X117496798Y-46016649D01*
X117496797Y-46016653D01*
X117477346Y-46190069D01*
X117474520Y-46215262D01*
X117475036Y-46221406D01*
X117490902Y-46410342D01*
X117491759Y-46420553D01*
X117493458Y-46426478D01*
X117539395Y-46586678D01*
X117548544Y-46618586D01*
X117551359Y-46624063D01*
X117551360Y-46624066D01*
X117639897Y-46796341D01*
X117642712Y-46801818D01*
X117770677Y-46963270D01*
X117775370Y-46967264D01*
X117775371Y-46967265D01*
X117879735Y-47056085D01*
X117927564Y-47096791D01*
X117932942Y-47099797D01*
X117932944Y-47099798D01*
X117964563Y-47117469D01*
X118107398Y-47197297D01*
X118172437Y-47218429D01*
X118231042Y-47258502D01*
X118258680Y-47323898D01*
X118246574Y-47393855D01*
X118198568Y-47446162D01*
X118172646Y-47458027D01*
X118006868Y-47512212D01*
X117997359Y-47516209D01*
X117808463Y-47614542D01*
X117799738Y-47620036D01*
X117629433Y-47747905D01*
X117621726Y-47754748D01*
X117474590Y-47908717D01*
X117468104Y-47916727D01*
X117348098Y-48092649D01*
X117343000Y-48101623D01*
X117253338Y-48294783D01*
X117249775Y-48304470D01*
X117221012Y-48408185D01*
X117183533Y-48468483D01*
X117119405Y-48498946D01*
X117048986Y-48489903D01*
X116994636Y-48444224D01*
X116978973Y-48410933D01*
X116978143Y-48408185D01*
X116965935Y-48367749D01*
X116869218Y-48185849D01*
X116765752Y-48058987D01*
X116742906Y-48030975D01*
X116742903Y-48030972D01*
X116739011Y-48026200D01*
X116639546Y-47943915D01*
X116585025Y-47898811D01*
X116585021Y-47898809D01*
X116580275Y-47894882D01*
X116399055Y-47796897D01*
X116202254Y-47735977D01*
X116196129Y-47735333D01*
X116196128Y-47735333D01*
X116003498Y-47715087D01*
X116003496Y-47715087D01*
X115997369Y-47714443D01*
X115910529Y-47722346D01*
X115798342Y-47732555D01*
X115798339Y-47732556D01*
X115792203Y-47733114D01*
X115594572Y-47791280D01*
X115589107Y-47794137D01*
X115587313Y-47795075D01*
X115412002Y-47886726D01*
X115407201Y-47890586D01*
X115407198Y-47890588D01*
X115352263Y-47934757D01*
X115251447Y-48015815D01*
X115119024Y-48173630D01*
X115116056Y-48179028D01*
X115116053Y-48179033D01*
X115035190Y-48326124D01*
X115019776Y-48354162D01*
X114957484Y-48550532D01*
X114956798Y-48556649D01*
X114956797Y-48556653D01*
X114945309Y-48659073D01*
X114934520Y-48755262D01*
X114504138Y-48755262D01*
X114485480Y-48564970D01*
X114425935Y-48367749D01*
X114329218Y-48185849D01*
X114225752Y-48058987D01*
X114202906Y-48030975D01*
X114202903Y-48030972D01*
X114199011Y-48026200D01*
X114099546Y-47943915D01*
X114045025Y-47898811D01*
X114045021Y-47898809D01*
X114040275Y-47894882D01*
X113859055Y-47796897D01*
X113808183Y-47781150D01*
X113749025Y-47741899D01*
X113720477Y-47676895D01*
X113731605Y-47606776D01*
X113778876Y-47553804D01*
X113809235Y-47540099D01*
X113942255Y-47500191D01*
X113951842Y-47496433D01*
X114143095Y-47402739D01*
X114151945Y-47397464D01*
X114325328Y-47273792D01*
X114333200Y-47267139D01*
X114484052Y-47116812D01*
X114490730Y-47108965D01*
X114615003Y-46936020D01*
X114620313Y-46927183D01*
X114714670Y-46736267D01*
X114718469Y-46726672D01*
X114759593Y-46591319D01*
X114798534Y-46531955D01*
X114863388Y-46503068D01*
X114933564Y-46513830D01*
X114986782Y-46560823D01*
X115001270Y-46593217D01*
X115008544Y-46618586D01*
X115011359Y-46624063D01*
X115011360Y-46624066D01*
X115099897Y-46796341D01*
X115102712Y-46801818D01*
X115230677Y-46963270D01*
X115235370Y-46967264D01*
X115235371Y-46967265D01*
X115339735Y-47056085D01*
X115387564Y-47096791D01*
X115392942Y-47099797D01*
X115392944Y-47099798D01*
X115424563Y-47117469D01*
X115567398Y-47197297D01*
X115662238Y-47228113D01*
X115757471Y-47259056D01*
X115757475Y-47259057D01*
X115763329Y-47260959D01*
X115967894Y-47285351D01*
X115974029Y-47284879D01*
X115974031Y-47284879D01*
X116030039Y-47280569D01*
X116173300Y-47269546D01*
X116179230Y-47267890D01*
X116179232Y-47267890D01*
X116317768Y-47229210D01*
X116371725Y-47214145D01*
X116377214Y-47211372D01*
X116377220Y-47211370D01*
X116550116Y-47124033D01*
X116555610Y-47121258D01*
X116563568Y-47115041D01*
X116671919Y-47030388D01*
X116717951Y-46994424D01*
X116726314Y-46984736D01*
X116848540Y-46843134D01*
X116848540Y-46843133D01*
X116852564Y-46838472D01*
X116855902Y-46832597D01*
X116891056Y-46770714D01*
X116954323Y-46659344D01*
X117019351Y-46463863D01*
X117045171Y-46259474D01*
X117045583Y-46230000D01*
X117025480Y-46024970D01*
X116965935Y-45827749D01*
X116869218Y-45645849D01*
X116793206Y-45552649D01*
X116742906Y-45490975D01*
X116742903Y-45490972D01*
X116739011Y-45486200D01*
X116726458Y-45475815D01*
X116585025Y-45358811D01*
X116585021Y-45358809D01*
X116580275Y-45354882D01*
X116399055Y-45256897D01*
X116202254Y-45195977D01*
X116196129Y-45195333D01*
X116196128Y-45195333D01*
X116003498Y-45175087D01*
X116003496Y-45175087D01*
X115997369Y-45174443D01*
X115910529Y-45182346D01*
X115798342Y-45192555D01*
X115798339Y-45192556D01*
X115792203Y-45193114D01*
X115594572Y-45251280D01*
X115412002Y-45346726D01*
X115407201Y-45350586D01*
X115407198Y-45350588D01*
X115299764Y-45436967D01*
X115251447Y-45475815D01*
X115119024Y-45633630D01*
X115116056Y-45639028D01*
X115116053Y-45639033D01*
X115109315Y-45651290D01*
X115019776Y-45814162D01*
X115017914Y-45820032D01*
X115001068Y-45873138D01*
X114961405Y-45932022D01*
X114896202Y-45960114D01*
X114826163Y-45948497D01*
X114773523Y-45900857D01*
X114758762Y-45865735D01*
X114741214Y-45795875D01*
X114737894Y-45786124D01*
X114652972Y-45590814D01*
X114648105Y-45581739D01*
X114532426Y-45402926D01*
X114526136Y-45394757D01*
X114382806Y-45237240D01*
X114375273Y-45230215D01*
X114208139Y-45098222D01*
X114199552Y-45092517D01*
X114013117Y-44989599D01*
X114003705Y-44985369D01*
X113802959Y-44914280D01*
X113792988Y-44911646D01*
X113721837Y-44898972D01*
X113708540Y-44900432D01*
X113704000Y-44914989D01*
X113704000Y-46358000D01*
X113683998Y-46426121D01*
X113630342Y-46472614D01*
X113578000Y-46484000D01*
X113322000Y-46484000D01*
X113253879Y-46463998D01*
X113207386Y-46410342D01*
X113196000Y-46358000D01*
X113196000Y-44913102D01*
X113192082Y-44899758D01*
X113177806Y-44897771D01*
X113139324Y-44903660D01*
X113129288Y-44906051D01*
X112926868Y-44972212D01*
X112917359Y-44976209D01*
X112728463Y-45074542D01*
X112719738Y-45080036D01*
X112549433Y-45207905D01*
X112541726Y-45214748D01*
X112394590Y-45368717D01*
X112388104Y-45376727D01*
X112268098Y-45552649D01*
X112263000Y-45561623D01*
X112173338Y-45754783D01*
X112169775Y-45764470D01*
X112141012Y-45868185D01*
X112103533Y-45928483D01*
X112039405Y-45958946D01*
X111968986Y-45949903D01*
X111914636Y-45904224D01*
X111898973Y-45870933D01*
X111898143Y-45868185D01*
X111885935Y-45827749D01*
X111789218Y-45645849D01*
X111713206Y-45552649D01*
X111662906Y-45490975D01*
X111662903Y-45490972D01*
X111659011Y-45486200D01*
X111646458Y-45475815D01*
X111505025Y-45358811D01*
X111505021Y-45358809D01*
X111500275Y-45354882D01*
X111319055Y-45256897D01*
X111122254Y-45195977D01*
X111116129Y-45195333D01*
X111116128Y-45195333D01*
X110923498Y-45175087D01*
X110923496Y-45175087D01*
X110917369Y-45174443D01*
X110830529Y-45182346D01*
X110718342Y-45192555D01*
X110718339Y-45192556D01*
X110712203Y-45193114D01*
X110514572Y-45251280D01*
X110332002Y-45346726D01*
X110327201Y-45350586D01*
X110327198Y-45350588D01*
X110219764Y-45436967D01*
X110171447Y-45475815D01*
X110039024Y-45633630D01*
X110036056Y-45639028D01*
X110036053Y-45639033D01*
X110029315Y-45651290D01*
X109939776Y-45814162D01*
X109877484Y-46010532D01*
X109876798Y-46016649D01*
X109876797Y-46016653D01*
X109857346Y-46190069D01*
X109854520Y-46215262D01*
X109424138Y-46215262D01*
X109405480Y-46024970D01*
X109345935Y-45827749D01*
X109249218Y-45645849D01*
X109173206Y-45552649D01*
X109122906Y-45490975D01*
X109122903Y-45490972D01*
X109119011Y-45486200D01*
X109106458Y-45475815D01*
X108965025Y-45358811D01*
X108965021Y-45358809D01*
X108960275Y-45354882D01*
X108779055Y-45256897D01*
X108582254Y-45195977D01*
X108576129Y-45195333D01*
X108576128Y-45195333D01*
X108383498Y-45175087D01*
X108383496Y-45175087D01*
X108377369Y-45174443D01*
X108290529Y-45182346D01*
X108178342Y-45192555D01*
X108178339Y-45192556D01*
X108172203Y-45193114D01*
X107974572Y-45251280D01*
X107792002Y-45346726D01*
X107787201Y-45350586D01*
X107787198Y-45350588D01*
X107679764Y-45436967D01*
X107631447Y-45475815D01*
X107499024Y-45633630D01*
X107496056Y-45639028D01*
X107496053Y-45639033D01*
X107489315Y-45651290D01*
X107399776Y-45814162D01*
X107337484Y-46010532D01*
X107336798Y-46016649D01*
X107336797Y-46016653D01*
X107317346Y-46190069D01*
X107314520Y-46215262D01*
X104372472Y-46215262D01*
X104346677Y-46195540D01*
X104346676Y-46195539D01*
X104342651Y-46192462D01*
X104122761Y-46074557D01*
X103886848Y-45993326D01*
X103758901Y-45971226D01*
X103644893Y-45951533D01*
X103644887Y-45951532D01*
X103640983Y-45950858D01*
X103637022Y-45950678D01*
X103637021Y-45950678D01*
X103612497Y-45949564D01*
X103612478Y-45949564D01*
X103611078Y-45949500D01*
X103437309Y-45949500D01*
X103434801Y-45949702D01*
X103434796Y-45949702D01*
X103256339Y-45964060D01*
X103256334Y-45964061D01*
X103251298Y-45964466D01*
X103246390Y-45965671D01*
X103246387Y-45965672D01*
X103063752Y-46010532D01*
X103008994Y-46023982D01*
X103004342Y-46025957D01*
X103004338Y-46025958D01*
X102783978Y-46119495D01*
X102779323Y-46121471D01*
X102568192Y-46254427D01*
X102564398Y-46257772D01*
X102384832Y-46416080D01*
X102384829Y-46416083D01*
X102381035Y-46419428D01*
X102222666Y-46612230D01*
X102097160Y-46827872D01*
X102007745Y-47060805D01*
X102006712Y-47065751D01*
X102006710Y-47065757D01*
X101974816Y-47218429D01*
X101956722Y-47305039D01*
X101956493Y-47310088D01*
X101956492Y-47310094D01*
X101955002Y-47342916D01*
X101945404Y-47554288D01*
X100050500Y-47554288D01*
X100050500Y-47010045D01*
X100052077Y-47010045D01*
X100051634Y-47007309D01*
X100054661Y-47000000D01*
X100050997Y-46991154D01*
X100051387Y-46984207D01*
X100051390Y-46984200D01*
X100051908Y-46977865D01*
X100052599Y-46971439D01*
X100052266Y-46968554D01*
X100068649Y-46676822D01*
X100070231Y-46662785D01*
X100079485Y-46608324D01*
X100100608Y-46484000D01*
X100123265Y-46350651D01*
X100126409Y-46336876D01*
X100214058Y-46032640D01*
X100218725Y-46019303D01*
X100315310Y-45786124D01*
X100339886Y-45726793D01*
X100346015Y-45714066D01*
X100380710Y-45651290D01*
X100499167Y-45436959D01*
X100506674Y-45425011D01*
X100689900Y-45166778D01*
X100698698Y-45155747D01*
X100909675Y-44919664D01*
X100919665Y-44909674D01*
X100930761Y-44899758D01*
X101155747Y-44698698D01*
X101166778Y-44689900D01*
X101425011Y-44506674D01*
X101436959Y-44499167D01*
X101714070Y-44346013D01*
X101726793Y-44339886D01*
X101839699Y-44293119D01*
X102019303Y-44218725D01*
X102032640Y-44214058D01*
X102336876Y-44126409D01*
X102350651Y-44123265D01*
X102506718Y-44096748D01*
X102662790Y-44070230D01*
X102676822Y-44068649D01*
X102991154Y-44050997D01*
X102991360Y-44054659D01*
X102997268Y-44053529D01*
X103000000Y-44054661D01*
X103007418Y-44051588D01*
X103011644Y-44050780D01*
X103020876Y-44051772D01*
X103029725Y-44050500D01*
X161989955Y-44050500D01*
X161989955Y-44052077D01*
G37*
G04 #@! TD.AperFunction*
M02*
