M48
; DRILL file {KiCad (6.0.10-0)} date Saturday, May 27, 2023 at 03:28:01 PM
; FORMAT={-:-/ absolute / metric / decimal}
; #@! TF.CreationDate,2023-05-27T15:28:01-07:00
; #@! TF.GenerationSoftware,Kicad,Pcbnew,(6.0.10-0)
; #@! TF.FileFunction,Plated,1,2,PTH
FMAT,2
METRIC
; #@! TA.AperFunction,Plated,PTH,ViaDrill
T1C0.600
; #@! TA.AperFunction,Plated,PTH,ComponentDrill
T2C0.800
; #@! TA.AperFunction,Plated,PTH,ComponentDrill
T3C0.900
; #@! TA.AperFunction,Plated,PTH,ComponentDrill
T4C1.000
; #@! TA.AperFunction,Plated,PTH,ComponentDrill
T5C1.300
%
G90
G05
T1
X131.9Y-74.66
X141.94Y-67.97
X145.77Y-57.58
T2
X117.08Y-96.85
X122.08Y-96.85
X128.58Y-96.84
X133.58Y-96.84
X140.19Y-96.84
X145.19Y-96.84
X151.04Y-96.87
X156.04Y-96.87
T3
X154.45Y-53.295
X154.45Y-55.835
T4
X103.63Y-55.01
X106.17Y-55.01
X108.37Y-46.23
X108.37Y-48.77
X108.71Y-55.01
X110.91Y-46.23
X110.91Y-48.77
X111.25Y-55.01
X113.45Y-46.23
X113.45Y-48.77
X115.99Y-46.23
X115.99Y-48.77
X118.53Y-46.23
X118.53Y-48.77
X121.07Y-46.23
X121.07Y-48.77
X123.61Y-46.23
X123.61Y-48.77
X125.39Y-80.67
X126.15Y-46.23
X126.15Y-48.77
X127.93Y-80.67
X127.94Y-62.612
X128.69Y-46.23
X128.69Y-48.77
X130.47Y-80.67
X130.48Y-62.612
X131.23Y-46.23
X131.23Y-48.77
X133.01Y-80.67
X133.02Y-62.612
X133.77Y-46.23
X133.77Y-48.77
X135.55Y-80.67
X135.56Y-62.612
X136.31Y-46.23
X136.31Y-48.77
X138.09Y-80.67
X138.85Y-46.23
X138.85Y-48.77
X141.39Y-46.23
X141.39Y-48.77
X143.93Y-46.23
X143.93Y-48.77
X146.47Y-46.23
X146.47Y-48.77
X149.01Y-46.23
X149.01Y-48.77
X151.55Y-46.23
X151.55Y-48.77
X152.87Y-90.59
X152.89Y-61.13
X154.09Y-46.23
X154.09Y-48.77
X155.41Y-90.59
X155.43Y-61.13
X156.63Y-46.23
X156.63Y-48.77
X157.95Y-90.59
X157.97Y-61.13
X160.49Y-90.59
X160.51Y-61.13
T5
X104.82Y-84.605
X104.82Y-89.685
T0
M30
